<svg width="16" height="16" viewBox="0 0 16 16" fill="none" xmlns="http://www.w3.org/2000/svg">
<g clip-path="url(#clip0_555_15001)">
<path d="M1.06667 0H0V15.4667V16H0.530999C0.531777 16 0.532556 16 0.533334 16H15.4667C15.4674 16 15.4683 16 15.469 16H16V15.4677C16 15.4674 16 15.4681 16 15.4677V2.66667C16 2.43483 15.8502 2.22954 15.6294 2.15878C15.4086 2.08802 15.1675 2.16802 15.0326 2.35668L10.1228 9.23045L7.36 5.54667C7.25615 5.4082 7.09155 5.32874 6.91854 5.33355C6.74552 5.33835 6.58559 5.42682 6.48958 5.57083L1.06667 13.7052V0Z" fill="#FEFEFE"/>
</g>
<defs>
<clipPath id="clip0_555_15001">
<rect width="16" height="16" fill="white"/>
</clipPath>
</defs>
</svg>
