<svg width="24" height="24" viewBox="0 0 24 24" fill="none" xmlns="http://www.w3.org/2000/svg">
<path d="M22.7438 15.7407C22.5188 15.4875 22.2188 15.3563 21.9 15.3563C21.6375 15.3563 20.9813 15.45 20.6625 16.3032C20.5875 16.5188 20.5594 16.6313 20.4563 16.6219C20.2688 16.6032 19.5656 15.8438 19.3313 14.7282L18.75 12.0282C19.2094 11.2875 19.6781 10.7157 20.1469 10.3313C20.4 10.125 20.6813 10.0219 21.0281 10.0032C21.9188 9.93755 22.2375 9.83442 22.4531 9.67505C22.8094 9.41255 23.0156 9.03755 23.0156 8.61567C23.0156 8.24067 22.875 7.91255 22.6125 7.65942C22.3594 7.41567 22.0125 7.28442 21.6188 7.28442C21.0469 7.28442 20.4 7.54693 19.65 8.09067C19.2094 8.40942 18.7313 8.88755 18.225 9.5063C18.0563 8.88755 17.9156 8.6063 17.8125 8.42817C17.4844 7.8938 16.9594 7.8938 16.7906 7.8938H16.6031L11.2406 8.01567L11.5313 6.75005C11.7188 5.91567 11.9719 5.25005 12.2813 4.7813C12.4313 4.5563 12.6563 4.28442 12.9 4.28442C12.9938 4.28442 13.1719 4.2938 13.5 4.3688C14.4281 4.56567 14.775 4.5938 14.9531 4.5938C15.3469 4.5938 15.7031 4.46255 15.9656 4.20942C16.2375 3.94692 16.3875 3.60942 16.3875 3.22505C16.3875 2.92505 16.2844 2.4938 15.8156 2.12817C15.4875 1.87505 15.0469 1.75317 14.4938 1.75317C13.6688 1.75317 12.7875 2.01567 11.8781 2.54067C10.9781 3.0563 10.2375 3.77817 9.68438 4.6688C9.1875 5.4563 8.75625 6.56255 8.38125 8.03442H6.02813L5.5125 10.0875H7.875L6.075 17.3251C5.7 18.8251 5.42813 19.1907 5.35313 19.2657C5.14688 19.4719 4.73438 19.5188 4.41563 19.5188C4.02188 19.5188 3.60938 19.4907 3.16875 19.4344C2.86875 19.3969 2.64375 19.3782 2.475 19.3782C2.04375 19.3782 1.67813 19.4907 1.40625 19.7157C1.10625 19.9594 0.9375 20.3251 0.9375 20.7282C0.9375 21.0469 1.04062 21.4969 1.52812 21.8626C1.86562 22.1157 2.31563 22.2469 2.87813 22.2469C4.29375 22.2469 5.60625 21.6844 6.7875 20.5782C7.94063 19.5 8.78438 17.925 9.29063 15.8813L10.7156 10.0875L15.5719 10.1719L16.0969 12.4125L15.0375 13.9782C14.85 14.2594 14.5594 14.6063 14.1844 15.0094C13.9875 15.2251 13.8563 15.3376 13.7813 15.4032C13.4719 15.0282 13.125 14.8407 12.75 14.8407C12.3938 14.8407 12.075 14.9813 11.8219 15.2626C11.5781 15.5251 11.4563 15.8438 11.4563 16.2001C11.4563 16.6219 11.6438 17.0063 11.9813 17.2969C12.3 17.5594 12.6844 17.7001 13.1438 17.7001C13.7063 17.7001 14.2781 17.4844 14.85 17.0626C15.3281 16.7063 15.9469 16.0126 16.725 14.925C17.2313 16.3782 17.9438 17.3063 18.2813 17.7001C18.8156 18.3188 19.6875 18.6844 20.6063 18.6844C21.3844 18.6844 21.825 18.3563 22.2094 18.0657L22.2469 18.0375C22.9313 17.5313 23.0719 16.9782 23.0719 16.6032C23.0625 16.2751 22.95 15.975 22.7438 15.7407Z" fill="#FEFEFE"/>
</svg>
