<svg width="24" height="24" viewBox="0 0 24 24" fill="none" xmlns="http://www.w3.org/2000/svg">
<g clip-path="url(#clip0_238_10295)">
<path d="M21.2812 8.54063C21.4781 8.54063 21.6375 8.38125 21.6375 8.19375C21.6375 8.00625 21.4781 7.84688 21.2812 7.84688H15.9281V2.67188C15.9281 2.48438 15.7688 2.325 15.5719 2.325C15.375 2.325 15.2156 2.48438 15.2156 2.67188V7.85625H8.78437V2.67188C8.78437 2.48438 8.625 2.325 8.42813 2.325C8.23125 2.325 8.07187 2.48438 8.07187 2.67188V7.85625H2.71875C2.52188 7.85625 2.3625 8.01563 2.3625 8.20313C2.3625 8.39063 2.52188 8.55 2.71875 8.55H8.07187V14.775H2.71875C2.52188 14.775 2.3625 14.9344 2.3625 15.1219C2.3625 15.3094 2.52188 15.4688 2.71875 15.4688H8.07187V21.3469C8.07187 21.5344 8.23125 21.6938 8.42813 21.6938C8.625 21.6938 8.78437 21.5344 8.78437 21.3469V15.4688H15.2062V21.3469C15.2062 21.5344 15.3656 21.6938 15.5625 21.6938C15.7594 21.6938 15.9188 21.5344 15.9188 21.3469V15.4688H21.2812C21.4781 15.4688 21.6375 15.3094 21.6375 15.1219C21.6375 14.9344 21.4781 14.775 21.2812 14.775H15.9281V8.54063H21.2812ZM15.2156 14.7656H8.78437V8.54063H15.2062L15.2156 14.7656ZM23.0625 22.0313V1.97813C23.0625 1.40625 22.5844 0.9375 21.9938 0.9375H2.00625C1.41562 0.9375 0.9375 1.40625 0.9375 1.97813V22.0313C0.9375 22.6031 1.41562 23.0719 2.00625 23.0719H21.9938C22.5844 23.0625 23.0625 22.6031 23.0625 22.0313ZM1.65 22.0313V1.97813C1.65 1.79063 1.80937 1.63125 2.00625 1.63125H21.9938C22.1906 1.63125 22.35 1.79063 22.35 1.97813V22.0313C22.35 22.2188 22.1906 22.3781 21.9938 22.3781H2.00625C1.80937 22.3688 1.65 22.2188 1.65 22.0313Z" fill="#FEFEFE"/>
</g>
<defs>
<clipPath id="clip0_238_10295">
<rect width="24" height="24" fill="white"/>
</clipPath>
</defs>
</svg>
