<svg width="24" height="24" viewBox="0 0 24 24" fill="none" xmlns="http://www.w3.org/2000/svg">
<g clip-path="url(#clip0_231_17430)">
<path d="M10.7198 9.93333C11.1192 9.7359 11.5367 9.57739 11.9665 9.46L9.29983 2.28C9.20512 2.02483 9.03458 1.80476 8.81112 1.64935C8.58767 1.49394 8.32201 1.41064 8.04983 1.41064C7.77765 1.41064 7.51199 1.49394 7.28854 1.64935C7.06508 1.80476 6.89455 2.02483 6.79983 2.28L1.33316 16.84C1.25118 17.0455 1.22164 17.2683 1.24722 17.4881C1.2728 17.7079 1.35269 17.9179 1.47968 18.0991C1.60668 18.2804 1.77678 18.4271 1.97466 18.5262C2.17254 18.6253 2.39197 18.6736 2.61316 18.6667H7.23983C7.07854 18.2354 6.96236 17.7886 6.89316 17.3333H2.61316L8.03983 2.74666L10.7198 9.93333Z" fill="#FEFEFE"/>
<path d="M21.3335 6H14.6668C14.3132 6 13.9741 6.14048 13.724 6.39052C13.474 6.64057 13.3335 6.97971 13.3335 7.33333V9.23333C13.4868 9.23333 13.6402 9.23333 13.7935 9.23333C14.085 9.22626 14.3767 9.23739 14.6668 9.26667V7.33333H21.3335V14H20.4335C20.5771 14.4335 20.6776 14.8801 20.7335 15.3333H21.3335C21.6871 15.3333 22.0263 15.1929 22.2763 14.9428C22.5264 14.6928 22.6668 14.3536 22.6668 14V7.33333C22.6668 6.97971 22.5264 6.64057 22.2763 6.39052C22.0263 6.14048 21.6871 6 21.3335 6Z" fill="#FEFEFE"/>
<path d="M13.7931 10.54C12.6724 10.54 11.5768 10.8724 10.6449 11.495C9.71302 12.1177 8.98671 13.0027 8.55782 14.0382C8.12892 15.0736 8.0167 16.213 8.23535 17.3122C8.454 18.4114 8.9937 19.4211 9.7862 20.2136C10.5787 21.0061 11.5884 21.5458 12.6876 21.7645C13.7868 21.9831 14.9262 21.8709 15.9617 21.442C16.9971 21.0131 17.8821 20.2868 18.5048 19.3549C19.1275 18.4231 19.4598 17.3275 19.4598 16.2067C19.458 14.7044 18.8604 13.264 17.7981 12.2017C16.7358 11.1394 15.2955 10.5418 13.7931 10.54ZM13.7931 20.54C12.9361 20.54 12.0983 20.2859 11.3857 19.8097C10.673 19.3336 10.1176 18.6568 9.78966 17.865C9.46168 17.0732 9.37586 16.2019 9.54306 15.3613C9.71027 14.5207 10.123 13.7486 10.729 13.1426C11.335 12.5365 12.1072 12.1238 12.9477 11.9566C13.7883 11.7894 14.6596 11.8752 15.4514 12.2032C16.2432 12.5312 16.92 13.0866 17.3962 13.7992C17.8723 14.5118 18.1265 15.3497 18.1265 16.2067C18.1247 17.3554 17.6676 18.4566 16.8553 19.2689C16.043 20.0812 14.9419 20.5383 13.7931 20.54Z" fill="#FEFEFE"/>
</g>
<defs>
<clipPath id="clip0_231_17430">
<rect width="24" height="24" fill="white"/>
</clipPath>
</defs>
</svg>
