<svg width="20" height="20" viewBox="0 0 20 20" fill="none" xmlns="http://www.w3.org/2000/svg">
<path d="M6.52717 2.58327C6.68184 2.58327 6.83016 2.64471 6.93953 2.75407C7.04889 2.86343 7.11033 3.01176 7.11033 3.16643V5.05064C7.61148 5.18052 8.05531 5.47314 8.37215 5.88257C8.68899 6.29199 8.8609 6.79504 8.8609 7.31274C8.8609 7.83045 8.68899 8.3335 8.37215 8.74292C8.05531 9.15235 7.61148 9.44497 7.11033 9.57485V16.8338C7.11033 16.9885 7.04889 17.1368 6.93953 17.2462C6.83016 17.3555 6.68184 17.417 6.52717 17.417C6.37251 17.417 6.22418 17.3555 6.11482 17.2462C6.00545 17.1368 5.94401 16.9885 5.94401 16.8338V9.57485C5.4424 9.44533 4.99805 9.15279 4.6808 8.74323C4.36356 8.33366 4.19141 7.83028 4.19141 7.31222C4.19141 6.79415 4.36356 6.29078 4.6808 5.88121C4.99805 5.47164 5.4424 5.17911 5.94401 5.04959V3.16643C5.94401 3.08985 5.9591 3.01401 5.9884 2.94326C6.01771 2.87251 6.06067 2.80822 6.11482 2.75407C6.16897 2.69992 6.23326 2.65697 6.30401 2.62766C6.37476 2.59835 6.45059 2.58327 6.52717 2.58327ZM10.4219 2.58327C10.5766 2.58327 10.7249 2.64471 10.8343 2.75407C10.9436 2.86343 11.0051 3.01176 11.0051 3.16643V10.5401C11.5062 10.67 11.95 10.9626 12.2669 11.372C12.5837 11.7815 12.7556 12.2845 12.7556 12.8022C12.7556 13.3199 12.5837 13.823 12.2669 14.2324C11.95 14.6418 11.5062 14.9344 11.0051 15.0643V16.8327C11.0051 16.9874 10.9436 17.1357 10.8343 17.2451C10.7249 17.3545 10.5766 17.4159 10.4219 17.4159C10.2672 17.4159 10.1189 17.3545 10.0096 17.2451C9.90019 17.1357 9.83875 16.9874 9.83875 16.8327V15.0643C9.3376 14.9344 8.89377 14.6418 8.57693 14.2324C8.26009 13.823 8.08818 13.3199 8.08818 12.8022C8.08818 12.2845 8.26009 11.7815 8.57693 11.372C8.89377 10.9626 9.3376 10.67 9.83875 10.5401V3.16643C9.83875 3.01176 9.90019 2.86343 10.0096 2.75407C10.1189 2.64471 10.2672 2.58327 10.4219 2.58327ZM14.3166 2.58327C14.3933 2.58313 14.4693 2.59811 14.5401 2.62736C14.611 2.6566 14.6754 2.69953 14.7297 2.7537C14.7839 2.80786 14.827 2.8722 14.8564 2.94302C14.8857 3.01384 14.9009 3.08976 14.9009 3.16643V5.05064C15.402 5.18052 15.8458 5.47314 16.1627 5.88257C16.4795 6.29199 16.6514 6.79504 16.6514 7.31274C16.6514 7.83045 16.4795 8.3335 16.1627 8.74292C15.8458 9.15235 15.402 9.44497 14.9009 9.57485V16.8338C14.9009 16.9886 14.8394 17.1371 14.7299 17.2465C14.6204 17.356 14.472 17.4175 14.3172 17.4175C14.1624 17.4175 14.0139 17.356 13.9044 17.2465C13.795 17.1371 13.7335 16.9886 13.7335 16.8338V9.57485C13.2319 9.44533 12.7875 9.15279 12.4703 8.74323C12.153 8.33366 11.9809 7.83028 11.9809 7.31222C11.9809 6.79415 12.153 6.29078 12.4703 5.88121C12.7875 5.47164 13.2319 5.17911 13.7335 5.04959V3.16643C13.7335 3.01176 13.7949 2.86343 13.9043 2.75407C14.0137 2.64471 14.162 2.58327 14.3166 2.58327ZM10.4219 11.6327C10.1909 11.633 9.96515 11.7016 9.77317 11.8301C9.58118 11.9586 9.43159 12.1411 9.34328 12.3545C9.25498 12.568 9.23193 12.8028 9.27704 13.0294C9.32216 13.2559 9.43342 13.464 9.59676 13.6274C9.76011 13.7907 9.9682 13.902 10.1948 13.9471C10.4213 13.9922 10.6562 13.9692 10.8696 13.8808C11.0831 13.7925 11.2656 13.6429 11.394 13.451C11.5225 13.259 11.5912 13.0332 11.5914 12.8022C11.5908 12.4925 11.4675 12.1956 11.2485 11.9766C11.0295 11.7576 10.7327 11.6344 10.423 11.6338L10.4219 11.6327ZM6.52717 6.14327C6.29578 6.14306 6.06953 6.2115 5.87705 6.33992C5.68457 6.46835 5.53451 6.65098 5.44587 6.86472C5.35722 7.07845 5.33398 7.31368 5.37907 7.54064C5.42416 7.76759 5.53556 7.97607 5.69918 8.13969C5.86279 8.3033 6.07127 8.41471 6.29822 8.4598C6.52518 8.50489 6.76041 8.48164 6.97414 8.39299C7.18788 8.30435 7.37052 8.15429 7.49894 7.96181C7.62736 7.76933 7.6958 7.54308 7.69559 7.31169C7.69504 7.00198 7.57176 6.70511 7.35276 6.48611C7.13375 6.26711 6.83689 6.14383 6.52717 6.14327ZM14.3166 6.14327C14.0853 6.14327 13.8592 6.21188 13.6668 6.34043C13.4745 6.46898 13.3246 6.65169 13.2361 6.86545C13.1476 7.0792 13.1245 7.3144 13.1697 7.54128C13.2149 7.76817 13.3264 7.97655 13.4901 8.14006C13.6537 8.30357 13.8622 8.41487 14.0891 8.45987C14.3161 8.50488 14.5512 8.48157 14.7649 8.39289C14.9786 8.30422 15.1612 8.15416 15.2895 7.9617C15.4179 7.76924 15.4863 7.54304 15.4861 7.31169C15.4856 7.00198 15.3623 6.70511 15.1433 6.48611C14.9243 6.26711 14.6274 6.14383 14.3177 6.14327H14.3166Z" fill="#FEFEFE"/>
</svg>
