<svg width="20" height="20" viewBox="0 0 20 20" fill="none" xmlns="http://www.w3.org/2000/svg">
<path d="M4.50817 3.33341H6.6665C6.88752 3.33341 7.09948 3.24562 7.25576 3.08934C7.41204 2.93306 7.49984 2.7211 7.49984 2.50008C7.49984 2.27907 7.41204 2.06711 7.25576 1.91083C7.09948 1.75455 6.88752 1.66675 6.6665 1.66675H3.33317C2.89114 1.66675 2.46722 1.84234 2.15466 2.1549C1.8421 2.46746 1.6665 2.89139 1.6665 3.33341V6.66675C1.6665 6.88776 1.7543 7.09972 1.91058 7.256C2.06686 7.41228 2.27882 7.50008 2.49984 7.50008C2.72085 7.50008 2.93281 7.41228 3.08909 7.256C3.24537 7.09972 3.33317 6.88776 3.33317 6.66675V4.50841L6.90817 8.09175C6.98564 8.16985 7.07781 8.23185 7.17936 8.27416C7.28091 8.31646 7.38983 8.33825 7.49984 8.33825C7.60985 8.33825 7.71877 8.31646 7.82032 8.27416C7.92187 8.23185 8.01403 8.16985 8.0915 8.09175C8.16961 8.01428 8.23161 7.92211 8.27391 7.82056C8.31622 7.71901 8.338 7.61009 8.338 7.50008C8.338 7.39007 8.31622 7.28115 8.27391 7.1796C8.23161 7.07805 8.16961 6.98588 8.0915 6.90841L4.50817 3.33341Z" fill="#FEFEFE"/>
<path d="M16.6665 1.66675H13.3331C13.1121 1.66675 12.9001 1.75455 12.7439 1.91083C12.5876 2.06711 12.4998 2.27907 12.4998 2.50008C12.4998 2.7211 12.5876 2.93306 12.7439 3.08934C12.9001 3.24562 13.1121 3.33341 13.3331 3.33341H15.4915L11.9081 6.90841C11.83 6.98588 11.768 7.07805 11.7257 7.1796C11.6834 7.28115 11.6616 7.39007 11.6616 7.50008C11.6616 7.61009 11.6834 7.71901 11.7257 7.82056C11.768 7.92211 11.83 8.01428 11.9081 8.09175C11.9856 8.16985 12.0778 8.23185 12.1793 8.27416C12.2809 8.31646 12.3898 8.33825 12.4998 8.33825C12.6098 8.33825 12.7187 8.31646 12.8203 8.27416C12.9218 8.23185 13.014 8.16985 13.0915 8.09175L16.6665 4.50841V6.66675C16.6665 6.88776 16.7542 7.09972 16.9105 7.256C17.0668 7.41228 17.2788 7.50008 17.4998 7.50008C17.7208 7.50008 17.9328 7.41228 18.089 7.256C18.2453 7.09972 18.3331 6.88776 18.3331 6.66675V3.33341C18.3331 2.89139 18.1575 2.46746 17.845 2.1549C17.5324 1.84234 17.1085 1.66675 16.6665 1.66675Z" fill="#FEFEFE"/>
<path d="M6.90817 11.9084L3.33317 15.4917V13.3334C3.33317 13.1124 3.24537 12.9004 3.08909 12.7442C2.93281 12.5879 2.72085 12.5001 2.49984 12.5001C2.27882 12.5001 2.06686 12.5879 1.91058 12.7442C1.7543 12.9004 1.6665 13.1124 1.6665 13.3334V16.6667C1.6665 17.1088 1.8421 17.5327 2.15466 17.8453C2.46722 18.1578 2.89114 18.3334 3.33317 18.3334H6.6665C6.88752 18.3334 7.09948 18.2456 7.25576 18.0893C7.41204 17.933 7.49984 17.7211 7.49984 17.5001C7.49984 17.2791 7.41204 17.0671 7.25576 16.9108C7.09948 16.7545 6.88752 16.6667 6.6665 16.6667H4.50817L8.0915 13.0917C8.24842 12.9348 8.33658 12.722 8.33658 12.5001C8.33658 12.2782 8.24842 12.0653 8.0915 11.9084C7.93458 11.7515 7.72176 11.6633 7.49984 11.6633C7.27792 11.6633 7.06509 11.7515 6.90817 11.9084Z" fill="#FEFEFE"/>
<path d="M17.4998 12.5001C17.2788 12.5001 17.0669 12.5879 16.9106 12.7442C16.7543 12.9004 16.6665 13.1124 16.6665 13.3334V15.4917L13.0915 11.9084C12.9346 11.7515 12.7217 11.6633 12.4998 11.6633C12.2779 11.6633 12.0651 11.7515 11.9082 11.9084C11.7512 12.0653 11.6631 12.2782 11.6631 12.5001C11.6631 12.722 11.7512 12.9348 11.9082 13.0917L15.4915 16.6667H13.3332C13.1121 16.6667 12.9002 16.7545 12.7439 16.9108C12.5876 17.0671 12.4998 17.2791 12.4998 17.5001C12.4998 17.7211 12.5876 17.933 12.7439 18.0893C12.9002 18.2456 13.1121 18.3334 13.3332 18.3334H16.6665C17.1085 18.3334 17.5324 18.1578 17.845 17.8453C18.1576 17.5327 18.3332 17.1088 18.3332 16.6667V13.3334C18.3332 13.1124 18.2454 12.9004 18.0891 12.7442C17.9328 12.5879 17.7208 12.5001 17.4998 12.5001Z" fill="#FEFEFE"/>
</svg>
