<svg width="20" height="20" viewBox="0 0 20 20" fill="none" xmlns="http://www.w3.org/2000/svg">
    <path d="M6.25 3.74984H6.04167V1.6665C6.04167 1.32484 5.75833 1.0415 5.41667 1.0415C5.075 1.0415 4.79167 1.32484 4.79167 1.6665V3.74984H4.58333C3.25833 3.74984 2.5 4.50817 2.5 5.83317V10.8332C2.5 12.1582 3.25833 12.9165 4.58333 12.9165H4.79167V18.3332C4.79167 18.6748 5.075 18.9582 5.41667 18.9582C5.75833 18.9582 6.04167 18.6748 6.04167 18.3332V12.9165H6.25C7.575 12.9165 8.33333 12.1582 8.33333 10.8332V5.83317C8.33333 4.50817 7.575 3.74984 6.25 3.74984Z" fill="#27AE60"/>
    <path d="M15.417 7.08317H15.2087V1.6665C15.2087 1.32484 14.9253 1.0415 14.5837 1.0415C14.242 1.0415 13.9587 1.32484 13.9587 1.6665V7.08317H13.7503C12.4253 7.08317 11.667 7.8415 11.667 9.1665V14.1665C11.667 15.4915 12.4253 16.2498 13.7503 16.2498H13.9587V18.3332C13.9587 18.6748 14.242 18.9582 14.5837 18.9582C14.9253 18.9582 15.2087 18.6748 15.2087 18.3332V16.2498H15.417C16.742 16.2498 17.5003 15.4915 17.5003 14.1665V9.1665C17.5003 7.8415 16.742 7.08317 15.417 7.08317Z" fill="#EC3036"/>
</svg>
