<svg width="12" height="12" viewBox="0 0 12 12" fill="none" xmlns="http://www.w3.org/2000/svg">
    <path opacity="0.157" fill-rule="evenodd" clip-rule="evenodd" d="M6.41459 0.8424C6.064 0.82583 5.72254 0.842849 5.3902 0.893464C5.24385 0.893464 5.09751 0.893464 4.95117 0.893464C5.24064 0.818758 5.54146 0.784713 5.85361 0.791336C6.04946 0.791398 6.23649 0.808417 6.41459 0.8424Z" fill="#917E59"/>
    <path opacity="0.373" fill-rule="evenodd" clip-rule="evenodd" d="M4.90265 0.893555C4.89724 0.925081 4.88099 0.950613 4.85387 0.97015C4.64068 1.00779 4.4293 1.05034 4.21973 1.09781C4.42971 0.98311 4.65735 0.915027 4.90265 0.893555Z" fill="#B1A179"/>
    <path opacity="0.988" fill-rule="evenodd" clip-rule="evenodd" d="M5.39062 0.89362C5.72297 0.843006 6.06443 0.825986 6.41502 0.842556C6.68897 0.850502 6.94911 0.901566 7.1955 0.995748C7.37028 1.09075 7.54911 1.17586 7.73209 1.25107C7.68331 1.25107 7.63453 1.25107 7.58575 1.25107C7.2956 1.15209 7.00292 1.05847 6.7077 0.970216C6.57862 0.944817 6.44853 0.936304 6.31745 0.944684C6.01287 0.895775 5.70394 0.87875 5.39062 0.89362Z" fill="#BAA468"/>
    <path fill-rule="evenodd" clip-rule="evenodd" d="M5.39027 0.893383C5.70358 0.878513 6.01251 0.895538 6.3171 0.944447C6.22719 0.984425 6.12963 1.01846 6.02441 1.04657C5.97729 1.14339 5.96105 1.24552 5.97563 1.35296C5.531 1.3626 5.09197 1.42218 4.65856 1.53168C4.5134 1.56767 4.38333 1.62724 4.26832 1.7104C4.21954 1.7104 4.17076 1.7104 4.12198 1.7104C4.0637 1.69174 4.03118 1.64918 4.02441 1.58274C4.07677 1.51043 4.07677 1.44234 4.02441 1.37849C4.0662 1.3433 4.09872 1.30075 4.12198 1.25083C4.38063 1.20847 4.64079 1.18294 4.90246 1.17423C5.04827 1.03855 5.21085 0.944932 5.39027 0.893383Z" fill="#E5CA72"/>
    <path fill-rule="evenodd" clip-rule="evenodd" d="M6.31734 0.944524C6.44841 0.936144 6.57851 0.944657 6.70758 0.970056C7.0028 1.05831 7.29548 1.15193 7.58563 1.25091C7.65787 1.29795 7.7229 1.35752 7.78075 1.42963C7.7468 1.52628 7.70612 1.6199 7.6588 1.71048C7.61002 1.65942 7.56124 1.60835 7.51246 1.55729C7.46177 1.59527 7.43738 1.64634 7.43929 1.71048C7.11421 1.55566 6.77275 1.49608 6.4149 1.53176C6.33851 1.56282 6.27343 1.60537 6.21977 1.65942C5.88543 1.64287 5.56021 1.65989 5.24416 1.71048C5.03441 1.72349 4.83927 1.77455 4.6588 1.86367C4.62628 1.86367 4.59376 1.86367 4.56124 1.86367C4.47921 1.78669 4.38165 1.73563 4.26855 1.71048C4.38356 1.62732 4.51364 1.56775 4.6588 1.53176C5.09221 1.42226 5.53124 1.36268 5.97587 1.35303C5.96129 1.2456 5.97753 1.14347 6.02465 1.04665C6.12987 1.01854 6.22743 0.984502 6.31734 0.944524Z" fill="#CCAA54"/>
    <path opacity="0.192" fill-rule="evenodd" clip-rule="evenodd" d="M7.19531 0.995605C7.84224 1.15542 8.41136 1.4618 8.90263 1.91475C8.52434 1.66578 8.13409 1.4445 7.7319 1.25092C7.54892 1.17571 7.37009 1.0906 7.19531 0.995605Z" fill="#7C6A45"/>
    <path fill-rule="evenodd" clip-rule="evenodd" d="M7.43924 1.71072C7.57119 1.77979 7.70129 1.84788 7.82948 1.91497C7.84929 1.9872 7.81675 2.04678 7.73192 2.0937C7.75904 2.11323 7.77529 2.13877 7.7807 2.17029C7.64265 2.08967 7.49631 2.02159 7.34168 1.96604C7.10217 2.25412 6.95582 2.56902 6.90265 2.91072C6.85797 2.92983 6.81729 2.95536 6.7807 2.98731C6.74217 3.20621 6.68529 3.41898 6.60997 3.62561C6.64763 3.68796 6.69641 3.73903 6.75631 3.7788C6.72734 3.80251 6.6948 3.81103 6.65875 3.80434C6.50319 3.78604 6.35685 3.752 6.21973 3.70221C6.24943 3.57744 6.3226 3.49234 6.43924 3.44689C6.48875 3.24569 6.51314 3.04143 6.51241 2.83412C6.57743 2.83412 6.64251 2.83412 6.70753 2.83412C6.7767 2.50626 6.84178 2.19137 6.90265 1.88944C6.79514 1.78416 6.66504 1.72459 6.51241 1.71072C6.40339 1.72577 6.30582 1.70875 6.21973 1.65965C6.27339 1.6056 6.33846 1.56305 6.41485 1.532C6.7727 1.49632 7.11417 1.55589 7.43924 1.71072Z" fill="#DDBF68"/>
    <path fill-rule="evenodd" clip-rule="evenodd" d="M4.9023 0.893555C4.91854 0.893555 4.93483 0.893555 4.95108 0.893555C5.09742 0.893555 5.24376 0.893555 5.3901 0.893555C5.21069 0.945104 5.0481 1.03872 4.9023 1.17441C4.64063 1.18311 4.38047 1.20864 4.12181 1.251C4.09855 1.30092 4.06604 1.34347 4.02425 1.37866C4.0766 1.44251 4.0766 1.5106 4.02425 1.58292C4.03101 1.64935 4.06354 1.69191 4.12181 1.71058C3.66749 1.94844 3.24473 2.2378 2.85352 2.57866C2.86388 2.27305 3.01022 2.11136 3.29254 2.09355C3.37179 2.05002 3.38806 1.99896 3.34132 1.94036C3.45292 1.75107 3.55048 1.55532 3.634 1.35313C3.80391 1.21338 3.99903 1.12827 4.21937 1.09781C4.42894 1.05034 4.64033 1.00779 4.85352 0.97015C4.88064 0.950613 4.89688 0.925081 4.9023 0.893555Z" fill="#EED78C"/>
    <path fill-rule="evenodd" clip-rule="evenodd" d="M5.24416 1.7105C5.56021 1.65991 5.88543 1.64289 6.21977 1.65944C6.30587 1.70853 6.40343 1.72555 6.51246 1.7105C6.47685 1.78939 6.41182 1.83195 6.31734 1.83816C6.43885 1.87012 6.43885 1.91268 6.31734 1.96582C6.34373 2.06912 6.31934 2.17125 6.24416 2.2722C6.26563 2.52064 6.17621 2.69937 5.97587 2.80837C6.00134 2.83704 6.01758 2.87108 6.02465 2.9105C5.97416 2.97554 5.91724 3.03512 5.85392 3.08922C5.82958 3.27569 5.82148 3.46292 5.82953 3.65093C5.59231 3.63461 5.36465 3.65164 5.1466 3.70199C4.85392 3.70199 4.56124 3.70199 4.26855 3.70199C4.28522 3.65919 4.31774 3.64216 4.36612 3.65093C4.63489 3.6678 4.89504 3.63375 5.1466 3.5488C5.14592 3.24526 5.22724 2.97293 5.39051 2.73178C5.43055 2.58132 5.45494 2.42813 5.46368 2.2722C5.54587 2.19471 5.61904 2.10961 5.68319 2.01688C5.63021 1.77595 5.48387 1.67382 5.24416 1.7105Z" fill="#EDD57F"/>
    <path fill-rule="evenodd" clip-rule="evenodd" d="M6.51234 1.71045C6.66497 1.72432 6.79507 1.78389 6.90258 1.88917C6.8417 2.1911 6.77663 2.50599 6.70746 2.83385C6.64244 2.83385 6.57736 2.83385 6.51234 2.83385C6.51307 3.04116 6.48868 3.24542 6.43917 3.44662C6.32253 3.49207 6.24936 3.57717 6.21966 3.70194C5.86195 3.70194 5.50419 3.70194 5.14648 3.70194C5.36453 3.65158 5.59219 3.63456 5.82941 3.65087C5.82136 3.46287 5.82946 3.27564 5.8538 3.08917C5.91712 3.03507 5.97405 2.97549 6.02453 2.91045C6.01746 2.87103 6.00122 2.83698 5.97575 2.80832C6.17609 2.69932 6.26551 2.52059 6.24405 2.27215C6.31922 2.1712 6.34361 2.06907 6.31722 1.96577C6.43873 1.91263 6.43873 1.87007 6.31722 1.83811C6.4117 1.8319 6.47673 1.78934 6.51234 1.71045Z" fill="#E3C76F"/>
    <path opacity="0.447" fill-rule="evenodd" clip-rule="evenodd" d="M2.90211 1.81299C2.8492 1.91955 2.7679 1.98764 2.6582 2.01724C2.71111 1.91068 2.79241 1.8426 2.90211 1.81299Z" fill="#9C9378"/>
    <path fill-rule="evenodd" clip-rule="evenodd" d="M7.58492 1.25098C7.6337 1.25098 7.68248 1.25098 7.73126 1.25098C8.13346 1.44455 8.5237 1.66583 8.90199 1.91481C8.91824 1.91481 8.93453 1.91481 8.95078 1.91481C8.95078 1.94885 8.95078 1.98289 8.95078 2.01693C8.85351 1.97355 8.75595 1.94801 8.65809 1.94034C8.6878 2.04543 8.73658 2.08798 8.80443 2.068C8.75565 2.13608 8.70687 2.20417 8.65809 2.27225C8.67497 2.33331 8.69936 2.33331 8.73126 2.27225C8.76136 2.32072 8.75326 2.36327 8.70687 2.39991C8.73941 2.41693 8.7719 2.43396 8.80443 2.45098C8.75975 2.46519 8.72726 2.49072 8.70687 2.52757C8.44634 2.27212 8.15365 2.06787 7.82882 1.91481C7.70063 1.84771 7.57053 1.77963 7.43858 1.71055C7.43668 1.6464 7.46107 1.59534 7.51175 1.55736C7.56053 1.60842 7.60931 1.65949 7.65809 1.71055C7.70541 1.61997 7.74609 1.52635 7.78004 1.4297C7.72219 1.35759 7.65717 1.29802 7.58492 1.25098Z" fill="#B99740"/>
    <path fill-rule="evenodd" clip-rule="evenodd" d="M7.78011 2.17008C7.82889 2.1871 7.86142 2.22114 7.87767 2.2722C7.80342 2.31975 7.7384 2.37933 7.68255 2.45093C7.55494 2.8712 7.37606 3.26269 7.14596 3.62539C7.1622 3.64241 7.1785 3.65944 7.19474 3.67646C7.02679 3.68776 7.01055 3.73882 7.14596 3.82965C6.89128 3.85734 6.89128 3.89989 7.14596 3.95731C7.16367 3.99221 7.17991 4.02625 7.19474 4.05944C7.12972 4.04242 7.06464 4.02539 6.99962 4.00837C6.89216 3.92666 6.77835 3.85858 6.65816 3.80412C6.6942 3.81081 6.72674 3.8023 6.75572 3.77859C6.69581 3.73881 6.64703 3.68774 6.60938 3.62539C6.68469 3.41876 6.74157 3.20599 6.78011 2.9871C6.81669 2.95514 6.85737 2.92961 6.90206 2.9105C6.95523 2.5688 7.10157 2.25391 7.34108 1.96582C7.49572 2.02137 7.64206 2.08945 7.78011 2.17008Z" fill="#D3B35C"/>
    <path fill-rule="evenodd" clip-rule="evenodd" d="M3.63398 1.35303C3.55045 1.55522 3.45289 1.75097 3.3413 1.94026C3.38803 1.99886 3.37177 2.04992 3.29252 2.09345C3.01019 2.11125 2.86385 2.27295 2.85349 2.57856C2.63626 2.78852 2.4574 3.02681 2.31691 3.29345C2.118 3.52242 1.9554 3.77774 1.8291 4.05941C1.92514 3.78957 2.0227 3.51724 2.12178 3.24239C2.17056 3.24239 2.21935 3.24239 2.26813 3.24239C2.26813 3.17431 2.26813 3.10622 2.26813 3.03813C2.19604 3.05151 2.13099 3.03449 2.073 2.98707C2.12185 2.85057 2.19502 2.73142 2.29252 2.62962C2.31642 2.56359 2.32455 2.4955 2.31691 2.42537C2.43073 2.2892 2.54455 2.15303 2.65837 2.01686C2.76807 1.98725 2.84936 1.91917 2.90227 1.8126C3.12152 1.62105 3.36542 1.46785 3.63398 1.35303Z" fill="#F2E2A6"/>
    <path opacity="0.243" fill-rule="evenodd" clip-rule="evenodd" d="M2.65861 2.01709C2.54479 2.15326 2.43096 2.28943 2.31714 2.4256C2.23584 2.49368 2.15454 2.56177 2.07324 2.62986C2.21958 2.37454 2.41471 2.17028 2.65861 2.01709Z" fill="#89846E"/>
    <path fill-rule="evenodd" clip-rule="evenodd" d="M5.24426 1.71039C5.48397 1.67372 5.63031 1.77584 5.68328 2.01678C5.61914 2.1095 5.54597 2.19461 5.46377 2.2721C5.45504 2.42802 5.43065 2.58121 5.3906 2.73167C5.22733 2.97282 5.14602 3.24516 5.1467 3.54869C4.89514 3.63365 4.63498 3.66769 4.36621 3.65082C4.437 3.53386 4.5183 3.42322 4.61011 3.3189C4.57366 3.07647 4.64684 2.86371 4.82963 2.68061C4.84588 2.54444 4.86215 2.40827 4.87841 2.2721C4.95216 2.23346 5.01724 2.18239 5.07353 2.1189C5.10363 2.07044 5.09553 2.02788 5.04914 1.99125C5.08167 1.97423 5.11416 1.9572 5.1467 1.94018C5.05202 1.90225 4.9626 1.91076 4.87841 1.96571C4.81354 1.91045 4.74037 1.87641 4.65889 1.86359C4.83937 1.77446 5.0345 1.7234 5.24426 1.71039Z" fill="#F2DE95"/>
    <path fill-rule="evenodd" clip-rule="evenodd" d="M8.95117 1.91504C9.21429 2.1393 9.44195 2.39462 9.6341 2.681C9.434 2.67387 9.29576 2.57175 9.21946 2.37461C9.20322 2.39163 9.18693 2.40866 9.17068 2.42568C9.11659 2.27547 9.04342 2.1393 8.95117 2.01717C8.95117 1.98312 8.95117 1.94908 8.95117 1.91504Z" fill="#947941"/>
    <path fill-rule="evenodd" clip-rule="evenodd" d="M2.02422 7.48071C1.90173 7.22402 1.83669 6.95164 1.8291 6.66369C1.87307 6.70403 1.90558 6.7551 1.92666 6.81688C1.94798 6.98841 1.99676 7.15013 2.073 7.30199C2.08926 7.31052 2.10553 7.31899 2.12178 7.32752C2.18311 7.14461 2.27255 7.11055 2.39008 7.22539C2.54081 7.01185 2.63837 6.77353 2.68276 6.5105C2.69902 6.52751 2.71528 6.54456 2.73154 6.56156C2.79032 6.06333 2.96105 5.60376 3.24374 5.18284C3.22748 5.14878 3.21121 5.11477 3.19496 5.08071C3.2662 4.92969 3.36377 4.80203 3.48764 4.69774C3.46218 4.66907 3.44592 4.63503 3.43886 4.59561C3.47981 4.5358 3.52046 4.47623 3.56081 4.41688C3.59687 4.13787 3.6863 3.88255 3.8291 3.65093C3.89557 3.72136 3.94435 3.71285 3.97544 3.62539C3.95567 3.57712 3.92315 3.54307 3.87788 3.52327C3.94031 3.41441 3.94031 3.30377 3.87788 3.19135C4.08121 2.94449 4.22755 2.66364 4.31691 2.3488C4.30984 2.30938 4.29358 2.27533 4.26813 2.24667C4.11381 2.24136 3.96747 2.23285 3.8291 2.22114C3.87855 2.16121 3.94359 2.12716 4.02422 2.11901C4.26671 2.11678 4.49435 2.06571 4.70715 1.96582C4.71444 2.01954 4.70631 2.0706 4.68276 2.11901C4.52889 2.21909 4.47198 2.35526 4.51203 2.52752C4.39284 2.73461 4.29528 2.95589 4.21935 3.19135C4.22099 3.36853 4.15596 3.53023 4.02422 3.67646C3.98915 3.8522 3.90785 4.02242 3.78032 4.1871C3.82994 4.24069 3.83807 4.30026 3.80471 4.36582C3.63923 4.51448 3.58233 4.69321 3.63398 4.90199C3.47359 5.11018 3.31912 5.32296 3.17057 5.54029C3.21564 5.7186 3.17499 5.88032 3.04861 6.02539C3.08127 6.22807 3.01623 6.39831 2.85349 6.53603C2.79813 6.93392 2.65179 7.28284 2.41447 7.58284C2.35539 7.64514 2.35539 7.70473 2.41447 7.76156C2.36259 7.82223 2.29756 7.84776 2.21935 7.83816C2.17012 7.708 2.12947 7.57186 2.09739 7.42965C2.07873 7.45804 2.05434 7.47505 2.02422 7.48071Z" fill="#F5E6AB"/>
    <path fill-rule="evenodd" clip-rule="evenodd" d="M8.26784 2.52783C8.4116 2.59322 8.52545 2.69535 8.6093 2.83421C8.60852 3.08452 8.51906 3.28878 8.34101 3.44698C8.24755 3.8572 8.1175 4.24869 7.95077 4.62145C7.90989 4.5449 7.86925 4.52788 7.82882 4.57039C7.78028 4.4335 7.68272 4.3569 7.53613 4.3406C7.65277 4.27378 7.65277 4.22271 7.53613 4.18741C7.5933 4.16603 7.64208 4.13199 7.68247 4.08528C7.64813 3.92266 7.63189 3.76096 7.63369 3.60017C7.70028 3.52659 7.77345 3.4585 7.85321 3.39592C7.9333 3.10993 8.01462 2.82058 8.09711 2.52783C8.15296 2.58831 8.20989 2.58831 8.26784 2.52783Z" fill="#BF9B43"/>
    <path fill-rule="evenodd" clip-rule="evenodd" d="M4.12153 1.71045C4.17031 1.71045 4.21909 1.71045 4.26787 1.71045C4.38097 1.7356 4.47853 1.78666 4.56056 1.86364C4.36558 1.91995 4.18672 2.00506 4.02397 2.11896C3.94334 2.12711 3.8783 2.16115 3.82885 2.22109C3.49311 2.40243 3.20043 2.64073 2.9508 2.93598C2.83698 3.03811 2.72316 3.14024 2.60934 3.24236C2.56056 3.24236 2.51178 3.24236 2.463 3.24236C2.47655 3.33665 2.44403 3.40474 2.36543 3.44662C2.32223 3.40449 2.30597 3.35343 2.31665 3.29343C2.45715 3.02679 2.636 2.78849 2.85324 2.57853C3.24445 2.23767 3.66721 1.94831 4.12153 1.71045Z" fill="#A07A2A"/>
    <path opacity="0.137" fill-rule="evenodd" clip-rule="evenodd" d="M2.07305 2.62988C2.04477 2.74472 1.97973 2.82982 1.87793 2.8852C1.90621 2.77037 1.97125 2.68527 2.07305 2.62988Z" fill="#8A8574"/>
    <path fill-rule="evenodd" clip-rule="evenodd" d="M7.8778 2.27246C8.02468 2.33217 8.15477 2.41728 8.26804 2.52778C8.21009 2.58825 8.15316 2.58825 8.09731 2.52778C8.01482 2.82052 7.9335 3.10988 7.85341 3.39587C7.77365 3.45845 7.70048 3.52654 7.6339 3.60012C7.63209 3.76091 7.64833 3.92261 7.68268 4.08523C7.64229 4.13194 7.59351 4.16598 7.53633 4.18735C7.65297 4.22266 7.65297 4.27372 7.53633 4.34055C7.68292 4.35685 7.78048 4.43345 7.82902 4.57033C7.79121 4.66675 7.79121 4.76887 7.82902 4.87672C7.65458 4.57477 7.44321 4.30243 7.19487 4.0597C7.18004 4.02651 7.1638 3.99247 7.14609 3.95757C6.89141 3.90015 6.89141 3.8576 7.14609 3.82991C7.01068 3.73908 7.02692 3.68802 7.19487 3.67672C7.17863 3.6597 7.16233 3.64267 7.14609 3.62565C7.37619 3.26295 7.55507 2.87146 7.68268 2.45118C7.73853 2.37959 7.80355 2.32001 7.8778 2.27246Z" fill="#CAA84F"/>
    <path fill-rule="evenodd" clip-rule="evenodd" d="M8.95089 2.01703C9.04313 2.13916 9.1163 2.27533 9.1704 2.42554C9.18664 2.40852 9.20293 2.39149 9.21918 2.37447C9.29547 2.5716 9.43372 2.67373 9.63381 2.68086C9.64864 2.83913 9.71367 2.96679 9.82893 3.06383C9.80181 3.08337 9.78557 3.1089 9.78015 3.14043C9.70928 3.20808 9.72557 3.25064 9.82893 3.26809C9.71933 3.33332 9.62176 3.40992 9.53625 3.49788C9.29415 3.14561 9.01772 2.82221 8.70698 2.52766C8.72737 2.49082 8.75986 2.46528 8.80454 2.45107C8.77201 2.43405 8.73952 2.41702 8.70698 2.4C8.75337 2.36337 8.76147 2.32081 8.73137 2.27234C8.69947 2.3334 8.67508 2.3334 8.6582 2.27234C8.70698 2.20426 8.75576 2.13617 8.80454 2.06809C8.73669 2.08808 8.68791 2.04552 8.6582 1.94043C8.75606 1.9481 8.85362 1.97364 8.95089 2.01703Z" fill="#AD852E"/>
    <path fill-rule="evenodd" clip-rule="evenodd" d="M3.8292 2.22119C3.96757 2.23291 4.11391 2.24141 4.26822 2.24672C4.29368 2.27539 4.30994 2.30943 4.317 2.34885C4.22765 2.66369 4.0813 2.94454 3.87798 3.1914C3.9404 3.30383 3.9404 3.41447 3.87798 3.52332C3.92325 3.54313 3.95576 3.57717 3.97554 3.62545C3.94445 3.7129 3.89567 3.72141 3.8292 3.65098C3.68639 3.8826 3.59696 4.13792 3.5609 4.41694C3.52056 4.47628 3.47991 4.53585 3.43895 4.59566C3.44602 4.63508 3.46227 4.66912 3.48773 4.69779C3.36386 4.80208 3.2663 4.92974 3.19505 5.08077C3.21131 5.11483 3.22757 5.14883 3.24383 5.18289C2.96115 5.60381 2.79042 6.06339 2.73164 6.56162C2.71538 6.54461 2.69911 6.52756 2.68286 6.51055C2.63847 6.77358 2.5409 7.0119 2.39017 7.22545C2.27264 7.1106 2.18321 7.14466 2.12188 7.32757C2.10562 7.31905 2.08936 7.31057 2.0731 7.30204C1.99686 7.15018 1.94807 6.98846 1.92676 6.81694C1.9918 6.71481 2.05684 6.61268 2.12188 6.51055C2.18637 6.51923 2.24328 6.50223 2.29261 6.45949C2.28669 6.2848 2.35173 6.14861 2.48773 6.05098C2.62957 5.6702 2.76778 5.28722 2.90237 4.90204C2.87918 4.75035 2.93609 4.62269 3.0731 4.51906C3.12467 4.39651 3.15719 4.27735 3.17066 4.16162C3.22273 4.12636 3.27964 4.10083 3.34139 4.08502C3.28889 3.99688 3.28076 3.90326 3.317 3.80417C3.41429 3.60341 3.48746 3.39065 3.53651 3.16587C3.5949 3.08826 3.66807 3.02868 3.75603 2.98715C3.7429 2.85092 3.73477 2.72326 3.73164 2.60417C3.84612 2.54335 3.88677 2.44974 3.85359 2.32332C3.7776 2.43911 3.67191 2.49869 3.53651 2.50204C3.47748 2.5551 3.4287 2.61468 3.39017 2.68077C3.33886 2.67313 3.29007 2.68164 3.24383 2.7063C3.16511 2.8149 3.06755 2.89149 2.95115 2.93608C3.20078 2.64083 3.49346 2.40253 3.8292 2.22119Z" fill="#F6E9B4"/>
    <path fill-rule="evenodd" clip-rule="evenodd" d="M8.60962 2.83398C8.99582 3.17001 9.2885 3.57852 9.48767 4.05952C9.38601 4.09773 9.28845 4.09773 9.19499 4.05952C9.03518 4.27487 8.91323 4.51317 8.82913 4.77441C8.79255 4.80637 8.75187 4.8319 8.70718 4.85101C8.77674 4.98946 8.76045 5.1171 8.6584 5.23398C8.60728 5.1889 8.55035 5.15484 8.48767 5.13186C8.31982 5.1769 8.14909 5.19395 7.97548 5.18292C7.97738 5.12762 7.99367 5.07654 8.02426 5.02973C7.95367 5.02068 7.8886 4.96962 7.82913 4.87654C7.79133 4.7687 7.79133 4.66657 7.82913 4.57015C7.86957 4.52765 7.91021 4.54467 7.95109 4.62122C8.11782 4.24846 8.24787 3.85697 8.34133 3.44675C8.51938 3.28855 8.60884 3.08429 8.60962 2.83398Z" fill="#B38C35"/>
    <path opacity="0.843" fill-rule="evenodd" clip-rule="evenodd" d="M1.78087 3.03809C1.7567 3.13928 1.73231 3.24141 1.7077 3.34447C1.57849 3.44805 1.4728 3.5672 1.39062 3.70192C1.4538 3.50157 1.54323 3.31434 1.65892 3.14021C1.69347 3.09525 1.73412 3.06121 1.78087 3.03809Z" fill="#B0AC95"/>
    <path fill-rule="evenodd" clip-rule="evenodd" d="M2.31731 2.42529C2.32496 2.49542 2.31682 2.56351 2.29292 2.62955C2.19543 2.73134 2.12226 2.85049 2.07341 2.987C2.1314 3.03442 2.19644 3.05144 2.26853 3.03806C2.26853 3.10614 2.26853 3.17423 2.26853 3.24231C2.21975 3.24231 2.17097 3.24231 2.12219 3.24231C2.02311 3.51716 1.92555 3.7895 1.82951 4.05934C1.51647 4.84247 1.40264 5.65947 1.48804 6.5104C1.42333 6.29169 1.39081 6.05343 1.39048 5.79551C1.47646 5.29825 1.42768 4.82164 1.24414 4.36572C1.27212 4.28612 1.30464 4.20952 1.3417 4.13593C1.40674 4.13593 1.47178 4.13593 1.53682 4.13593C1.48774 3.99053 1.43896 3.84585 1.39048 3.70189C1.47266 3.56717 1.57835 3.44802 1.70756 3.34444C1.73217 3.24138 1.75656 3.13925 1.78073 3.03806C1.77716 2.96009 1.80969 2.90903 1.87829 2.88487C1.98009 2.82948 2.04513 2.74438 2.07341 2.62955C2.15471 2.56146 2.23601 2.49338 2.31731 2.42529Z" fill="#F5EAB9"/>
    <path opacity="0.184" fill-rule="evenodd" clip-rule="evenodd" d="M10.1709 3.49805C10.2769 3.65202 10.3583 3.82224 10.4148 4.00869C10.2828 3.86843 10.2015 3.69822 10.1709 3.49805Z" fill="#5E4C2C"/>
    <path fill-rule="evenodd" clip-rule="evenodd" d="M4.21973 3.70215C4.23599 3.70215 4.25225 3.70215 4.26851 3.70215C4.56119 3.70215 4.85387 3.70215 5.14656 3.70215C5.50426 3.70215 5.86202 3.70215 6.21973 3.70215C6.35685 3.75194 6.50319 3.78598 6.65875 3.80428C6.77895 3.85874 6.89275 3.92682 7.00021 4.00853C6.41709 3.79623 5.81548 3.71112 5.19534 3.75321C4.90265 3.77023 4.60997 3.78726 4.31729 3.80428C4.32332 3.83526 4.33958 3.85228 4.36607 3.85534C4.38233 3.92342 4.39859 3.99151 4.41485 4.0596C4.42322 4.11023 4.40696 4.14427 4.36607 4.16172C4.32693 4.00476 4.27815 3.85157 4.21973 3.70215Z" fill="#A98E3B"/>
    <path opacity="0.114" fill-rule="evenodd" clip-rule="evenodd" d="M1.34156 3.8042C1.28564 4.05635 1.20434 4.29465 1.09766 4.51909C1.12591 4.25672 1.20721 4.01843 1.34156 3.8042Z" fill="#6D6A5C"/>
    <path opacity="0.824" fill-rule="evenodd" clip-rule="evenodd" d="M9.63379 2.68066C9.88476 2.89929 10.0636 3.17163 10.1704 3.49769C10.201 3.69786 10.2822 3.86807 10.4143 4.00832C10.4468 4.00832 10.4631 4.02534 10.4631 4.05939C10.4167 4.13183 10.4004 4.21693 10.4143 4.31471C10.3041 4.30066 10.2878 4.24959 10.3655 4.16151C10.3137 4.09666 10.2649 4.03709 10.2192 3.98279C10.2604 3.90323 10.2279 3.85217 10.1216 3.8296C10.1378 3.81258 10.1541 3.79556 10.1704 3.77854C10.1216 3.72747 10.0728 3.67641 10.024 3.62534C10.0948 3.46697 10.046 3.36484 9.87769 3.31896C9.94306 3.20923 9.91052 3.14966 9.78013 3.14024C9.78555 3.10871 9.80179 3.08318 9.82891 3.06364C9.71364 2.9666 9.64862 2.83894 9.63379 2.68066Z" fill="#8C7034"/>
    <path fill-rule="evenodd" clip-rule="evenodd" d="M2.12227 6.51053C2.05723 6.61266 1.99218 6.71478 1.92714 6.81691C1.90607 6.75512 1.87355 6.70406 1.82958 6.66372C1.6595 5.87749 1.72454 5.11153 2.02471 4.36585C2.19504 3.97503 2.39016 3.60056 2.61007 3.24244C2.72389 3.14032 2.83772 3.03819 2.95154 2.93606C3.06794 2.89147 3.1655 2.81487 3.24422 2.70627C3.29046 2.68162 3.33924 2.67311 3.39056 2.68074C3.46589 2.67037 3.53094 2.63633 3.58568 2.57861C3.60194 2.61266 3.6182 2.6467 3.63446 2.68074C3.60039 2.75032 3.60039 2.8099 3.63446 2.85946C3.58259 2.92014 3.51755 2.94567 3.43934 2.93606C3.44725 3.03958 3.43912 3.14171 3.41495 3.24244C3.20103 3.51543 3.07908 3.83033 3.0491 4.18712C2.93442 4.2902 2.83686 4.40935 2.75641 4.54457C2.82282 4.6765 2.79031 4.77863 2.65885 4.85095C2.68116 4.87209 2.69742 4.89763 2.70763 4.92755C2.41425 5.42144 2.21913 5.94913 2.12227 6.51053Z" fill="#F9F0C6"/>
    <path fill-rule="evenodd" clip-rule="evenodd" d="M2.02422 4.36596C2.08926 4.36596 2.15431 4.36596 2.21935 4.36596C2.21779 4.09932 2.29096 3.86103 2.43886 3.65107C2.50931 3.56654 2.59874 3.5325 2.70715 3.54894C2.69819 3.73172 2.73071 3.90193 2.80471 4.05958C2.68708 4.07813 2.61391 4.02706 2.5852 3.90639C2.55268 3.94043 2.52016 3.97447 2.48764 4.00851C2.44338 4.27004 2.40274 4.54238 2.36569 4.82553C2.31691 4.82553 2.26813 4.82553 2.21935 4.82553C2.22737 4.97967 2.21925 5.13284 2.19496 5.28511C2.04483 5.37161 1.97166 5.5078 1.97544 5.69362C1.92666 5.69362 1.87788 5.69362 1.8291 5.69362C1.93785 5.25896 2.00289 4.81639 2.02422 4.36596Z" fill="#FBF4D3"/>
    <path fill-rule="evenodd" clip-rule="evenodd" d="M5.34157 4.05947C5.65801 4.00054 5.98323 3.99203 6.31718 4.03394C6.31152 4.09869 6.29528 4.16678 6.2684 4.23819C6.38786 4.27519 6.50172 4.32626 6.60986 4.39138C6.51421 4.58771 6.4004 4.77494 6.2684 4.95308C6.30094 4.9701 6.33343 4.98713 6.36596 5.00415C6.31113 5.01687 6.26235 5.04241 6.21962 5.08074C6.52684 5.1316 6.83582 5.14866 7.14645 5.13181C7.15186 5.16331 7.16811 5.18885 7.19523 5.2084C7.03343 5.23383 6.87084 5.24236 6.70743 5.23394C6.17089 5.21494 5.6343 5.19788 5.09767 5.18287C5.08182 4.79892 5.09806 4.42445 5.14645 4.05947C5.13835 4.38332 5.14645 4.70672 5.17084 5.02968C5.24479 4.89939 5.28543 4.91642 5.29279 5.08074C5.39035 5.06372 5.48791 5.0467 5.58547 5.02968C5.61782 4.67073 5.71538 4.35583 5.87816 4.085C5.70001 4.05954 5.52118 4.05103 5.34157 4.05947Z" fill="#DBBD66"/>
    <path fill-rule="evenodd" clip-rule="evenodd" d="M5.14659 4.05979C5.21161 4.05979 5.27669 4.05979 5.34171 4.05979C5.52132 4.05135 5.70015 4.05986 5.8783 4.08532C5.71552 4.35616 5.61796 4.67105 5.58561 5.03001C5.48805 5.04702 5.39049 5.06405 5.29293 5.08107C5.28557 4.91674 5.24493 4.89972 5.17098 5.03001C5.14659 4.70705 5.13849 4.38364 5.14659 4.05979Z" fill="#E7CC73"/>
    <path fill-rule="evenodd" clip-rule="evenodd" d="M5.00036 3.90661C5.00036 4.14491 5.00036 4.3832 5.00036 4.6215C4.9548 4.67602 4.9385 4.74411 4.95158 4.82576C4.85936 4.81537 4.78619 4.84941 4.73206 4.92789C4.71581 4.91087 4.69954 4.89384 4.68328 4.87682C4.66578 5.03228 4.63326 5.0493 4.58572 4.92789C4.56946 5.01299 4.5532 5.0981 4.53694 5.18321C4.52068 5.1662 4.50442 5.14915 4.48816 5.13214C4.4798 4.76557 4.45541 4.40812 4.41499 4.0598C4.39873 3.99172 4.38247 3.92363 4.36621 3.85555C4.87802 3.79637 5.39836 3.78786 5.92719 3.83001C5.60948 3.8388 5.3005 3.86433 5.00036 3.90661Z" fill="#DEC06B"/>
    <path fill-rule="evenodd" clip-rule="evenodd" d="M7.00031 4.00844C7.02753 4.07431 7.07631 4.11686 7.14665 4.1361C7.10992 4.21203 7.06929 4.22055 7.0247 4.16163C6.94416 4.25876 6.92792 4.36089 6.97592 4.46802C6.81636 4.23701 6.61309 4.09232 6.36616 4.03397C6.49626 4.06802 6.49626 4.10206 6.36616 4.1361C6.64685 4.26859 6.8745 4.46433 7.04909 4.72334C7.05319 4.86771 7.08568 5.00388 7.14665 5.13185C6.83602 5.1487 6.52704 5.13164 6.21982 5.08078C6.26255 5.04244 6.31133 5.01691 6.36616 5.00419C6.33363 4.98717 6.30114 4.97014 6.2686 4.95312C6.4006 4.77498 6.51441 4.58775 6.61007 4.39142C6.50192 4.32629 6.38807 4.27523 6.2686 4.23823C6.29548 4.16682 6.31172 4.09873 6.31738 4.03397C5.98343 3.99207 5.65821 4.00058 5.34177 4.05951C5.27675 4.05951 5.21168 4.05951 5.14665 4.05951C5.18387 4.02029 5.23265 3.99476 5.29299 3.98291C5.55314 3.96589 5.81333 3.94887 6.07348 3.93185C5.71611 3.90633 5.35841 3.89782 5.00031 3.90631C5.30046 3.86404 5.60943 3.83851 5.92714 3.82972C5.39831 3.78756 4.87797 3.79608 4.36616 3.85525C4.33967 3.85219 4.32341 3.83517 4.31738 3.80419C4.61007 3.78717 4.90275 3.77014 5.19543 3.75312C5.81558 3.71103 6.41719 3.79614 7.00031 4.00844Z" fill="#CFAF5A"/>
    <path fill-rule="evenodd" clip-rule="evenodd" d="M7.82901 1.91504C8.15384 2.0681 8.44652 2.27235 8.70706 2.52781C9.01779 2.82235 9.29423 3.14575 9.53632 3.49802C9.82545 4.04891 10.0368 4.62763 10.1705 5.23419C10.2104 5.99443 10.1454 6.74333 9.97535 7.481C9.83666 7.70328 9.72281 7.94159 9.63388 8.19589C9.26442 8.85507 8.77662 9.39972 8.17047 9.82993C8.10545 9.84694 8.04037 9.86399 7.97535 9.881C7.91808 9.82922 7.88559 9.76115 7.87779 9.67674C8.18262 9.47703 8.45901 9.23872 8.70706 8.96185C9.43754 8.2491 9.82779 7.36401 9.87779 6.30653C9.95803 5.81039 9.92549 5.31676 9.78023 4.82568C9.77559 4.70896 9.74306 4.60683 9.68266 4.51929C9.63569 4.35363 9.57066 4.20044 9.48754 4.05972C9.28837 3.57872 8.99569 3.17021 8.60949 2.83419C8.52564 2.69532 8.41179 2.59319 8.26803 2.52781C8.15476 2.4173 8.02466 2.33219 7.87779 2.27249C7.86154 2.22142 7.82901 2.18738 7.78023 2.17036C7.77481 2.13883 7.75857 2.1133 7.73145 2.09376C7.81627 2.04685 7.84881 1.98727 7.82901 1.91504Z" fill="#EFD379"/>
    <path fill-rule="evenodd" clip-rule="evenodd" d="M7.00036 4.0083C7.06538 4.02532 7.13045 4.04235 7.19548 4.05936C7.44382 4.3021 7.65519 4.57444 7.82963 4.87639C7.88909 4.96947 7.95416 5.02053 8.02475 5.02958C7.99416 5.07639 7.97787 5.12747 7.97597 5.18277C8.13211 5.27264 8.31094 5.31523 8.51255 5.31043C8.68284 5.4361 8.73163 5.59782 8.65889 5.79553C8.50816 5.67038 8.35367 5.67038 8.19548 5.79553C8.15085 5.75325 8.11836 5.70219 8.09792 5.64234C8.07363 5.81172 8.06548 5.98192 8.07353 6.15298C8.18255 6.13792 8.28011 6.15497 8.36621 6.20405C8.21987 6.20405 8.07353 6.20405 7.92719 6.20405C7.92719 6.11892 7.92719 6.03385 7.92719 5.94873C7.94767 5.83771 7.94767 5.73559 7.92719 5.64234C8.13816 5.59802 8.34958 5.58949 8.56133 5.61681C8.5186 5.53582 8.46982 5.45923 8.41499 5.38702C8.23884 5.34811 8.05997 5.32258 7.87841 5.31043C7.8508 5.25962 7.81826 5.21708 7.78085 5.18277C7.78231 5.00214 7.70914 4.86596 7.56133 4.77426C7.51041 4.83158 7.47792 4.89967 7.46377 4.97851C7.44021 4.93011 7.43211 4.87904 7.43938 4.82532C7.36016 4.83247 7.30328 4.79843 7.26865 4.72319C7.25241 4.74021 7.23611 4.75724 7.21987 4.77426C7.21987 4.87639 7.21987 4.97851 7.21987 5.08064C7.17606 4.94945 7.11914 4.83031 7.04914 4.72319C6.87455 4.46419 6.64689 4.26845 6.36621 4.13596C6.49631 4.10192 6.49631 4.06788 6.36621 4.03383C6.61314 4.09218 6.81641 4.23687 6.97597 4.46788C6.92797 4.36075 6.94421 4.25862 7.02475 4.16149C7.06933 4.2204 7.10997 4.21189 7.1467 4.13596C7.07636 4.11672 7.02758 4.07417 7.00036 4.0083Z" fill="#BD9A45"/>
    <path opacity="0.165" fill-rule="evenodd" clip-rule="evenodd" d="M1.09756 4.51904C1.10762 4.67198 1.0751 4.80815 1 4.92755C1.00318 4.77803 1.0357 4.64186 1.09756 4.51904Z" fill="#88877A"/>
    <path fill-rule="evenodd" clip-rule="evenodd" d="M4.561 1.86377C4.59352 1.86377 4.62604 1.86377 4.65856 1.86377C4.74004 1.8766 4.81321 1.91064 4.87807 1.9659C4.96227 1.91094 5.05168 1.90243 5.14637 1.94037C5.11383 1.95738 5.08134 1.97441 5.0488 1.99143C5.09519 2.02807 5.10329 2.07062 5.07319 2.11909C5.0169 2.18258 4.95183 2.23364 4.87807 2.27228C4.86181 2.40845 4.84555 2.54462 4.82929 2.68079C4.6465 2.86389 4.57333 3.07666 4.60978 3.31909C4.51797 3.4234 4.43666 3.53404 4.36588 3.651C4.31751 3.64224 4.28498 3.65927 4.26832 3.70207C4.25206 3.70207 4.23579 3.70207 4.21954 3.70207C4.18609 4.08698 4.14544 4.47847 4.09758 4.87654C4.00308 4.86014 3.92991 4.91121 3.87807 5.02973C3.83783 5.07495 3.78905 5.09197 3.73173 5.08079C3.71547 5.28505 3.69921 5.4893 3.68295 5.69356C3.61086 5.68018 3.54582 5.69718 3.48783 5.74462C3.51677 5.84072 3.54929 5.93432 3.58539 6.02547C3.48875 6.05637 3.47248 6.10743 3.53661 6.17866C3.47026 6.37618 3.34018 6.48678 3.14637 6.51058C3.12073 6.74093 3.08821 6.97071 3.0488 7.19994C3.01124 7.30559 2.94619 7.39066 2.85368 7.45526C2.86994 7.47226 2.8862 7.48932 2.90246 7.50632C2.81535 7.67621 2.73404 7.84646 2.65856 8.01696C2.68543 8.08835 2.70169 8.15647 2.70734 8.22122C2.63436 8.24711 2.57745 8.22157 2.53661 8.14462C2.51396 8.17495 2.50583 8.20901 2.51222 8.24675C2.4045 8.17557 2.33133 8.07344 2.29271 7.94037C2.25998 7.90197 2.21934 7.88491 2.17076 7.8893C2.10287 7.76128 2.05409 7.62515 2.02441 7.48079C2.05453 7.47512 2.07892 7.45812 2.09758 7.42973C2.12966 7.57194 2.17031 7.70808 2.21954 7.83824C2.29775 7.84784 2.36278 7.82231 2.41466 7.76164C2.35558 7.70481 2.35558 7.64522 2.41466 7.58292C2.65198 7.28292 2.79832 6.934 2.85368 6.53611C3.01642 6.39839 3.08146 6.22814 3.0488 6.02547C3.17518 5.8804 3.21583 5.71868 3.17076 5.54037C3.31931 5.32304 3.47378 5.11025 3.63417 4.90207C3.58252 4.69328 3.63942 4.51456 3.8049 4.3659C3.83826 4.30034 3.83013 4.24077 3.78051 4.18717C3.90804 4.02249 3.98934 3.85228 4.02441 3.67654C4.15615 3.53031 4.22118 3.36861 4.21954 3.19143C4.29547 2.95596 4.39303 2.73469 4.51222 2.5276C4.47217 2.35534 4.52908 2.21916 4.68295 2.11909C4.7065 2.07068 4.71463 2.01962 4.70734 1.9659C4.49454 2.06579 4.2669 2.11685 4.02441 2.11909C4.18716 2.00519 4.36602 1.92008 4.561 1.86377Z" fill="#F4E3A2"/>
    <path fill-rule="evenodd" clip-rule="evenodd" d="M5 3.9065C5.3581 3.89801 5.7158 3.90652 6.07317 3.93203C5.81302 3.94905 5.55283 3.96608 5.29268 3.9831C5.23234 3.99495 5.18356 4.02048 5.14634 4.05969C5.09795 4.42468 5.08171 4.79914 5.09756 5.1831C5.6342 5.19811 6.17078 5.21517 6.70732 5.23416C6.67273 5.28032 6.62395 5.29733 6.56098 5.28523C6.04063 5.28523 5.52034 5.28523 5 5.28523C5 5.06395 5 4.84267 5 4.6214C5 4.3831 5 4.1448 5 3.9065Z" fill="#9D7B27"/>
    <path fill-rule="evenodd" clip-rule="evenodd" d="M2.12207 6.51048C2.21893 5.94908 2.41406 5.42139 2.70744 4.9275C2.69723 4.89757 2.68097 4.87204 2.65866 4.8509C2.79011 4.77857 2.82263 4.67645 2.75622 4.54452C2.83667 4.4093 2.93423 4.29015 3.0489 4.18707C3.07888 3.83027 3.20083 3.51538 3.41475 3.24239C3.43892 3.14166 3.44705 3.03953 3.43914 2.93601C3.51735 2.94562 3.58239 2.92009 3.63427 2.85941C3.6002 2.80984 3.6002 2.75027 3.63427 2.68069C3.61801 2.64664 3.60174 2.61261 3.58548 2.57856C3.53074 2.63627 3.46569 2.67032 3.39036 2.68069C3.42889 2.6146 3.47768 2.55503 3.5367 2.50197C3.6721 2.49861 3.77779 2.43903 3.85378 2.32324C3.88696 2.44966 3.84631 2.54328 3.73183 2.60409C3.73496 2.72318 3.74309 2.85084 3.75622 2.98707C3.66827 3.02861 3.59509 3.08818 3.5367 3.1658C3.48765 3.39057 3.41448 3.60334 3.31719 3.80409C3.28095 3.90319 3.28909 3.9968 3.34158 4.08494C3.27983 4.10075 3.22292 4.12628 3.17085 4.16154C3.15738 4.27728 3.12486 4.39643 3.07329 4.51899C2.93628 4.62261 2.87937 4.75027 2.90256 4.90197C2.76797 5.28714 2.62976 5.67012 2.48792 6.0509C2.35192 6.14854 2.28688 6.28472 2.2928 6.45941C2.24347 6.50215 2.18656 6.51916 2.12207 6.51048Z" fill="#F8EDBE"/>
    <path fill-rule="evenodd" clip-rule="evenodd" d="M7.04868 4.72363C7.11868 4.83074 7.17561 4.94989 7.21941 5.08108C7.21941 4.97895 7.21941 4.87682 7.21941 4.7747C7.23566 4.75768 7.25195 4.74065 7.26819 4.72363C7.30283 4.79887 7.3597 4.8329 7.43892 4.82576C7.43166 4.87948 7.43975 4.93054 7.46331 4.97895C7.47746 4.9001 7.50995 4.83202 7.56087 4.7747C7.70868 4.8664 7.78185 5.00257 7.78039 5.18321C7.74517 5.20455 7.72078 5.23856 7.70722 5.28533C7.63439 5.18014 7.54497 5.16314 7.43892 5.23427C7.36473 5.32547 7.34848 5.41907 7.39014 5.51512C7.34136 5.53213 7.29258 5.54918 7.2438 5.56619C7.32917 5.65575 7.3617 5.76641 7.34136 5.8981C7.34927 6.00161 7.34112 6.10373 7.31697 6.20448C7.18122 6.2774 7.04297 6.34552 6.90234 6.40874C7.00629 6.4429 7.10385 6.47691 7.19502 6.51087C6.6018 6.53528 6.01644 6.50974 5.43892 6.43427C5.47146 6.40021 5.50395 6.3662 5.53648 6.33214C6.06009 6.23727 6.58044 6.17773 7.09746 6.15342C7.15478 6.1646 7.20356 6.1476 7.2438 6.10236C7.20024 5.97041 7.184 5.83422 7.19502 5.69385C6.49585 5.69385 5.79663 5.69385 5.09746 5.69385C5.09746 5.83003 5.09746 5.96617 5.09746 6.10236C5.39014 6.10236 5.68283 6.10236 5.97551 6.10236C5.65946 6.15296 5.33424 6.16996 4.9999 6.15342C4.98605 5.98608 5.00229 5.82442 5.04868 5.66831C5.56902 5.65131 6.08931 5.63425 6.60966 5.61725C6.25083 5.60862 5.89312 5.58309 5.53648 5.54065C5.62629 5.50338 5.71575 5.46932 5.80478 5.43853C5.85995 5.4949 5.90063 5.4779 5.92673 5.38746C6.14536 5.3534 6.35678 5.31934 6.56087 5.28533C6.62385 5.29744 6.67263 5.28043 6.70722 5.23427C6.87063 5.2427 7.03322 5.23417 7.19502 5.20874C7.1679 5.18918 7.15166 5.16365 7.14624 5.13214C7.08527 5.00418 7.05278 4.86801 7.04868 4.72363Z" fill="#B08B36"/>
    <path fill-rule="evenodd" clip-rule="evenodd" d="M4.36595 5.23396C4.22885 5.30106 4.05812 5.30106 3.85375 5.23396C3.84286 5.39864 3.89976 5.53478 4.02448 5.64247C3.79947 5.5452 3.73443 5.375 3.82936 5.13184C4.00145 5.2044 4.18031 5.23846 4.36595 5.23396Z" fill="#A08234"/>
    <path fill-rule="evenodd" clip-rule="evenodd" d="M9.78004 3.14062C9.91043 3.15005 9.94296 3.20962 9.8776 3.31935C10.0459 3.36523 10.0947 3.46736 10.0239 3.62573C10.0727 3.6768 10.1215 3.72786 10.1703 3.77892C10.154 3.79594 10.1377 3.81297 10.1215 3.82999C10.2278 3.85255 10.2603 3.90362 10.2191 3.98318C10.2648 4.03747 10.3136 4.09705 10.3654 4.1619C10.2877 4.24998 10.304 4.30105 10.4142 4.31509C10.5659 4.63153 10.6472 4.97195 10.6581 5.33637C10.6581 5.40444 10.6581 5.47256 10.6581 5.54063C10.5109 5.54905 10.3645 5.54052 10.2191 5.51509C10.4792 5.48103 10.4792 5.44703 10.2191 5.41297C10.4792 5.37891 10.4792 5.3449 10.2191 5.31084C10.4008 5.25758 10.3846 5.23205 10.1703 5.23424C10.0366 4.62769 9.82525 4.04896 9.53613 3.49807C9.62165 3.41011 9.71921 3.33352 9.82882 3.26828C9.72545 3.25083 9.70916 3.20828 9.78004 3.14062Z" fill="#A17521"/>
    <path fill-rule="evenodd" clip-rule="evenodd" d="M7.78073 5.18311C7.81814 5.21742 7.85068 5.25996 7.87829 5.31077C8.05985 5.32292 8.23873 5.34845 8.41487 5.38736C8.4697 5.45957 8.51848 5.53616 8.56121 5.61715C8.34946 5.58983 8.13804 5.59836 7.92707 5.64268C7.94756 5.73592 7.94756 5.83805 7.92707 5.94906C7.88268 5.8715 7.84204 5.78642 7.80512 5.69374C7.62965 5.75625 7.4996 5.84132 7.41487 5.94906C7.39619 5.92067 7.3718 5.90367 7.3417 5.898C7.36204 5.76631 7.32951 5.65565 7.24414 5.56608C7.29292 5.54908 7.3417 5.53202 7.39048 5.51502C7.34882 5.41897 7.36507 5.32537 7.43926 5.23417C7.54531 5.16304 7.63473 5.18004 7.70756 5.28523C7.72112 5.23846 7.74551 5.20445 7.78073 5.18311Z" fill="#AA8029"/>
    <path fill-rule="evenodd" clip-rule="evenodd" d="M4.41468 4.05957C4.45509 4.40789 4.47948 4.76534 4.48785 5.13191C4.50411 5.14891 4.52037 5.16597 4.53663 5.18297C4.55289 5.09787 4.56915 5.01276 4.58541 4.92766C4.63294 5.04906 4.66546 5.03205 4.68297 4.87659C4.69923 4.89361 4.71549 4.91064 4.73175 4.92766C4.78588 4.84918 4.85905 4.81514 4.95126 4.82553C4.93819 4.74388 4.95448 4.67579 5.00004 4.62127C5.00004 4.84255 5.00004 5.06383 5.00004 5.2851C5.52038 5.2851 6.04068 5.2851 6.56102 5.2851C6.35692 5.31911 6.14551 5.35317 5.92687 5.38723C5.90077 5.47766 5.86009 5.49467 5.80492 5.43829C5.7159 5.46909 5.62643 5.50314 5.53663 5.54042C5.89326 5.58286 6.25097 5.60839 6.6098 5.61702C6.08946 5.63402 5.56916 5.65108 5.04882 5.66808C5.00243 5.82418 4.98619 5.98585 5.00004 6.15319C4.9557 6.11142 4.93131 6.02634 4.92687 5.89787C4.82931 5.93193 4.76427 6 4.73175 6.10212C4.69637 6.01746 4.63946 5.99193 4.56102 6.02553C4.60044 6.04126 4.63295 6.06679 4.65858 6.10212C4.64172 6.1632 4.61733 6.1632 4.58541 6.10212C4.56186 6.15053 4.55373 6.2016 4.56102 6.25531C4.43496 6.25884 4.3374 6.31838 4.26833 6.43404C4.30086 6.45104 4.33337 6.4681 4.3659 6.4851C4.24221 6.4946 4.12838 6.52013 4.02443 6.5617C3.95939 6.51063 3.89435 6.45957 3.82931 6.40851C3.79426 6.2929 3.77799 6.17377 3.78053 6.05106C3.9561 6.09416 4.13495 6.11116 4.31712 6.10212C4.31712 5.96594 4.31712 5.8298 4.31712 5.69361C4.20807 5.70868 4.11051 5.69162 4.02443 5.64255C3.89971 5.53486 3.8428 5.39872 3.8537 5.23404C4.05807 5.30114 4.2288 5.30114 4.3659 5.23404C4.3659 4.87659 4.3659 4.51914 4.3659 4.1617C4.40678 4.14425 4.42305 4.11021 4.41468 4.05957Z" fill="#C7A54F"/>
    <path fill-rule="evenodd" clip-rule="evenodd" d="M10.1707 5.23402C10.385 5.23182 10.4012 5.25735 10.2195 5.31061C10.4796 5.34467 10.4796 5.37868 10.2195 5.41274C10.4796 5.4468 10.4796 5.48081 10.2195 5.51487C10.365 5.5403 10.5113 5.54883 10.6585 5.5404C10.6585 5.91485 10.6585 6.28935 10.6585 6.6638C10.5596 6.65553 10.4621 6.66406 10.3658 6.68934C10.626 6.7234 10.626 6.7574 10.3658 6.79146C10.436 6.80265 10.501 6.82818 10.561 6.86806C10.5528 6.88506 10.5447 6.90212 10.5366 6.91912C10.4524 6.86418 10.363 6.85565 10.2683 6.89359C10.4634 6.92765 10.4634 6.96166 10.2683 6.99572C10.3845 6.99904 10.417 7.04157 10.3658 7.12338C10.4086 7.16173 10.4573 7.18726 10.5122 7.19997C10.4471 7.21698 10.3821 7.23403 10.317 7.25104C10.3496 7.26804 10.3821 7.2851 10.4146 7.3021C10.359 7.33994 10.359 7.38253 10.4146 7.42976C10.287 7.48394 10.165 7.46694 10.0488 7.3787C10.0352 7.42547 10.0108 7.45948 9.97559 7.48083C10.1456 6.74316 10.2107 5.99426 10.1707 5.23402Z" fill="#9D711B"/>
    <path fill-rule="evenodd" clip-rule="evenodd" d="M7.09766 6.15342C6.72351 6.13923 6.34956 6.12222 5.97571 6.10236C5.68302 6.10236 5.39034 6.10236 5.09766 6.10236C5.09766 5.96617 5.09766 5.83003 5.09766 5.69385C5.79683 5.69385 6.49605 5.69385 7.19522 5.69385C7.18419 5.83422 7.20044 5.97041 7.244 6.10236C7.20375 6.1476 7.15497 6.16461 7.09766 6.15342Z" fill="#D1B15A"/>
    <path fill-rule="evenodd" clip-rule="evenodd" d="M9.48778 4.05957C9.5709 4.20029 9.63593 4.35348 9.6829 4.51914C9.60368 4.52629 9.54681 4.49225 9.51217 4.41702C9.40661 4.56752 9.36593 4.73773 9.39022 4.92766C9.32573 4.91897 9.26881 4.936 9.21949 4.97872C9.19929 5.29797 9.09359 5.57882 8.90242 5.82127C8.96539 5.928 8.93285 5.99611 8.80485 6.02553C8.85339 6.19097 8.86963 6.3697 8.85363 6.5617C8.84549 6.5787 8.83739 6.59576 8.82924 6.61276C8.78768 6.55807 8.74705 6.50701 8.70729 6.45957C8.66349 6.27814 8.54963 6.19307 8.36583 6.20425C8.27973 6.15518 8.18217 6.13812 8.07315 6.15319C8.0651 5.98212 8.07324 5.81193 8.09754 5.64255C8.11798 5.7024 8.15046 5.75346 8.1951 5.79574C8.35329 5.67058 8.50778 5.67058 8.65851 5.79574C8.73124 5.59802 8.68246 5.4363 8.51217 5.31063C8.31056 5.31543 8.13173 5.27285 7.97559 5.18297C8.1492 5.194 8.31993 5.17695 8.48778 5.13191C8.55046 5.15489 8.60739 5.18895 8.65851 5.23404C8.76056 5.11715 8.77685 4.98951 8.70729 4.85106C8.75198 4.83195 8.79266 4.80642 8.82924 4.77446C8.91334 4.51322 9.03529 4.27492 9.1951 4.05957C9.28856 4.09778 9.38612 4.09778 9.48778 4.05957Z" fill="#A67B25"/>
    <path opacity="0.188" fill-rule="evenodd" clip-rule="evenodd" d="M10.4637 4.05957C10.7491 4.91156 10.8304 5.77966 10.7076 6.66383C10.7235 6.21196 10.7073 5.76939 10.6588 5.33617C10.648 4.97175 10.5666 4.63132 10.4149 4.31489C10.4011 4.21712 10.4173 4.13201 10.4637 4.05957Z" fill="#63522F"/>
    <path opacity="0.167" fill-rule="evenodd" clip-rule="evenodd" d="M0.9998 4.97852C0.936302 5.62539 0.936302 6.27222 0.9998 6.91894C0.928005 6.6074 0.895483 6.28396 0.902239 5.94873C0.895483 5.61349 0.928005 5.29006 0.9998 4.97852Z" fill="#939183"/>
    <path fill-rule="evenodd" clip-rule="evenodd" d="M7.92673 5.94917C7.92673 6.03429 7.92673 6.11936 7.92673 6.20449C8.07308 6.20449 8.21942 6.20449 8.36576 6.20449C8.45771 6.28379 8.50649 6.38592 8.5121 6.51087C8.27976 6.49688 8.0521 6.51388 7.82917 6.56193C7.74786 6.56193 7.66659 6.56193 7.58527 6.56193C7.58951 6.72013 7.56512 6.73718 7.5121 6.613C7.48259 6.71415 7.43381 6.73121 7.36576 6.66406C7.34542 6.7282 7.30478 6.76226 7.24381 6.76619C7.25249 6.70517 7.26873 6.64558 7.29259 6.58746C7.2762 6.53487 7.24366 6.50934 7.19503 6.51087C7.10386 6.47691 7.00629 6.4429 6.90234 6.40874C7.04298 6.34552 7.18122 6.27741 7.31698 6.20449C7.34112 6.10374 7.34927 6.00161 7.34137 5.8981C7.37147 5.90377 7.39586 5.92078 7.41454 5.94917C7.49927 5.84142 7.62932 5.75635 7.80478 5.69385C7.84171 5.78653 7.88234 5.8716 7.92673 5.94917Z" fill="#9E711C"/>
    <path fill-rule="evenodd" clip-rule="evenodd" d="M3.78065 6.05127C3.77812 6.17398 3.79438 6.29311 3.82944 6.40872C3.83725 6.49547 3.82912 6.5806 3.80504 6.66404C3.62778 7.05457 3.44892 7.44608 3.26846 7.8385C3.2351 7.90407 3.24324 7.96366 3.29285 8.01723C3.17986 8.22664 3.06604 8.43942 2.95139 8.65552C2.98789 8.75336 2.98789 8.85549 2.95139 8.96191C2.87008 8.89384 2.78879 8.82572 2.70748 8.75765C2.50941 8.48206 2.33054 8.19268 2.1709 7.88957C2.21948 7.88518 2.26013 7.90223 2.29285 7.94063C2.33147 8.0737 2.40464 8.17583 2.51236 8.24701C2.55502 8.35884 2.63632 8.40991 2.75626 8.40021C2.74845 8.31345 2.75658 8.22832 2.78065 8.14489C3.02319 7.8021 3.16953 7.41064 3.21968 6.97042C3.32652 6.84153 3.39156 6.68834 3.4148 6.51084C3.60218 6.40887 3.72413 6.25568 3.78065 6.05127Z" fill="#F2DC90"/>
    <path fill-rule="evenodd" clip-rule="evenodd" d="M5.00002 6.15327C5.33437 6.16981 5.65958 6.15281 5.97563 6.1022C6.34949 6.12207 6.72344 6.13907 7.09758 6.15327C6.58056 6.17757 6.06022 6.23712 5.53661 6.33199C5.50407 6.36605 5.47158 6.40006 5.43905 6.43412C6.01656 6.50959 6.60193 6.53512 7.19515 6.51072C7.24378 6.50918 7.27632 6.53472 7.29271 6.58731C7.26885 6.64542 7.25261 6.70501 7.24393 6.76603C7.09627 7.33938 6.7548 7.72236 6.21954 7.91497C5.7988 7.9763 5.37602 8.00183 4.95124 7.99157C4.95124 7.9405 4.95124 7.88944 4.95124 7.83837C4.95934 7.48052 4.95124 7.12307 4.92685 6.76603C4.64856 6.88895 4.50221 7.11026 4.48783 7.42986C4.48272 7.62697 4.44206 7.81417 4.36588 7.99157C4.54184 8.04207 4.72071 8.05912 4.90246 8.04263C5.40768 8.05141 5.91173 8.03441 6.41466 7.99157C6.35115 8.06959 6.26983 8.12066 6.17076 8.14476C6.07319 8.14476 5.97563 8.14476 5.87807 8.14476C5.69919 8.14476 5.52037 8.14476 5.34149 8.14476C5.1789 8.14476 5.01627 8.14476 4.85368 8.14476C4.59615 8.14925 4.35224 8.14925 4.12198 8.14476C4.20476 8.03247 4.27793 7.91334 4.34149 7.78731C4.3816 7.38672 4.37347 6.99526 4.3171 6.61284C4.21364 6.62178 4.11608 6.60472 4.02441 6.56178C4.12837 6.52021 4.24219 6.49468 4.36588 6.48518C4.33336 6.46818 4.30084 6.45112 4.26832 6.43412C4.33738 6.31846 4.43494 6.25892 4.561 6.2554C4.55371 6.20168 4.56184 6.15061 4.58539 6.1022C4.61731 6.16328 4.6417 6.16328 4.65856 6.1022C4.63294 6.06687 4.60042 6.04134 4.561 6.02561C4.63944 5.99201 4.69635 6.01754 4.73173 6.1022C4.76425 6.00008 4.82929 5.93201 4.92685 5.89795C4.93129 6.02643 4.95568 6.1115 5.00002 6.15327Z" fill="#B6903C"/>
    <path fill-rule="evenodd" clip-rule="evenodd" d="M8.56079 6.61259C8.56269 6.66789 8.57898 6.71895 8.60957 6.76578C8.55937 6.75536 8.51059 6.78089 8.46322 6.84237C8.46888 6.90712 8.48513 6.97524 8.512 7.04663C8.39737 7.22709 8.31605 7.42282 8.2681 7.63386C8.14898 7.62641 8.11644 7.66894 8.17054 7.76152C8.06474 7.82934 8.04849 7.91441 8.12176 8.01684C8.09357 8.10932 8.06918 8.20297 8.04859 8.29769C7.85254 8.59795 7.69805 8.92139 7.58518 9.26791C7.5942 9.32326 7.61044 9.37432 7.63396 9.4211C7.65435 9.45797 7.68683 9.4835 7.73152 9.49769C7.61288 9.5532 7.62918 9.57873 7.7803 9.57429C7.71859 9.62428 7.65352 9.67534 7.58518 9.72748C7.59122 9.75848 7.60747 9.77548 7.63396 9.77854C7.43776 9.89262 7.22635 9.97774 6.99981 10.0339C6.80683 10.0056 6.80683 9.96309 6.99981 9.9062C6.93479 9.8892 6.86971 9.87214 6.80469 9.85514C6.90796 9.69608 6.98927 9.52588 7.04859 9.3445C6.98669 9.23528 6.98669 9.12467 7.04859 9.01259C7.12605 8.93022 7.17483 8.82809 7.19493 8.7062C7.39122 8.55536 7.44 8.35963 7.34127 8.11897C7.36566 8.09344 7.39005 8.06791 7.41444 8.04237C7.4521 8.11126 7.50903 8.1538 7.58518 8.17003C7.60869 8.22151 7.61679 8.2811 7.60957 8.34876C7.66396 8.27216 7.70459 8.18704 7.73152 8.09344C7.69508 8.08139 7.65444 8.06433 7.60957 8.04237C7.55479 7.8659 7.59542 7.72118 7.73152 7.60833C7.66688 7.61589 7.60996 7.60741 7.56079 7.5828C7.52098 7.65036 7.46405 7.68437 7.39005 7.68493C7.62727 7.4604 7.78991 7.18808 7.87786 6.86791C7.94088 6.77829 7.98966 6.67616 8.0242 6.56152C8.20386 6.55228 8.38274 6.56928 8.56079 6.61259Z" fill="#A67B24"/>
    <path fill-rule="evenodd" clip-rule="evenodd" d="M7.19531 6.66365C6.93517 6.66365 6.67497 6.66365 6.41482 6.66365C6.30336 6.9373 6.21395 7.22663 6.14653 7.53174C6.08053 7.59225 6.02361 7.66037 5.9758 7.73599C6.19112 7.73477 6.40253 7.67523 6.60995 7.55727C6.75136 7.41791 6.88146 7.27325 7.00019 7.12323C6.87882 7.42894 6.66741 7.64168 6.36604 7.76152C6.09346 7.82734 5.81702 7.85288 5.53678 7.83812C5.42297 7.83812 5.30912 7.83812 5.19531 7.83812C5.19531 7.42961 5.19531 7.0211 5.19531 6.61259C5.47175 6.61259 5.74814 6.61259 6.02458 6.61259C6.2678 6.58991 6.5117 6.57291 6.75629 6.56152C6.92278 6.56239 7.06912 6.59645 7.19531 6.66365Z" fill="#D1AF57"/>
    <path fill-rule="evenodd" clip-rule="evenodd" d="M9.82886 5.48932C9.82886 5.82976 9.82886 6.17015 9.82886 6.51059C9.74867 6.49967 9.6755 6.51672 9.60935 6.56166C9.50067 6.74615 9.4356 6.95041 9.41423 7.17442C9.38379 7.28952 9.31877 7.37464 9.21911 7.42974C9.19555 7.47815 9.18745 7.52921 9.19472 7.58293C9.14594 7.58293 9.09716 7.58293 9.04838 7.58293C8.99247 7.75287 8.98433 7.92307 9.02399 8.09357C8.9573 8.04128 8.91667 8.06681 8.90203 8.17017C8.90911 8.20959 8.92535 8.24365 8.95081 8.2723C8.8472 8.32959 8.75779 8.40618 8.68252 8.50208C8.63681 8.66324 8.56364 8.8079 8.46301 8.93613C8.4874 8.96166 8.51179 8.98719 8.53618 9.01272C8.5855 8.96998 8.64242 8.95298 8.70691 8.96166C8.45886 9.23853 8.18247 9.47684 7.87764 9.67655C7.79062 9.69662 7.70935 9.73063 7.63374 9.77868C7.60725 9.77561 7.59101 9.75861 7.58496 9.72761C7.6533 9.67548 7.71838 9.62441 7.78008 9.57442C7.9533 9.42782 8.09964 9.2491 8.21911 9.03825C8.16769 8.96738 8.1596 8.89078 8.19472 8.80847C8.39652 8.51653 8.54286 8.19315 8.63374 7.83825C8.76711 7.79424 8.77525 7.7517 8.65813 7.71059C8.75618 7.58937 8.85374 7.47024 8.95081 7.35315C8.90555 7.33333 8.87301 7.29927 8.85325 7.25102C8.94828 7.04855 9.05394 6.85277 9.17033 6.66378C9.23008 6.36363 9.32764 6.07425 9.46301 5.7957C9.49555 5.99995 9.52803 5.99995 9.56057 5.7957C9.59716 5.76373 9.63784 5.7382 9.68252 5.7191C9.66628 5.7021 9.64999 5.68504 9.63374 5.66804C9.66745 5.61355 9.69184 5.55396 9.70691 5.48932C9.74447 5.43325 9.78511 5.43325 9.82886 5.48932Z" fill="#95660F"/>
    <path fill-rule="evenodd" clip-rule="evenodd" d="M9.68252 4.51912C9.74291 4.60666 9.77545 4.70879 9.78008 4.8255C9.51755 4.55298 9.41999 4.62106 9.4874 5.02976C9.42379 5.39149 9.2856 5.71493 9.07277 5.99997C9.06008 6.20035 9.0113 6.3876 8.92642 6.56167C8.90203 6.62126 8.8614 6.6638 8.80447 6.68933C8.82677 6.71047 8.84306 6.736 8.85325 6.76593C8.79642 6.82128 8.7314 6.86382 8.65813 6.89359C8.69067 6.92765 8.72316 6.96166 8.75569 6.99572C8.4834 7.47173 8.25579 7.97389 8.07277 8.5021C8.09838 8.53743 8.13091 8.56297 8.17033 8.57869C8.0713 8.67551 7.98999 8.78617 7.92642 8.91061C7.94969 8.96055 7.98218 9.00309 8.02399 9.03827C7.88555 9.15766 7.7555 9.28532 7.63374 9.42125C7.61023 9.37447 7.59399 9.32341 7.58496 9.26806C7.69784 8.92154 7.85233 8.5981 8.04838 8.29784C8.06896 8.20312 8.09335 8.10947 8.12155 8.01699C8.04828 7.91456 8.06452 7.82949 8.17033 7.76167C8.11623 7.66909 8.14877 7.62656 8.26789 7.63401C8.31584 7.42297 8.39716 7.22724 8.51179 7.04678C8.48491 6.97539 8.46867 6.90727 8.46301 6.84252C8.51038 6.78104 8.55916 6.75551 8.60935 6.76593C8.57877 6.7191 8.56247 6.66804 8.56057 6.61274C8.6073 6.63587 8.64799 6.66988 8.68252 6.71486C8.70662 6.63143 8.71472 6.5463 8.70691 6.45955C8.74667 6.50698 8.7873 6.55805 8.82886 6.61274C8.83701 6.59573 8.84511 6.57868 8.85325 6.56167C8.86925 6.36967 8.85301 6.19095 8.80447 6.0255C8.93247 5.99609 8.96501 5.92797 8.90203 5.82125C9.0932 5.5788 9.19891 5.29795 9.21911 4.97869C9.26842 4.93597 9.32535 4.91895 9.38984 4.92763C9.36555 4.7377 9.40623 4.56749 9.51179 4.41699C9.54642 4.49222 9.6033 4.52626 9.68252 4.51912Z" fill="#A0731D"/>
    <path fill-rule="evenodd" clip-rule="evenodd" d="M2.60937 3.24268C2.38946 3.6008 2.19434 3.97526 2.024 4.36608C1.72383 5.11177 1.65879 5.87772 1.82888 6.66395C1.83647 6.9519 1.90151 7.22428 2.024 7.48097C2.05368 7.62533 2.10246 7.76147 2.17034 7.88948C2.32999 8.1926 2.50885 8.48198 2.70693 8.75757C2.64393 8.80725 2.64393 8.85832 2.70693 8.91076C2.66669 8.956 2.6179 8.97301 2.56059 8.96182C2.30831 8.63736 2.08067 8.29692 1.87766 7.94055C1.82831 7.72588 1.75514 7.52162 1.65815 7.32778C1.59693 7.04928 1.54002 6.77696 1.48742 6.51076C1.40202 5.65983 1.51584 4.84283 1.82888 4.0597C1.95518 3.77802 2.11778 3.5227 2.31669 3.29374C2.306 3.35374 2.32226 3.4048 2.36547 3.44693C2.44406 3.40505 2.47658 3.33696 2.46303 3.24268C2.51181 3.24268 2.56059 3.24268 2.60937 3.24268Z" fill="#8C6315"/>
    <path fill-rule="evenodd" clip-rule="evenodd" d="M7.1951 6.66406C7.16705 6.83829 7.10203 6.99148 6.99998 7.12364C6.88124 7.27366 6.75115 7.41833 6.60973 7.55768C6.40232 7.67564 6.1909 7.73518 5.97559 7.7364C6.02339 7.66078 6.08032 7.59266 6.14632 7.53215C6.21373 7.22704 6.30315 6.93771 6.41461 6.66406C6.67476 6.66406 6.93495 6.66406 7.1951 6.66406Z" fill="#C19F47"/>
    <path fill-rule="evenodd" clip-rule="evenodd" d="M3.82922 6.40869C3.89426 6.45976 3.9593 6.51082 4.02434 6.56188C4.11601 6.60483 4.21357 6.62188 4.31703 6.61295C4.14994 6.94849 4.0036 7.31446 3.878 7.71082C4.00808 7.74488 4.00808 7.77889 3.878 7.81295C3.91052 7.82995 3.94304 7.84701 3.97556 7.86401C3.86169 7.99678 3.73974 8.12444 3.60971 8.24699C3.54255 8.50685 3.46125 8.76217 3.36581 9.01295C3.29535 9.09746 3.20592 9.13152 3.09751 9.11507C3.03247 9.08101 2.98369 9.02995 2.95117 8.96188C2.98767 8.85547 2.98767 8.75334 2.95117 8.6555C3.06583 8.4394 3.17965 8.22661 3.29264 8.0172C3.24302 7.96364 3.23489 7.90404 3.26825 7.83848C3.4487 7.44605 3.62757 7.05455 3.80483 6.66401C3.8289 6.58057 3.83704 6.49545 3.82922 6.40869Z" fill="#EFD782"/>
    <path fill-rule="evenodd" clip-rule="evenodd" d="M6.0245 6.61287C5.74806 6.61287 5.47167 6.61287 5.19523 6.61287C5.19523 7.02138 5.19523 7.42989 5.19523 7.8384C5.30903 7.8384 5.42289 7.8384 5.53669 7.8384C5.47845 7.90361 5.39718 7.93767 5.29279 7.94053C5.19869 7.93848 5.10928 7.92148 5.0245 7.88946C5.00011 7.44725 4.99201 7.00468 5.00011 6.5618C5.35069 6.54521 5.69215 6.56226 6.0245 6.61287Z" fill="#9F7A26"/>
    <path fill-rule="evenodd" clip-rule="evenodd" d="M1.39002 3.70215C1.43849 3.84611 1.48727 3.99079 1.53636 4.13619C1.47132 4.13619 1.40627 4.13619 1.34124 4.13619C1.30417 4.20978 1.27165 4.28637 1.24367 4.36598C1.42721 4.8219 1.47599 5.29851 1.39002 5.79577C1.39034 6.05369 1.42286 6.29195 1.48758 6.51066C1.49561 6.66477 1.48748 6.81796 1.46319 6.97023C1.41112 7.00552 1.35421 7.03105 1.29245 7.04683C1.37056 7.06077 1.44373 7.0863 1.51197 7.12343C1.57628 7.27182 1.59254 7.42501 1.56075 7.583C1.5564 7.41199 1.49949 7.38646 1.39002 7.5064C1.42779 7.62921 1.45218 7.75687 1.46319 7.88938C1.51252 7.93212 1.56943 7.94913 1.63392 7.94045C1.64088 8.03042 1.62462 8.11554 1.58514 8.19577C1.65187 8.25163 1.70878 8.23457 1.75587 8.1447C1.91847 8.19577 1.91847 8.24683 1.75587 8.29789C1.71726 8.36147 1.69287 8.42954 1.6827 8.50215C1.6286 8.49924 1.57982 8.48223 1.53636 8.45108C1.50813 8.30652 1.44309 8.18739 1.34124 8.09364C1.34124 8.07663 1.34124 8.05958 1.34124 8.04257C1.34621 7.86247 1.29743 7.70075 1.19489 7.55747C1.20638 7.51289 1.22264 7.4703 1.24367 7.42981C1.16154 7.2709 1.12903 7.10065 1.14611 6.91917C1.09733 6.91917 1.04855 6.91917 0.999772 6.91917C0.936274 6.27245 0.936274 5.62562 0.999772 4.97874C0.999772 4.96172 0.999772 4.9447 0.999772 4.92768C1.07487 4.80828 1.10739 4.67211 1.09733 4.51917C1.20402 4.29472 1.28532 4.05642 1.34124 3.80428C1.33286 3.75364 1.34913 3.7196 1.39002 3.70215Z" fill="#F7EEC7"/>
    <path fill-rule="evenodd" clip-rule="evenodd" d="M4.21919 3.70215C4.27761 3.85157 4.32639 4.00476 4.36553 4.16172C4.36553 4.51917 4.36553 4.87662 4.36553 5.23406C4.1799 5.23856 4.00104 5.2045 3.82895 5.13194C3.73401 5.3751 3.79906 5.5453 4.02407 5.64257C4.11015 5.69165 4.20771 5.7087 4.31675 5.69364C4.31675 5.82983 4.31675 5.96596 4.31675 6.10215C4.13459 6.11119 3.95573 6.09418 3.78017 6.05108C3.72365 6.25549 3.60169 6.40868 3.41431 6.51066C3.39107 6.68816 3.32603 6.84135 3.21919 6.97023C3.16905 7.41045 3.0227 7.80191 2.78017 8.1447C2.75609 8.22814 2.74796 8.31326 2.75578 8.40002C2.63583 8.40972 2.55453 8.35866 2.51187 8.24683C2.50548 8.20909 2.51362 8.17503 2.53626 8.1447C2.57711 8.22165 2.63402 8.24719 2.707 8.2213C2.70135 8.15655 2.68509 8.08843 2.65822 8.01704C2.7337 7.84654 2.815 7.67629 2.90212 7.5064C2.88586 7.4894 2.8696 7.47234 2.85334 7.45534C2.94585 7.39074 3.01089 7.30567 3.04846 7.20002C3.08786 6.9708 3.12039 6.74101 3.14602 6.51066C3.33983 6.48686 3.46991 6.37626 3.53626 6.17874C3.47214 6.10751 3.4884 6.05645 3.58505 6.02555C3.54894 5.9344 3.51643 5.8408 3.48748 5.7447C3.54547 5.69726 3.61052 5.68026 3.68261 5.69364C3.69886 5.48938 3.71513 5.28513 3.73139 5.08087C3.7887 5.09205 3.83748 5.07504 3.87773 5.02981C3.92957 4.91129 4.00274 4.86023 4.09724 4.87662C4.14509 4.47855 4.18575 4.08706 4.21919 3.70215Z" fill="#F1DD94"/>
    <path opacity="0.882" fill-rule="evenodd" clip-rule="evenodd" d="M1 6.91895C1.04878 6.91895 1.09756 6.91895 1.14634 6.91895C1.12925 7.10043 1.16177 7.27067 1.2439 7.42958C1.22287 7.47008 1.20661 7.51266 1.19512 7.55724C1.29765 7.70053 1.34643 7.86225 1.34146 8.04235C1.15321 7.69792 1.03939 7.32347 1 6.91895Z" fill="#C7C4AE"/>
    <path fill-rule="evenodd" clip-rule="evenodd" d="M9.78013 4.82565C9.9254 5.31673 9.95794 5.81036 9.87769 6.3065C9.89481 5.96228 9.87857 5.6899 9.82891 5.48948C9.78516 5.43341 9.74452 5.43341 9.70696 5.48948C9.69189 5.55412 9.6675 5.61371 9.63379 5.6682C9.65003 5.6852 9.66633 5.70226 9.68257 5.71926C9.63789 5.73836 9.5972 5.76389 9.56062 5.79586C9.52808 6.00011 9.49559 6.00011 9.46306 5.79586C9.32769 6.07441 9.23013 6.36379 9.17037 6.66394C9.05398 6.85293 8.94833 7.04871 8.8533 7.25118C8.87306 7.29943 8.90559 7.33349 8.95086 7.3533C8.85379 7.47039 8.75623 7.58953 8.65818 7.71075C8.7753 7.75186 8.76715 7.79439 8.63379 7.83841C8.54291 8.1933 8.39657 8.51669 8.19476 8.80862C8.15964 8.89094 8.16774 8.96753 8.21915 9.03841C8.09969 9.24925 7.95335 9.42798 7.78013 9.57458C7.62901 9.57902 7.61272 9.55349 7.73135 9.49799C7.68667 9.48379 7.65418 9.45826 7.63379 9.42139C7.75555 9.28546 7.88559 9.1578 8.02403 9.03841C7.98223 9.00323 7.94974 8.96069 7.92647 8.91075C7.99003 8.78631 8.07135 8.67565 8.17037 8.57884C8.13096 8.56311 8.09842 8.53758 8.07281 8.50224C8.25584 7.97404 8.48345 7.47187 8.75574 6.99586C8.7232 6.9618 8.69072 6.92779 8.65818 6.89373C8.73145 6.86396 8.79647 6.82142 8.8533 6.76607C8.84311 6.73615 8.82681 6.71062 8.80452 6.68948C8.86145 6.66394 8.90208 6.62141 8.92647 6.56182C9.01135 6.38774 9.06013 6.20049 9.07281 6.00011C9.28564 5.71508 9.42384 5.39164 9.48745 5.0299C9.42003 4.62121 9.51759 4.55312 9.78013 4.82565Z" fill="#9B6D17"/>
    <path opacity="0.294" fill-rule="evenodd" clip-rule="evenodd" d="M10.6587 6.91895C10.6111 7.45986 10.4485 7.9535 10.1709 8.3998C10.175 8.34894 10.1588 8.3064 10.1221 8.27214C10.2412 8.15106 10.3307 8.0064 10.3904 7.83809C10.4656 7.52175 10.5551 7.21537 10.6587 6.91895Z" fill="#67522D"/>
    <path fill-rule="evenodd" clip-rule="evenodd" d="M9.8785 6.30628C9.8285 7.36376 9.43826 8.24885 8.70777 8.9616C8.64328 8.95292 8.58635 8.96992 8.53704 9.01266C8.51265 8.98713 8.48826 8.9616 8.46387 8.93607C8.5645 8.80785 8.63767 8.66318 8.68338 8.50202C8.75865 8.40613 8.84806 8.32953 8.95167 8.27224C8.92621 8.24359 8.90996 8.20953 8.90289 8.17011C8.91753 8.06676 8.95816 8.04122 9.02484 8.09351C8.98518 7.92301 8.99333 7.75282 9.04923 7.58288C9.09801 7.58288 9.14679 7.58288 9.19557 7.58288C9.18831 7.52916 9.1964 7.47809 9.21996 7.42968C9.31962 7.37459 9.38465 7.28946 9.41509 7.17436C9.43645 6.95035 9.50153 6.74609 9.61021 6.5616C9.67635 6.51666 9.74953 6.49961 9.82972 6.51053C9.82972 6.17009 9.82972 5.8297 9.82972 5.48926C9.87938 5.68968 9.89562 5.96206 9.8785 6.30628Z" fill="#8F6009"/>
    <path fill-rule="evenodd" clip-rule="evenodd" d="M10.6582 5.33594C10.7066 5.76916 10.7229 6.21173 10.707 6.6636C10.7208 6.76138 10.7046 6.84646 10.6582 6.91892C10.5546 7.21534 10.4652 7.52172 10.3899 7.83807C10.3302 8.00637 10.2407 8.15104 10.1216 8.27211C10.1583 8.30637 10.1746 8.34891 10.1704 8.39977C10.0184 8.55939 9.90462 8.74664 9.82891 8.96147C9.79637 8.96147 9.76389 8.96147 9.73135 8.96147C9.72301 8.83417 9.77179 8.74057 9.87769 8.68062C9.82237 8.62874 9.83862 8.59468 9.92647 8.57849C9.87115 8.52661 9.8874 8.49255 9.97525 8.47636C9.85233 8.38971 9.73852 8.29611 9.63379 8.19551C9.72272 7.94121 9.83657 7.7029 9.97525 7.48062C10.0105 7.45927 10.0349 7.42527 10.0484 7.37849C10.1647 7.46673 10.2867 7.48373 10.4143 7.42955C10.3586 7.38232 10.3586 7.33973 10.4143 7.30189C10.3817 7.28489 10.3493 7.26784 10.3167 7.25083C10.3817 7.23383 10.4468 7.21677 10.5118 7.19977C10.457 7.18705 10.4082 7.16152 10.3655 7.12317C10.4167 7.04137 10.3842 6.99883 10.2679 6.99551C10.4631 6.96145 10.4631 6.92744 10.2679 6.89338C10.3626 6.85544 10.452 6.86397 10.5362 6.91892C10.5444 6.90191 10.5525 6.88486 10.5606 6.86785C10.5007 6.82797 10.4356 6.80244 10.3655 6.79126C10.6256 6.7572 10.6256 6.72319 10.3655 6.68913C10.4617 6.66385 10.5593 6.65532 10.6582 6.6636C10.6582 6.28915 10.6582 5.91464 10.6582 5.54019C10.6582 5.47212 10.6582 5.40401 10.6582 5.33594Z" fill="#9D7526"/>
    <path fill-rule="evenodd" clip-rule="evenodd" d="M7.87833 6.86816C7.79038 7.18833 7.62775 7.46066 7.39053 7.68519C7.35799 7.68519 7.32551 7.68519 7.29297 7.68519C7.53614 7.44743 7.73126 7.17506 7.87833 6.86816Z" fill="#E0B964"/>
    <path fill-rule="evenodd" clip-rule="evenodd" d="M7.82963 6.56152C7.64363 7.35199 7.17212 7.82862 6.415 7.99131C5.91207 8.03415 5.40802 8.05116 4.9028 8.04237C4.88973 7.96072 4.90602 7.89266 4.95158 7.83812C4.95158 7.88918 4.95158 7.94025 4.95158 7.99131C5.37636 8.00157 5.79914 7.97604 6.21988 7.91471C6.75514 7.7221 7.09661 7.33912 7.24427 6.76578C7.30524 6.76185 7.34588 6.72779 7.36622 6.66365C7.43427 6.7308 7.48305 6.71374 7.51256 6.61259C7.56558 6.73677 7.58997 6.71972 7.58573 6.56152C7.66705 6.56152 7.74832 6.56152 7.82963 6.56152Z" fill="#8D610C"/>
    <path fill-rule="evenodd" clip-rule="evenodd" d="M4.95158 7.83845C4.90602 7.89299 4.88972 7.96106 4.9028 8.04271C4.72104 8.0592 4.54218 8.04215 4.36621 7.99165C4.4424 7.81425 4.48305 7.62705 4.48816 7.42994C4.50255 7.11033 4.64889 6.88902 4.92719 6.76611C4.95158 7.12315 4.95967 7.4806 4.95158 7.83845Z" fill="#A77B26"/>
    <path fill-rule="evenodd" clip-rule="evenodd" d="M8.36549 6.2041C8.5493 6.19292 8.66315 6.27799 8.70696 6.45942C8.71476 6.54618 8.70666 6.6313 8.68257 6.71474C8.64803 6.66975 8.60735 6.63574 8.56062 6.61261C8.38257 6.56931 8.20369 6.5523 8.02403 6.56155C7.98949 6.67618 7.94071 6.77831 7.87769 6.86793C7.73062 7.17482 7.53549 7.4472 7.29232 7.68495C7.17393 7.79004 7.04388 7.88364 6.90208 7.9658C6.9834 7.98281 7.06466 7.99986 7.14598 8.01687C7.12052 8.16541 7.07984 8.32713 7.02403 8.50197C6.99149 8.4339 6.95901 8.4339 6.92647 8.50197C6.89744 8.57341 6.90559 8.64148 6.95086 8.70623C6.82393 8.88291 6.71823 9.07016 6.63379 9.26793C6.58291 9.43424 6.55852 9.60444 6.56062 9.77857C6.36798 9.78842 6.36798 9.81395 6.56062 9.85516C6.40432 9.86859 6.30676 9.95372 6.26793 10.1105C6.38062 10.1359 6.49442 10.1443 6.6094 10.136C6.59271 10.1788 6.56023 10.1959 6.51184 10.1871C6.46305 10.1871 6.41427 10.1871 6.36549 10.1871C6.16818 10.1798 5.98115 10.1798 5.80452 10.1871C5.78062 10.1211 5.77247 10.0529 5.78013 9.98282C5.82891 9.98282 5.87769 9.98282 5.92647 9.98282C5.89998 9.75104 5.96501 9.55527 6.12159 9.39559C6.05715 9.31669 6.0734 9.25715 6.17037 9.21687C6.21057 9.04912 6.23496 8.87892 6.24354 8.70623C6.29993 8.78247 6.34062 8.77394 6.36549 8.6807C6.4253 8.50698 6.45784 8.32825 6.46305 8.14452C6.36549 8.14452 6.26793 8.14452 6.17037 8.14452C6.26944 8.12042 6.35076 8.06936 6.41427 7.99133C7.1714 7.82864 7.64291 7.35201 7.82891 6.56155C8.05184 6.5135 8.27949 6.49649 8.51183 6.51048C8.50623 6.38553 8.45744 6.2834 8.36549 6.2041Z" fill="#B8903A"/>
    <path fill-rule="evenodd" clip-rule="evenodd" d="M4.31717 6.61279C4.37354 6.99521 4.38167 7.38667 4.34156 7.78726C4.278 7.91329 4.20483 8.03242 4.12205 8.14471C4.35231 8.1492 4.59622 8.1492 4.85375 8.14471C4.73333 8.18643 4.60325 8.21196 4.46351 8.2213C4.50293 8.23703 4.53545 8.26256 4.56107 8.2979C4.50308 8.34534 4.43804 8.36234 4.36595 8.34896C4.32816 8.58758 4.27125 8.82585 4.19522 9.06386C4.09315 9.15812 4.02811 9.27725 4.0001 9.4213C3.92846 9.49734 3.85529 9.56546 3.78058 9.62556C3.51817 9.5053 3.29052 9.33511 3.09766 9.11492C3.20607 9.13136 3.2955 9.0973 3.36595 9.01279C3.46139 8.76202 3.54269 8.5067 3.60985 8.24684C3.73989 8.12428 3.86184 7.99662 3.97571 7.86386C3.94318 7.84685 3.91067 7.8298 3.87814 7.81279C4.00823 7.77873 4.00823 7.74472 3.87814 7.71067C4.00374 7.31431 4.15008 6.94833 4.31717 6.61279Z" fill="#E6CC73"/>
    <path fill-rule="evenodd" clip-rule="evenodd" d="M7.00026 10.0341C6.88021 10.0867 6.75016 10.1208 6.61002 10.1362C6.49504 10.1445 6.38124 10.136 6.26855 10.1107C6.30738 9.9539 6.40494 9.86878 6.56124 9.85535C6.3686 9.81414 6.3686 9.78861 6.56124 9.77875C6.55914 9.60462 6.58353 9.43443 6.63441 9.26811C6.71885 9.07034 6.82455 8.88309 6.95148 8.70641C6.90621 8.64166 6.89807 8.5736 6.92709 8.50216C6.95963 8.43409 6.99212 8.43409 7.02465 8.50216C7.08046 8.32731 7.12114 8.1656 7.1466 8.01705C7.06529 8.00005 6.98402 7.98299 6.9027 7.96599C7.04451 7.88382 7.17455 7.79022 7.29295 7.68514C7.32548 7.68514 7.35797 7.68514 7.39051 7.68514C7.46451 7.68457 7.52143 7.65057 7.56124 7.58301C7.61041 7.60762 7.66734 7.6161 7.73197 7.60854C7.59587 7.72139 7.55524 7.86611 7.61002 8.04258C7.6549 8.06454 7.69553 8.0816 7.73197 8.09365C7.70504 8.18725 7.66441 8.27237 7.61002 8.34897C7.61724 8.28131 7.60914 8.22171 7.58563 8.17024C7.50948 8.154 7.45255 8.11147 7.4149 8.04258C7.39051 8.06811 7.36612 8.09365 7.34173 8.11918C7.44046 8.35984 7.39168 8.55557 7.19538 8.70641C7.17529 8.8283 7.12651 8.93043 7.04904 9.0128C6.98714 9.12488 6.98714 9.23548 7.04904 9.34471C6.98973 9.52609 6.90841 9.69628 6.80514 9.85535C6.87016 9.87235 6.93524 9.88941 7.00026 9.90641C6.80729 9.9633 6.80729 10.0058 7.00026 10.0341Z" fill="#AE852F"/>
    <path opacity="0.114" fill-rule="evenodd" clip-rule="evenodd" d="M1.3418 8.09375C1.44365 8.1875 1.50869 8.30664 1.53692 8.4512C1.43507 8.35744 1.37003 8.23831 1.3418 8.09375Z" fill="#7A766C"/>
    <path fill-rule="evenodd" clip-rule="evenodd" d="M4.85344 8.14453C5.01603 8.14453 5.17866 8.14453 5.34125 8.14453C5.3792 8.17803 5.41169 8.22057 5.43881 8.27219C5.37993 8.33857 5.3474 8.41517 5.34125 8.50198C5.28393 8.4908 5.23515 8.5078 5.19491 8.55304C5.16647 8.62974 5.12583 8.69781 5.07296 8.7573C5.06783 8.9544 5.0272 9.1416 4.95101 9.319C4.9612 9.34892 4.97749 9.37445 4.99979 9.3956C4.89418 9.55629 4.78848 9.71801 4.68271 9.8807C4.64291 9.94826 4.586 9.98227 4.51198 9.98283C4.47946 9.98283 4.44694 9.98283 4.41442 9.98283C4.17955 9.90256 3.96817 9.78342 3.78027 9.62538C3.85498 9.56528 3.92815 9.49716 3.99979 9.42113C4.0278 9.27708 4.09284 9.15794 4.19491 9.06368C4.27094 8.82567 4.32785 8.58741 4.36564 8.34879C4.43773 8.36217 4.50277 8.34516 4.56076 8.29772C4.53514 8.26239 4.50262 8.23685 4.4632 8.22113C4.60294 8.21178 4.73302 8.18625 4.85344 8.14453Z" fill="#D7B860"/>
    <path fill-rule="evenodd" clip-rule="evenodd" d="M5.87831 8.14453C5.97587 8.14453 6.07343 8.14453 6.17099 8.14453C6.26855 8.14453 6.36612 8.14453 6.46368 8.14453C6.45846 8.32826 6.42592 8.50698 6.36612 8.6807C6.34124 8.77394 6.30055 8.78247 6.24416 8.70623C6.23558 8.87893 6.21119 9.04913 6.17099 9.21687C6.07402 9.25716 6.05777 9.3167 6.12221 9.3956C5.96563 9.55527 5.9006 9.75105 5.92709 9.98283C5.87831 9.98283 5.82953 9.98283 5.78075 9.98283C5.77309 10.0529 5.78124 10.1211 5.80514 10.1871C5.98177 10.1798 6.1688 10.1798 6.36612 10.1871C6.09855 10.2293 5.82212 10.2548 5.53685 10.2637C5.41094 10.4163 5.24836 10.4758 5.04904 10.4424C4.77219 10.3952 4.51203 10.3101 4.26855 10.1871C4.35045 10.1671 4.43175 10.1415 4.51246 10.1105C4.45119 10.0892 4.41867 10.0467 4.4149 9.98283C4.44742 9.98283 4.47994 9.98283 4.51246 9.98283C4.77409 10.2005 5.02612 10.1835 5.26855 9.93177C5.29373 9.80237 5.35065 9.69177 5.43929 9.59985C5.45465 9.50273 5.45465 9.4006 5.43929 9.29347C5.50431 9.2424 5.56938 9.19134 5.63441 9.14028C5.61212 9.11914 5.59582 9.0936 5.58563 9.06368C5.63548 9.02007 5.67612 8.96901 5.70758 8.91049C5.71392 8.6832 5.74641 8.46194 5.80514 8.24666C5.82138 8.28072 5.83768 8.31473 5.85392 8.34879C5.87782 8.28276 5.88597 8.21464 5.87831 8.14453Z" fill="#C09D45"/>
    <path opacity="0.878" fill-rule="evenodd" clip-rule="evenodd" d="M1.53613 8.45117C1.5796 8.48232 1.62838 8.49933 1.68247 8.50224C1.68331 8.60768 1.69957 8.70981 1.73125 8.80862C1.6294 8.71487 1.56436 8.59573 1.53613 8.45117Z" fill="#A09A85"/>
    <path fill-rule="evenodd" clip-rule="evenodd" d="M1.48809 6.51074C1.5407 6.77694 1.59761 7.04926 1.65882 7.32776C1.75582 7.5216 1.82899 7.72586 1.87833 7.94053C1.86351 7.97372 1.84725 8.00778 1.82955 8.04266C1.93788 8.15464 2.00292 8.29083 2.02468 8.45117C2.06492 8.49641 2.1137 8.51341 2.17102 8.50223C2.16372 8.55595 2.17186 8.60701 2.19541 8.65542C2.35864 8.80075 2.48059 8.97947 2.56126 9.19159C2.47779 9.24945 2.4534 9.32604 2.48809 9.42138C2.5879 9.51718 2.67732 9.6193 2.75638 9.72776C2.89543 9.52846 2.92795 9.55399 2.85394 9.80436C2.92891 9.86104 2.96143 9.93764 2.95151 10.0341C2.91898 10.0341 2.88647 10.0341 2.85394 10.0341C2.74425 10.0045 2.66295 9.93646 2.61004 9.82989C2.4637 9.64264 2.3011 9.47244 2.12224 9.31925C2.08972 9.31925 2.07346 9.30225 2.07346 9.26819C2.04463 9.04167 1.93081 8.88848 1.73199 8.80861C1.70031 8.70981 1.68405 8.60768 1.68321 8.50223C1.69339 8.42962 1.71778 8.36155 1.75638 8.29798C1.91898 8.24691 1.91898 8.19585 1.75638 8.14478C1.7093 8.23466 1.65238 8.25171 1.58565 8.19585C1.62513 8.11563 1.64139 8.0305 1.63443 7.94053C1.56994 7.94921 1.51303 7.93221 1.4637 7.88947C1.4527 7.75696 1.42831 7.6293 1.39053 7.50649C1.50001 7.38654 1.55692 7.41207 1.56126 7.58308C1.59306 7.42509 1.5768 7.2719 1.51248 7.12351C1.44425 7.08638 1.37108 7.06085 1.29297 7.04691C1.35472 7.03113 1.41163 7.0056 1.4637 6.97032C1.48799 6.81804 1.49612 6.66485 1.48809 6.51074Z" fill="#F3E7B3"/>
    <path opacity="0.259" fill-rule="evenodd" clip-rule="evenodd" d="M10.1706 8.3999C10.1162 8.62698 10.0024 8.81418 9.8291 8.9616C9.90481 8.74678 10.0186 8.55953 10.1706 8.3999Z" fill="#634C32"/>
    <path fill-rule="evenodd" clip-rule="evenodd" d="M5.34099 8.14453C5.51987 8.14453 5.69869 8.14453 5.87757 8.14453C5.88523 8.21464 5.87708 8.28276 5.85318 8.34879C5.83694 8.31473 5.82065 8.28072 5.8044 8.24666C5.74567 8.46194 5.71318 8.6832 5.70684 8.91049C5.67538 8.96901 5.63474 9.02007 5.58489 9.06368C5.59508 9.0936 5.61138 9.11914 5.63367 9.14028C5.56865 9.19134 5.50357 9.2424 5.43855 9.29347C5.45391 9.4006 5.45391 9.50273 5.43855 9.59985C5.34991 9.69177 5.29299 9.80237 5.26782 9.93177C5.02538 10.1835 4.77335 10.2005 4.51172 9.98283C4.58574 9.98227 4.64265 9.94826 4.68245 9.8807C4.78822 9.71801 4.89391 9.55629 4.99952 9.3956C4.97723 9.37445 4.96094 9.34892 4.95074 9.319C5.02694 9.1416 5.06757 8.9544 5.07269 8.7573C5.12557 8.69781 5.16621 8.62974 5.19465 8.55304C5.23489 8.5078 5.28367 8.4908 5.34099 8.50198C5.34713 8.41517 5.37967 8.33857 5.43855 8.27219C5.41143 8.22057 5.37894 8.17803 5.34099 8.14453Z" fill="#CBAA51"/>
    <path opacity="0.894" fill-rule="evenodd" clip-rule="evenodd" d="M1.73145 8.80859C1.93026 8.88846 2.04408 9.04165 2.07291 9.26817C1.92428 9.1447 1.81046 8.9915 1.73145 8.80859Z" fill="#B5B194"/>
    <path fill-rule="evenodd" clip-rule="evenodd" d="M9.63412 8.1958C9.73885 8.2964 9.85266 8.39 9.97559 8.47665C9.88773 8.49284 9.87149 8.5269 9.92681 8.57878C9.83895 8.59497 9.82271 8.62903 9.87802 8.68091C9.77212 8.74086 9.72334 8.83446 9.73168 8.96176C9.66037 9.05209 9.57905 9.13721 9.48778 9.21708C9.39798 9.31982 9.3492 9.43895 9.34144 9.57452C9.23881 9.55926 9.14124 9.57626 9.04876 9.62559C8.96461 9.75401 8.8589 9.85614 8.73168 9.93197C8.61461 9.82658 8.5089 9.82658 8.41461 9.93197C8.47963 9.98916 8.50402 10.0572 8.48778 10.1362C8.47154 10.1192 8.45524 10.1022 8.439 10.0852C8.41793 10.2165 8.34476 10.2846 8.21949 10.2894C8.13144 10.2518 8.05017 10.2007 7.97559 10.1362C8.02876 10.0595 8.08568 10.0425 8.14632 10.0852C8.22042 10.0015 8.22856 9.91635 8.17071 9.82984C8.77685 9.39963 9.26466 8.85498 9.63412 8.1958Z" fill="#AE8731"/>
    <path opacity="0.514" fill-rule="evenodd" clip-rule="evenodd" d="M9.73204 8.96191C9.76458 8.96191 9.79707 8.96191 9.8296 8.96191C9.68507 9.18139 9.52243 9.38564 9.3418 9.57468C9.34955 9.43911 9.39833 9.31997 9.48814 9.21723C9.57941 9.13737 9.66072 9.05225 9.73204 8.96191Z" fill="#816B3A"/>
    <path opacity="0.243" fill-rule="evenodd" clip-rule="evenodd" d="M2.12207 9.31934C2.30093 9.47253 2.46353 9.64272 2.60988 9.82997C2.39849 9.71084 2.23589 9.5406 2.12207 9.31934Z" fill="#837F69"/>
    <path fill-rule="evenodd" clip-rule="evenodd" d="M1.87788 7.94043C2.08089 8.2968 2.30853 8.63725 2.56081 8.96171C2.8168 9.28203 3.10948 9.55435 3.43886 9.77873C3.49094 9.89311 3.57223 9.98676 3.68276 10.0596C3.74584 10.0846 3.81089 10.0931 3.87788 10.0851C3.87788 10.1532 3.87788 10.2213 3.87788 10.2894C3.81089 10.2813 3.74584 10.2899 3.68276 10.3149C3.81772 10.465 3.96406 10.5926 4.12178 10.6979C4.05675 10.6979 3.9917 10.6979 3.92666 10.6979C3.84492 10.5787 3.7311 10.5276 3.5852 10.5447C3.56212 10.4729 3.51334 10.4388 3.43886 10.4426C3.38529 10.3968 3.38529 10.3542 3.43886 10.3149C3.32345 10.2924 3.20963 10.2669 3.09739 10.2383C3.04861 10.1702 2.99983 10.1021 2.95105 10.034C2.96098 9.93754 2.92846 9.86094 2.85349 9.80426C2.9275 9.55389 2.89497 9.52836 2.75593 9.72766C2.67687 9.6192 2.58744 9.51708 2.48764 9.42128C2.45295 9.32594 2.47734 9.24935 2.56081 9.19149C2.48014 8.97937 2.35819 8.80065 2.19496 8.65532C2.1714 8.60691 2.16327 8.55585 2.17056 8.50213C2.11325 8.51331 2.06447 8.49631 2.02422 8.45107C2.00247 8.29073 1.93742 8.15454 1.8291 8.04256C1.84679 8.00768 1.86306 7.97362 1.87788 7.94043Z" fill="#F3E09B"/>
    <path fill-rule="evenodd" clip-rule="evenodd" d="M2.70689 8.75732C2.78819 8.82539 2.86949 8.89351 2.95079 8.96158C2.98331 9.02965 3.03209 9.08071 3.09713 9.11477C3.29 9.33496 3.51764 9.50515 3.78006 9.62541C3.96795 9.78345 4.17934 9.90258 4.41421 9.98286C4.41798 10.0467 4.4505 10.0892 4.51177 10.1105C4.43106 10.1416 4.34976 10.1671 4.26786 10.1871C3.97258 10.0921 3.69616 9.95595 3.4386 9.7786C3.10922 9.55423 2.81654 9.2819 2.56055 8.96158C2.61786 8.97276 2.66664 8.95576 2.70689 8.91052C2.64389 8.85807 2.64389 8.80701 2.70689 8.75732Z" fill="#A8832D"/>
    <path fill-rule="evenodd" clip-rule="evenodd" d="M9.3413 9.57426C9.19622 9.70897 9.04988 9.84516 8.90227 9.98278C8.7431 10.0061 8.6293 10.0912 8.56081 10.2381C8.38164 10.3147 8.21905 10.4168 8.073 10.5445C8.01056 10.6175 7.92925 10.6516 7.8291 10.6466C7.91354 10.4731 8.04359 10.354 8.21935 10.2892C8.34461 10.2844 8.41778 10.2162 8.43886 10.0849C8.4551 10.1019 8.47139 10.119 8.48764 10.136C8.50388 10.057 8.47949 9.9889 8.41447 9.93171C8.50876 9.82632 8.61447 9.82632 8.73154 9.93171C8.85876 9.85588 8.96447 9.75375 9.04861 9.62533C9.1411 9.576 9.23866 9.559 9.3413 9.57426Z" fill="#A98B49"/>
    <path fill-rule="evenodd" clip-rule="evenodd" d="M7.87841 9.67676C7.88621 9.76117 7.9187 9.82923 7.97597 9.88101C7.49421 10.2244 6.95763 10.4031 6.36621 10.4172C6.40143 10.3278 6.45021 10.2512 6.51255 10.1874C6.56094 10.1962 6.59343 10.1791 6.61011 10.1363C6.75026 10.1209 6.88031 10.0869 7.00036 10.0342C7.22689 9.97809 7.43831 9.89296 7.6345 9.77889C7.71011 9.73083 7.79138 9.69683 7.87841 9.67676Z" fill="#E0C167"/>
    <path opacity="0.384" fill-rule="evenodd" clip-rule="evenodd" d="M2.85352 10.0342C2.88604 10.0342 2.91855 10.0342 2.95108 10.0342C2.99986 10.1022 3.04864 10.1704 3.09742 10.2384C2.98772 10.2088 2.90642 10.1407 2.85352 10.0342Z" fill="#857E5D"/>
    <path opacity="0.125" fill-rule="evenodd" clip-rule="evenodd" d="M8.90201 9.98291C8.80201 10.0874 8.68821 10.1726 8.56055 10.2382C8.62903 10.0913 8.74284 10.0062 8.90201 9.98291Z" fill="#735B38"/>
    <path opacity="0.988" fill-rule="evenodd" clip-rule="evenodd" d="M3.09766 10.2383C3.20989 10.2669 3.32371 10.2924 3.43912 10.3149C3.38555 10.3542 3.38555 10.3967 3.43912 10.4425C3.30102 10.413 3.1872 10.3449 3.09766 10.2383Z" fill="#9E9574"/>
    <path fill-rule="evenodd" clip-rule="evenodd" d="M8.17078 9.82959C8.22863 9.91609 8.22049 10.0012 8.14639 10.0849C8.08576 10.0422 8.02883 10.0592 7.97566 10.136C8.05024 10.2005 8.13151 10.2515 8.21956 10.2892C8.0438 10.354 7.91376 10.4731 7.82932 10.6466C7.62863 10.6829 7.43351 10.7509 7.24395 10.8509C7.15536 10.7878 7.07405 10.7878 7.00005 10.8509C6.76732 10.8529 6.5478 10.8699 6.34151 10.9019C6.28356 10.8476 6.25917 10.7795 6.26834 10.6977C6.44532 10.6711 6.45341 10.603 6.29273 10.4934C5.96468 10.5011 5.63136 10.5011 5.29273 10.4934C5.19932 10.5079 5.11805 10.4909 5.04883 10.4424C5.24815 10.4758 5.41073 10.4162 5.53663 10.2636C5.8219 10.2548 6.09834 10.2293 6.3659 10.187C6.41468 10.187 6.46346 10.187 6.51224 10.187C6.4499 10.2508 6.40112 10.3274 6.3659 10.4168C6.95732 10.4028 7.4939 10.2241 7.97566 9.88065C8.04068 9.86365 8.10576 9.84659 8.17078 9.82959Z" fill="#C9A650"/>
    <path opacity="0.137" fill-rule="evenodd" clip-rule="evenodd" d="M8.56105 10.2383C8.43124 10.3916 8.26861 10.4937 8.07324 10.5447C8.21929 10.417 8.38188 10.3149 8.56105 10.2383Z" fill="#5C4D2E"/>
    <path fill-rule="evenodd" clip-rule="evenodd" d="M3.43945 9.77881C3.69701 9.95615 3.97344 10.0923 4.26872 10.1873C4.5122 10.3103 4.77236 10.3955 5.04921 10.4426C5.11843 10.4912 5.1997 10.5082 5.29311 10.4937C5.39375 10.5382 5.49131 10.5978 5.58579 10.6724C5.53955 10.6971 5.49077 10.7056 5.43945 10.698C5.43945 10.7831 5.43945 10.8682 5.43945 10.9533C5.19462 10.9404 4.95072 10.9149 4.70775 10.8767C4.51834 10.8012 4.32321 10.7416 4.12238 10.698C3.96466 10.5927 3.81832 10.4651 3.68336 10.315C3.74644 10.29 3.81148 10.2814 3.87848 10.2894C3.87848 10.2214 3.87848 10.1533 3.87848 10.0852C3.81148 10.0932 3.74644 10.0847 3.68336 10.0597C3.57283 9.98684 3.49153 9.89319 3.43945 9.77881Z" fill="#EBD17A"/>
    <path opacity="0.114" fill-rule="evenodd" clip-rule="evenodd" d="M3.43945 10.4427C3.51394 10.4389 3.56272 10.473 3.58579 10.5448C3.51131 10.5485 3.46253 10.5145 3.43945 10.4427Z" fill="#6B6442"/>
    <path fill-rule="evenodd" clip-rule="evenodd" d="M5.29297 10.4937C5.6316 10.5013 5.96492 10.5013 6.29297 10.4937C6.45365 10.6032 6.44555 10.6713 6.26858 10.6979C6.25941 10.7798 6.2838 10.8479 6.34175 10.9022C6.54804 10.8701 6.76755 10.8531 7.00029 10.8511C6.80385 10.8856 6.60872 10.9367 6.41492 11.0043C6.08058 11.0208 5.75536 11.0038 5.43931 10.9532C5.43931 10.8681 5.43931 10.783 5.43931 10.6979C5.49063 10.7055 5.53941 10.697 5.58565 10.6724C5.49116 10.5977 5.3936 10.5382 5.29297 10.4937Z" fill="#D8B963"/>
    <path opacity="0.667" fill-rule="evenodd" clip-rule="evenodd" d="M3.58496 10.5447C3.73086 10.5277 3.84468 10.5787 3.92642 10.6979C3.7968 10.6757 3.68298 10.6246 3.58496 10.5447Z" fill="#948D67"/>
    <path opacity="0.6" fill-rule="evenodd" clip-rule="evenodd" d="M3.92676 10.6978C3.9918 10.6978 4.05684 10.6978 4.12188 10.6978C4.29664 10.7927 4.4755 10.8779 4.65847 10.9531C4.39432 10.9176 4.15042 10.8326 3.92676 10.6978Z" fill="#897D57"/>
    <path fill-rule="evenodd" clip-rule="evenodd" d="M4.12207 10.6978C4.3229 10.7414 4.51803 10.801 4.70744 10.8765C4.95041 10.9147 5.19431 10.9402 5.43914 10.9531C5.75519 11.0037 6.08041 11.0207 6.41475 11.0041C6.41475 11.0211 6.41475 11.0382 6.41475 11.0552C5.82553 11.0721 5.24017 11.038 4.65866 10.9531C4.47569 10.8779 4.29683 10.7927 4.12207 10.6978Z" fill="#DDCA88"/>
    <path opacity="0.82" fill-rule="evenodd" clip-rule="evenodd" d="M7.82967 10.647C7.39006 10.8855 6.9185 11.0217 6.41504 11.0555C6.41504 11.0385 6.41504 11.0214 6.41504 11.0044C6.60884 10.9368 6.80397 10.8857 7.0004 10.8512C7.0744 10.7882 7.15572 10.7882 7.24431 10.8512C7.43387 10.7513 7.62899 10.6832 7.82967 10.647Z" fill="#978554"/>
    <path opacity="0.22" fill-rule="evenodd" clip-rule="evenodd" d="M4.6582 10.9531C5.23972 11.0381 5.82508 11.0721 6.4143 11.0553C6.01645 11.1143 5.60991 11.1228 5.19479 11.0808C5.00308 11.0684 4.82421 11.0259 4.6582 10.9531Z" fill="#7D704B"/>
</svg>
