<svg width="24" height="28" viewBox="0 0 24 28" fill="none" xmlns="http://www.w3.org/2000/svg">
<path d="M20.0659 14.7964C20.0531 12.5023 21.1116 10.7707 23.254 9.49548C22.0553 7.81392 20.2444 6.88875 17.8533 6.70747C15.5898 6.53244 13.1158 8.00146 12.2104 8.00146C11.254 8.00146 9.06057 6.76998 7.339 6.76998C3.78108 6.82624 0 9.55174 0 15.0965C0 16.7343 0.306057 18.4284 0.918172 20.1724C1.73433 22.4666 4.68013 28.0926 7.75345 27.9988C9.36026 27.9613 10.4952 26.8799 12.5866 26.8799C14.6142 26.8799 15.6663 27.9988 17.458 27.9988C20.5569 27.9551 23.2221 22.8417 24 20.5412C19.8427 18.6221 20.0659 14.9152 20.0659 14.7964ZM16.457 4.53207C18.1977 2.50671 18.0383 0.662621 17.9872 0C16.4506 0.0875159 14.6716 1.02519 13.6578 2.18165C12.542 3.41937 11.8852 4.9509 12.0255 6.67621C13.6897 6.80124 15.2072 5.96358 16.457 4.53207Z" fill="#FEFEFE"/>
</svg>
