<svg width="20" height="20" viewBox="0 0 20 20" fill="none" xmlns="http://www.w3.org/2000/svg">
    <path d="M14.9344 8.43301C14.6594 8.36634 14.3677 8.33301 14.0677 8.33301C11.8844 8.33301 10.1094 10.108 10.1094 12.2913C10.1094 13.033 10.3177 13.733 10.6844 14.333C10.9927 14.8497 11.4177 15.2913 11.9344 15.608C12.551 16.0163 13.2844 16.2497 14.0677 16.2497C15.5177 16.2497 16.776 15.4747 17.4594 14.333C17.826 13.733 18.026 13.033 18.026 12.2913C18.026 10.408 16.7094 8.82467 14.9344 8.43301ZM16.0427 11.7747L13.926 13.7247C13.8094 13.833 13.651 13.8913 13.501 13.8913C13.3427 13.8913 13.1844 13.833 13.0594 13.708L12.0844 12.733C11.8427 12.4913 11.8427 12.0913 12.0844 11.8497C12.326 11.608 12.726 11.608 12.9677 11.8497L13.5177 12.3997L15.1927 10.858C15.451 10.6247 15.8427 10.6413 16.076 10.8913C16.3094 11.1497 16.2927 11.5413 16.0427 11.7747Z" fill="#87CEEB"/>
    <path d="M17.1516 3.35033V5.20033C17.1516 5.87533 16.7349 6.71699 16.3182 7.14199L16.1682 7.27533C16.0516 7.38366 15.8766 7.40866 15.7266 7.35866C15.5599 7.30033 15.3932 7.25866 15.2266 7.21699C14.8599 7.12533 14.4682 7.08366 14.0682 7.08366C11.1932 7.08366 8.8599 9.41699 8.8599 12.292C8.8599 13.242 9.11823 14.1753 9.6099 14.9753C10.0266 15.6753 10.6099 16.2587 11.2432 16.6503C11.4349 16.7753 11.5099 17.042 11.3432 17.192C11.2849 17.242 11.2266 17.2837 11.1682 17.3253L10.0016 18.0837C8.91823 18.7587 7.42656 18.0003 7.42656 16.6503V12.192C7.42656 11.6003 7.09323 10.842 6.7599 10.4253L3.60156 7.05866C3.1849 6.63366 2.85156 5.87533 2.85156 5.37533V3.43366C2.85156 2.42533 3.60156 1.66699 4.5099 1.66699H15.4932C16.4016 1.66699 17.1516 2.42533 17.1516 3.35033Z" fill="#87CEEB"/>
</svg>
