<svg width="24" height="20" viewBox="0 0 24 20" fill="none" xmlns="http://www.w3.org/2000/svg">
    <path d="M4.96635 0.908994C4.96635 0.667914 4.87916 0.436708 4.72396 0.266238C4.56877 0.095769 4.35828 0 4.1388 0C3.91932 0 3.70883 0.095769 3.55363 0.266238C3.39843 0.436708 3.31125 0.667914 3.31125 0.908994V16.8946L1.4145 14.8093C1.25911 14.6387 1.04835 14.5428 0.828595 14.5428C0.608838 14.5428 0.398082 14.6387 0.24269 14.8093C0.0872982 14.98 5.17766e-09 15.2115 0 15.4529C-5.17766e-09 15.6943 0.0872982 15.9258 0.24269 16.0965L3.55289 19.7306L3.56448 19.7434C3.71985 19.9098 3.9288 20.002 4.14581 20C4.36281 19.9979 4.57029 19.9018 4.72305 19.7325L8.03325 16.0965C8.11019 16.0121 8.17124 15.9119 8.21293 15.8015C8.25461 15.6912 8.2761 15.573 8.27618 15.4535C8.27626 15.3341 8.25492 15.2158 8.21338 15.1054C8.17183 14.9951 8.11091 14.8948 8.03407 14.8102C7.95724 14.7257 7.866 14.6587 7.76558 14.6129C7.66515 14.5671 7.55749 14.5435 7.44875 14.5434C7.34002 14.5433 7.23233 14.5668 7.13184 14.6124C7.03136 14.658 6.94003 14.7249 6.86309 14.8093L4.96635 16.8946V0.908994ZM10.7592 2.72698C10.7592 2.4859 10.8464 2.2547 11.0016 2.08423C11.1568 1.91376 11.3673 1.81799 11.5867 1.81799H23.1724C23.3919 1.81799 23.6024 1.91376 23.7576 2.08423C23.9128 2.2547 24 2.4859 24 2.72698C24 2.96806 23.9128 3.19927 23.7576 3.36974C23.6024 3.54021 23.3919 3.63598 23.1724 3.63598H11.5867C11.3673 3.63598 11.1568 3.54021 11.0016 3.36974C10.8464 3.19927 10.7592 2.96806 10.7592 2.72698ZM11.5867 7.27196C11.3673 7.27196 11.1568 7.36772 11.0016 7.53819C10.8464 7.70866 10.7592 7.93987 10.7592 8.18095C10.7592 8.42203 10.8464 8.65324 11.0016 8.82371C11.1568 8.99417 11.3673 9.08994 11.5867 9.08994H19.8622C20.0817 9.08994 20.2922 8.99417 20.4474 8.82371C20.6026 8.65324 20.6898 8.42203 20.6898 8.18095C20.6898 7.93987 20.6026 7.70866 20.4474 7.53819C20.2922 7.36772 20.0817 7.27196 19.8622 7.27196H11.5867ZM11.5867 12.7259C11.3673 12.7259 11.1568 12.8217 11.0016 12.9922C10.8464 13.1626 10.7592 13.3938 10.7592 13.6349C10.7592 13.876 10.8464 14.1072 11.0016 14.2777C11.1568 14.4481 11.3673 14.5439 11.5867 14.5439H16.552C16.7715 14.5439 16.982 14.4481 17.1372 14.2777C17.2924 14.1072 17.3796 13.876 17.3796 13.6349C17.3796 13.3938 17.2924 13.1626 17.1372 12.9922C16.982 12.8217 16.7715 12.7259 16.552 12.7259H11.5867ZM11.5867 18.1799C11.3673 18.1799 11.1568 18.2757 11.0016 18.4461C10.8464 18.6166 10.7592 18.8478 10.7592 19.0889C10.7592 19.33 10.8464 19.5612 11.0016 19.7316C11.1568 19.9021 11.3673 19.9979 11.5867 19.9979H13.2418C13.4613 19.9979 13.6718 19.9021 13.827 19.7316C13.9822 19.5612 14.0694 19.33 14.0694 19.0889C14.0694 18.8478 13.9822 18.6166 13.827 18.4461C13.6718 18.2757 13.4613 18.1799 13.2418 18.1799H11.5867Z" fill="#87CEEB"/>
</svg>
