<svg xmlns="http://www.w3.org/2000/svg" width="18" height="14.99" viewBox="0 0 18 14.99">
    <path id="Path_57667" data-name="Path 57667" d="M-81.778,401.28c.283.292.507.54.748.77q2.362,2.246,4.73,4.486a2.711,2.711,0,0,1,.262.267.735.735,0,0,1-.036.99.735.735,0,0,1-.988.078,2.192,2.192,0,0,1-.225-.2q-3.106-2.959-6.211-5.92a1.52,1.52,0,0,1,.012-2.46q3.09-2.949,6.184-5.894c.045-.043.09-.087.137-.128a.754.754,0,0,1,1.1,0,.74.74,0,0,1-.062,1.072c-.57.561-1.154,1.106-1.733,1.657q-1.8,1.718-3.611,3.435c-.089.085-.19.158-.285.237l.037.1h14.549c.687,0,1.04.248,1.049.737s-.355.764-1.059.764h-14.6Z" transform="translate(84.119 -393.035)" fill="#002056"/>
</svg>
