<svg width="15" height="25" viewBox="0 0 15 25" fill="none" xmlns="http://www.w3.org/2000/svg">
    <path
        d="M7.38901 24.9017C7.1901 24.9017 6.99933 24.8227 6.85868 24.6821C6.71802 24.5414 6.63901 24.3507 6.63901 24.1517V1.23474C6.63901 1.03583 6.71802 0.845063 6.85868 0.704411C6.99933 0.563758 7.1901 0.484741 7.38901 0.484741C7.58792 0.484741 7.77869 0.563758 7.91934 0.704411C8.05999 0.845063 8.13901 1.03583 8.13901 1.23474V24.1517C8.13901 24.3507 8.05999 24.5414 7.91934 24.6821C7.77869 24.8227 7.58792 24.9017 7.38901 24.9017Z"
        fill="white" />
    <path
        d="M9.98901 20.7357H1.13901C0.940093 20.7357 0.749328 20.6567 0.608676 20.516C0.468024 20.3754 0.389006 20.1846 0.389006 19.9857C0.389006 19.7868 0.468024 19.596 0.608676 19.4554C0.749328 19.3147 0.940093 19.2357 1.13901 19.2357H9.98901C10.3821 19.2564 10.7753 19.1968 11.1447 19.0606C11.514 18.9244 11.8517 18.7144 12.1373 18.4435C12.4229 18.1725 12.6503 17.8463 12.8057 17.4846C12.9611 17.1229 13.0413 16.7334 13.0413 16.3397C13.0413 15.9461 12.9611 15.5565 12.8057 15.1948C12.6503 14.8332 12.4229 14.5069 12.1373 14.236C11.8517 13.965 11.514 13.755 11.1447 13.6188C10.7753 13.4826 10.3821 13.423 9.98901 13.4437H4.78901C4.19594 13.469 3.60388 13.3741 3.04848 13.1645C2.49307 12.955 1.9858 12.6353 1.5572 12.2246C1.1286 11.8139 0.787541 11.3207 0.554543 10.7748C0.321546 10.2288 0.201431 9.64131 0.201431 9.04771C0.201431 8.4541 0.321546 7.86663 0.554543 7.32066C0.787541 6.77469 1.1286 6.28151 1.5572 5.87081C1.9858 5.46011 2.49307 5.14038 3.04848 4.93087C3.60388 4.72136 4.19594 4.6264 4.78901 4.65171H12.602C12.8009 4.65171 12.9917 4.73072 13.1323 4.87137C13.273 5.01203 13.352 5.20279 13.352 5.40171C13.352 5.60062 13.273 5.79138 13.1323 5.93203C12.9917 6.07269 12.8009 6.15171 12.602 6.15171H4.78901C4.04726 6.1907 3.34876 6.51283 2.83751 7.05165C2.32627 7.59048 2.04127 8.30494 2.04127 9.04771C2.04127 9.79047 2.32627 10.5049 2.83751 11.0438C3.34876 11.5826 4.04726 11.9047 4.78901 11.9437H9.98901C10.5821 11.9184 11.1741 12.0134 11.7295 12.2229C12.2849 12.4324 12.7922 12.7521 13.2208 13.1628C13.6494 13.5735 13.9905 14.0667 14.2235 14.6127C14.4565 15.1586 14.5766 15.7461 14.5766 16.3397C14.5766 16.9333 14.4565 17.5208 14.2235 18.0668C13.9905 18.6127 13.6494 19.1059 13.2208 19.5166C12.7922 19.9273 12.2849 20.247 11.7295 20.4565C11.1741 20.6661 10.5821 20.761 9.98901 20.7357Z"
        fill="white" />
</svg>
