<svg width="10" height="9" viewBox="0 0 10 9" fill="none" xmlns="http://www.w3.org/2000/svg">
    <path
        d="M1.927 1.34306C1.92909 1.60551 2.03428 1.85661 2.21986 2.0422C2.40545 2.22778 2.65655 2.33297 2.919 2.33506L7.219 2.33506L7.219 6.63506C7.219 6.89815 7.32352 7.15047 7.50955 7.33651C7.69559 7.52254 7.94791 7.62706 8.211 7.62706C8.4741 7.62706 8.72642 7.52254 8.91245 7.33651C9.09849 7.15047 9.203 6.89815 9.203 6.63506L9.203 1.34506C9.20091 1.08261 9.09572 0.831503 8.91014 0.645918C8.72456 0.460333 8.47345 0.355149 8.211 0.353058L2.921 0.353058C2.65855 0.35462 2.40723 0.459298 2.22127 0.644508C2.03531 0.829719 1.92962 1.08061 1.927 1.34306Z"
        fill="#909090" />
    <path
        d="M0.603031 7.95606C0.602676 8.0862 0.628223 8.21512 0.678182 8.3353C0.728142 8.45548 0.801516 8.56452 0.89403 8.65606C1.08096 8.83928 1.33228 8.94192 1.59403 8.94192C1.85578 8.94192 2.1071 8.83928 2.29403 8.65606L8.91303 2.04406C9.08481 1.85569 9.17738 1.60836 9.17151 1.3535C9.16564 1.09864 9.06178 0.855835 8.88152 0.675571C8.70125 0.495307 8.45845 0.391447 8.20359 0.385578C7.94873 0.379709 7.7014 0.472283 7.51303 0.644058L0.903031 7.25506C0.808768 7.34596 0.73366 7.45483 0.682136 7.57522C0.630612 7.69561 0.603716 7.8251 0.603031 7.95606Z"
        fill="#909090" />
</svg>
