<svg width="17" height="17" viewBox="0 0 17 17" fill="none" xmlns="http://www.w3.org/2000/svg">
<path d="M7.47412 0H9.05518V3.30586H7.47412V0ZM7.47412 13.2234H9.05518V16.5293H7.47412V13.2234ZM11.2121 4.19905L13.5497 1.86145L14.6677 2.97944L12.3301 5.31704L11.2121 4.19905ZM1.86188 13.5495L4.19948 11.2119L5.31747 12.3299L2.97987 14.6675L1.86188 13.5495ZM13.2234 7.47412H16.5293V9.05518H13.2234V7.47412ZM0 7.47412H3.30586V9.05518H0V7.47412ZM11.2122 12.3301L12.3302 11.2121L14.6678 13.5497L13.5498 14.6677L11.2122 12.3301ZM1.86141 2.97959L2.97941 1.86159L5.31701 4.1992L4.19902 5.31715L1.86141 2.97959ZM8.26465 11.9298C7.53974 11.9298 6.83111 11.7149 6.22838 11.3121C5.62564 10.9094 5.15586 10.337 4.87845 9.66726C4.60104 8.99753 4.52846 8.26058 4.66988 7.54961C4.8113 6.83863 5.16038 6.18555 5.67297 5.67297C6.18555 5.16038 6.83863 4.8113 7.54961 4.66988C8.26058 4.52846 8.99753 4.60104 9.66726 4.87845C10.337 5.15586 10.9094 5.62564 11.3121 6.22838C11.7149 6.83111 11.9298 7.53974 11.9298 8.26465C11.9287 9.23637 11.5422 10.168 10.8551 10.8551C10.168 11.5422 9.23637 11.9287 8.26465 11.9298Z" fill="#43384D"/>
</svg>
