<svg width="20" height="20" viewBox="0 0 20 20" fill="none" xmlns="http://www.w3.org/2000/svg">
    <path fill-rule="evenodd" clip-rule="evenodd" d="M16.6665 7.23317L17.7582 7.5915C18.0976 7.70615 18.3258 8.02491 18.3248 8.38317V11.5748C18.3433 11.9506 18.1076 12.292 17.7498 12.4082L16.6665 12.7665L17.2748 13.7748C17.4391 14.0956 17.3786 14.4856 17.1248 14.7415L14.8332 17.0332C14.5773 17.2869 14.1873 17.3474 13.8665 17.1832L12.8498 16.6665L12.4915 17.7498C12.3753 18.1076 12.0339 18.3433 11.6582 18.3248H8.42484C8.04912 18.3433 7.70767 18.1076 7.5915 17.7498L7.23317 16.6665L6.2165 17.1915C5.89574 17.3558 5.50572 17.2953 5.24983 17.0415L2.9665 14.8332C2.71274 14.5773 2.65222 14.1873 2.8165 13.8665L3.33317 12.8498L2.24983 12.4915C1.89206 12.3753 1.65645 12.0339 1.67483 11.6582V8.42484C1.65645 8.04912 1.89206 7.70767 2.24983 7.5915L3.33317 7.23317L2.80817 6.2165C2.64389 5.89574 2.70441 5.50572 2.95817 5.24983L5.24983 2.95817C5.50572 2.70441 5.89574 2.64389 6.2165 2.80817L7.23317 3.33317L7.54983 2.24983C7.666 1.89206 8.00745 1.65645 8.38317 1.67483H11.5748C11.9506 1.65645 12.292 1.89206 12.4082 2.24983L12.7665 3.33317L13.7832 2.80817C14.1039 2.64389 14.4939 2.70441 14.7498 2.95817L17.0332 5.24983C17.2869 5.50572 17.3474 5.89574 17.1832 6.2165L16.6665 7.23317ZM5.83317 9.99984C5.83317 12.301 7.69865 14.1665 9.99984 14.1665C12.301 14.1665 14.1665 12.301 14.1665 9.99984C14.1665 7.69865 12.301 5.83317 9.99984 5.83317C7.69865 5.83317 5.83317 7.69865 5.83317 9.99984Z" fill="#FEFEFE"/>
    <path d="M10 12.5C11.3807 12.5 12.5 11.3807 12.5 10C12.5 8.61929 11.3807 7.5 10 7.5C8.61929 7.5 7.5 8.61929 7.5 10C7.5 11.3807 8.61929 12.5 10 12.5Z" fill="#FEFEFE"/>
</svg>
