<svg width="16" height="15" viewBox="0 0 16 15" fill="none" xmlns="http://www.w3.org/2000/svg">
    <path d="M1.5 2.90662H3.0625V11.5004H1.5V2.90662ZM8.70703 6.42224H7.26172C7.24618 6.42224 7.23128 6.42841 7.22029 6.4394C7.2093 6.45039 7.20312 6.46529 7.20312 6.48083V7.92615C7.20312 7.94169 7.2093 7.95659 7.22029 7.96758C7.23128 7.97857 7.24618 7.98474 7.26172 7.98474H8.70703C8.72257 7.98474 8.73748 7.97857 8.74846 7.96758C8.75945 7.95659 8.76562 7.94169 8.76562 7.92615V6.48083C8.76562 6.46529 8.75945 6.45039 8.74846 6.4394C8.73748 6.42841 8.72257 6.42224 8.70703 6.42224ZM12.9062 4.31287H14.4688V10.0941H12.9062V4.31287Z" fill="#43384D"/>
    <path d="M15.6406 2.98474H14.3516V1.10974C14.3516 1.0238 14.2812 0.953491 14.1953 0.953491H13.1797C13.0938 0.953491 13.0234 1.0238 13.0234 1.10974V2.98474H11.7344C11.6484 2.98474 11.5781 3.05505 11.5781 3.14099V11.266C11.5781 11.3519 11.6484 11.4222 11.7344 11.4222H13.0234V13.2972C13.0234 13.3832 13.0938 13.4535 13.1797 13.4535H14.1953C14.2812 13.4535 14.3516 13.3832 14.3516 13.2972V11.4222H15.6406C15.7266 11.4222 15.7969 11.3519 15.7969 11.266V3.14099C15.7969 3.05505 15.7266 2.98474 15.6406 2.98474ZM14.4688 10.0941H12.9062V4.31287H14.4688V10.0941ZM9.9375 5.09412H8.64844V1.73474C8.64844 1.6488 8.57812 1.57849 8.49219 1.57849H7.47656C7.39062 1.57849 7.32031 1.6488 7.32031 1.73474V5.09412H6.03125C5.94531 5.09412 5.875 5.16443 5.875 5.25037V9.15662C5.875 9.24255 5.94531 9.31287 6.03125 9.31287H7.32031V12.6722C7.32031 12.7582 7.39062 12.8285 7.47656 12.8285H8.49219C8.57812 12.8285 8.64844 12.7582 8.64844 12.6722V9.31287H9.9375C10.0234 9.31287 10.0938 9.24255 10.0938 9.15662V5.25037C10.0938 5.16443 10.0234 5.09412 9.9375 5.09412ZM8.76562 7.92615C8.76562 7.94169 8.75945 7.95659 8.74846 7.96758C8.73748 7.97857 8.72257 7.98474 8.70703 7.98474H7.26172C7.24618 7.98474 7.23128 7.97857 7.22029 7.96758C7.2093 7.95659 7.20312 7.94169 7.20312 7.92615V6.48083C7.20312 6.46529 7.2093 6.45039 7.22029 6.4394C7.23128 6.42841 7.24618 6.42224 7.26172 6.42224H8.70703C8.72257 6.42224 8.73748 6.42841 8.74846 6.4394C8.75945 6.45039 8.76562 6.46529 8.76562 6.48083V7.92615ZM4.23438 1.57849H2.94531V0.484741C2.94531 0.398804 2.875 0.328491 2.78906 0.328491H1.77344C1.6875 0.328491 1.61719 0.398804 1.61719 0.484741V1.57849H0.328125C0.242188 1.57849 0.171875 1.6488 0.171875 1.73474V12.6722C0.171875 12.7582 0.242188 12.8285 0.328125 12.8285H1.61719V13.9222C1.61719 14.0082 1.6875 14.0785 1.77344 14.0785H2.78906C2.875 14.0785 2.94531 14.0082 2.94531 13.9222V12.8285H4.23438C4.32031 12.8285 4.39062 12.7582 4.39062 12.6722V1.73474C4.39062 1.6488 4.32031 1.57849 4.23438 1.57849ZM3.0625 11.5004H1.5V2.90662H3.0625V11.5004Z" fill="#43384D"/>
</svg>
