<svg width="16" height="18" viewBox="0 0 16 18" fill="none" xmlns="http://www.w3.org/2000/svg">
    <path d="M6.29266 1.125C6.50503 1.125 6.70871 1.21389 6.85888 1.37213C7.00906 1.53036 7.09342 1.74497 7.09342 1.96875V9C7.09342 9.14918 7.14967 9.29226 7.24978 9.39775C7.3499 9.50324 7.48568 9.5625 7.62727 9.5625C7.76885 9.5625 7.90464 9.50324 8.00475 9.39775C8.10487 9.29226 8.16111 9.14918 8.16111 9V6.15037L8.25293 6.14587C8.59139 6.13237 8.93305 6.13687 9.12417 6.17625C9.26724 6.20662 9.43807 6.28425 9.60249 6.381C9.6847 6.42825 9.76264 6.54638 9.76264 6.73425V9C9.76264 9.14918 9.81889 9.29226 9.919 9.39775C10.0191 9.50324 10.1549 9.5625 10.2965 9.5625C10.4381 9.5625 10.5739 9.50324 10.674 9.39775C10.7741 9.29226 10.8303 9.14918 10.8303 9V7.23938L10.9435 7.22813C11.2809 7.20113 11.567 7.21688 11.6994 7.27313C11.8254 7.32488 12.0197 7.506 12.2183 7.75688C12.3048 7.86487 12.3785 7.97062 12.4319 8.04825V9.5625C12.4319 9.71168 12.4881 9.85476 12.5882 9.96025C12.6883 10.0657 12.8241 10.125 12.9657 10.125C13.1073 10.125 13.2431 10.0657 13.3432 9.96025C13.4433 9.85476 13.4996 9.71168 13.4996 9.5625V8.4375H13.8647C14.0139 8.4375 14.1615 8.47045 14.2979 8.53424C14.4342 8.59802 14.5564 8.69122 14.6565 8.80782C14.7566 8.92442 14.8324 9.06184 14.879 9.2112C14.9256 9.36057 14.942 9.51856 14.9271 9.675L14.6377 12.7294C14.6003 13.1219 14.485 13.5017 14.2993 13.8442L12.8098 16.5915C12.7632 16.6776 12.6957 16.7492 12.6143 16.7989C12.533 16.8487 12.4405 16.875 12.3464 16.875H5.61788C5.51882 16.875 5.42171 16.846 5.33743 16.7911C5.25314 16.7363 5.185 16.6578 5.14062 16.5645L3.82523 13.7914L1.14319 9.08325C1.07429 8.96152 1.04994 8.81747 1.07472 8.67816C1.0995 8.53885 1.17171 8.41386 1.27778 8.32669C1.38385 8.23952 1.51647 8.19616 1.65074 8.20476C1.78501 8.21335 1.91168 8.27331 2.00695 8.37337L4.58008 11.0846C4.65468 11.1634 4.74979 11.2171 4.85337 11.239C4.95695 11.2608 5.06435 11.2497 5.16197 11.2072C5.2596 11.1647 5.34305 11.0926 5.40178 11.0001C5.46051 10.9076 5.49187 10.7988 5.49189 10.6875V1.96875C5.49189 1.74497 5.57626 1.53036 5.72643 1.37213C5.8766 1.21389 6.08028 1.125 6.29266 1.125ZM8.16111 5.02425V1.96875C8.16111 1.44661 7.96426 0.945846 7.61385 0.576634C7.26345 0.207421 6.7882 0 6.29266 0C5.79711 0 5.32186 0.207421 4.97146 0.576634C4.62106 0.945846 4.4242 1.44661 4.4242 1.96875V9.32963L2.76181 7.578C2.48211 7.28491 2.11051 7.10945 1.71676 7.08454C1.323 7.05963 0.934147 7.18698 0.623176 7.44271C0.312205 7.69843 0.100492 8.06494 0.0277677 8.47346C-0.0449568 8.88198 0.0263067 9.30441 0.228185 9.6615L2.8878 14.3336L4.18504 17.0674C4.31811 17.3477 4.52264 17.5834 4.77572 17.7482C5.02879 17.9129 5.32041 18.0001 5.61788 18H12.3464C12.6287 17.9999 12.906 17.9212 13.1501 17.7718C13.3942 17.6225 13.5966 17.4078 13.7366 17.1495L15.226 14.4034C15.4864 13.9233 15.6479 13.3909 15.7001 12.8407L15.9894 9.78638C16.0191 9.47359 15.9862 9.15772 15.893 8.85912C15.7997 8.56053 15.6481 8.28584 15.4479 8.05277C15.2477 7.81969 15.0034 7.6334 14.7307 7.50589C14.4581 7.37839 14.163 7.31251 13.8647 7.3125H13.2444C13.1777 7.21727 13.1083 7.12422 13.0362 7.0335C12.8322 6.77587 12.4917 6.3945 12.0966 6.228C11.708 6.06375 11.1933 6.0795 10.8602 6.1065L10.7193 6.12C10.6056 5.81341 10.3942 5.55805 10.1214 5.39775C9.87575 5.24848 9.61009 5.13924 9.33343 5.07375C9.00245 5.004 8.54441 5.0085 8.21236 5.022L8.16111 5.02425Z" fill="black"/>
</svg>
