<svg viewBox="0 0 24 24" fill="none" xmlns="http://www.w3.org/2000/svg"><g id="SVGRepo_bgCarrier" stroke-width="0"></g><g id="SVGRepo_tracerCarrier" stroke-linecap="round" stroke-linejoin="round"></g><g id="SVGRepo_iconCarrier"> <path d="M19.8619 4.31353L12.8068 2.15415C12.2802 1.94849 11.6484 1.94849 11.0166 2.15415L4.06674 4.31353C2.59252 4.72484 1.75011 6.06161 2.06602 7.50119L3.22433 13.6709C3.75084 16.55 5.22506 18.8122 7.43639 20.149C9.43711 21.3829 10.9113 21.9999 12.0696 21.9999C13.228 21.9999 14.7022 21.3829 16.7029 20.149C18.9142 18.8122 20.3885 16.55 20.915 13.6709L21.968 7.50119C22.1786 6.06161 21.3362 4.72484 19.8619 4.31353ZM15.6499 10.3804L11.4378 14.4935C11.2272 14.5963 11.1219 14.6991 10.9113 14.6991C10.7007 14.6991 10.4901 14.5963 10.3848 14.4935L8.2788 12.4369C7.96289 12.1284 7.96289 11.6143 8.2788 11.3058C8.5947 10.9973 9.12121 10.9973 9.43711 11.3058L11.0166 12.8482L14.7022 9.24927C15.0181 8.94078 15.5446 8.94078 15.8605 9.24927C15.9658 9.66058 15.9658 10.0719 15.6499 10.3804Z" fill="#030D45"></path> </g></svg>