<svg width="12" height="12" viewBox="0 0 12 12" fill="none" xmlns="http://www.w3.org/2000/svg">
    <path
        d="M9.60675 2.79624C9.61226 2.90992 9.62099 3.0236 9.62145 3.13727C9.62236 3.24912 9.67516 3.31532 9.78122 3.34225C9.94697 3.3838 10.1136 3.42443 10.2798 3.46506C10.3202 3.4751 10.3616 3.48378 10.4015 3.49565C10.8794 3.64128 11.0287 3.94259 10.8441 4.40323C10.7752 4.57534 10.6875 4.74015 10.6122 4.90952C10.5227 5.11177 10.5342 5.15651 10.7059 5.2994C10.8377 5.40897 10.974 5.51306 11.104 5.62445C11.1641 5.67604 11.2197 5.73539 11.2688 5.79748C11.4501 6.02711 11.4598 6.29829 11.2633 6.51514C11.1113 6.68315 10.9295 6.82513 10.7546 6.97122C10.5213 7.16661 10.5131 7.18852 10.6398 7.46883C10.7178 7.6414 10.8078 7.80986 10.8712 7.98745C11.0062 8.36774 10.8749 8.64577 10.4919 8.77999C10.2954 8.84893 10.0884 8.88682 9.8859 8.93841C9.64624 8.99958 9.63063 9.01556 9.61594 9.25889C9.6017 9.4972 9.61226 9.7387 9.57645 9.97382C9.52365 10.3185 9.26792 10.4952 8.91669 10.4463C8.67932 10.4135 8.44471 10.3619 8.2101 10.3135C8.08843 10.2884 8.00119 10.3199 7.94518 10.4331C7.8731 10.5792 7.80331 10.7271 7.72388 10.8691C7.66098 10.9809 7.59579 11.0946 7.51223 11.1914C7.34556 11.3859 7.11279 11.4429 6.88231 11.3283C6.71381 11.2448 6.56459 11.1224 6.40849 11.0147C6.32401 10.9563 6.2432 10.8924 6.16102 10.8312C6.06919 10.7627 5.97737 10.7659 5.88738 10.833C5.76847 10.922 5.65231 11.0147 5.53294 11.1028C5.44708 11.1658 5.36168 11.2306 5.26986 11.2836C4.96316 11.4598 4.67391 11.3982 4.47006 11.1097C4.39844 11.0079 4.34288 10.8942 4.28412 10.7842C4.23591 10.6938 4.19551 10.5997 4.14822 10.5089C4.03803 10.2975 4.01691 10.2856 3.78137 10.3267C3.57155 10.3632 3.36403 10.4176 3.15329 10.4436C2.74054 10.4947 2.477 10.2715 2.45175 9.85786C2.43843 9.63827 2.44027 9.41776 2.43017 9.19771C2.42282 9.03519 2.39849 9.00506 2.2378 8.96032C2.01099 8.89732 1.77775 8.85303 1.55554 8.77725C1.1841 8.65034 1.04682 8.37276 1.174 8.00526C1.24287 7.80575 1.3448 7.61721 1.43111 7.42318C1.53212 7.19674 1.52156 7.15657 1.32965 6.99724C1.16849 6.86347 0.997239 6.73976 0.852156 6.59047C0.57163 6.30149 0.573008 6.00748 0.854451 5.71804C0.99678 5.57149 1.16528 5.4496 1.32368 5.31858C1.5234 5.15377 1.5335 5.11725 1.42974 4.88441C1.34801 4.70089 1.25297 4.52239 1.18502 4.3343C1.04315 3.94168 1.17446 3.66457 1.57023 3.52715C1.76352 3.46004 1.96691 3.42306 2.16571 3.37239C2.40538 3.31167 2.42145 3.29478 2.43614 3.05236C2.45037 2.8104 2.44165 2.56524 2.47746 2.32647C2.52704 1.99732 2.78966 1.81607 3.12391 1.8631C3.36495 1.89688 3.60369 1.94801 3.84198 1.99732C3.96365 2.02242 4.05088 1.99184 4.10689 1.87862C4.17898 1.73253 4.24968 1.58552 4.32819 1.44263C4.38466 1.33991 4.44297 1.23582 4.51689 1.14543C4.70192 0.918533 4.95352 0.860097 5.21155 1.00071C5.38372 1.09475 5.54028 1.21984 5.69684 1.33945C6.02558 1.59009 6.03017 1.59192 6.35936 1.33717C6.49159 1.23491 6.62106 1.12625 6.76339 1.03906C7.09121 0.839097 7.39285 0.905294 7.60038 1.22943C7.71608 1.41067 7.80331 1.61063 7.90386 1.80146C8.01497 2.01284 8.03471 2.02471 8.2707 1.98362C8.48052 1.9471 8.68805 1.89277 8.89878 1.86629C9.30649 1.81516 9.56956 2.03429 9.59941 2.44061C9.60813 2.55748 9.60079 2.67572 9.60079 2.7935C9.60262 2.7935 9.60446 2.7935 9.60675 2.7935V2.79624ZM9.11274 2.81268C9.11779 2.81268 9.12238 2.81222 9.12743 2.81177C9.121 2.69079 9.11549 2.56935 9.10814 2.44837C9.10309 2.36756 9.05856 2.33241 8.97867 2.34702C8.8065 2.37852 8.63433 2.40774 8.46307 2.44426C7.90524 2.56387 7.672 2.45248 7.42591 1.94436C7.3699 1.8284 7.31572 1.71107 7.25557 1.59694C7.14263 1.38328 7.10911 1.37552 6.91812 1.51841C6.78084 1.62113 6.64999 1.73207 6.51133 1.83251C6.15597 2.08862 5.89656 2.08816 5.53982 1.83068C5.39153 1.72385 5.25241 1.60516 5.10457 1.49741C4.94755 1.38282 4.91082 1.39013 4.81854 1.56042C4.7212 1.74029 4.63994 1.92929 4.53801 2.10643C4.3461 2.44061 4.11424 2.54241 3.73271 2.47074C3.55686 2.43787 3.38285 2.39769 3.20747 2.36117C2.97836 2.31323 2.93521 2.34656 2.93245 2.57574C2.93062 2.73507 2.93429 2.89485 2.93016 3.05418C2.91868 3.51071 2.7589 3.71387 2.31493 3.83485C2.13862 3.88279 1.95957 3.9184 1.78372 3.96724C1.60145 4.01792 1.5863 4.05033 1.66205 4.22518C1.74056 4.40597 1.84111 4.57854 1.90447 4.76389C1.95176 4.90313 1.9816 5.05881 1.97242 5.20444C1.95865 5.42449 1.79015 5.56328 1.63267 5.6975C1.50779 5.80341 1.37602 5.90065 1.25251 6.00794C1.10605 6.13485 1.10559 6.17822 1.25068 6.30422C1.39163 6.42658 1.54314 6.5366 1.68271 6.65986C2.01512 6.95295 2.067 7.18715 1.89345 7.59118C1.82917 7.74093 1.75296 7.88565 1.68593 8.03402C1.57803 8.27187 1.59364 8.302 1.84708 8.36729C2.0569 8.42116 2.27039 8.46407 2.47562 8.53118C2.74008 8.61747 2.887 8.81103 2.91133 9.08769C2.92465 9.24246 2.92556 9.39813 2.93199 9.55335C2.93658 9.65927 2.94072 9.76518 2.94668 9.8711C2.95128 9.94688 2.99443 9.97975 3.06927 9.96697C3.21895 9.94049 3.37 9.91858 3.51738 9.88342C4.14316 9.73414 4.37365 9.84142 4.64958 10.4153C4.69871 10.518 4.74691 10.6212 4.80063 10.7212C4.91174 10.9284 4.9448 10.9366 5.13028 10.7979C5.27078 10.6929 5.40438 10.5792 5.54625 10.4774C5.89656 10.2263 6.15827 10.2267 6.50858 10.4792C6.66009 10.5883 6.80196 10.7102 6.95255 10.8202C7.1036 10.9307 7.14125 10.9225 7.23078 10.7581C7.32674 10.5815 7.40663 10.3966 7.50534 10.2217C7.70047 9.87566 7.93324 9.77112 8.3258 9.84462C8.50164 9.87749 8.67565 9.91812 8.85103 9.95464C9.07187 10.0003 9.11733 9.9656 9.12054 9.74418C9.12284 9.58074 9.1187 9.41731 9.12284 9.25432C9.13432 8.80556 9.29776 8.59783 9.73256 8.48051C9.91253 8.43211 10.0957 8.39559 10.2752 8.34537C10.4506 8.29652 10.4662 8.26274 10.3932 8.09382C10.3152 7.91304 10.2137 7.74093 10.1508 7.55512C10.1026 7.41222 10.0723 7.25289 10.0819 7.10361C10.0962 6.88402 10.2674 6.7466 10.4249 6.61284C10.564 6.4946 10.7068 6.38047 10.8464 6.26268C10.9267 6.19511 10.93 6.12344 10.8487 6.05222C10.8202 6.02711 10.7941 5.99926 10.7647 5.97507C10.6099 5.84541 10.4506 5.72124 10.3005 5.58702C10.0645 5.3761 10.003 5.11725 10.1228 4.82415C10.1958 4.64565 10.2817 4.47171 10.3606 4.29595C10.4782 4.03481 10.4681 4.01746 10.1898 3.94442C9.97314 3.88781 9.75413 3.83713 9.54202 3.76546C9.29776 3.68283 9.17288 3.49382 9.14396 3.24364C9.12743 3.10075 9.12284 2.95649 9.11274 2.81268Z"
        fill="white" />
    <path
        d="M7.74088 4.21614C7.9383 4.22573 8.04298 4.42889 7.94106 4.58456C7.91443 4.62519 7.8777 4.66035 7.8428 4.69504C6.74504 5.78752 5.64727 6.88046 4.54629 7.97019C4.48798 8.02772 4.40533 8.07383 4.32591 8.09346C4.22949 8.1172 4.14731 8.06287 4.10185 7.97293C4.05732 7.88528 4.06007 7.79671 4.12114 7.71636C4.14639 7.68304 4.17623 7.65336 4.20561 7.62369C5.30384 6.53121 6.40207 5.43873 7.49984 4.34671C7.57054 4.2764 7.63895 4.20245 7.74042 4.2166L7.74088 4.21614Z"
        fill="white" />
    <path
        d="M5.65919 4.93938C5.65965 5.40504 5.27674 5.78989 4.81119 5.79218C4.33829 5.794 3.94803 5.41097 3.9462 4.94303C3.94436 4.47874 4.34105 4.08475 4.80752 4.0884C5.27399 4.09206 5.65873 4.47646 5.65919 4.93938ZM4.44113 4.93253C4.43792 5.13797 4.60137 5.30734 4.80338 5.3078C4.99668 5.3078 5.16931 5.13842 5.17206 4.9444C5.17482 4.74855 5.00999 4.58237 4.81027 4.58009C4.60229 4.5778 4.44435 4.72846 4.44113 4.93207V4.93253Z"
        fill="white" />
    <path
        d="M6.39334 7.37323C6.39334 6.90802 6.77671 6.52408 7.24272 6.52271C7.71562 6.52134 8.10633 6.90619 8.10633 7.37323C8.10633 7.83752 7.70827 8.23105 7.24318 8.22648C6.77625 8.22146 6.39334 7.83706 6.39334 7.37323ZM7.6114 7.37505C7.61186 7.17509 7.45208 7.01074 7.25328 7.00663C7.05723 7.00252 6.87726 7.18148 6.88001 7.37688C6.88276 7.57455 7.04851 7.73434 7.24915 7.73434C7.45392 7.73434 7.61094 7.57866 7.6114 7.37505Z"
        fill="white" />
</svg>
