<svg width="16" height="18" viewBox="0 0 16 18" fill="none" xmlns="http://www.w3.org/2000/svg">
    <path d="M15.2997 9.0016C15.2997 12.4259 12.673 15.2453 9.32816 15.5559C9.29732 15.3952 9.26052 15.2291 9.20857 15.0505C9.1972 15.0077 9.08357 14.6262 8.87685 14.1495C11.6459 14.0634 13.8716 11.7906 13.8716 9.00051C13.8716 6.21039 11.6459 3.93867 8.87685 3.85155C9.08411 3.3721 9.19829 2.98843 9.20965 2.94514C9.26052 2.76927 9.29732 2.60422 9.32816 2.44512C12.6719 2.7579 15.2997 5.57725 15.2997 9.0016ZM0.89176 5.06804C0.789484 6.34243 0.729958 7.6206 0.706689 8.8977H0.700195C0.701278 8.93179 0.703442 8.96642 0.703442 9.00051C0.703442 9.03406 0.701278 9.06924 0.700195 9.10225H0.706689C0.729958 10.3804 0.788401 11.6586 0.89176 12.9319C1.15908 16.268 3.78146 18.484 6.3508 17.9088C6.46281 17.8861 6.58133 17.885 6.68685 17.8411C7.31241 17.5819 7.83136 17.0965 8.4093 16.7394C9.14471 16.2772 7.55809 12.3588 6.57375 12.8653C6.2101 13.0558 5.20574 13.7972 4.80205 13.8529C4.44219 13.9033 4.15917 13.4265 4.124 12.9849C4.0293 11.822 4.11426 10.3355 4.12238 9.10117H4.124C4.124 9.06816 4.12292 9.0319 4.12292 8.99943C4.12292 8.96588 4.124 8.92908 4.124 8.89661H4.12184C4.11372 7.66281 4.02876 6.17684 4.12346 5.01338C4.15863 4.57289 4.44165 4.09506 4.80151 4.14593C5.2052 4.20221 6.2101 4.94412 6.57321 5.13297C7.557 5.64002 9.14471 1.71945 8.40876 1.25948C7.83136 0.901246 7.31241 0.415842 6.68631 0.157717C6.58078 0.113885 6.46227 0.112261 6.35026 0.0900743C3.78092 -0.482454 1.15908 1.73298 0.89176 5.06804ZM5.63811 10.4513H7.93093L8.05431 9.87175H6.59161C6.64789 9.80249 6.71174 9.74242 6.78317 9.68939C6.85568 9.63636 6.98664 9.55194 7.17604 9.43451L7.47908 9.24782C7.73504 9.09088 7.92444 8.94802 8.04998 8.81977C8.23884 8.62821 8.35735 8.40742 8.41038 8.16012C8.47965 7.83598 8.43041 7.57731 8.26319 7.38034C8.09436 7.18444 7.83407 7.08596 7.48016 7.08596C7.03264 7.08596 6.68522 7.25317 6.439 7.58813C6.30967 7.76292 6.20848 7.99291 6.13867 8.27809H6.7783C6.82484 8.09031 6.87787 7.95178 6.93794 7.86628C7.04238 7.71747 7.19498 7.64225 7.39466 7.64225C7.54131 7.64225 7.64413 7.68933 7.70203 7.78349C7.75993 7.8771 7.77508 7.99561 7.74316 8.13631C7.7069 8.31002 7.60354 8.46965 7.43687 8.61739C7.32702 8.711 7.09757 8.86685 6.74908 9.08385C6.34647 9.33332 6.07482 9.56871 5.93412 9.79275C5.79234 9.99134 5.69439 10.2105 5.63811 10.4513ZM10.8553 9.21535H10.4759L10.9218 7.12329H10.1832L8.52132 9.15636L8.39794 9.73106H9.7232L9.57113 10.4519H10.2146L10.3666 9.73106H10.746L10.8553 9.21535ZM8.99374 9.21535L10.1383 7.76888L9.83196 9.21535H8.99374Z" fill="#FEFEFE"/>
</svg>