<svg width="13" height="13" viewBox="0 0 13 13" fill="none" xmlns="http://www.w3.org/2000/svg">
<path d="M6.39074 12.3408C4.69581 12.3408 3.0703 11.6675 1.87181 10.469C0.673309 9.27052 0 7.645 0 5.95007C0 3.36072 1.4875 1.03911 3.79065 0.0367039C3.87182 0.00132754 3.96176 -0.00877826 4.04876 0.00770048C4.13576 0.0241792 4.21578 0.0664791 4.27839 0.12909C4.341 0.191701 4.3833 0.271721 4.39978 0.358719C4.41626 0.445717 4.40615 0.53566 4.37077 0.616831C4.10633 1.22395 3.96667 2.00158 3.96667 2.86489C3.96667 5.90269 6.43812 8.37415 9.47593 8.37415C10.3392 8.37415 11.1169 8.23449 11.724 7.97004C11.8052 7.93466 11.8951 7.92456 11.9821 7.94104C12.0691 7.95752 12.1491 7.99982 12.2117 8.06243C12.2743 8.12504 12.3166 8.20506 12.3331 8.29206C12.3496 8.37905 12.3395 8.469 12.3041 8.55017C11.3017 10.8533 8.9801 12.3408 6.39074 12.3408Z" fill="#43384D"/>
</svg>
