<svg width="24" height="24" viewBox="0 0 24 24" fill="none" xmlns="http://www.w3.org/2000/svg">
    <path
        d="M3.60089 2.54559C3.55222 1.84828 3.68446 1.24161 4.19599 0.772728C4.55047 0.449045 4.97292 0.281655 5.44771 0.289053C6.01801 0.298301 6.49372 0.527654 6.8629 0.977111C7.23208 1.42749 7.30372 1.95741 7.27157 2.52986H13.9444C13.915 1.83533 14.0436 1.20461 14.6028 0.739435C14.9527 0.449045 15.3522 0.308474 15.8068 0.319572C16.378 0.333444 16.8344 0.574819 17.1908 1.01688C17.5434 1.45524 17.604 1.97683 17.5875 2.51507C17.8952 2.54929 18.1945 2.55114 18.4792 2.61865C19.6924 2.90996 20.4629 3.94112 20.4656 5.2636C20.4702 7.13264 20.4693 9.0026 20.4629 10.8716C20.4629 11.0363 20.5143 11.1343 20.6456 11.2295C22.2877 12.4262 23.2841 14.0382 23.5348 16.0598C23.7947 18.1591 23.2079 20.0309 21.7927 21.6105C20.4978 23.056 18.8649 23.8338 16.9373 23.905C14.8976 23.9808 13.1362 23.2733 11.7045 21.7983C11.44 21.5254 11.1911 21.3987 10.8027 21.4015C8.36534 21.4209 5.92709 21.4089 3.48977 21.4126C2.74865 21.4135 2.09019 21.2101 1.55203 20.6792C1.03591 20.1724 0.76408 19.55 0.763162 18.825C0.759489 14.2555 0.756733 9.68603 0.76408 5.11655C0.765917 3.69605 1.90927 2.55853 3.31528 2.54559C3.39793 2.54559 3.4815 2.54559 3.60181 2.54559H3.60089ZM10.5896 20.3824C9.24972 17.5747 9.36176 14.8761 11.3537 12.4919C13.5137 9.90799 16.3036 9.3938 19.4435 10.4999C19.4472 10.4324 19.4536 10.3584 19.4536 10.2844C19.4536 9.53806 19.4472 8.79174 19.4582 8.04635C19.461 7.84104 19.4132 7.77168 19.1946 7.7726C13.4714 7.77908 7.7482 7.77723 2.02499 7.77815C1.94417 7.77815 1.86336 7.78555 1.78254 7.78925C1.77611 7.84566 1.7706 7.87526 1.7706 7.90578C1.7706 11.5366 1.76693 15.1674 1.77703 18.7982C1.77703 19.0349 1.84407 19.2902 1.94601 19.5057C2.24723 20.1447 2.7909 20.3944 3.47324 20.3944C5.77281 20.3925 8.0733 20.3944 10.3729 20.3935C10.4399 20.3935 10.507 20.3879 10.5887 20.3842L10.5896 20.3824ZM16.6554 10.965C13.307 11.0011 10.7292 13.6831 10.7384 16.943C10.7485 20.2492 13.3612 22.8942 16.6554 22.8895C19.989 22.8849 22.5825 20.2178 22.5751 16.9171C22.5668 13.5749 19.9247 10.9983 16.6554 10.965ZM1.79172 6.74052H19.4215C19.4215 6.09315 19.4747 5.45873 19.4086 4.83726C19.3204 4.00863 18.3856 3.40288 17.6004 3.59432C17.5967 3.60912 17.5903 3.62391 17.5903 3.63779C17.5893 3.93742 17.5903 4.23799 17.5875 4.53762C17.5838 4.94639 17.4029 5.13135 17.0016 5.13228C16.2072 5.13413 15.4119 5.13228 14.6175 5.13228C14.0849 5.13228 13.9462 4.99078 13.9453 4.44607C13.9453 4.1566 13.9453 3.86806 13.9453 3.57952H7.27433C7.27433 3.89858 7.27433 4.19914 7.27433 4.49878C7.27341 4.95379 7.10259 5.13043 6.65535 5.13135C5.84536 5.1332 5.03537 5.13228 4.22538 5.13135C3.7616 5.13135 3.59814 4.96211 3.5963 4.48768C3.5963 4.1825 3.5963 3.87824 3.5963 3.57767C2.64672 3.48057 1.90101 4.0299 1.80274 4.94824C1.7403 5.53272 1.79081 6.1283 1.79081 6.73959L1.79172 6.74052ZM6.26505 4.10666C6.26505 3.45097 6.26689 2.8221 6.26505 2.19231C6.26321 1.68274 5.91607 1.33039 5.42567 1.33131C4.94721 1.33224 4.612 1.67812 4.60833 2.18676C4.60374 2.77032 4.60649 3.35387 4.60833 3.9365C4.60833 3.99384 4.62027 4.0521 4.6267 4.10574H6.26597L6.26505 4.10666ZM16.5718 4.10851C16.5718 3.41861 16.581 2.75089 16.5644 2.08411C16.5608 1.94076 16.4901 1.78354 16.4083 1.66054C16.2182 1.3757 15.8674 1.26565 15.5359 1.35443C15.2209 1.43952 14.9812 1.72528 14.9693 2.08226C14.9527 2.60477 14.9601 3.12729 14.9573 3.64981C14.9573 3.80055 14.9573 3.95037 14.9573 4.10851H16.5709H16.5718Z"
        fill="#590D8C" />
    <path
        d="M15.8077 15.6649C15.8077 15.1266 15.8068 14.5884 15.8086 14.0502C15.8086 13.9586 15.8178 13.8661 15.839 13.7773C15.9005 13.5082 16.1154 13.3492 16.367 13.3778C16.6315 13.4074 16.806 13.5905 16.8133 13.8717C16.8225 14.2564 16.8179 14.6411 16.8179 15.0249C16.8179 15.5937 16.8234 16.1634 16.8142 16.7321C16.8115 16.8958 16.8648 16.942 17.0236 16.9402C17.6803 16.9328 18.3378 16.9319 18.9944 16.9402C19.3654 16.9448 19.5739 17.1908 19.5197 17.5311C19.4876 17.7328 19.3682 17.8641 19.1753 17.9159C19.0734 17.9436 18.965 17.9529 18.8594 17.9529C18.0724 17.9556 17.2854 17.9556 16.4983 17.9538C16.0015 17.9538 15.8077 17.7559 15.8068 17.2546C15.8068 16.7238 15.8068 16.1929 15.8068 15.663L15.8077 15.6649Z"
        fill="#590D8C" />
</svg>
