<svg width="22" height="19" viewBox="0 0 22 19" fill="none" xmlns="http://www.w3.org/2000/svg">
    <path
        d="M10.834 0.169067C13.5522 0.169067 16.2705 0.169067 18.9888 0.169067C20.3361 0.169067 21.2715 1.09953 21.2715 2.44172C21.2715 4.9766 21.2715 7.51148 21.2699 10.0464C21.2699 10.146 21.2626 10.2522 21.2283 10.3445C21.1598 10.5316 20.9575 10.6362 20.7692 10.6043C20.5775 10.5716 20.4291 10.4123 20.4128 10.2146C20.4062 10.1338 20.4079 10.0521 20.4079 9.97039C20.4079 7.46247 20.4079 4.95536 20.4079 2.44744C20.4079 1.76613 20.0531 1.26128 19.452 1.09463C19.3036 1.05378 19.1445 1.03663 18.9904 1.03663C13.5539 1.03418 8.11813 1.03336 2.68158 1.035C1.80811 1.035 1.2625 1.58723 1.26087 2.46459C1.25923 3.07646 1.26739 3.68751 1.25679 4.29938C1.25353 4.47665 1.2992 4.52893 1.4827 4.52893C3.2696 4.52158 5.05731 4.52485 6.84421 4.52485C7.7919 4.52485 8.48676 4.94638 8.8921 5.80005C9.00464 6.03777 9.0707 6.31961 9.07641 6.58265C9.09843 7.51965 9.10088 8.45828 9.08131 9.39528C9.05847 10.5259 8.14096 11.4515 7.0057 11.4645C5.18454 11.4849 3.36339 11.4727 1.54223 11.4735C1.35411 11.4735 1.26005 11.5691 1.26005 11.7602C1.26005 12.3378 1.26005 12.9154 1.26005 13.4929C1.26005 14.425 1.79506 14.9634 2.72317 14.9634C5.78806 14.9634 8.85213 14.9634 11.917 14.9634C11.9986 14.9634 12.0801 14.9617 12.1617 14.9666C12.3966 14.983 12.5719 15.1635 12.5752 15.3882C12.5784 15.6104 12.4023 15.8032 12.1731 15.8252C12.1128 15.8309 12.0508 15.8268 11.9896 15.8268C8.88394 15.8268 5.77909 15.8268 2.67342 15.8268C1.32856 15.8277 0.393921 14.8931 0.393921 13.5501C0.393921 9.84622 0.393921 6.14234 0.393921 2.43927C0.393921 1.10852 1.331 0.169067 2.65956 0.169067C5.38436 0.169067 8.10915 0.169067 10.834 0.169067ZM1.28615 10.6092C1.36281 10.6092 1.42887 10.6092 1.49493 10.6092C3.28183 10.6092 5.06873 10.61 6.85563 10.6092C7.66467 10.6092 8.2217 10.048 8.22333 9.2368C8.22496 8.41499 8.22415 7.59236 8.22333 6.77054C8.22252 5.94464 7.66875 5.38914 6.84503 5.38914C5.06465 5.38833 3.28509 5.38914 1.50472 5.38914C1.43295 5.38914 1.36036 5.38914 1.28615 5.38914V10.61V10.6092Z"
        fill="#00A774" />
    <path
        d="M14.3128 13.2178C14.3128 13.3109 14.3128 13.3836 14.3128 13.4563C14.3128 14.7944 14.3128 16.1333 14.3128 17.4714C14.3128 18.089 14.6643 18.437 15.2874 18.437C16.0956 18.437 16.9046 18.437 17.7128 18.437C18.3025 18.437 18.6646 18.0784 18.6662 17.4861C18.6687 16.1276 18.6671 14.7683 18.6671 13.4097C18.6671 13.3558 18.6671 13.3019 18.6671 13.2178H18.8922C19.5169 13.2178 20.1424 13.2153 20.7671 13.2194C20.9767 13.221 21.1439 13.1557 21.2312 12.958C21.3233 12.7505 21.2491 12.5806 21.095 12.427C19.6767 11.0113 18.2601 9.59311 16.8426 8.17658C16.6004 7.93478 16.377 7.92824 16.1347 8.16923C14.7108 9.58903 13.29 11.0121 11.8685 12.4352C11.7233 12.5806 11.6499 12.7464 11.7405 12.9498C11.8286 13.1483 11.9892 13.2194 12.1988 13.2186C12.8235 13.2153 13.4491 13.2178 14.0738 13.2178C14.1472 13.2178 14.2198 13.2178 14.3119 13.2178H14.3128ZM13.2403 12.3535C14.3405 11.2531 15.4244 10.1699 16.4756 9.11767C17.5652 10.1617 18.6736 11.2229 19.7811 12.2848C19.7607 12.3077 19.7412 12.3306 19.7208 12.3535C19.273 12.3535 18.8245 12.3535 18.3767 12.3535C17.92 12.3535 17.7862 12.4891 17.7862 12.9523C17.7862 14.4064 17.7862 15.8605 17.7862 17.3138C17.7862 17.393 17.7862 17.4722 17.7862 17.5629C17.6941 17.567 17.628 17.5727 17.562 17.5727C16.8418 17.5727 16.1217 17.567 15.4015 17.5776C15.2237 17.5801 15.1716 17.5351 15.1724 17.3522C15.1797 15.8711 15.1773 14.39 15.1764 12.909C15.1764 12.4833 15.0443 12.3543 14.6145 12.3543C14.1603 12.3543 13.7068 12.3543 13.2403 12.3543V12.3535Z"
        fill="#00A774" />
    <path
        d="M6.47638 7.99675C6.47638 8.95499 5.70322 9.73678 4.74901 9.74168C3.79399 9.7474 3.00208 8.95173 3.00452 7.98858C3.00697 7.03933 3.79807 6.25183 4.74657 6.25428C5.69915 6.25673 6.47556 7.03933 6.47638 7.99675ZM4.74086 7.13409C4.26049 7.13491 3.8731 7.51804 3.86984 7.9943C3.86657 8.47628 4.26375 8.86513 4.75391 8.86105C5.23101 8.85696 5.61596 8.46648 5.6127 7.99104C5.60943 7.51641 5.21959 7.13328 4.74004 7.13409H4.74086Z"
        fill="#00A774" />
</svg>
