<svg width="19" height="19" viewBox="0 0 19 19" fill="none" xmlns="http://www.w3.org/2000/svg">
    <path d="M16.2363 14.2517C16.6029 13.6684 16.8196 12.9934 16.8196 12.2601C16.8196 10.1851 15.1446 8.51007 13.0696 8.51007C10.9946 8.51007 9.3196 10.1851 9.3196 12.2601C9.3196 14.3351 10.9946 16.0101 13.0613 16.0101C13.7946 16.0101 14.4779 15.7934 15.0529 15.4267L17.6529 18.0267L18.8363 16.8434L16.2363 14.2517ZM13.0696 14.3434C12.5171 14.3434 11.9872 14.1239 11.5965 13.7332C11.2058 13.3425 10.9863 12.8126 10.9863 12.2601C10.9863 11.7075 11.2058 11.1776 11.5965 10.7869C11.9872 10.3962 12.5171 10.1767 13.0696 10.1767C13.6221 10.1767 14.152 10.3962 14.5427 10.7869C14.9334 11.1776 15.1529 11.7075 15.1529 12.2601C15.1529 12.8126 14.9334 13.3425 14.5427 13.7332C14.152 14.1239 13.6221 14.3434 13.0696 14.3434ZM12.7696 7.26007C12.1529 7.27673 11.5613 7.41007 11.0196 7.63507L10.5613 6.9434L7.3946 12.0934L4.88626 9.16007L1.86126 14.0017L0.50293 13.0267L4.6696 6.36007L7.1696 9.27673L10.5029 3.86007L12.7696 7.26007ZM14.9279 7.67673C14.3946 7.4434 13.8196 7.30173 13.2196 7.2684L17.4863 0.526733L18.8363 1.51007L14.9279 7.67673Z" fill="#43384D"/>
</svg>
