<svg width="13" height="12" viewBox="0 0 13 12" fill="none" xmlns="http://www.w3.org/2000/svg">
    <path fill-rule="evenodd" clip-rule="evenodd" d="M0.5 5.79688C0.5 5.24459 0.768629 4.79688 1.1 4.79688H11.9C12.2314 4.79688 12.5 5.24459 12.5 5.79688C12.5 6.34916 12.2314 6.79688 11.9 6.79688H1.1C0.768629 6.79688 0.5 6.34916 0.5 5.79688Z" fill="#87CEEB"/>
    <path fill-rule="evenodd" clip-rule="evenodd" d="M0.5 1C0.5 0.447715 0.768629 0 1.1 0H11.9C12.2314 0 12.5 0.447715 12.5 1C12.5 1.55228 12.2314 2 11.9 2H1.1C0.768629 2 0.5 1.55228 0.5 1Z" fill="#87CEEB"/>
    <path fill-rule="evenodd" clip-rule="evenodd" d="M0.5 10.6016C0.5 10.0493 0.768629 9.60156 1.1 9.60156H11.9C12.2314 9.60156 12.5 10.0493 12.5 10.6016C12.5 11.1538 12.2314 11.6016 11.9 11.6016H1.1C0.768629 11.6016 0.5 11.1538 0.5 10.6016Z" fill="#87CEEB"/>
</svg>
