<svg width="15" height="14" viewBox="0 0 15 14" fill="none" xmlns="http://www.w3.org/2000/svg">
    <path
        d="M8.68177 2.62915C9.67859 3.58167 10.6672 4.52637 11.6646 5.4794C11.6346 5.51016 11.6029 5.54457 11.5686 5.5769C9.06478 7.96888 6.56155 10.3614 4.05449 12.7502C3.97919 12.8222 3.87062 12.879 3.76695 12.9046C2.67138 13.1715 1.57362 13.4306 0.475858 13.6913C0.204146 13.7559 0.0186402 13.5782 0.0857497 13.3185C0.360735 12.257 0.63572 11.1961 0.915616 10.1356C0.935258 10.0606 0.983817 9.98236 1.04111 9.92709C3.5618 7.51426 6.08468 5.10403 8.60757 2.69328C8.62994 2.6719 8.65394 2.65261 8.68122 2.62915H8.68177Z"
        fill="#590D8C" />
    <path
        d="M9.57653 1.80385C9.941 1.44672 10.2951 1.05362 10.6994 0.715257C11.251 0.253335 12.1272 0.290352 12.6799 0.773128C13.0106 1.06248 13.3292 1.36695 13.6298 1.68498C14.1678 2.25378 14.1482 3.08743 13.5938 3.6385C13.2485 3.98207 12.8895 4.31366 12.5457 4.64159C11.5494 3.68959 10.557 2.74125 9.57599 1.80385H9.57653Z"
        fill="#590D8C" />
</svg>
