

<svg id="Group_14093" data-name="Group 14093" xmlns="http://www.w3.org/2000/svg" xmlns:xlink="http://www.w3.org/1999/xlink" width="19.478" height="13.69" viewBox="0 0 19.478 13.69">
    <defs>
        <clipPath id="clip-path">
            <rect id="Rectangle_7337" data-name="Rectangle 7337" width="19.478" height="13.69" fill="#00a9dc"/>
        </clipPath>
    </defs>
    <g id="Group_14092" data-name="Group 14092" clip-path="url(#clip-path)">
        <path id="Path_64964" data-name="Path 64964" d="M9.751,0Q13.725,0,17.7,0a1.694,1.694,0,0,1,1.714,1.282,1.812,1.812,0,0,1,.063.487q.005,5.076,0,10.151a1.714,1.714,0,0,1-1.761,1.767q-7.977,0-15.955,0A1.711,1.711,0,0,1,0,11.939Q0,6.844,0,1.749A1.714,1.714,0,0,1,1.783,0Q5.767,0,9.751,0M1.975,1.15c.051.055.079.087.11.118q3.2,3.178,6.392,6.354a1.946,1.946,0,0,0,.385.307,1.7,1.7,0,0,0,2.149-.312Q14.2,4.454,17.375,1.288c.038-.038.074-.079.129-.138Zm.079,11.385H17.4l-4.8-4.9c-.284.289-.54.56-.806.82a2.8,2.8,0,0,1-3.594.4A10.466,10.466,0,0,1,7.043,7.814c-.054-.049-.106-.1-.187-.178l-4.8,4.9m-.9-.843.046.033L5.976,6.861l-4.823-4.9ZM18.328,1.963,13.53,6.84l4.8,4.887Z" transform="translate(-0.001 0)" fill="#00a9dc"/>
    </g>
</svg>
