<svg width="22" height="22" viewBox="0 0 22 22" fill="none" xmlns="http://www.w3.org/2000/svg">
    <path
        d="M11.8623 14.8257H10.0443C9.41374 14.8141 8.81346 14.5532 8.37489 14.1C7.93632 13.6468 7.69519 13.0383 7.70429 12.4077C7.70429 12.2153 7.78072 12.0308 7.91678 11.8947C8.05284 11.7586 8.23737 11.6822 8.42979 11.6822C8.6222 11.6822 8.80674 11.7586 8.94279 11.8947C9.07885 12.0308 9.15529 12.2153 9.15529 12.4077C9.14553 12.6538 9.23372 12.8938 9.40053 13.0751C9.56735 13.2563 9.79919 13.3641 10.0453 13.3747H11.8633C12.053 13.3644 12.2309 13.2792 12.3578 13.1378C12.4847 12.9964 12.5504 12.8104 12.5403 12.6207C12.5403 12.0987 12.3953 12.0207 12.0663 11.9047L9.15529 10.8897C8.70691 10.7668 8.31597 10.4903 8.05075 10.1085C7.78553 9.72665 7.6629 9.26377 7.70429 8.80071C7.69782 8.22785 7.91754 7.67555 8.31575 7.26367C8.71396 6.85179 9.25853 6.61357 9.83129 6.60071H11.6503C12.28 6.61228 12.8795 6.87254 13.3179 7.32465C13.7563 7.77676 13.9981 8.38398 13.9903 9.01371C13.9903 9.20612 13.9138 9.39066 13.7778 9.52671C13.6417 9.66277 13.4572 9.73921 13.2648 9.73921C13.0724 9.73921 12.8878 9.66277 12.7518 9.52671C12.6157 9.39066 12.5393 9.20612 12.5393 9.01371C12.549 8.76757 12.4609 8.52761 12.294 8.34636C12.1272 8.16511 11.8954 8.05736 11.6493 8.04671H9.83229C9.64257 8.05704 9.46471 8.14225 9.33777 8.28363C9.21083 8.425 9.1452 8.61098 9.15529 8.80071C9.15529 9.32271 9.30029 9.40071 9.62929 9.51671L12.5393 10.5337C12.9873 10.6565 13.378 10.9327 13.6431 11.3142C13.9083 11.6956 14.0312 12.158 13.9903 12.6207C13.9997 13.1951 13.7809 13.7497 13.382 14.163C12.9831 14.5764 12.4366 14.8147 11.8623 14.8257Z"
        fill="white" />
    <path
        d="M10.8483 15.7927C10.6565 15.7911 10.473 15.7142 10.3374 15.5786C10.2017 15.443 10.1249 15.2595 10.1233 15.0677V6.3677C10.1233 6.27249 10.142 6.17822 10.1785 6.09025C10.2149 6.00229 10.2683 5.92237 10.3356 5.85505C10.403 5.78773 10.4829 5.73432 10.5708 5.69789C10.6588 5.66145 10.7531 5.6427 10.8483 5.6427C10.9435 5.6427 11.0378 5.66145 11.1257 5.69789C11.2137 5.73432 11.2936 5.78773 11.3609 5.85505C11.4283 5.92237 11.4817 6.00229 11.5181 6.09025C11.5545 6.17822 11.5733 6.27249 11.5733 6.3677V15.0677C11.5717 15.2595 11.4948 15.443 11.3592 15.5786C11.2236 15.7142 11.0401 15.7911 10.8483 15.7927Z"
        fill="white" />
    <path
        d="M10.8503 21.1107C9.45807 21.1539 8.07136 20.917 6.77245 20.414C5.47354 19.9111 4.2889 19.1523 3.28883 18.1828C2.28875 17.2132 1.49362 16.0527 0.950629 14.77C0.407634 13.4873 0.127834 12.1086 0.127834 10.7157C0.127834 9.32285 0.407634 7.94415 0.950629 6.66146C1.49362 5.37877 2.28875 4.21822 3.28883 3.24869C4.2889 2.27916 5.47354 1.5204 6.77245 1.01743C8.07136 0.514468 9.45807 0.277549 10.8503 0.320735C11.0426 0.320735 11.227 0.397118 11.3629 0.533082C11.4989 0.669046 11.5753 0.853453 11.5753 1.04573C11.5753 1.23802 11.4989 1.42242 11.3629 1.55839C11.227 1.69435 11.0426 1.77074 10.8503 1.77074C9.08109 1.77014 7.35145 2.2942 5.8801 3.27664C4.40875 4.25908 3.26178 5.65577 2.58424 7.29009C1.90669 8.92441 1.72901 10.7229 2.07365 12.4582C2.41829 14.1935 3.26979 15.7877 4.52045 17.039C5.77111 18.2904 7.36476 19.1428 9.09987 19.4884C10.835 19.834 12.6336 19.6573 14.2683 18.9807C15.903 18.3041 17.3003 17.1579 18.2836 15.6871C19.2669 14.2163 19.7919 12.4869 19.7923 10.7177C19.7923 10.5253 19.8687 10.3408 20.0048 10.2047C20.1408 10.0687 20.3254 9.99224 20.5178 9.99224C20.7102 9.99224 20.8947 10.0687 21.0308 10.2047C21.1668 10.3408 21.2433 10.5253 21.2433 10.7177C21.2414 13.4736 20.1459 16.116 18.1972 18.0646C16.2485 20.0133 13.6061 21.1089 10.8503 21.1107Z"
        fill="white" />
    <path
        d="M20.5183 5.63874C20.3265 5.63717 20.143 5.56028 20.0074 5.42466C19.8717 5.28903 19.7949 5.10554 19.7933 4.91374V1.77074H16.6503C16.458 1.77074 16.2736 1.69436 16.1376 1.55839C16.0017 1.42243 15.9253 1.23802 15.9253 1.04574C15.9253 0.853457 16.0017 0.669051 16.1376 0.533087C16.2736 0.397123 16.458 0.32074 16.6503 0.32074H20.5183C20.7101 0.322308 20.8936 0.399194 21.0292 0.53482C21.1648 0.670445 21.2417 0.853942 21.2433 1.04574V4.91774C21.2407 5.10884 21.1633 5.29132 21.0278 5.42609C20.8923 5.56085 20.7094 5.63719 20.5183 5.63874Z"
        fill="white" />
    <path
        d="M15.6823 6.60574C15.5871 6.60601 15.4928 6.58731 15.4049 6.55074C15.317 6.51417 15.2372 6.46046 15.1703 6.39274C15.0354 6.25627 14.9597 6.07213 14.9597 5.88024C14.9597 5.68835 15.0354 5.5042 15.1703 5.36774L20.0053 0.532739C20.072 0.462718 20.152 0.406744 20.2406 0.368112C20.3293 0.32948 20.4248 0.308972 20.5214 0.307793C20.6181 0.306614 20.7141 0.324789 20.8036 0.361248C20.8932 0.397706 20.9746 0.451712 21.0429 0.520087C21.1113 0.588461 21.1653 0.669822 21.2018 0.759382C21.2382 0.848941 21.2564 0.94489 21.2552 1.04158C21.2541 1.13827 21.2335 1.23374 21.1949 1.32239C21.1563 1.41103 21.1003 1.49105 21.0303 1.55774L16.1953 6.39274C16.1282 6.46058 16.0483 6.51436 15.9603 6.55093C15.8722 6.58751 15.7777 6.60614 15.6823 6.60574Z"
        fill="white" />
</svg>
