<svg width="20" height="20" viewBox="0 0 20 20" fill="none" xmlns="http://www.w3.org/2000/svg">
    <path d="M8.86631 20C8.35294 20 7.85027 19.8873 7.37968 19.662C6.4385 19.2019 5.87166 18.3662 5.87166 17.4272V12.4507C5.87166 11.9812 5.51872 11.277 5.18717 10.9202L1.18717 7.20188C0.513369 6.61033 0 5.59624 0 4.83568V2.67606C0 1.17371 1.29412 0 2.94118 0H17.0588C18.6845 0 20 1.15493 20 2.58216V4.64789C20 5.6338 19.3262 6.75117 18.6952 7.30516L14.0642 10.9014C13.615 11.23 13.262 11.9531 13.262 12.5352V16.5728C13.262 17.4085 12.6631 18.3756 11.9144 18.77L10.4385 19.6056C9.95722 19.8685 9.41176 20 8.86631 20ZM2.94118 1.40845C2.19251 1.40845 1.60428 1.96244 1.60428 2.67606V4.83568C1.60428 5.1831 1.92513 5.85916 2.33155 6.21596L6.40642 9.98122C6.95187 10.5728 7.48663 11.5587 7.48663 12.4413V17.4178C7.48663 18.0282 7.96791 18.3286 8.17112 18.4225C8.62032 18.6385 9.16577 18.6385 9.58289 18.4131L11.0695 17.5775C11.369 17.4178 11.6684 16.9108 11.6684 16.5728V12.5352C11.6684 11.5305 12.2246 10.4225 13.0267 9.83099L17.6043 6.2723C17.9679 5.95305 18.4064 5.19249 18.4064 4.6385V2.58216C18.4064 1.93427 17.8075 1.40845 17.0695 1.40845H2.94118Z" fill="#43384D"/>
</svg>
