<?xml version="1.0" standalone="no"?>
<!DOCTYPE svg PUBLIC "-//W3C//DTD SVG 20010904//EN"
    "http://www.w3.org/TR/2001/REC-SVG-20010904/DTD/svg10.dtd">
<svg version="1.0" xmlns="http://www.w3.org/2000/svg"
    width="41.000000pt" height="41.000000pt" viewBox="0 0 41.000000 41.000000"
    preserveAspectRatio="xMidYMid meet">

    <g transform="translate(0.000000,41.000000) scale(0.100000,-0.100000)"
        fill="#000000" stroke="none">
        <path d="M150 280 l0 -80 95 0 95 0 0 44 c0 41 -2 45 -27 48 -23 2 -29 8 -31
36 l-3 32 -65 0 -64 0 0 -80z m120 0 c0 -5 -22 -10 -50 -10 -27 0 -50 5 -50
10 0 6 23 10 50 10 28 0 50 -4 50 -10z m-35 -40 c-3 -5 -17 -10 -30 -10 -13 0
-27 5 -30 10 -4 6 8 10 30 10 22 0 34 -4 30 -10z"/>
        <path d="M300 330 c0 -14 7 -20 22 -20 20 0 21 1 3 20 -10 11 -20 20 -22 20
-1 0 -3 -9 -3 -20z"/>
        <path d="M100 265 c0 -51 3 -65 15 -65 12 0 15 14 15 65 0 51 -3 65 -15 65
-12 0 -15 -14 -15 -65z"/>
        <path d="M11 198 c1 -96 2 -101 14 -73 8 17 14 36 15 42 0 7 9 18 20 25 15 10
20 24 20 60 l0 48 -35 0 -35 0 1 -102z"/>
        <path d="M65 170 c-8 -13 -45 -121 -45 -132 0 -4 73 -8 163 -8 l163 0 22 68
c12 38 22 71 22 75 0 11 -318 8 -325 -3z"/>
    </g>
</svg>
