<svg width="27" height="27" viewBox="0 0 27 27" fill="none" xmlns="http://www.w3.org/2000/svg">
    <g clip-path="url(#clip0_388_34913)">
        <path d="M26.3686 13.7524C26.3686 12.6463 26.2788 11.8391 26.0846 11.002H13.4531V15.9947H20.8675C20.7181 17.2355 19.9109 19.104 18.117 20.3596L18.0919 20.5268L22.0857 23.6207L22.3624 23.6484C24.9036 21.3014 26.3686 17.8483 26.3686 13.7524Z" fill="#4285F4"/>
        <path d="M13.4522 26.908C17.0846 26.908 20.1341 25.7121 22.3615 23.6493L18.1161 20.3605C16.98 21.1528 15.4552 21.7059 13.4522 21.7059C9.89449 21.7059 6.87492 19.359 5.79853 16.1152L5.64075 16.1286L1.4879 19.3426L1.43359 19.4935C3.64594 23.8883 8.19029 26.908 13.4522 26.908Z" fill="#34A853"/>
        <path d="M5.79995 16.1151C5.51593 15.278 5.35156 14.381 5.35156 13.4543C5.35156 12.5274 5.51593 11.6306 5.78501 10.7934L5.77748 10.6152L1.5726 7.34961L1.43502 7.41505C0.523202 9.23879 0 11.2868 0 13.4543C0 15.6218 0.523202 17.6697 1.43502 19.4934L5.79995 16.1151Z" fill="#FBBC05"/>
        <path d="M13.4522 5.20203C15.9785 5.20203 17.6825 6.29327 18.6542 7.20519L22.4511 3.49794C20.1192 1.33042 17.0846 0 13.4522 0C8.19029 0 3.64594 3.01957 1.43359 7.41439L5.78358 10.7928C6.87492 7.54897 9.89449 5.20203 13.4522 5.20203Z" fill="#EB4335"/>
    </g>
    <defs>
        <clipPath id="clip0_388_34913">
            <rect width="27" height="27" fill="white"/>
        </clipPath>
    </defs>
</svg>
