<svg xmlns="http://www.w3.org/2000/svg" width="20.037" height="17.163" viewBox="0 0 20.037 17.163">
    <path id="Path_57668" data-name="Path 57668" d="M102.48,200.811c.508.4,1,.77,1.47,1.163a17.967,17.967,0,0,1,2.743,2.862.7.7,0,0,1,.044,1,16.612,16.612,0,0,1-6.4,5.224,8.413,8.413,0,0,1-7.426-.262.361.361,0,0,0-.5.076c-.913.93-1.833,1.853-2.769,2.76a1.189,1.189,0,0,1-.617.305.6.6,0,0,1-.636-.412.681.681,0,0,1,.16-.8c.511-.521,1.029-1.035,1.546-1.551.412-.411.826-.82,1.263-1.253-.321-.243-.613-.457-.9-.678a18.74,18.74,0,0,1-3.29-3.284.766.766,0,0,1-.008-1.172A16.723,16.723,0,0,1,93.4,199.7a8.432,8.432,0,0,1,7.511.239.343.343,0,0,0,.48-.072c.892-.907,1.8-1.8,2.7-2.7.044-.044.087-.09.133-.132a.722.722,0,0,1,1.058-.05.712.712,0,0,1-.045,1.056c-.836.845-1.679,1.683-2.519,2.524C102.643,200.637,102.573,200.713,102.48,200.811Zm-8.779,8.75c.126.069.2.113.269.146a7.317,7.317,0,0,0,2.75.652,7.537,7.537,0,0,0,3.8-.977,15.807,15.807,0,0,0,4.386-3.575c.129-.145.25-.3.368-.439a17.827,17.827,0,0,0-3.668-3.379.246.246,0,0,0-.37.05c-.377.389-.757.777-1.151,1.148a.306.306,0,0,0-.059.449,3.564,3.564,0,0,1-4.868,4.837c-.122-.066-.219-.141-.353,0C94.457,208.827,94.1,209.172,93.7,209.561Zm6.39-8.383a.775.775,0,0,0-.113-.1,6.9,6.9,0,0,0-4.686-.516,10.867,10.867,0,0,0-4.038,2.115,18.118,18.118,0,0,0-2.71,2.661.577.577,0,0,0,.05.1,17.868,17.868,0,0,0,3.616,3.3.227.227,0,0,0,.347-.031c.37-.382.741-.763,1.129-1.126a.357.357,0,0,0,.086-.523,3.567,3.567,0,0,1,4.862-4.824c.1.052.283.083.343.029C99.354,201.923,99.708,201.556,100.09,201.178Zm-2.364,2.251a2,2,0,0,0-2.287.37,2.043,2.043,0,0,0-.472,2.393Zm1.1,1.067-2.85,2.746a2.058,2.058,0,0,0,2.46-.377A2.035,2.035,0,0,0,98.822,204.5Z" transform="translate(-86.887 -196.776)" fill="#a5a5a5"/>
</svg>
