<svg width="20" height="18" viewBox="0 0 20 18" fill="none" xmlns="http://www.w3.org/2000/svg">
    <path d="M10 5.33331V9.91665H14.5833V8.08331H11.8333V5.33331H10Z" fill="#43384D"/>
    <path d="M18.5173 5.78889C18.1038 4.8081 17.5036 3.91707 16.75 3.16539C15.6093 2.02466 14.1592 1.24323 12.5792 0.917722C11.4825 0.6945 10.352 0.6945 9.25534 0.917722C7.67379 1.24115 6.22252 2.02322 5.08267 3.16631C4.33091 3.91878 3.73089 4.80884 3.31534 5.78797C2.88552 6.8042 2.6648 7.89659 2.66634 8.99997L2.66726 9.02289H0.833008L3.58301 12.6666L6.33301 9.02289H4.50059L4.49967 8.99997C4.49703 7.72156 4.87868 6.47187 5.59509 5.41305C6.0572 4.72985 6.64555 4.14119 7.32851 3.67872C8.02329 3.21067 8.80262 2.8825 9.62292 2.71255C11.2899 2.36981 13.0248 2.70305 14.4462 3.639C15.8675 4.57496 16.8591 6.03702 17.2028 7.70381C17.3758 8.55803 17.3758 9.43824 17.2028 10.2925C17.0351 11.1135 16.7068 11.8932 16.2367 12.5869C16.0075 12.927 15.7444 13.2469 15.4538 13.5366C14.8682 14.1214 14.1759 14.5885 13.4143 14.9125C13.0263 15.0764 12.6232 15.2017 12.2107 15.2865C11.3567 15.4593 10.4769 15.4593 9.62292 15.2865C8.80278 15.1183 8.02377 14.7903 7.33034 14.3212C6.9893 14.0908 6.671 13.8283 6.37976 13.5375L5.08359 14.8336C5.84912 15.6002 6.75837 16.2082 7.75925 16.6229C8.76013 17.0375 9.83297 17.2506 10.9163 17.25C12.0191 17.2495 13.1108 17.0292 14.1274 16.6019C15.6011 15.9784 16.8619 14.9402 17.7565 13.6136C18.6773 12.2513 19.1684 10.6442 19.1663 8.99997C19.1686 7.89681 18.9479 6.80457 18.5173 5.78889Z" fill="#43384D"/>
</svg>
