<svg width="16" height="16" viewBox="0 0 16 16" fill="none" xmlns="http://www.w3.org/2000/svg">
<path d="M7.99975 0C3.58206 0 0 3.58192 0 8C0 12.4181 3.58206 16 7.99975 16C12.4185 16 16 12.4181 16 8C16 3.58189 12.4185 0 7.99975 0ZM9.40444 11.6729C9.08084 12.032 8.89538 12.2454 8.54609 12.5794C8.01741 13.0849 7.41709 13.2195 6.95038 12.7205C6.27953 12.003 6.98313 9.82028 7.00028 9.73762C7.12628 9.15747 7.37778 7.99797 7.37778 7.99797C7.37778 7.99797 6.83444 8.3306 6.51188 8.44858C6.27397 8.53552 6.00484 8.42136 5.93831 8.19126C5.87631 7.97806 5.92569 7.84246 6.05625 7.6968C6.37981 7.33792 6.56528 7.12447 6.91459 6.79056C7.44378 6.28476 8.04359 6.15044 8.51031 6.64918C9.18116 7.36667 8.68619 8.54711 8.51231 9.38354C8.49519 9.46645 8.08288 11.3719 8.08288 11.3719C8.08288 11.3719 8.62622 11.0393 8.94878 10.9211C9.18716 10.8344 9.45631 10.9488 9.52284 11.1787C9.58487 11.3919 9.535 11.5275 9.40444 11.6729ZM8.53653 5.50377C7.79009 5.56927 7.13234 5.01738 7.06681 4.27038C7.00181 3.52417 7.55369 2.86615 8.30016 2.80115C9.04609 2.73562 9.70434 3.28804 9.76937 4.03425C9.83488 4.78049 9.28247 5.43876 8.53653 5.50377Z" fill="#B3B3B3"/>
</svg>
