<svg width="18" height="18" viewBox="0 0 18 18" fill="none" xmlns="http://www.w3.org/2000/svg">
<path d="M9 17.0625C4.5525 17.0625 0.9375 13.4475 0.9375 9C0.9375 4.5525 4.5525 0.9375 9 0.9375C13.4475 0.9375 17.0625 4.5525 17.0625 9C17.0625 13.4475 13.4475 17.0625 9 17.0625ZM9 2.0625C5.175 2.0625 2.0625 5.175 2.0625 9C2.0625 12.825 5.175 15.9375 9 15.9375C12.825 15.9375 15.9375 12.825 15.9375 9C15.9375 5.175 12.825 2.0625 9 2.0625Z" fill="#43384D"/>
<path d="M6.74969 16.3125H5.99969C5.69219 16.3125 5.43719 16.0575 5.43719 15.75C5.43719 15.4425 5.67719 15.195 5.98469 15.1875C4.80719 11.1675 4.80719 6.8325 5.98469 2.8125C5.67719 2.805 5.43719 2.5575 5.43719 2.25C5.43719 1.9425 5.69219 1.6875 5.99969 1.6875H6.74969C6.92969 1.6875 7.10219 1.7775 7.20719 1.92C7.31219 2.07 7.34219 2.2575 7.28219 2.43C5.87219 6.6675 5.87219 11.3325 7.28219 15.5775C7.34219 15.75 7.31219 15.9375 7.20719 16.0875C7.10219 16.2225 6.92969 16.3125 6.74969 16.3125Z" fill="#43384D"/>
<path d="M11.2518 16.313C11.1918 16.313 11.1318 16.3055 11.0718 16.283C10.7793 16.1855 10.6143 15.863 10.7193 15.5705C12.1293 11.333 12.1293 6.668 10.7193 2.423C10.6218 2.1305 10.7793 1.808 11.0718 1.7105C11.3718 1.613 11.6868 1.7705 11.7843 2.063C13.2768 6.533 13.2768 11.453 11.7843 15.9155C11.7093 16.163 11.4843 16.313 11.2518 16.313Z" fill="#43384D"/>
<path d="M9 12.9006C6.9075 12.9006 4.8225 12.6081 2.8125 12.0156C2.805 12.3156 2.5575 12.5631 2.25 12.5631C1.9425 12.5631 1.6875 12.3081 1.6875 12.0006V11.2506C1.6875 11.0706 1.7775 10.8981 1.92 10.7931C2.07 10.6881 2.2575 10.6581 2.43 10.7181C6.6675 12.1281 11.34 12.1281 15.5775 10.7181C15.75 10.6581 15.9375 10.6881 16.0875 10.7931C16.2375 10.8981 16.32 11.0706 16.32 11.2506V12.0006C16.32 12.3081 16.065 12.5631 15.7575 12.5631C15.45 12.5631 15.2025 12.3231 15.195 12.0156C13.1775 12.6081 11.0925 12.9006 9 12.9006Z" fill="#43384D"/>
<path d="M15.7489 7.31203C15.6889 7.31203 15.6289 7.30453 15.5689 7.28203C11.3314 5.87203 6.65886 5.87203 2.42136 7.28203C2.12136 7.37953 1.80636 7.22203 1.70886 6.92953C1.61886 6.62953 1.77636 6.31453 2.06886 6.21703C6.53886 4.72453 11.4589 4.72453 15.9214 6.21703C16.2139 6.31453 16.3789 6.63703 16.2739 6.92953C16.2064 7.16203 15.9814 7.31203 15.7489 7.31203Z" fill="#43384D"/>
</svg>
