<svg width="16" height="16" viewBox="0 0 16 16" fill="none" xmlns="http://www.w3.org/2000/svg">
<path d="M7.23478 0.00390625H8.76522V3.20391H7.23478V0.00390625ZM7.23478 12.8039H8.76522V16.0039H7.23478V12.8039ZM10.853 4.0685L13.1158 1.80575L14.198 2.88794L11.9352 5.15069L10.853 4.0685ZM1.80226 13.1195L4.06501 10.8568L5.1472 11.939L2.88445 14.2017L1.80226 13.1195ZM12.8 7.23869H16V8.76912H12.8V7.23869ZM0 7.23869H3.2V8.76912H0V7.23869ZM10.8532 11.9392L11.9353 10.857L14.1981 13.1198L13.1159 14.2019L10.8532 11.9392ZM1.80181 2.88808L2.884 1.80589L5.14675 4.06864L4.06456 5.15079L1.80181 2.88808ZM8 11.5517C7.29831 11.5517 6.61237 11.3437 6.02893 10.9538C5.4455 10.564 4.99076 10.0099 4.72224 9.3616C4.45371 8.71332 4.38345 7.99997 4.52034 7.31176C4.65724 6.62355 4.99514 5.99139 5.49131 5.49521C5.98748 4.99904 6.61964 4.66114 7.30785 4.52425C7.99606 4.38736 8.70941 4.45762 9.35769 4.72614C10.006 4.99467 10.5601 5.4494 10.9499 6.03284C11.3397 6.61628 11.5478 7.30221 11.5478 8.00391C11.5467 8.94451 11.1726 9.84627 10.5075 10.5114C9.84236 11.1765 8.9406 11.5506 8 11.5517Z" fill="#FEFEFE"/>
</svg>
