<svg width="15" height="18" viewBox="0 0 15 18" fill="none" xmlns="http://www.w3.org/2000/svg">
<path d="M12.4219 6.26562H11.6016V4.70312C11.6016 2.55469 9.75586 0.796875 7.5 0.796875C5.24414 0.796875 3.39844 2.55469 3.39844 4.70312H4.95695C4.95695 3.37484 6.10551 2.28117 7.5 2.28117C8.8947 2.28117 10.0431 3.37484 10.0431 4.70312H10.043V6.26562H2.57812C1.6757 6.26562 0.9375 6.96867 0.9375 7.82812V15.6406C0.9375 16.5001 1.6757 17.2031 2.57812 17.2031H12.4219C13.3243 17.2031 14.0625 16.5001 14.0625 15.6406V7.82812C14.0625 6.96867 13.3243 6.26562 12.4219 6.26562ZM7.5 13.375C6.59757 13.375 5.85938 12.672 5.85938 11.8125C5.85938 10.953 6.59757 10.25 7.5 10.25C8.40243 10.25 9.14062 10.953 9.14062 11.8125C9.14062 12.672 8.40243 13.375 7.5 13.375Z" fill="#43384D"/>
</svg>
