<svg width="101" height="30" viewBox="0 0 101 30" fill="none" xmlns="http://www.w3.org/2000/svg">
    <g clip-path="url(#clip0_537_24104)">
        <path d="M45.3001 24.9021C40.6981 24.9021 37.9964 22.31 37.8047 18.5232H39.8996C40.0914 21.364 41.8572 23.204 45.2743 23.204C48.0847 23.204 50.2912 21.7546 50.2912 19.3592C50.2912 17.2965 49.135 16.3505 46.3218 15.7662L43.8147 15.2657C41.1961 14.7363 38.44 13.5097 38.44 10.0294C38.44 6.82692 41.2247 4.34766 45.1655 4.34766C49.1064 4.34766 51.9998 6.79799 52.2202 10.6167H50.0966C49.9593 7.96964 48.0303 6.04872 45.1913 6.04872C42.1605 6.04872 40.535 7.91468 40.535 9.9195C40.535 12.2888 42.5183 13.0121 44.7248 13.4576L47.2318 13.987C50.566 14.6842 52.4692 16.0757 52.4692 19.0844C52.4692 22.2609 49.9049 24.9079 45.3029 24.9079L45.3001 24.9021Z" fill="black"/>
        <path d="M56.1865 24.6211V4.61914H58.1154V16.7667L65.1156 9.94219H67.4023L60.0701 17.1283L68.0062 24.6211H65.4991L58.1125 17.5738V24.6211H56.1836H56.1865Z" fill="black"/>
        <path d="M73.8796 29.9992H71.8133L73.9368 24.4274L68.1758 9.93945H70.2421L74.927 22.087L79.363 9.93945H81.3206L73.8796 29.9963V29.9992Z" fill="black"/>
        <path d="M88.4883 19.385H90.3628C90.5288 21.6965 92.2374 23.1748 94.5784 23.1748C97.4175 23.1748 99.043 21.3928 99.043 18.7457C99.043 16.3764 97.2801 14.4844 94.6328 14.4844C92.8413 14.4844 91.4647 15.2655 90.5546 16.7119L89.0664 16.2664L90.692 5.79102H99.9531V7.48918H92.0714L91.0526 14.2876C92.183 13.2577 93.4509 12.8122 94.8847 12.8122C98.6882 12.8122 101.003 15.4853 101.003 18.7197C101.003 22.2577 98.5794 24.9048 94.5813 24.9048C91.1928 24.9048 88.5999 22.5933 88.4911 19.3879L88.4883 19.385Z" fill="black"/>
        <path d="M0 0L7.23493 7.31341V0H0Z" fill="#580099"/>
        <path d="M28.9352 29.25V21.9395H21.7031L28.9352 29.25Z" fill="#BC99D6"/>
        <path d="M21.7037 0H14.4688L21.7037 7.31341V0Z" fill="#9B66C2"/>
        <path d="M28.9352 14.6259V7.3125H21.7031L28.9352 14.6259Z" fill="#BC99D6"/>
        <path d="M28.9352 21.9404V14.627H21.7031L28.9352 21.9404Z" fill="#BC99D6"/>
        <path d="M21.7031 0L28.9352 7.31341V0H21.7031Z" fill="#BC99D6"/>
        <path d="M14.4693 0H7.23438L14.4693 7.31341V0Z" fill="#7933AD"/>
        <path d="M21.7037 14.6259V7.3125H14.4688" fill="#9B66C2"/>
    </g>
    <defs>
        <clipPath id="clip0_537_24104">
            <rect width="101" height="30" fill="white"/>
        </clipPath>
    </defs>
</svg>
