<svg width="101" height="30" viewBox="0 0 101 30" fill="none" xmlns="http://www.w3.org/2000/svg">
<g clip-path="url(#clip0_1134_82891)">
<path d="M45.3013 24.9026C40.6993 24.9026 37.9977 22.3105 37.8059 18.5237H39.9008C40.0926 21.3645 41.8584 23.2045 45.2755 23.2045C48.0859 23.2045 50.2925 21.7551 50.2925 19.3597C50.2925 17.297 49.1362 16.351 46.323 15.7667L43.8159 15.2662C41.1973 14.7368 38.4413 13.5101 38.4413 10.0299C38.4413 6.82741 41.2259 4.34814 45.1668 4.34814C49.1076 4.34814 52.001 6.79848 52.2214 10.6172H50.0979C49.9605 7.97013 48.0315 6.04921 45.1925 6.04921C42.1617 6.04921 40.5362 7.91517 40.5362 9.91999C40.5362 12.2893 42.5195 13.0126 44.726 13.4581L47.2331 13.9875C50.5672 14.6847 52.4704 16.0762 52.4704 19.0849C52.4704 22.2614 49.9061 24.9084 45.3041 24.9084L45.3013 24.9026Z" fill="white"/>
<path d="M56.188 24.622V4.62006H58.117V16.7676L65.1172 9.9431H67.4039L60.0717 17.1292L68.0078 24.622H65.5007L58.1141 17.5747V24.622H56.1852H56.188Z" fill="white"/>
<path d="M73.8804 30H71.8141L73.9377 24.4282L68.1766 9.94025H70.2429L74.9279 22.0878L79.3639 9.94025H81.3214L73.8804 29.9971V30Z" fill="white"/>
<path d="M88.4877 19.3858H90.3622C90.5282 21.6972 92.2368 23.1755 94.5778 23.1755C97.4169 23.1755 99.0424 21.3935 99.0424 18.7464C99.0424 16.3771 97.2795 14.4851 94.6322 14.4851C92.8407 14.4851 91.4641 15.2662 90.554 16.7127L89.0658 16.2672L90.6914 5.79175H99.9525V7.48992H92.0708L91.0519 14.2884C92.1824 13.2585 93.4502 12.813 94.8841 12.813C98.6876 12.813 101.003 15.4861 101.003 18.7204C101.003 22.2585 98.5788 24.9055 94.5807 24.9055C91.1922 24.9055 88.5993 22.5941 88.4905 19.3887L88.4877 19.3858Z" fill="white"/>
<path d="M0 0L7.23493 7.31341V0H0Z" fill="#580099"/>
<path d="M28.9369 29.2507V21.9402H21.7048L28.9369 29.2507Z" fill="#BC99D6"/>
<path d="M21.7048 0H14.4698L21.7048 7.31341V0Z" fill="#9B66C2"/>
<path d="M28.9369 14.6268V7.31342H21.7048L28.9369 14.6268Z" fill="#BC99D6"/>
<path d="M28.9369 21.9402V14.6268H21.7048L28.9369 21.9402Z" fill="#BC99D6"/>
<path d="M21.7048 0L28.9369 7.31341V0H21.7048Z" fill="#BC99D6"/>
<path d="M14.4699 0H7.23499L14.4699 7.31341V0Z" fill="#7933AD"/>
<path d="M21.7048 14.6268V7.31342H14.4698" fill="#9B66C2"/>
</g>
<defs>
<clipPath id="clip0_1134_82891">
<rect width="101" height="30" fill="white"/>
</clipPath>
</defs>
</svg>
