<svg width="23" height="19" viewBox="0 0 23 19" fill="none" xmlns="http://www.w3.org/2000/svg">
    <path
        d="M16.1487 14.9888C16.1487 14.8247 16.1487 14.7248 16.1487 14.6248C16.1487 11.8971 16.1487 9.16835 16.1487 6.4407C16.1487 5.94527 16.4813 5.55882 16.9385 5.50714C17.3822 5.45659 17.7912 5.73407 17.9091 6.17894C17.9395 6.29353 17.9406 6.41823 17.9406 6.53956C17.9417 9.23013 17.9417 11.9207 17.9417 14.6124V14.9888C18.0473 14.8899 18.1181 14.8292 18.1844 14.7629C19.064 13.8844 19.9414 13.0048 20.821 12.1274C21.2468 11.7028 21.7804 11.6713 22.1601 12.0454C22.5398 12.4195 22.5174 12.9621 22.0961 13.3845C20.6312 14.8539 19.1662 16.3222 17.699 17.7883C17.3137 18.1725 16.7835 18.1793 16.4038 17.7995C14.9164 16.3144 13.4312 14.8259 11.9483 13.3362C11.6506 13.0363 11.5821 12.6622 11.7427 12.3094C11.8977 11.9713 12.2606 11.7297 12.6246 11.8005C12.847 11.8443 13.0874 11.9645 13.2503 12.1218C14.176 13.0194 15.0815 13.9384 15.9937 14.8495C16.0263 14.882 16.0622 14.9124 16.1487 14.991V14.9888Z"
        fill="#590D8C" />
    <path
        d="M9.43746 0.119304C11.9595 0.119304 14.4816 0.119304 17.0036 0.120428C17.4317 0.120428 17.7518 0.342864 17.8889 0.721454C18.017 1.07421 17.926 1.48875 17.6069 1.69658C17.4171 1.82015 17.1609 1.90329 16.9351 1.90441C14.3108 1.91789 11.6854 1.9134 9.06111 1.9134C6.65139 1.9134 4.24166 1.9134 1.83082 1.9134C1.40617 1.9134 1.07925 1.68647 0.945567 1.31125C0.819745 0.954001 0.908495 0.541708 1.22642 0.335C1.41628 0.211424 1.67242 0.130539 1.89935 0.129415C4.4113 0.114811 6.92438 0.119304 9.43746 0.119304Z"
        fill="#590D8C" />
    <path
        d="M5.83018 7.29784C7.1749 7.29784 8.51963 7.29447 9.86323 7.29897C10.3306 7.30009 10.7125 7.6506 10.7597 8.09884C10.8058 8.54146 10.5204 8.94926 10.0789 9.06273C9.98119 9.08744 9.87559 9.08969 9.77448 9.08969C7.1412 9.09081 4.50904 9.09081 1.87576 9.08969C1.30506 9.08969 0.899512 8.72121 0.893894 8.20444C0.888277 7.67306 1.29495 7.29897 1.88138 7.29784C3.19802 7.29784 4.51466 7.29784 5.8313 7.29784H5.83018Z"
        fill="#590D8C" />
    <path
        d="M4.92246 16.2685C3.90464 16.2685 2.88795 16.2685 1.87014 16.2685C1.30169 16.2685 0.896139 15.8955 0.893892 15.3777C0.891645 14.8564 1.29383 14.4778 1.8589 14.4767C3.90352 14.4755 5.94701 14.4755 7.99162 14.4767C8.56007 14.4767 8.96562 14.8485 8.96787 15.3664C8.97012 15.8866 8.56569 16.2674 8.00286 16.2685C6.97606 16.2708 5.94926 16.2685 4.92246 16.2685Z"
        fill="#590D8C" />
</svg>
