<svg xmlns="http://www.w3.org/2000/svg" width="11.448" height="12.756" viewBox="0 0 11.448 12.756">
    <g id="user" transform="translate(-3.25 -2.355)">
        <path id="Path_63189" data-name="Path 63189" d="M14.207,19.262a.491.491,0,0,1-.491-.491V17.463a2.126,2.126,0,0,0-2.126-2.126H6.357a2.126,2.126,0,0,0-2.126,2.126v1.308a.491.491,0,1,1-.981,0V17.463a3.107,3.107,0,0,1,3.107-3.107H11.59A3.107,3.107,0,0,1,14.7,17.463v1.308A.491.491,0,0,1,14.207,19.262Z" transform="translate(0 -4.15)" fill="#0969da"/>
        <path id="Path_63190" data-name="Path 63190" d="M10.357,8.57a3.107,3.107,0,1,1,3.107-3.107A3.111,3.111,0,0,1,10.357,8.57Zm0-5.233a2.126,2.126,0,1,0,2.126,2.126A2.128,2.128,0,0,0,10.357,3.337Z" transform="translate(-1.383)" fill="#0969da"/>
    </g>
</svg>
