<svg id="Group_14095" data-name="Group 14095" xmlns="http://www.w3.org/2000/svg" xmlns:xlink="http://www.w3.org/1999/xlink" width="18.067" height="18.142" viewBox="0 0 18.067 18.142">
    <defs>
        <clipPath id="clip-path">
            <rect id="Rectangle_7338" data-name="Rectangle 7338" width="18.067" height="18.142" fill="#6e00dc"/>
        </clipPath>
    </defs>
    <g id="Group_14094" data-name="Group 14094" clip-path="url(#clip-path)">
        <path id="Path_64965" data-name="Path 64965" d="M13.822,18.143a7.906,7.906,0,0,1-2.641-.587A18.089,18.089,0,0,1,6.008,14.42,19.616,19.616,0,0,1,1.157,8.27,10.877,10.877,0,0,1,.1,5.25a3.934,3.934,0,0,1,.16-2.327,2.305,2.305,0,0,1,.4-.659C1.268,1.63,1.875.992,2.533.412A1.672,1.672,0,0,1,4.767.445c.33.285.638.6.945.9.554.556,1.113,1.107,1.645,1.682A1.668,1.668,0,0,1,7.37,5.369c-.444.488-.923.944-1.393,1.408a.188.188,0,0,0-.049.256A9.5,9.5,0,0,0,7.413,9.2a13.6,13.6,0,0,0,2.9,2.551,9,9,0,0,0,.8.442.215.215,0,0,0,.184-.056c.405-.4.8-.8,1.2-1.2a2.019,2.019,0,0,1,1.088-.618,1.681,1.681,0,0,1,1.517.5c.78.764,1.549,1.538,2.318,2.312a1.814,1.814,0,0,1,.015,2.753c-.431.445-.868.884-1.3,1.329a3.06,3.06,0,0,1-2.322.933m.065-.915a1.932,1.932,0,0,0,1.444-.512c.521-.5,1.03-1.022,1.52-1.557a.854.854,0,0,0-.036-1.328c-.775-.786-1.559-1.562-2.341-2.34a.736.736,0,0,0-.737-.242,1.49,1.49,0,0,0-.564.338c-.469.44-.913.905-1.37,1.358a.736.736,0,0,1-.931.174c-.357-.18-.713-.367-1.05-.581a14.267,14.267,0,0,1-3.1-2.723A10.049,10.049,0,0,1,5.06,7.349a.844.844,0,0,1,.234-1.19c.452-.432.9-.867,1.33-1.323a.8.8,0,0,0,0-1.238c-.771-.8-1.56-1.576-2.348-2.357a1.174,1.174,0,0,0-.348-.235.885.885,0,0,0-1.032.29c-.443.433-.891.862-1.31,1.318a2.731,2.731,0,0,0-.5.757,3.013,3.013,0,0,0-.062,1.792,10.544,10.544,0,0,0,.987,2.748,18.9,18.9,0,0,0,4.761,5.952A17.426,17.426,0,0,0,11.242,16.6a7.331,7.331,0,0,0,2.645.629" transform="translate(0 0)" fill="#6e00dc"/>
    </g>
</svg>
