<svg width="11" height="12" viewBox="0 0 11 12" fill="none" xmlns="http://www.w3.org/2000/svg">
    <path
        d="M6.25597 9.11885C6.25597 9.15963 6.25597 9.19632 6.25597 9.23301C6.25597 9.5926 6.25842 9.95219 6.25434 10.3118C6.2478 10.8858 5.76699 11.3645 5.191 11.3685C4.60969 11.3722 4.0288 11.3702 3.44749 11.3694C2.82371 11.3681 2.34412 10.8944 2.34126 10.2698C2.33799 9.49965 2.34044 8.7295 2.34044 7.95936C2.34044 7.53535 2.34044 7.11094 2.34044 6.68693V6.56788C2.08145 6.56788 1.8339 6.56421 1.58716 6.5691C1.33062 6.574 1.09777 6.5104 0.890248 6.35792C0.415973 6.00893 0.299549 5.32481 0.656991 4.85677C1.06672 4.32024 1.49565 3.79879 1.91723 3.27123C2.41479 2.64826 2.91521 2.02774 3.40991 1.40193C3.88541 0.800162 4.68445 0.783854 5.16853 1.37828C5.6183 1.93071 6.0603 2.48967 6.50312 3.04781C6.55541 3.11385 6.6032 3.13872 6.69593 3.1322C7.71883 3.06004 8.58446 3.39394 9.26993 4.16164C9.69069 4.63294 9.93334 5.19067 10.0024 5.81649C10.1719 7.35148 9.18455 8.74133 7.70903 9.10866C7.2609 9.22037 6.80909 9.2269 6.35647 9.13272C6.32705 9.1266 6.29641 9.12416 6.25638 9.11885H6.25597ZM6.09298 3.23698C6.0844 3.22271 6.07868 3.21048 6.07051 3.20029C5.65955 2.68618 5.25105 2.17003 4.83641 1.65878C4.52554 1.27554 4.06025 1.2841 3.75306 1.66897C2.85598 2.7934 1.9589 3.91784 1.05896 5.04023C0.877993 5.2661 0.829789 5.50746 0.955609 5.76838C1.07979 6.02686 1.29916 6.13939 1.58348 6.13776C1.89967 6.13572 2.21544 6.13654 2.53162 6.13776C2.69012 6.13817 2.76856 6.21441 2.77632 6.37219C2.77795 6.40602 2.77714 6.43986 2.77714 6.47411C2.77714 7.71596 2.78367 8.95781 2.77387 10.1993C2.77019 10.6669 3.08719 10.9515 3.52266 10.9413C4.05576 10.929 4.58968 10.9392 5.12319 10.938C5.54803 10.9368 5.82459 10.6595 5.82541 10.2364C5.82622 9.85638 5.82214 9.47641 5.82786 9.09643C5.82908 9.00551 5.80212 8.96311 5.71797 8.92438C4.45814 8.34423 3.75673 7.06201 3.97283 5.68807C4.13787 4.6362 4.72816 3.88114 5.6808 3.40862C5.81315 3.34298 5.95368 3.29487 6.09339 3.23739L6.09298 3.23698ZM9.58284 6.15244C9.57958 4.70592 8.41248 3.54846 6.96024 3.55172C5.53128 3.55458 4.36296 4.72957 4.36336 6.16304C4.36336 7.59488 5.54517 8.76864 6.98107 8.76416C8.42514 8.75967 9.58652 7.59406 9.58325 6.15244H9.58284Z"
        fill="white" />
    <path
        d="M5.80948 7.0803C5.83971 7.02689 5.86054 6.96329 5.90221 6.9213C6.51211 6.30812 7.12405 5.69698 7.73721 5.08706C7.84057 4.98432 7.9717 4.98147 8.06239 5.07157C8.15879 5.16779 8.15348 5.29173 8.04278 5.40221C7.43369 6.01132 6.82339 6.6196 6.2143 7.2287C6.13914 7.30372 6.05295 7.329 5.95572 7.28904C5.87075 7.25398 5.82377 7.1859 5.80907 7.0803H5.80948Z"
        fill="white" />
    <path
        d="M6.91408 5.46185C6.92429 5.78882 6.65672 6.0791 6.34339 6.09827C5.9737 6.12069 5.67998 5.84101 5.66568 5.49406C5.6522 5.17075 5.92753 4.87354 6.23473 4.85356C6.62812 4.82788 6.91448 5.13406 6.91448 5.46185H6.91408ZM6.29601 5.65224C6.39486 5.65061 6.47861 5.56785 6.47738 5.47367C6.47616 5.37827 6.39201 5.29836 6.29274 5.29795C6.18326 5.29795 6.10891 5.37338 6.11218 5.48223C6.11545 5.58579 6.18939 5.65387 6.29642 5.65224H6.29601Z"
        fill="white" />
    <path
        d="M7.6551 7.46068C7.31563 7.46068 7.03376 7.18182 7.03131 6.84424C7.02886 6.50014 7.31522 6.21883 7.66776 6.21924C8.00723 6.22005 8.28583 6.50137 8.28461 6.84139C8.28297 7.18793 8.0056 7.46068 7.6551 7.46068ZM7.65878 7.01792C7.75886 7.01792 7.8426 6.93964 7.84506 6.84343C7.84751 6.74843 7.76417 6.66526 7.66531 6.66363C7.5542 6.66159 7.47781 6.73457 7.47903 6.84261C7.47985 6.94576 7.5542 7.01792 7.65919 7.01833L7.65878 7.01792Z"
        fill="white" />
</svg>
