<svg width="12" height="12" viewBox="0 0 12 12" fill="none" xmlns="http://www.w3.org/2000/svg">
    <path d="M8.98127 2.26824C10.0604 3.11697 10.8282 4.16616 11.044 5.55665C11.0507 5.63533 11.0553 5.7142 11.0587 5.7931C11.0617 5.85292 11.0648 5.91273 11.0679 5.97437C11.0892 6.77299 10.9342 7.49844 10.5881 8.21675C10.5621 8.27138 10.5361 8.32602 10.5093 8.38231C9.944 9.49489 9.00138 10.2319 7.84938 10.6589C6.8926 10.947 5.75355 10.9617 4.82341 10.5813C4.78595 10.5667 4.74848 10.5521 4.70987 10.5371C3.40936 10.0281 2.13875 9.09641 1.5293 7.80295C1.01635 6.47492 1.05639 5.14243 1.56974 3.82758C2.0829 2.68865 3.06266 1.82703 4.20967 1.37253C5.91221 0.765243 7.57671 1.19849 8.98127 2.26824Z" fill="#F2AD1C"/>
    <path d="M8.98127 2.26824C10.0604 3.11697 10.8282 4.16616 11.044 5.55665C11.0507 5.63533 11.0553 5.7142 11.0587 5.7931C11.0617 5.85292 11.0648 5.91273 11.0679 5.97437C11.0892 6.77299 10.9342 7.49844 10.5881 8.21675C10.5621 8.27138 10.5361 8.32602 10.5093 8.38231C9.944 9.49489 9.00138 10.2319 7.84938 10.6589C6.8926 10.947 5.75355 10.9617 4.82341 10.5813C4.78595 10.5667 4.74848 10.5521 4.70987 10.5371C3.40936 10.0281 2.13875 9.09641 1.5293 7.80295C1.01635 6.47492 1.05639 5.14243 1.56974 3.82758C2.0829 2.68865 3.06266 1.82703 4.20967 1.37253C5.91221 0.765243 7.57671 1.19849 8.98127 2.26824ZM4.82341 2.42364C4.77102 2.43881 4.71862 2.45397 4.66464 2.46959C3.74748 2.76911 3.0664 3.45046 2.62489 4.29564C2.43451 4.68793 2.31955 5.05958 2.294 5.49753C2.29021 5.5527 2.28642 5.60787 2.28251 5.66471C2.24603 6.65707 2.55756 7.49832 3.21312 8.24261C3.29851 8.33289 3.38424 8.42285 3.47047 8.51231C3.51779 8.56718 3.56511 8.62204 3.61386 8.67857C4.38702 9.34184 5.45085 9.42103 6.4211 9.35869C7.16628 9.27485 7.95343 8.87311 8.42268 8.28694C8.55406 8.12041 8.55406 8.12041 8.58812 7.92118C8.62694 7.92118 8.66577 7.92118 8.70577 7.92118C9.22269 7.13148 9.40828 6.39134 9.35283 5.43842C9.35101 5.39118 9.34919 5.34393 9.34731 5.29525C9.31694 4.85274 9.13711 4.43971 8.88224 4.07881C8.84341 4.07881 8.80459 4.07881 8.76459 4.07881C8.76095 4.0398 8.75731 4.00078 8.75356 3.96059C8.59448 3.37033 8.15147 3.07305 7.64694 2.77832C6.7564 2.29919 5.81038 2.1358 4.82341 2.42364Z" fill="#FCCD62"/>
    <path d="M5.29367 2.71904C5.3325 2.79707 5.37132 2.8751 5.41132 2.9555C5.3725 2.9555 5.33367 2.9555 5.29367 2.9555C5.32279 3.04328 5.32279 3.04328 5.3525 3.13284C5.3525 3.19136 5.3525 3.24988 5.3525 3.31018C5.39132 3.29067 5.43014 3.27116 5.47014 3.25106C5.47014 3.99234 5.47014 4.73362 5.47014 5.49737C5.7322 5.46811 5.7322 5.46811 5.99955 5.43826C5.99955 4.89205 5.99955 4.34584 5.99955 3.78308C6.03838 3.78308 6.0772 3.78308 6.1172 3.78308C6.1172 3.74407 6.1172 3.70505 6.1172 3.66486C6.15603 3.66486 6.19485 3.66486 6.23485 3.66486C6.23485 3.62584 6.23485 3.58683 6.23485 3.54663C6.3125 3.52712 6.39014 3.50761 6.47014 3.48752C6.47014 4.07274 6.47014 4.65796 6.47014 5.26092C6.88793 5.17084 6.88793 5.17084 7.28632 5.04663C7.44385 4.98932 7.5347 4.96535 7.70544 4.96535C7.72014 5.29786 7.72014 5.29786 7.58779 5.49737C7.41936 5.56641 7.41936 5.56641 7.21647 5.62668C7.14997 5.64702 7.08347 5.66737 7.01495 5.68833C6.84356 5.72897 6.70377 5.74338 6.52897 5.73382C6.52897 5.90939 6.52897 6.08495 6.52897 6.26584C6.56779 6.24877 6.60661 6.2317 6.64661 6.21412C7.00402 6.07943 7.32353 6.0134 7.70544 6.02939C7.68603 6.18545 7.66661 6.34151 7.64661 6.50229C7.30985 6.62316 6.97105 6.72119 6.62455 6.80895C6.58327 6.81952 6.54198 6.83009 6.49944 6.84098C6.32818 6.88364 6.17672 6.91609 5.99955 6.91609C5.98014 6.60397 5.96073 6.29185 5.94073 5.97027C5.78544 5.98978 5.63014 6.00929 5.47014 6.02939C5.47492 6.07869 5.4797 6.12799 5.48462 6.17879C5.48833 6.24531 5.49205 6.31183 5.49588 6.38037C5.50066 6.44552 5.50543 6.51068 5.51035 6.5778C5.45086 6.90339 5.30426 7.11156 5.05838 7.32988C4.84534 7.43614 4.632 7.49001 4.40029 7.54047C4.3424 7.55499 4.2845 7.5695 4.22485 7.58446C3.984 7.6432 3.77816 7.68456 3.52897 7.68456C3.58044 7.34466 3.58044 7.34466 3.64661 7.21165C3.55926 7.24092 3.55926 7.24092 3.47014 7.27077C3.42275 7.39525 3.42275 7.39525 3.40029 7.54047C3.39096 7.58932 3.38164 7.63816 3.37203 7.68849C3.36558 7.72621 3.35914 7.76393 3.3525 7.80279C3.1172 7.80279 3.1172 7.80279 2.9922 7.68826C2.87358 7.49355 2.83197 7.338 2.79321 7.11583C2.76722 6.9705 2.76722 6.9705 2.70521 6.82049C2.62424 6.54418 2.61235 6.27541 2.59882 5.98875C2.59507 5.93263 2.59131 5.8765 2.58745 5.81868C2.58475 5.76485 2.58206 5.71101 2.57929 5.65554C2.57665 5.60672 2.57401 5.5579 2.57129 5.5076C2.59188 5.3473 2.64942 5.3092 2.76426 5.2018C2.76426 5.14572 2.76426 5.08963 2.76426 5.03185C2.76426 4.81629 2.81177 4.72103 2.94073 4.55156C2.97955 4.55156 3.01838 4.55156 3.05838 4.55156C3.06808 4.49425 3.07779 4.43695 3.08779 4.37791C3.16334 4.10326 3.3431 3.93162 3.53632 3.73067C3.65014 3.61282 3.65014 3.61282 3.7098 3.47713C3.79578 3.30688 3.94923 3.27139 4.1172 3.19195C4.1633 3.15415 4.20941 3.11636 4.25691 3.07742C4.58821 2.81583 4.87048 2.6836 5.29367 2.71904Z" fill="#F5AF1B"/>
    <path d="M8.94089 2.42383C8.97365 2.4409 9.0064 2.45797 9.04015 2.47555C9.17616 2.54491 9.17616 2.54491 9.32439 2.59655C9.95803 2.87332 10.4788 3.77447 10.7313 4.39673C11.1585 5.52416 11.196 6.74806 10.746 7.87703C10.6949 7.99103 10.6422 8.10436 10.5879 8.21693C10.5619 8.27157 10.5359 8.3262 10.5091 8.38249C9.94382 9.49508 9.0012 10.2321 7.84921 10.659C6.89277 10.9471 5.75299 10.9623 4.82324 10.5815C4.76188 10.5572 4.76188 10.5572 4.69928 10.5325C4.56719 10.48 4.4359 10.426 4.30486 10.3709C4.24298 10.3449 4.24298 10.3449 4.17985 10.3184C4.07823 10.2732 3.97978 10.2209 3.88207 10.1677C3.86265 10.1091 3.84324 10.0506 3.82324 9.99033C4.04051 10.0495 4.24291 10.1118 4.45192 10.1972C5.54552 10.6128 6.70885 10.4024 7.76442 9.99033C8.1391 9.8152 8.45401 9.61203 8.76442 9.34008C8.80324 9.34008 8.84207 9.34008 8.88207 9.34008C8.88207 9.30107 8.88207 9.26205 8.88207 9.22186C8.9246 9.18825 8.96714 9.15465 9.01097 9.12003C9.81907 8.46156 10.2213 7.33068 10.3527 6.32531C10.4677 5.1043 10.1562 3.90011 9.37931 2.93714C9.3511 2.9043 9.32289 2.87146 9.29383 2.83762C9.26077 2.79807 9.22771 2.75852 9.19365 2.71778C9.11033 2.61899 9.02575 2.52128 8.94089 2.42383Z" fill="#66441C"/>
    <path d="M5.47047 3.25146C5.47047 3.99275 5.47047 4.73403 5.47047 5.49777C5.73253 5.46851 5.73253 5.46851 5.99989 5.43866C5.99989 4.89245 5.99989 4.34624 5.99989 3.78348C6.03871 3.78348 6.07753 3.78348 6.11753 3.78348C6.11753 3.74447 6.11753 3.70546 6.11753 3.66526C6.15636 3.66526 6.19518 3.66526 6.23518 3.66526C6.23518 3.62624 6.23518 3.58723 6.23518 3.54703C6.31283 3.52752 6.39047 3.50802 6.47047 3.48792C6.47047 4.07314 6.47047 4.65836 6.47047 5.26132C6.88826 5.17124 6.88826 5.17124 7.28665 5.04703C7.44418 4.98972 7.53503 4.96575 7.70577 4.96575C7.72047 5.29826 7.72047 5.29826 7.58812 5.49777C7.41969 5.56681 7.41969 5.56681 7.2168 5.62708C7.1503 5.64743 7.0838 5.66777 7.01528 5.68873C6.84389 5.72937 6.70411 5.74378 6.5293 5.73422C6.5293 5.90979 6.5293 6.08536 6.5293 6.26624C6.56812 6.24917 6.60694 6.23211 6.64694 6.21452C7.00435 6.07983 7.32386 6.0138 7.70577 6.02979C7.68636 6.18585 7.66694 6.34191 7.64694 6.5027C7.31018 6.62356 6.97138 6.72159 6.62488 6.80935C6.5836 6.81992 6.54231 6.83049 6.49977 6.84139C6.32851 6.88404 6.17705 6.91649 5.99989 6.91649C5.98047 6.60437 5.96106 6.29225 5.94106 5.97068C5.78577 5.99018 5.63047 6.00969 5.47047 6.02979C5.47525 6.07909 5.48003 6.12839 5.48495 6.17919C5.48866 6.24571 5.49238 6.31224 5.49621 6.38078C5.50099 6.44593 5.50576 6.51108 5.51068 6.5782C5.45119 6.90379 5.30459 7.11196 5.05871 7.33028C4.84567 7.43654 4.63233 7.49042 4.40062 7.54087C4.34273 7.55539 4.28483 7.56991 4.22518 7.58486C3.98433 7.6436 3.77849 7.68496 3.5293 7.68496C3.54672 7.49233 3.56259 7.36374 3.68118 7.20836C3.86086 7.06368 4.04135 7.01345 4.26091 6.96082C4.29947 6.95061 4.33803 6.9404 4.37776 6.92988C4.59652 6.87432 4.77081 6.85738 4.99989 6.85738C4.99989 6.6428 4.99989 6.42821 4.99989 6.20713C4.88831 6.23913 4.88831 6.23913 4.77447 6.27179C4.67682 6.29951 4.57916 6.32722 4.4815 6.35491C4.43248 6.36901 4.38346 6.38311 4.33295 6.39763C4.26215 6.41763 4.26215 6.41763 4.18991 6.43804C4.14648 6.45042 4.10304 6.46281 4.05829 6.47556C3.94106 6.5027 3.94106 6.5027 3.76459 6.5027C3.80871 6.11107 3.80871 6.11107 3.94106 5.91156C4.07962 5.85753 4.07962 5.85753 4.24621 5.8155C4.30043 5.80133 4.35464 5.78716 4.4105 5.77255C4.60517 5.73055 4.80278 5.70341 4.99989 5.67511C4.99989 4.97284 4.99989 4.27058 4.99989 3.54703C5.05812 3.54703 5.11636 3.54703 5.17636 3.54703C5.19577 3.48851 5.21518 3.42999 5.23518 3.36969C5.41165 3.25146 5.41165 3.25146 5.47047 3.25146Z" fill="#FBCD65"/>
    <path d="M8.94141 2.42383C8.97416 2.4409 9.00692 2.45797 9.04067 2.47555C9.17668 2.54491 9.17668 2.54491 9.32491 2.59655C9.95857 2.87333 10.4792 3.77447 10.7318 4.39673C10.9976 5.09732 11.0935 5.81299 11.0591 6.56176C11.0396 6.50324 11.0202 6.44471 11.0002 6.38442C10.9359 6.37588 10.8716 6.36735 10.8054 6.35856C10.5885 6.32531 10.5885 6.32531 10.412 6.26619C10.4105 6.20036 10.409 6.13452 10.4074 6.06669C10.3686 4.87715 10.086 3.75933 9.29435 2.83762C9.26129 2.79807 9.22823 2.75852 9.19416 2.71778C9.11085 2.61899 9.02626 2.52128 8.94141 2.42383Z" fill="#B9892B"/>
    <path d="M10.4119 6.26611C10.5117 6.28104 10.611 6.30019 10.7097 6.32153C10.7637 6.33304 10.8178 6.34454 10.8735 6.3564C10.9362 6.37023 10.9362 6.37023 11.0001 6.38434C11.1771 6.87157 10.8701 7.59939 10.6706 8.04713C10.2853 8.84201 10.2853 8.84201 10.1178 8.92621C10.0789 8.9067 10.0401 8.8872 10.0001 8.8671C10.0001 8.82808 10.0001 8.78907 10.0001 8.74887C9.74931 8.60942 9.74931 8.60942 9.4707 8.57153C9.5038 8.52524 9.5038 8.52524 9.53757 8.47801C9.96294 7.86319 10.1608 7.26764 10.3062 6.5409C10.3531 6.32523 10.3531 6.32523 10.4119 6.26611Z" fill="#785625"/>
    <path d="M5.62753 2.29624C6.47417 2.27146 7.08925 2.50342 7.82353 2.89661C7.7847 2.91611 7.74588 2.93562 7.70588 2.95572C7.59634 2.91444 7.48874 2.86793 7.38235 2.81902C6.58119 2.47561 5.64701 2.39221 4.82353 2.71927C3.79923 3.15138 3.14516 3.82381 2.70588 4.84735C2.41624 5.61698 2.48898 6.43227 2.70588 7.21188C2.79158 7.39783 2.88441 7.56869 2.99356 7.74159C3.0151 7.78137 3.03663 7.82114 3.05882 7.86212C3.0297 7.92065 3.0297 7.92065 3 7.98035C2.41431 7.22828 2.20106 6.28268 2.31273 5.34057C2.48234 4.37009 2.95834 3.59036 3.70588 2.95572C3.91351 2.81545 4.12495 2.70397 4.35294 2.60104C4.4296 2.56561 4.4296 2.56561 4.50781 2.52946C4.88463 2.36618 5.22079 2.31365 5.62753 2.29624Z" fill="#895A0B"/>
    <path d="M7.47042 2.77818C7.47042 2.81719 7.47042 2.85621 7.47042 2.8964C7.43888 2.88787 7.40733 2.87933 7.37484 2.87054C7.11081 2.8077 6.85974 2.77015 6.58807 2.77818C6.58807 2.73916 6.58807 2.70015 6.58807 2.65995C6.42385 2.65836 6.25965 2.65718 6.09542 2.65625C6.04871 2.65576 6.002 2.65526 5.95388 2.65475C5.70431 2.64633 5.70431 2.64633 5.47042 2.71906C5.38226 2.7252 5.294 2.72991 5.20572 2.73384C4.74569 2.77605 4.37206 2.97192 4.05866 3.3102C4.01013 3.32605 3.9616 3.3419 3.9116 3.35823C3.72871 3.44553 3.6837 3.55491 3.59427 3.73207C3.52389 3.85129 3.44677 3.92978 3.34542 4.02325C3.17767 4.18119 3.11256 4.32406 3.05866 4.55157C3.01983 4.55157 2.98101 4.55157 2.94101 4.55157C2.86051 4.72347 2.82336 4.83997 2.82336 5.03187C2.82336 5.20182 2.82336 5.20182 2.70572 5.37916C2.66689 5.37916 2.62807 5.37916 2.58807 5.37916C2.60292 5.57507 2.61927 5.77083 2.63586 5.9666C2.64 6.02135 2.64413 6.0761 2.64839 6.13251C2.67629 6.45222 2.7292 6.73585 2.8403 7.03716C2.88071 7.14848 2.9111 7.26331 2.94101 7.37793C2.997 7.55728 3.04745 7.66792 3.17631 7.80281C3.21513 7.80281 3.25395 7.80281 3.29395 7.80281C3.30108 7.76577 3.30821 7.72874 3.31555 7.69058C3.32541 7.64227 3.33527 7.59396 3.34542 7.54419C3.35498 7.49618 3.36453 7.44817 3.37438 7.39871C3.4116 7.27079 3.4116 7.27079 3.52925 7.15256C3.6166 7.18182 3.6166 7.18182 3.70572 7.21167C3.68631 7.24337 3.66689 7.27507 3.64689 7.30773C3.57472 7.47999 3.5797 7.6177 3.58807 7.80281C3.62932 7.79496 3.67057 7.78711 3.71307 7.77902C4.04339 7.71723 4.37185 7.66345 4.70572 7.62547C4.36363 7.89558 4.12493 7.93741 3.69262 7.95405C3.51441 7.98252 3.46092 8.01648 3.35278 8.15749C3.41101 8.15749 3.46925 8.15749 3.52925 8.15749C3.54866 8.25502 3.56807 8.35256 3.58807 8.45305C3.4116 8.45305 3.4116 8.45305 3.23513 8.30157C3.05803 8.1144 2.97364 7.92686 2.88219 7.68458C2.84336 7.61752 2.80454 7.55047 2.76454 7.48138C2.41936 6.79295 2.36007 5.83856 2.56601 5.10946C2.79551 4.44248 3.08741 3.92617 3.58807 3.42842C3.63379 3.3795 3.63379 3.3795 3.68044 3.32959C4.68664 2.34491 6.23033 2.27046 7.47042 2.77818Z" fill="#E8AB30"/>
    <path d="M9.01775 2.29342C9.1763 2.42343 9.1763 2.42343 9.29395 2.60077C9.26308 2.58423 9.23222 2.5677 9.20043 2.55066C8.96426 2.43719 8.71615 2.35429 8.47019 2.26479C8.26354 2.17355 8.15473 2.10516 8.07179 1.8925C7.97524 1.73241 7.89402 1.71564 7.71766 1.66165C7.66124 1.64401 7.60483 1.62637 7.5467 1.60819C7.48756 1.59071 7.42841 1.57322 7.36747 1.5552C7.30924 1.53703 7.251 1.51885 7.191 1.50013C6.14442 1.17884 4.95342 1.16288 3.95571 1.66604C3.89262 1.70139 3.82953 1.73675 3.76453 1.77318C3.68665 1.79497 3.60827 1.8152 3.52924 1.83229C3.52924 1.87131 3.52924 1.91032 3.52924 1.95052C3.36874 2.0668 3.20522 2.17058 3.03292 2.26825C2.65788 2.50725 2.44939 2.71349 2.29395 3.13279C2.23571 3.16205 2.23571 3.16205 2.1763 3.1919C2.13331 3.32869 2.09386 3.46668 2.05865 3.60569C2.01983 3.60569 1.981 3.60569 1.941 3.60569C1.92159 3.74224 1.90218 3.8788 1.88218 4.01949C1.76571 4.04875 1.76571 4.04875 1.64689 4.0786C1.63494 4.12946 1.63494 4.12946 1.62276 4.18135C1.58898 4.31151 1.54906 4.43615 1.5035 4.56259C1.48902 4.60366 1.47454 4.64473 1.45962 4.68705C1.41159 4.78796 1.41159 4.78796 1.29395 4.84707C1.41244 3.78886 2.03412 2.8707 2.82336 2.18697C4.77718 0.628362 7.09804 0.868677 9.01775 2.29342Z" fill="#E7D2A1"/>
    <path d="M8.94141 2.42383C8.97416 2.4409 9.00692 2.45797 9.04067 2.47555C9.17668 2.54491 9.17668 2.54491 9.32491 2.59655C9.95857 2.87333 10.4792 3.77447 10.7318 4.39673C10.9976 5.09732 11.0935 5.81299 11.0591 6.56176C11.0396 6.56176 11.0202 6.56176 11.0002 6.56176C10.9808 6.23013 10.9614 5.89851 10.9414 5.55683C10.9026 5.55683 10.8638 5.55683 10.8238 5.55683C10.8151 5.50326 10.8065 5.44969 10.7976 5.3945C10.7109 4.92128 10.5989 4.57158 10.2943 4.19723C10.2361 4.21673 10.1779 4.23624 10.1179 4.25634C10.088 4.19355 10.0581 4.13076 10.0273 4.06607C9.81604 3.62785 9.61306 3.2087 9.29435 2.83762C9.26129 2.79807 9.22823 2.75852 9.19416 2.71778C9.11085 2.61899 9.02626 2.52128 8.94141 2.42383Z" fill="#B88933"/>
    <path d="M7.70616 7.03467C7.68675 7.19073 7.66734 7.34679 7.64734 7.50757C7.13208 7.73784 6.57129 7.94258 6.00028 7.92137C5.98847 7.70767 5.99424 7.56681 6.11793 7.38935C6.27142 7.33162 6.27142 7.33162 6.45616 7.29329C6.64982 7.25056 6.83406 7.20857 7.02234 7.14551C7.24997 7.06925 7.46656 7.03467 7.70616 7.03467Z" fill="#F9CB60"/>
    <path d="M5.00017 6.20703C5.00017 6.42161 5.00017 6.63619 5.00017 6.85728C4.80666 6.90828 4.61304 6.95869 4.41929 7.00876C4.36416 7.02335 4.30904 7.03794 4.25224 7.05297C4.19954 7.0665 4.14684 7.08003 4.09254 7.09396C4.04387 7.10665 3.9952 7.11935 3.94505 7.13242C3.8237 7.15284 3.8237 7.15284 3.70605 7.09373C3.80311 7.0157 3.90017 6.93767 4.00017 6.85728C3.91535 6.77204 3.81329 6.73208 3.70605 6.67994C3.70605 6.62142 3.70605 6.56289 3.70605 6.5026C3.87752 6.45296 4.0491 6.40376 4.22076 6.35481C4.29355 6.33367 4.29355 6.33367 4.36782 6.3121C4.41483 6.29876 4.46185 6.28543 4.51028 6.27169C4.55341 6.2593 4.59654 6.24692 4.64097 6.23416C4.76488 6.20703 4.76488 6.20703 5.00017 6.20703Z" fill="#F1B125"/>
    <path d="M7.70577 4.90625C7.78341 4.92576 7.86106 4.94526 7.94106 4.96536C7.95814 5.16522 7.96656 5.35715 7.94106 5.5565C7.80503 5.71167 7.80503 5.71167 7.64694 5.79295C7.58871 5.79295 7.53047 5.79295 7.47047 5.79295C7.5093 5.83196 7.54812 5.87098 7.58812 5.91118C7.62694 5.95019 7.66577 5.98921 7.70577 6.0294C7.31361 6.10822 6.92145 6.18704 6.5293 6.26586C6.5293 6.09029 6.5293 5.91472 6.5293 5.73384C6.59094 5.71745 6.65259 5.70107 6.71611 5.68419C6.79722 5.66256 6.87833 5.64094 6.95944 5.6193C7.00005 5.60852 7.04065 5.59774 7.08249 5.58663C7.25276 5.54117 7.42093 5.49427 7.58812 5.43827C7.63551 5.31379 7.63551 5.31379 7.65797 5.16857C7.6673 5.11972 7.67663 5.07088 7.68624 5.02055C7.6959 4.96397 7.6959 4.96397 7.70577 4.90625Z" fill="#E2AB37"/>
    <path d="M1.23483 4.90625C1.27366 4.90625 1.31248 4.90625 1.35248 4.90625C1.35469 4.97738 1.35469 4.97738 1.35695 5.04995C1.36377 5.26437 1.37099 5.47878 1.37822 5.6932C1.38053 5.76783 1.38284 5.84247 1.38523 5.91937C1.38769 5.99081 1.39015 6.06225 1.39269 6.13585C1.39485 6.20179 1.39701 6.26773 1.39923 6.33566C1.40479 6.50696 1.40479 6.50696 1.47013 6.67965C1.46892 6.74305 1.4677 6.80645 1.46645 6.87177C1.47035 7.107 1.50617 7.28712 1.58778 7.50724C1.64601 7.54625 1.70425 7.58526 1.76425 7.62546C1.80793 7.76203 1.84727 7.90009 1.88189 8.03925C1.90131 8.07827 1.92072 8.11728 1.94072 8.15748C1.97954 8.15748 2.01836 8.15748 2.05836 8.15748C2.07778 8.27453 2.09719 8.39157 2.11719 8.51216C2.15601 8.51216 2.19483 8.51216 2.23483 8.51216C2.4244 8.82389 2.4244 8.82389 2.47013 8.92595C2.45072 8.96497 2.43131 9.00398 2.41131 9.04418C1.52949 8.1327 1.1634 7.073 1.16866 5.81512C1.16843 5.76025 1.1682 5.70539 1.16797 5.64886C1.16804 5.59567 1.16812 5.54248 1.1682 5.48768C1.16826 5.43986 1.16833 5.39203 1.1684 5.34276C1.17651 5.19262 1.2022 5.05282 1.23483 4.90625Z" fill="#E2C681"/>
    <path d="M3.82324 9.99023C4.04051 10.0494 4.24291 10.1117 4.45192 10.1971C5.22505 10.4909 6.0755 10.4375 6.88207 10.3449C6.79082 10.491 6.73997 10.5696 6.57462 10.6262C6.50478 10.6369 6.50478 10.6369 6.43354 10.6479C6.2952 10.6678 6.2952 10.6678 6.17618 10.6996C6.15677 10.7386 6.13736 10.7776 6.11736 10.8178C5.47991 10.8691 4.88183 10.6175 4.30486 10.3708C4.26369 10.3535 4.22251 10.3362 4.18009 10.3183C4.07837 10.2732 3.97984 10.2208 3.88207 10.1676C3.86265 10.1091 3.84324 10.0505 3.82324 9.99023Z" fill="#6C4C1D"/>
    <path d="M7.82307 5.79297C7.97693 6.02489 8.01968 6.22407 7.99954 6.50233C7.92096 6.67437 7.83514 6.77364 7.70542 6.91612C7.6666 6.91612 7.62778 6.91612 7.58778 6.91612C7.56836 6.97464 7.54895 7.03317 7.52895 7.09346C7.4681 7.10318 7.4681 7.10318 7.40602 7.11309C7.07927 7.16849 6.77711 7.23786 6.46852 7.36016C6.33145 7.39426 6.24966 7.37429 6.11719 7.32991C6.12086 7.22277 6.12086 7.22277 6.17601 7.09346C6.49563 6.93287 6.82692 6.84463 7.17233 6.75725C7.22378 6.74396 7.27523 6.73066 7.32824 6.71696C7.45389 6.68453 7.57965 6.6525 7.70542 6.62055C7.74425 6.44499 7.78307 6.26942 7.82307 6.08854C7.76483 6.1178 7.76483 6.1178 7.70542 6.14765C7.70542 6.06962 7.70542 5.99159 7.70542 5.9112C7.74425 5.9112 7.78307 5.9112 7.82307 5.9112C7.82307 5.87218 7.82307 5.83317 7.82307 5.79297Z" fill="#EFB028"/>
    <path d="M5.94106 5.91113C5.97018 5.99892 5.97018 5.99892 5.99989 6.08847C5.88341 6.10798 5.76694 6.12749 5.64694 6.14759C5.65309 6.21514 5.65309 6.21514 5.65935 6.28405C5.68066 6.69239 5.64079 6.94455 5.40568 7.28021C5.11616 7.56217 4.72505 7.63503 4.34547 7.72887C4.29293 7.74266 4.24038 7.75645 4.18624 7.77066C4.13551 7.78339 4.08478 7.79611 4.03251 7.80922C3.9867 7.82079 3.9409 7.83235 3.8937 7.84426C3.75446 7.86325 3.662 7.84596 3.5293 7.80276C3.54871 7.76374 3.56812 7.72473 3.58812 7.68453C3.72419 7.64063 3.72419 7.64063 3.90315 7.59909C3.96771 7.58294 4.03228 7.56679 4.09881 7.55014C4.23489 7.51692 4.37123 7.48473 4.50781 7.45362C4.89113 7.35558 5.14207 7.26732 5.35617 6.92117C5.43762 6.7401 5.45902 6.58188 5.46312 6.38404C5.4654 6.31698 5.46767 6.24993 5.47001 6.18084C5.47017 6.13085 5.47032 6.08086 5.47047 6.02936C5.62577 5.99034 5.78106 5.95133 5.94106 5.91113Z" fill="#87580D"/>
    <path d="M6.52937 3.36963C6.70584 3.42874 6.70584 3.42874 6.77578 3.55902C6.82787 3.73949 6.83207 3.87626 6.82211 4.06352C6.81756 4.1581 6.81756 4.1581 6.81292 4.2546C6.80913 4.31979 6.80533 4.38498 6.80143 4.45214C6.79809 4.51847 6.79475 4.58481 6.79132 4.65315C6.78302 4.81648 6.77411 4.97976 6.76466 5.14303C6.84231 5.16254 6.91996 5.18204 6.99996 5.20214C6.82525 5.22165 6.65055 5.24116 6.47055 5.26125C6.46909 5.00136 6.46803 4.74147 6.46731 4.48157C6.46702 4.39309 6.46662 4.30461 6.46611 4.21614C6.4654 4.08922 6.46506 3.9623 6.4648 3.83538C6.46449 3.75891 6.46418 3.68245 6.46387 3.60367C6.47055 3.42874 6.47055 3.42874 6.52937 3.36963Z" fill="#BA8626"/>
    <path d="M4.99966 6.44336C5.05789 6.46287 5.11613 6.48237 5.17613 6.50247C5.17613 6.69755 5.17613 6.89262 5.17613 7.09361C5.09848 7.09361 5.02083 7.09361 4.94083 7.09361C4.94083 7.13262 4.94083 7.17164 4.94083 7.21183C4.67877 7.24109 4.67877 7.24109 4.41142 7.27095C4.41142 7.30996 4.41142 7.34898 4.41142 7.38917C4.17848 7.41843 4.17848 7.41843 3.94083 7.44829C3.97966 7.42878 4.01848 7.40927 4.05848 7.38917C4.05848 7.35016 4.05848 7.31114 4.05848 7.27095C4.00267 7.30021 3.94686 7.32947 3.88936 7.35962C3.70554 7.44829 3.70554 7.44829 3.58789 7.44829C3.61615 7.31089 3.61615 7.31089 3.70554 7.15272C3.86111 7.07061 4.02481 7.02992 4.19451 6.98646C4.23921 6.9737 4.28391 6.96094 4.32996 6.94779C4.55759 6.88518 4.76159 6.84044 4.99966 6.85715C4.99966 6.7206 4.99966 6.58405 4.99966 6.44336Z" fill="#FCCC57"/>
    <path d="M2.76453 2.24609C2.76453 2.4562 2.73348 2.47623 2.59542 2.62294C2.44896 2.78601 2.36724 2.92411 2.29395 3.13279C2.23571 3.16205 2.23571 3.16205 2.1763 3.19191C2.13331 3.3287 2.09386 3.46668 2.05865 3.6057C2.01983 3.6057 1.981 3.6057 1.941 3.6057C1.92159 3.74225 1.90218 3.8788 1.88218 4.01949C1.80453 4.039 1.72689 4.05851 1.64689 4.07861C1.63494 4.12947 1.63494 4.12947 1.62276 4.18136C1.58898 4.31152 1.54906 4.43615 1.5035 4.5626C1.48902 4.60367 1.47454 4.64474 1.45962 4.68706C1.41159 4.78797 1.41159 4.78797 1.29395 4.84708C1.41116 3.80033 2.00724 2.94235 2.76453 2.24609Z" fill="#EFCA72"/>
    <path d="M10.4119 6.26611C10.5117 6.28104 10.611 6.30019 10.7097 6.32153C10.7637 6.33304 10.8178 6.34454 10.8735 6.3564C10.9362 6.37023 10.9362 6.37023 11.0001 6.38434C11.0195 6.46237 11.0389 6.5404 11.0589 6.62079C11.0201 6.62079 10.9813 6.62079 10.9413 6.62079C10.9413 6.56227 10.9413 6.50375 10.9413 6.44345C10.8248 6.46296 10.7084 6.48247 10.5884 6.50257C10.4974 6.74209 10.4974 6.74209 10.4758 6.99441C10.4694 7.19396 10.4093 7.33559 10.331 7.51858C10.3051 7.58038 10.2791 7.64217 10.2524 7.70585C10.1766 7.86217 10.1766 7.86217 10.0589 7.9804C10.0432 8.02551 10.0274 8.07062 10.0111 8.1171C9.92339 8.31668 9.8115 8.43056 9.64717 8.57153C9.58894 8.57153 9.5307 8.57153 9.4707 8.57153C9.5038 8.52524 9.5038 8.52524 9.53757 8.47801C9.96294 7.86319 10.1608 7.26764 10.3062 6.5409C10.3531 6.32523 10.3531 6.32523 10.4119 6.26611Z" fill="#845D17"/>
    <path d="M7.294 1.47759C7.35224 1.53612 7.35224 1.53612 7.41165 1.59582C7.32584 1.58748 7.24006 1.57879 7.1543 1.56996C7.08264 1.56276 7.08264 1.56276 7.00954 1.55541C6.88224 1.53671 6.88224 1.53671 6.76459 1.47759C5.99858 1.36972 5.20632 1.33836 4.47047 1.59582C4.39984 1.61811 4.39984 1.61811 4.32778 1.64085C4.05385 1.72829 3.79164 1.83271 3.5293 1.9505C3.5293 1.91149 3.5293 1.87247 3.5293 1.83227C4.70474 1.17703 6.01223 1.01684 7.294 1.47759Z" fill="#F2CE76"/>
    <path d="M8.94141 2.42383C8.97416 2.4409 9.00692 2.45797 9.04067 2.47555C9.17559 2.54454 9.17559 2.54454 9.3187 2.59332C9.86696 2.83467 10.3653 3.59225 10.6062 4.13234C10.6546 4.27851 10.6546 4.27851 10.7061 4.49279C10.5646 4.36362 10.4829 4.24102 10.401 4.06792C10.3807 4.02563 10.3605 3.98333 10.3396 3.93976C10.3172 3.89164 10.3172 3.89164 10.2943 3.84255C10.2555 3.84255 10.2167 3.84255 10.1767 3.84255C10.1367 3.76939 10.1367 3.76939 10.0958 3.69476C10.0643 3.646 10.0327 3.59723 10.0002 3.54698C9.92258 3.54698 9.84494 3.54698 9.76494 3.54698C9.6813 3.4343 9.6813 3.4343 9.60317 3.28097C9.44667 2.99747 9.26724 2.79146 9.03194 2.57138C9.00206 2.5422 8.97219 2.51301 8.94141 2.48294C8.94141 2.46343 8.94141 2.44393 8.94141 2.42383Z" fill="#BFA055"/>
    <path d="M7.76448 7.03467C7.8033 7.05418 7.84212 7.07368 7.88212 7.09378C7.83065 7.55191 7.83065 7.55191 7.76448 7.68491C7.51738 7.77456 7.26102 7.83553 7.00712 7.90289C6.93592 7.92259 6.86472 7.94229 6.79136 7.96259C6.68911 7.99007 6.68911 7.99007 6.58479 8.01812C6.52201 8.03501 6.45924 8.0519 6.39456 8.06931C6.23506 8.09871 6.23506 8.09871 6.05859 8.03959C6.05859 8.00058 6.05859 7.96156 6.05859 7.92137C6.12464 7.90636 6.19068 7.89134 6.25873 7.87588C6.48502 7.82399 6.71068 7.76977 6.93615 7.71444C7.036 7.69036 7.13629 7.66809 7.23667 7.64635C7.49153 7.58312 7.49153 7.58312 7.65855 7.39143C7.71768 7.24679 7.71768 7.24679 7.76448 7.03467Z" fill="#7E4E08"/>
    <path d="M7.76448 6.02979C7.8033 6.04929 7.84212 6.0688 7.88212 6.0889C7.87501 6.17414 7.86454 6.25911 7.85271 6.34382C7.84452 6.41481 7.84452 6.41481 7.83617 6.48722C7.73971 6.6671 7.61764 6.69738 7.42995 6.75824C7.38505 6.77144 7.34015 6.78465 7.29389 6.79826C7.24937 6.81219 7.20485 6.82612 7.15898 6.84047C7.02183 6.88252 6.88417 6.92196 6.74609 6.96082C6.69919 6.97461 6.6523 6.9884 6.60398 7.00261C6.5589 7.01534 6.51382 7.02807 6.46737 7.04118C6.42693 7.05274 6.38649 7.0643 6.34483 7.07622C6.23506 7.09382 6.23506 7.09382 6.05859 7.03471C6.05859 6.9957 6.05859 6.95668 6.05859 6.91648C6.25829 6.85841 6.45807 6.8006 6.65786 6.74284C6.74254 6.71821 6.74254 6.71821 6.82893 6.69308C6.88371 6.67727 6.9385 6.66145 6.99494 6.64516C7.07026 6.62334 7.07026 6.62334 7.1471 6.60107C7.29389 6.5618 7.29389 6.5618 7.45542 6.53386C7.49918 6.52358 7.54293 6.51329 7.58801 6.50269C7.66112 6.3946 7.66112 6.3946 7.69462 6.26254C7.70835 6.21919 7.72207 6.17583 7.73621 6.13116C7.7502 6.08098 7.7502 6.08098 7.76448 6.02979Z" fill="#7B4D06"/>
    <path d="M7.23483 10.3447C7.24211 10.3825 7.24939 10.4203 7.25689 10.4592C7.26903 10.4994 7.28116 10.5397 7.29366 10.5811C7.33248 10.6006 7.37131 10.6201 7.41131 10.6402C7.29733 10.6735 7.29733 10.6735 7.17601 10.6994C7.1566 10.6798 7.13719 10.6603 7.11719 10.6402C7.09778 10.6793 7.07836 10.7183 7.05836 10.7585C6.84534 10.8189 6.64264 10.8239 6.42233 10.8213C6.33623 10.8205 6.33623 10.8205 6.24839 10.8197C6.18345 10.8186 6.18345 10.8186 6.11719 10.8176C6.11719 10.7591 6.11719 10.7005 6.11719 10.6402C6.25307 10.6012 6.38895 10.5622 6.52895 10.522C6.52895 10.5025 6.52895 10.483 6.52895 10.4629C6.77468 10.3688 6.97199 10.3321 7.23483 10.3447Z" fill="#624016"/>
    <path d="M7.82387 5.79297C7.97881 6.02651 8.01736 6.22269 8.00034 6.50233C7.93841 6.68312 7.86217 6.80469 7.70623 6.91612C7.5648 6.93707 7.44039 6.93112 7.29814 6.91889C7.13188 6.9151 7.07003 6.99348 6.94152 7.09346C6.7816 7.10938 6.6322 7.10156 6.47093 7.09346C6.45152 7.05445 6.43211 7.01543 6.41211 6.97523C6.83917 6.85819 7.26623 6.74115 7.70623 6.62055C7.74505 6.44499 7.78387 6.26942 7.82387 6.08854C7.76564 6.1178 7.76564 6.1178 7.70623 6.14765C7.70623 6.06962 7.70623 5.99159 7.70623 5.9112C7.74505 5.9112 7.78387 5.9112 7.82387 5.9112C7.82387 5.87218 7.82387 5.83317 7.82387 5.79297Z" fill="#E5AA2F"/>
    <path d="M7.76459 4.96533C7.80341 4.98484 7.84224 5.00435 7.88224 5.02445C7.82911 5.48715 7.82911 5.48715 7.70577 5.67469C7.59521 5.72324 7.59521 5.72324 7.46266 5.74951C7.41527 5.75941 7.36788 5.76932 7.31905 5.77953C7.26953 5.78882 7.22002 5.79812 7.169 5.8077C7.09405 5.82301 7.09405 5.82301 7.01758 5.83864C6.89421 5.86371 6.7706 5.88755 6.64694 5.91114C6.64694 6.02819 6.64694 6.14523 6.64694 6.26582C6.60812 6.26582 6.5693 6.26582 6.5293 6.26582C6.5293 6.09026 6.5293 5.91469 6.5293 5.7338C6.59094 5.71742 6.65259 5.70104 6.71611 5.68416C6.79722 5.66253 6.87833 5.6409 6.95944 5.61927C7.00005 5.60849 7.04065 5.59771 7.08249 5.5866C7.25276 5.54114 7.42093 5.49424 7.58812 5.43824C7.64798 5.32797 7.64798 5.32797 7.68739 5.19809C7.70217 5.15473 7.71696 5.11137 7.73219 5.0667C7.74288 5.03325 7.75358 4.9998 7.76459 4.96533Z" fill="#7C4D08"/>
    <path d="M6.00017 6.08887C6.00017 6.28394 6.00017 6.47901 6.00017 6.68C5.98076 6.68 5.96135 6.68 5.94135 6.68C5.92194 6.54345 5.90253 6.4069 5.88253 6.26621C5.82429 6.26621 5.76605 6.26621 5.70605 6.26621C5.72547 6.30522 5.74488 6.34424 5.76488 6.38443C5.76902 6.4952 5.76984 6.60611 5.76855 6.71695C5.76802 6.77623 5.76749 6.83551 5.76695 6.8966C5.76626 6.94216 5.76558 6.98773 5.76488 7.03468C5.72605 7.03468 5.68723 7.03468 5.64723 7.03468C5.62782 7.13222 5.60841 7.22975 5.58841 7.33025C5.51076 7.34975 5.43311 7.36926 5.35311 7.38936C5.35311 7.42837 5.35311 7.46739 5.35311 7.50759C5.13934 7.64508 4.95483 7.63543 4.70605 7.62581C4.84619 7.54998 4.97079 7.4993 5.12517 7.45586C5.29749 7.40702 5.29749 7.40702 5.36414 7.28222C5.37991 7.23954 5.39569 7.19687 5.41194 7.15291C5.44121 7.10917 5.47048 7.06543 5.50063 7.02036C5.60194 6.83221 5.61723 6.69666 5.62885 6.48419C5.63272 6.42102 5.63658 6.35785 5.64057 6.29276C5.64277 6.24498 5.64497 6.19721 5.64723 6.14798C5.8237 6.08887 5.8237 6.08887 6.00017 6.08887Z" fill="#E9AC34"/>
    <path d="M6.47019 5.79297C6.4896 5.79297 6.50901 5.79297 6.52901 5.79297C6.52901 5.94903 6.52901 6.10509 6.52901 6.26588C6.56783 6.24881 6.60666 6.23174 6.64666 6.21415C6.98043 6.08837 7.28732 6.01137 7.64666 6.02942C7.56945 6.11809 7.56945 6.11809 7.47019 6.20676C7.41195 6.20676 7.35372 6.20676 7.29372 6.20676C7.28401 6.24456 7.2743 6.28235 7.2643 6.32129C7.17607 6.44322 7.17607 6.44322 7.06968 6.47624C6.74002 6.52547 6.74002 6.52547 6.52901 6.3841C6.5096 6.42312 6.49019 6.46213 6.47019 6.50233C6.43136 6.50233 6.39254 6.50233 6.35254 6.50233C6.35254 6.40479 6.35254 6.30725 6.35254 6.20676C6.39136 6.20676 6.43019 6.20676 6.47019 6.20676C6.47019 6.07021 6.47019 5.93366 6.47019 5.79297Z" fill="#FCCC5F"/>
    <path d="M1.23542 4.90625C1.27425 4.90625 1.31307 4.90625 1.35307 4.90625C1.35528 4.97738 1.35528 4.97738 1.35754 5.04995C1.36435 5.26437 1.37157 5.47878 1.37881 5.6932C1.38112 5.76783 1.38343 5.84247 1.38581 5.91937C1.38828 5.99081 1.39074 6.06225 1.39328 6.13585C1.39544 6.20179 1.39759 6.26773 1.39982 6.33566C1.40538 6.50696 1.40538 6.50696 1.47072 6.67965C1.43189 6.69916 1.39307 6.71866 1.35307 6.73876C1.33366 6.64123 1.31425 6.54369 1.29425 6.4432C1.25542 6.4432 1.2166 6.4432 1.1766 6.4432C1.17488 6.24246 1.17384 6.04172 1.17292 5.84098C1.17243 5.78425 1.17194 5.72752 1.17143 5.66907C1.17124 5.61401 1.17105 5.55896 1.17086 5.50223C1.17055 5.45177 1.17024 5.40131 1.16992 5.34933C1.17685 5.19635 1.20183 5.05542 1.23542 4.90625Z" fill="#E5C474"/>
    <path d="M5.64746 3.31055C5.66687 3.31055 5.68628 3.31055 5.70628 3.31055C5.76039 3.54527 5.77634 3.76936 5.78372 4.00998C5.78618 4.08637 5.78865 4.16276 5.79119 4.24147C5.79353 4.32155 5.79587 4.40164 5.7982 4.48173C5.80074 4.56297 5.80331 4.64421 5.80589 4.72546C5.81213 4.92376 5.81813 5.12208 5.82393 5.3204C5.86276 5.22286 5.90158 5.12533 5.94158 5.02483C5.96099 5.02483 5.9804 5.02483 6.0004 5.02483C6.0004 5.16138 6.0004 5.29794 6.0004 5.43863C5.88393 5.43863 5.76746 5.43863 5.64746 5.43863C5.64746 4.73636 5.64746 4.03409 5.64746 3.31055Z" fill="#EDAF34"/>
    <path d="M3.82324 9.99023C4.04051 10.0494 4.24291 10.1117 4.45192 10.1971C4.76069 10.3177 5.08501 10.3576 5.41148 10.404C5.33383 10.4235 5.25618 10.443 5.17618 10.4631C5.17618 10.5217 5.17618 10.5802 5.17618 10.6405C4.86875 10.6045 4.61463 10.5059 4.33427 10.3819C4.29147 10.3639 4.24866 10.3459 4.20456 10.3274C4.0947 10.2792 3.98804 10.2238 3.88207 10.1676C3.86265 10.1091 3.84324 10.0505 3.82324 9.99023Z" fill="#764E1B"/>
    <path d="M9.17624 4.84717C9.21506 4.86668 9.25389 4.88618 9.29389 4.90628C9.39017 5.49651 9.37852 6.07051 9.27183 6.65751C9.26071 6.71953 9.26071 6.71953 9.24937 6.7828C9.19126 7.07838 9.19126 7.07838 9.05859 7.2117C9.06216 7.16948 9.06572 7.12725 9.06939 7.08375C9.16609 5.9671 9.16609 5.9671 9.17624 4.84717Z" fill="#EFB32A"/>
    <path d="M7.64746 4.96533C7.62805 5.02385 7.60864 5.08238 7.58864 5.14267C7.46731 5.18331 7.46731 5.18331 7.35334 5.20179C7.41158 5.28957 7.41158 5.28957 7.47099 5.37913C7.29452 5.49735 7.29452 5.49735 7.11805 5.49735C7.11805 5.45834 7.11805 5.41932 7.11805 5.37913C7.00158 5.41814 6.88511 5.45715 6.76511 5.49735C6.76511 5.45834 6.76511 5.41932 6.76511 5.37913C6.72628 5.37913 6.68746 5.37913 6.64746 5.37913C6.66687 5.3206 6.68628 5.26208 6.70628 5.20179C6.88804 5.13274 6.88804 5.13274 7.11437 5.07247C7.18891 5.05213 7.26345 5.03178 7.34025 5.01082C7.52981 4.96533 7.52981 4.96533 7.64746 4.96533Z" fill="#FCCB57"/>
    <path d="M4.5293 9.1626C4.58676 9.17521 4.58676 9.17521 4.64538 9.18807C5.06815 9.27396 5.4701 9.29707 5.90062 9.29191C5.96208 9.29187 6.02354 9.29183 6.08686 9.29179C6.37761 9.29012 6.65547 9.28346 6.94106 9.22171C6.85857 9.33924 6.85857 9.33924 6.70577 9.45816C6.51766 9.48693 6.33291 9.47768 6.14327 9.46925C6.04271 9.46615 5.94214 9.4633 5.84157 9.4607C5.79717 9.45889 5.75276 9.45708 5.70702 9.45521C5.57593 9.45264 5.57593 9.45264 5.41165 9.51728C5.25793 9.48368 5.11022 9.44646 4.95944 9.40275C4.89751 9.38543 4.89751 9.38543 4.83433 9.36776C4.73253 9.33923 4.63089 9.31008 4.5293 9.28082C4.5293 9.24181 4.5293 9.20279 4.5293 9.1626Z" fill="#FCC84B"/>
    <path d="M2.76436 2.24609C2.76436 2.4562 2.73331 2.47623 2.59524 2.62294C2.47715 2.7541 2.41151 2.83699 2.34524 3.00348C2.32826 3.04616 2.31127 3.08883 2.29377 3.13279C2.23986 3.15577 2.23986 3.15577 2.18486 3.17921C2.00836 3.2795 1.95876 3.4039 1.8673 3.58353C1.82135 3.67246 1.82135 3.67246 1.77447 3.76318C1.75172 3.80875 1.72898 3.85432 1.70554 3.90127C1.66671 3.90127 1.62789 3.90127 1.58789 3.90127C1.77658 3.2391 2.26847 2.70202 2.76436 2.24609Z" fill="#DCCA91"/>
    <path d="M7.52907 7.09359C7.52907 7.19112 7.52907 7.28866 7.52907 7.38915C7.40542 7.40386 7.28161 7.41714 7.15774 7.42979C7.08882 7.43734 7.01989 7.44488 6.94887 7.45265C6.76436 7.44827 6.76436 7.44827 6.65154 7.36075C6.63054 7.33111 6.60953 7.30147 6.58789 7.27093C7.1981 7.06733 7.1981 7.06733 7.52907 7.09359Z" fill="#FDCA53"/>
    <path d="M9.82376 8.98535C9.84317 9.02437 9.86258 9.06338 9.88258 9.10358C9.92141 9.12309 9.96023 9.14259 10.0002 9.16269C9.72679 9.50979 9.42217 9.79672 9.05905 10.0494C9.02023 10.0494 8.98141 10.0494 8.94141 10.0494C8.94141 10.0104 8.94141 9.97136 8.94141 9.93116C9.03847 9.89215 9.13552 9.85313 9.23552 9.81294C9.23552 9.77392 9.23552 9.73491 9.23552 9.69471C9.1967 9.6752 9.15788 9.6557 9.11788 9.6356C9.21494 9.6356 9.31199 9.6356 9.41199 9.6356C9.39258 9.51855 9.37317 9.40151 9.35317 9.28092C9.45023 9.26141 9.54729 9.2419 9.64729 9.2218C9.6667 9.26082 9.68611 9.29983 9.70611 9.34003C9.74494 9.22299 9.78376 9.10594 9.82376 8.98535Z" fill="#6D532B"/>
    <path d="M4.99994 5.73384C4.87631 5.78346 4.7525 5.83264 4.62862 5.88162C4.55969 5.90905 4.49077 5.93649 4.41975 5.96475C4.23524 6.02941 4.23524 6.02941 4.05877 6.02941C4.01994 6.10744 3.98112 6.18546 3.94112 6.26586C3.99935 6.32438 4.05759 6.3829 4.11759 6.4432C4.00112 6.46271 3.88465 6.48221 3.76465 6.50231C3.80877 6.11069 3.80877 6.11069 3.94112 5.91118C4.08795 5.85715 4.08795 5.85715 4.26097 5.81512C4.31792 5.80095 4.37486 5.78677 4.43354 5.77217C4.48457 5.75952 4.5356 5.74687 4.58818 5.73384C4.7725 5.6721 4.82287 5.67861 4.99994 5.73384Z" fill="#F8C850"/>
    <path d="M8.11719 1.8916C8.45578 1.91603 8.63849 2.00304 8.90395 2.21303C8.96507 2.2605 9.02619 2.30798 9.08915 2.35689C9.23483 2.48273 9.23483 2.48273 9.29366 2.60096C9.2628 2.58443 9.23193 2.56789 9.20014 2.55085C8.96397 2.43738 8.71586 2.35448 8.4699 2.26499C8.31044 2.19458 8.22046 2.14833 8.11719 2.00983C8.11719 1.97081 8.11719 1.9318 8.11719 1.8916Z" fill="#EBD088"/>
    <path d="M4.99994 6.20703C4.99994 6.26555 4.99994 6.32408 4.99994 6.38437C4.60903 6.5386 4.24199 6.59803 3.82347 6.62082C3.80406 6.58181 3.78465 6.54279 3.76465 6.5026C3.9263 6.45294 4.08807 6.40375 4.24994 6.35481C4.29567 6.34072 4.34139 6.32662 4.3885 6.3121C4.43286 6.29876 4.47722 6.28543 4.52292 6.27169C4.58391 6.25311 4.58391 6.25311 4.64614 6.23416C4.76465 6.20703 4.76465 6.20703 4.99994 6.20703Z" fill="#8A590E"/>
    <path d="M7.52987 7.03467C7.58811 7.03467 7.64634 7.03467 7.70634 7.03467C7.68693 7.19073 7.66752 7.34679 7.64752 7.50757C7.15172 7.71025 7.15172 7.71025 6.88281 7.68491C6.88281 7.62639 6.88281 7.56787 6.88281 7.50757C7.1081 7.40103 7.28171 7.37775 7.52987 7.38935C7.52987 7.2723 7.52987 7.15526 7.52987 7.03467Z" fill="#F6CC6D"/>
    <path d="M10.7054 4.49268C11.0986 5.08533 11.0677 5.87818 11.0584 6.56164C11.0389 6.56164 11.0195 6.56164 10.9995 6.56164C10.9801 6.23002 10.9607 5.89839 10.9407 5.55672C10.9019 5.55672 10.8631 5.55672 10.8231 5.55672C10.7404 5.19495 10.6917 4.86406 10.7054 4.49268Z" fill="#A68650"/>
    <path d="M2.47013 6.26611C2.48954 6.26611 2.50895 6.26611 2.52895 6.26611C2.53759 6.32685 2.54624 6.38758 2.55514 6.45015C2.63087 6.93427 2.72733 7.32066 2.9931 7.74164C3.01464 7.78141 3.03617 7.82119 3.05836 7.86217C3.03895 7.90119 3.01954 7.9402 2.99954 7.9804C2.75247 7.66314 2.60583 7.35333 2.47013 6.97547C2.44465 6.91085 2.41917 6.84624 2.39292 6.77966C2.34795 6.60301 2.35726 6.49804 2.4113 6.32523C2.43071 6.30572 2.45013 6.28621 2.47013 6.26611Z" fill="#996509"/>
    <path d="M5.00017 6.38406C4.98076 6.4816 4.96135 6.57914 4.94135 6.67963C4.89646 6.66622 4.85157 6.65281 4.80532 6.63899C4.53835 6.61625 4.34491 6.68324 4.09346 6.76853C3.91689 6.80257 3.85377 6.77685 3.70605 6.67963C3.72547 6.62111 3.74488 6.56259 3.76488 6.50229C3.80491 6.51326 3.84495 6.52424 3.8862 6.53554C4.1363 6.57297 4.36756 6.55415 4.59576 6.43948C4.73595 6.36904 4.8456 6.37543 5.00017 6.38406Z" fill="#EDAB2F"/>
    <path d="M3.99971 1.59626C3.72765 1.83271 3.72765 1.83271 3.52912 1.83271C3.52912 1.87172 3.52912 1.91074 3.52912 1.95094C3.32109 2.10165 3.10303 2.23411 2.88207 2.36473C2.86265 2.30621 2.84324 2.24768 2.82324 2.18739C2.94818 2.09986 3.07319 2.01243 3.19824 1.92507C3.23373 1.90019 3.26922 1.87531 3.30578 1.84968C3.56132 1.67135 3.68897 1.58804 3.99971 1.59626Z" fill="#E3CA92"/>
    <path d="M8.17693 9.87207C8.11912 10.0305 8.08655 10.0956 7.93199 10.169C7.74679 10.2331 7.56218 10.2839 7.37178 10.3302C7.27135 10.3553 7.27135 10.3553 7.16889 10.381C7.11331 10.3886 7.05773 10.3962 7.00046 10.4041C6.96164 10.3651 6.92281 10.3261 6.88281 10.2859C6.94378 10.2659 7.00474 10.2459 7.06756 10.2254C7.14813 10.1987 7.22871 10.1721 7.30928 10.1455C7.3494 10.1324 7.38951 10.1193 7.43084 10.1058C7.59234 10.0522 7.74837 9.99885 7.90028 9.92149C8.00046 9.87207 8.00046 9.87207 8.17693 9.87207Z" fill="#75500E"/>
    <path d="M9.70588 8.09863C9.74471 8.11814 9.78353 8.13765 9.82353 8.15775C9.75027 8.26139 9.67667 8.36479 9.60294 8.46809C9.56199 8.5257 9.52105 8.58331 9.47886 8.64266C9.36679 8.78981 9.25136 8.91734 9.11765 9.04445C9.07882 9.00543 9.04 8.96642 9 8.92622C9.05824 8.92622 9.11647 8.92622 9.17647 8.92622C9.16312 8.89086 9.14978 8.8555 9.13603 8.81908C9.12996 8.7764 9.1239 8.73373 9.11765 8.68977C9.19485 8.58632 9.19485 8.58632 9.29412 8.51243C9.33294 8.51243 9.37176 8.51243 9.41176 8.51243C9.41176 8.4539 9.41176 8.39538 9.41176 8.33509C9.45059 8.33509 9.48941 8.33509 9.52941 8.33509C9.52941 8.29607 9.52941 8.25706 9.52941 8.21686C9.58765 8.17784 9.64588 8.13883 9.70588 8.09863Z" fill="#F0C96B"/>
    <path d="M5.23529 3.36963C5.27412 3.38914 5.31294 3.40864 5.35294 3.42874C5.31412 3.50677 5.27529 3.5848 5.23529 3.6652C5.17706 3.6652 5.11882 3.6652 5.05882 3.6652C5.05882 4.32845 5.05882 4.9917 5.05882 5.67505C5.03941 5.67505 5.02 5.67505 5 5.67505C5 4.97278 5 4.27052 5 3.54697C5.05824 3.54697 5.11647 3.54697 5.17647 3.54697C5.19588 3.48845 5.21529 3.42992 5.23529 3.36963Z" fill="#FBC546"/>
    <path d="M6.41211 2.36475C6.78691 2.39147 7.05329 2.48654 7.3827 2.66401C7.42546 2.6863 7.46823 2.70858 7.51229 2.73155C7.61649 2.78597 7.72023 2.84128 7.82387 2.89677C7.76564 2.92603 7.76564 2.92603 7.70623 2.95588C7.59669 2.9146 7.48908 2.86809 7.3827 2.81918C7.06191 2.67902 6.75737 2.59352 6.41211 2.54209C6.41211 2.48356 6.41211 2.42504 6.41211 2.36475Z" fill="#956108"/>
    <path d="M9.94141 3.25146C10.301 3.56905 10.6397 4.00794 10.7061 4.49284C10.5646 4.36367 10.4829 4.24107 10.401 4.06797C10.3706 4.00453 10.3706 4.00453 10.3396 3.93981C10.3247 3.90773 10.3097 3.87565 10.2943 3.8426C10.2555 3.8426 10.2167 3.8426 10.1767 3.8426C10.0097 3.62538 9.94141 3.53114 9.94141 3.25146Z" fill="#B99E63"/>
    <path d="M7.76505 6.91602C7.94152 7.03424 7.94152 7.03424 7.98932 7.26331C8.00753 7.45691 7.99804 7.57997 7.8827 7.7436C7.82446 7.7436 7.76623 7.7436 7.70623 7.7436C7.70623 7.78262 7.70623 7.82163 7.70623 7.86183C7.60917 7.86183 7.51211 7.86183 7.41211 7.86183C7.41211 7.82281 7.41211 7.7838 7.41211 7.7436C7.52858 7.72409 7.64505 7.70459 7.76505 7.68449C7.78446 7.48941 7.80387 7.29434 7.82387 7.09336C7.78505 7.13237 7.74623 7.17139 7.70623 7.21158C7.68682 7.13355 7.6674 7.05552 7.6474 6.97513C7.68623 6.95562 7.72505 6.93611 7.76505 6.91602Z" fill="#E3AA35"/>
    <path d="M3.58869 3.54688C3.62752 3.56638 3.66634 3.58589 3.70634 3.60599C3.66949 3.64455 3.63264 3.6831 3.59467 3.72283C3.54659 3.77449 3.49852 3.82616 3.44899 3.87939C3.37733 3.95551 3.37733 3.95551 3.30423 4.03317C3.17179 4.20374 3.11441 4.34419 3.05928 4.5518C3.00105 4.53229 2.94281 4.51279 2.88281 4.49269C2.9077 4.41482 2.93363 4.3373 2.96002 4.25993C2.97435 4.21672 2.98868 4.17352 3.00345 4.129C3.05928 4.01978 3.05928 4.01978 3.23575 3.96067C3.33319 3.86429 3.33319 3.86429 3.42325 3.75008C3.45442 3.71221 3.48558 3.67433 3.51769 3.63531C3.54112 3.60613 3.56455 3.57694 3.58869 3.54688Z" fill="#ECAE28"/>
    <path d="M1.23503 6.44336C1.40089 6.61004 1.42711 6.80473 1.48136 7.0271C1.49254 7.0697 1.50372 7.1123 1.51525 7.15618C1.56969 7.37541 1.59542 7.52833 1.52915 7.74385C1.47933 7.60493 1.43047 7.46579 1.38209 7.32636C1.36806 7.28754 1.35404 7.24872 1.33958 7.20871C1.24935 6.94576 1.22045 6.72506 1.23503 6.44336Z" fill="#D9C17D"/>
    <path d="M8.35283 8.15771C8.39165 8.17722 8.43047 8.19673 8.47047 8.21683C8.20247 8.57829 7.93978 8.74928 7.5293 8.92619C7.60867 8.68688 7.74386 8.6039 7.94106 8.45328C7.9993 8.43377 8.05753 8.41427 8.11753 8.39417C8.19824 8.3177 8.27705 8.23911 8.35283 8.15771Z" fill="#EDB32B"/>
    <path d="M7.64723 6.02962C7.57003 6.11829 7.57003 6.11829 7.47076 6.20696C7.41253 6.20696 7.35429 6.20696 7.29429 6.20696C7.27488 6.24598 7.25547 6.28499 7.23547 6.32519C7.08473 6.36213 7.08473 6.36213 6.94135 6.3843C6.94135 6.34529 6.94135 6.30627 6.94135 6.26607C6.88311 6.28558 6.82488 6.30509 6.76488 6.32519C6.74547 6.28617 6.72605 6.24716 6.70605 6.20696C7.31627 6.00336 7.31627 6.00336 7.64723 6.02962Z" fill="#FBC74F"/>
    <path d="M4.47053 5.73406C4.47053 5.77307 4.47053 5.81209 4.47053 5.85229C4.20847 5.88155 4.20847 5.88155 3.94112 5.9114C3.9023 6.00894 3.86347 6.10647 3.82347 6.20696C3.80406 6.20696 3.78465 6.20696 3.76465 6.20696C3.76465 6.08992 3.76465 5.97288 3.76465 5.85229C3.99408 5.69858 4.20432 5.72514 4.47053 5.73406Z" fill="#EEB328"/>
    <path d="M8.94141 2.42383C8.97659 2.44212 9.01177 2.4604 9.04802 2.47925C9.18197 2.54809 9.18197 2.54809 9.35317 2.60117C9.45841 2.70623 9.45841 2.70623 9.56641 2.83393C9.60235 2.87591 9.63829 2.9179 9.67532 2.96116C9.76494 3.07407 9.76494 3.07407 9.82376 3.1923C9.57431 3.16344 9.4739 3.10258 9.31641 2.90782C9.28289 2.8672 9.24938 2.82659 9.21484 2.78474C9.12203 2.66562 9.03108 2.54535 8.94141 2.42383Z" fill="#B08B38"/>
    <path d="M1.52947 4.31543C1.54888 4.31543 1.56829 4.31543 1.58829 4.31543C1.59465 4.42003 1.59921 4.52474 1.603 4.62947C1.60573 4.68776 1.60846 4.74606 1.61127 4.80612C1.58829 4.96568 1.58829 4.96568 1.46973 5.07536C1.43121 5.09769 1.39269 5.12001 1.353 5.14302C1.353 5.06499 1.353 4.98696 1.353 4.90656C1.31418 4.88706 1.27535 4.86755 1.23535 4.84745C1.29359 4.80843 1.35182 4.76942 1.41182 4.72922C1.48352 4.51897 1.48352 4.51897 1.52947 4.31543Z" fill="#F5CC71"/>
    <path d="M7.35288 5.91141C7.29406 6.08875 7.29406 6.08875 7.17641 6.14786C7.03918 6.15024 6.90188 6.15042 6.76465 6.14786C6.76465 6.08934 6.76465 6.03082 6.76465 5.97052C7.15435 5.84491 7.15435 5.84491 7.35288 5.91141Z" fill="#EFB022"/>
    <path d="M9.64735 8.51221C9.70558 8.53171 9.76382 8.55122 9.82382 8.57132C9.8044 8.62984 9.78499 8.68836 9.76499 8.74866C9.70676 8.72915 9.64852 8.70965 9.58852 8.68955C9.57518 8.7249 9.56183 8.76026 9.54808 8.79669C9.45099 8.95931 9.34163 9.01614 9.17676 9.10334C9.26096 8.80718 9.40202 8.68327 9.64735 8.51221Z" fill="#6C490E"/>
    <path d="M9.94089 3.48779C10.0585 3.58016 10.0585 3.58016 10.1762 3.72425C10.1909 3.94592 10.1909 3.94592 10.1762 4.13804C9.97819 3.97697 9.91487 3.77931 9.82324 3.54691C9.86207 3.5274 9.90089 3.50789 9.94089 3.48779Z" fill="#BB9029"/>
    <path d="M8.76453 9.33984C8.80336 9.35935 8.84218 9.37886 8.88218 9.39896C8.82644 9.59247 8.79717 9.67518 8.62115 9.7795C8.57141 9.79047 8.52167 9.80144 8.47042 9.81275C8.41218 9.77374 8.35395 9.73472 8.29395 9.69452C8.44924 9.57748 8.60453 9.46043 8.76453 9.33984Z" fill="#6E4B0D"/>
    <path d="M2.4707 9.04443C2.68145 9.14218 2.87128 9.26196 3.05894 9.39911C3.05894 9.43813 3.05894 9.47714 3.05894 9.51734C3.10504 9.53441 3.15114 9.55148 3.19864 9.56906C3.35306 9.63557 3.35306 9.63557 3.4707 9.75379C3.41247 9.78305 3.41247 9.78305 3.35306 9.81291C2.72387 9.32535 2.72387 9.32535 2.4707 9.10355C2.4707 9.08404 2.4707 9.06453 2.4707 9.04443Z" fill="#E2C482"/>
    <path d="M2.05848 3.01465C2.1173 3.19199 2.1173 3.19199 2.03711 3.36448C1.98035 3.46015 1.98035 3.46015 1.92245 3.55775C1.86638 3.65411 1.86638 3.65411 1.80917 3.75241C1.75787 3.82613 1.75787 3.82613 1.70554 3.90135C1.66671 3.90135 1.62789 3.90135 1.58789 3.90135C1.67542 3.55829 1.85795 3.29982 2.05848 3.01465Z" fill="#D5C289"/>
    <path d="M3.05859 9.45801C3.32065 9.51653 3.32065 9.51653 3.58801 9.57623C3.62683 9.71279 3.66565 9.84934 3.70565 9.99003C3.56227 9.942 3.56227 9.942 3.41153 9.8718C3.39212 9.81328 3.37271 9.75476 3.35271 9.69446C3.25722 9.61254 3.15934 9.53329 3.05859 9.45801Z" fill="#F0CC74"/>
    <path d="M5.94106 5.91113C5.96047 5.96965 5.97989 6.02818 5.99989 6.08847C5.88341 6.12749 5.76694 6.1665 5.64694 6.2067C5.62753 6.36276 5.60812 6.51882 5.58812 6.67961C5.56871 6.67961 5.5493 6.67961 5.5293 6.67961C5.5293 6.46502 5.5293 6.25044 5.5293 6.02936C5.66518 5.99034 5.80106 5.95133 5.94106 5.91113Z" fill="#734505"/>
    <path d="M3.82324 9.99023C4.06495 10.0569 4.29828 10.1283 4.52912 10.2267C4.50971 10.2852 4.4903 10.3437 4.4703 10.404C4.23305 10.3319 4.02661 10.2527 3.82324 10.1085C3.82324 10.0694 3.82324 10.0304 3.82324 9.99023Z" fill="#9D7440"/>
    <path d="M5.17676 10.4629C5.56499 10.4629 5.95323 10.4629 6.35323 10.4629C6.35323 10.4824 6.35323 10.5019 6.35323 10.522C6.28802 10.5256 6.22281 10.5292 6.15562 10.5329C6.06953 10.5378 5.98344 10.5429 5.89735 10.5479C5.83297 10.5514 5.83297 10.5514 5.76729 10.5549C5.56339 10.567 5.37362 10.5862 5.17676 10.6402C5.17676 10.5817 5.17676 10.5232 5.17676 10.4629Z" fill="#613B03"/>
    <path d="M8.82313 7.62549C8.85989 7.73263 8.85989 7.73263 8.88195 7.86194C8.82372 7.94972 8.82372 7.94972 8.7643 8.03928C8.72548 8.03928 8.68666 8.03928 8.64666 8.03928C8.63088 8.07586 8.61511 8.11243 8.59886 8.15012C8.52901 8.27573 8.52901 8.27573 8.35254 8.39396C8.41869 8.21828 8.4833 8.07863 8.58783 7.92105C8.62666 7.92105 8.66548 7.92105 8.70548 7.92105C8.7443 7.82352 8.78313 7.72598 8.82313 7.62549Z" fill="#FCC74B"/>
    <path d="M1.52924 3.96045C1.56806 3.97996 1.60689 3.99946 1.64689 4.01956C1.62201 4.13552 1.59607 4.25124 1.56968 4.36685C1.55535 4.43132 1.54102 4.49578 1.52625 4.5622C1.47042 4.72892 1.47042 4.72892 1.29395 4.84715C1.32737 4.5247 1.40844 4.2613 1.52924 3.96045Z" fill="#D7C07C"/>
    <path d="M8.82393 9.75391C8.90158 9.81243 8.97923 9.87095 9.05923 9.93125C9.0204 9.93125 8.98158 9.93125 8.94158 9.93125C8.93551 9.96904 8.92945 10.0068 8.9232 10.0458C8.90985 10.086 8.89651 10.1262 8.88276 10.1677C8.82452 10.1872 8.76628 10.2067 8.70628 10.2268C8.66584 10.0901 8.66584 10.0901 8.64746 9.93125C8.73202 9.8241 8.73202 9.8241 8.82393 9.75391Z" fill="#694A29"/>
    <path d="M4.70582 7.62581C4.47595 7.80903 4.31114 7.87022 4.01832 7.86596C3.94701 7.86516 3.94701 7.86516 3.87425 7.86434C3.82 7.86331 3.82 7.86331 3.76465 7.86226C4.06615 7.70447 4.36247 7.6049 4.70582 7.62581Z" fill="#DFA536"/>
    <path d="M10.9413 6.62061C10.9608 6.62061 10.9802 6.62061 11.0002 6.62061C11.0253 6.99981 10.933 7.32322 10.8237 7.68464C10.8043 7.68464 10.7849 7.68464 10.7649 7.68464C10.7455 7.54809 10.7261 7.41154 10.7061 7.27085C10.7643 7.25134 10.8225 7.23184 10.8825 7.21174C10.9019 7.01666 10.9213 6.82159 10.9413 6.62061Z" fill="#7C6343"/>
    <path d="M6.70628 5.43848C6.80334 5.43848 6.9004 5.43848 7.0004 5.43848C7.0004 5.47749 7.0004 5.51651 7.0004 5.5567C7.07805 5.57621 7.1557 5.59572 7.2357 5.61582C7.04158 5.65483 6.84746 5.69385 6.64746 5.73404C6.66687 5.63651 6.68628 5.53897 6.70628 5.43848Z" fill="#F0C566"/>
    <path d="M9.35317 9.45801C9.39199 9.45801 9.43082 9.45801 9.47082 9.45801C9.49023 9.51653 9.50964 9.57505 9.52964 9.63535C9.45398 9.70466 9.37792 9.77355 9.3017 9.84224C9.25939 9.88065 9.21708 9.91905 9.17348 9.95862C9.05905 10.0491 9.05905 10.0491 8.94141 10.0491C8.94141 10.0101 8.94141 9.97111 8.94141 9.93091C9.03847 9.8919 9.13552 9.85288 9.23552 9.81269C9.23552 9.77367 9.23552 9.73466 9.23552 9.69446C9.1967 9.67495 9.15788 9.65545 9.11788 9.63535C9.21494 9.63535 9.31199 9.63535 9.41199 9.63535C9.39258 9.57683 9.37317 9.5183 9.35317 9.45801Z" fill="#705A3A"/>
    <path d="M6.58778 10.5811C6.60719 10.6591 6.6266 10.7371 6.6466 10.8175C6.47189 10.8175 6.29719 10.8175 6.11719 10.8175C6.11719 10.759 6.11719 10.7005 6.11719 10.6402C6.28733 10.5913 6.40468 10.5811 6.58778 10.5811Z" fill="#593B19"/>
    <path d="M4.41171 6.38427C4.41171 6.42329 4.41171 6.4623 4.41171 6.5025C4.16926 6.59882 4.01718 6.63625 3.76465 6.56161C3.99312 6.40854 4.14273 6.37696 4.41171 6.38427Z" fill="#794703"/>
    <path d="M7.64666 4.96533C7.66607 4.96533 7.68548 4.96533 7.70548 4.96533C7.70548 5.08238 7.70548 5.19942 7.70548 5.32001C7.58901 5.32001 7.47254 5.32001 7.35254 5.32001C7.35254 5.26149 7.35254 5.20297 7.35254 5.14267C7.39015 5.13536 7.42776 5.12804 7.46651 5.1205C7.52656 5.10222 7.52656 5.10222 7.58783 5.08356C7.60724 5.04454 7.62666 5.00553 7.64666 4.96533Z" fill="#F9C969"/>
    <path d="M4.64706 7.50726C4.62765 7.54628 4.60824 7.58529 4.58824 7.62549C4.38393 7.69393 4.21408 7.68866 4 7.6846C4 7.64559 4 7.60657 4 7.56638C4.21612 7.49688 4.42172 7.50291 4.64706 7.50726Z" fill="#764A06"/>
    <path d="M7.05917 6.91629C7.00093 7.00407 7.00093 7.00407 6.94152 7.09363C6.82709 7.11094 6.82709 7.11094 6.69887 7.10471C6.62365 7.10105 6.54843 7.09739 6.47093 7.09363C6.45152 7.05461 6.43211 7.0156 6.41211 6.9754C6.84908 6.83184 6.84908 6.83184 7.05917 6.91629Z" fill="#DEA52C"/>
    <path d="M3.23535 8.09863C3.38094 8.12789 3.38094 8.12789 3.52947 8.15775C3.54888 8.25528 3.56829 8.35282 3.58829 8.45331C3.53006 8.45331 3.47182 8.45331 3.41182 8.45331C3.23535 8.19715 3.23535 8.19715 3.23535 8.09863Z" fill="#ECB12B"/>
    <path d="M7.5293 1.59619C7.61647 1.62274 7.70345 1.64996 7.79033 1.67747C7.83878 1.69256 7.88723 1.70765 7.93716 1.72319C8.05871 1.77353 8.05871 1.77353 8.11753 1.89176C7.91947 1.90533 7.79908 1.91182 7.62489 1.81048C7.59334 1.77878 7.5618 1.74708 7.5293 1.71442C7.5293 1.6754 7.5293 1.63639 7.5293 1.59619Z" fill="#F1CA75"/>
    <path d="M7.17613 10.1673C7.15671 10.2063 7.1373 10.2453 7.1173 10.2855C6.99575 10.31 6.99575 10.31 6.84892 10.3224C6.80031 10.3269 6.75171 10.3313 6.70163 10.3358C6.64533 10.3402 6.64533 10.3402 6.58789 10.3446C6.58789 10.3056 6.58789 10.2666 6.58789 10.2264C6.77698 10.1314 6.96649 10.1639 7.17613 10.1673Z" fill="#F9CF74"/>
    <path d="M6.47019 5.79297C6.4896 5.79297 6.50901 5.79297 6.52901 5.79297C6.52901 5.94903 6.52901 6.10509 6.52901 6.26588C6.56783 6.28538 6.60666 6.30489 6.64666 6.32499C6.56577 6.41366 6.56577 6.41366 6.47019 6.50233C6.43136 6.50233 6.39254 6.50233 6.35254 6.50233C6.35254 6.40479 6.35254 6.30725 6.35254 6.20676C6.39136 6.20676 6.43019 6.20676 6.47019 6.20676C6.47019 6.07021 6.47019 5.93366 6.47019 5.79297Z" fill="#E4B55A"/>
    <path d="M7.70617 7.74365C7.7644 7.74365 7.82264 7.74365 7.88264 7.74365C7.84382 7.82168 7.80499 7.89971 7.76499 7.98011C7.67793 7.97339 7.59093 7.96585 7.50396 7.95794C7.45551 7.95382 7.40706 7.94971 7.35713 7.94547C7.31702 7.93739 7.27691 7.92931 7.23558 7.92099C7.21617 7.88198 7.19676 7.84296 7.17676 7.80277C7.35146 7.82227 7.52617 7.84178 7.70617 7.86188C7.70617 7.82286 7.70617 7.78385 7.70617 7.74365Z" fill="#E9AD24"/>
    <path d="M7.05859 1.41886C7.1326 1.41764 7.20661 1.41642 7.28286 1.41516C7.32449 1.41448 7.36612 1.41379 7.40901 1.41309C7.52918 1.41886 7.52918 1.41886 7.70565 1.47797C7.70565 1.53649 7.70565 1.59502 7.70565 1.65531C7.49212 1.59679 7.27859 1.53827 7.05859 1.47797C7.05859 1.45846 7.05859 1.43896 7.05859 1.41886Z" fill="#EBCF90"/>
    <path d="M4.99989 6.38441C4.98047 6.48195 4.96106 6.57948 4.94106 6.67998C4.80518 6.62145 4.6693 6.56293 4.5293 6.50264C4.71917 6.37543 4.7813 6.37254 4.99989 6.38441Z" fill="#DFA830"/>
    <path d="M10.5293 6.26611C10.6846 6.30513 10.8399 6.34414 10.9999 6.38434C11.0193 6.46237 11.0387 6.5404 11.0587 6.62079C11.0199 6.62079 10.9811 6.62079 10.9411 6.62079C10.9411 6.56227 10.9411 6.50375 10.9411 6.44345C10.8052 6.46296 10.6693 6.48247 10.5293 6.50257C10.5293 6.42454 10.5293 6.34651 10.5293 6.26611Z" fill="#865317"/>
    <path d="M5.94129 5.43833C5.92188 5.53587 5.90247 5.6334 5.88247 5.73389C5.82423 5.71439 5.766 5.69488 5.706 5.67478C5.6277 5.65455 5.54929 5.63473 5.4707 5.61567C5.4707 5.57665 5.4707 5.53764 5.4707 5.49744C5.64295 5.43974 5.76224 5.43347 5.94129 5.43833Z" fill="#F6C556"/>
    <path d="M8.64746 2.2461C8.80414 2.22295 8.90583 2.22212 9.03969 2.31191C9.12694 2.38584 9.21096 2.46356 9.29452 2.54167C9.10651 2.54167 9.03469 2.50935 8.87173 2.42344C8.82964 2.40149 8.78756 2.37955 8.7442 2.35694C8.71227 2.33987 8.68035 2.3228 8.64746 2.30521C8.64746 2.28571 8.64746 2.2662 8.64746 2.2461Z" fill="#D0B779"/>
    <path d="M6.00034 10.6403C6.00034 10.6793 6.00034 10.7183 6.00034 10.7585C5.83858 10.7991 5.83858 10.7991 5.6474 10.8176C5.5077 10.7326 5.5077 10.7326 5.41211 10.6403C5.62949 10.5841 5.78297 10.5841 6.00034 10.6403Z" fill="#623917"/>
    <path d="M8.17641 9.87207C8.13597 9.9866 8.13597 9.9866 8.05877 10.1085C7.90435 10.1529 7.90435 10.1529 7.76465 10.1676C7.76465 10.1091 7.76465 10.0506 7.76465 9.9903C7.92038 9.90395 7.99374 9.87207 8.17641 9.87207Z" fill="#6E460D"/>
    <path d="M6.11765 7.38916C6.19529 7.40867 6.27294 7.42817 6.35294 7.44827C6.27206 7.5665 6.27206 7.5665 6.17647 7.68473C6.13765 7.68473 6.09882 7.68473 6.05882 7.68473C6.03941 7.74325 6.02 7.80177 6 7.86207C6.03075 7.69875 6.06522 7.54722 6.11765 7.38916Z" fill="#FBC344"/>
    <path d="M4.70617 7.32993C4.70617 7.36894 4.70617 7.40796 4.70617 7.44816C4.53146 7.48717 4.35676 7.52619 4.17676 7.56638C4.19617 7.50786 4.21558 7.44934 4.23558 7.38904C4.40783 7.33134 4.52712 7.32507 4.70617 7.32993Z" fill="#F0C76D"/>
    <path d="M10.4121 4.07861C10.5941 4.17006 10.6307 4.30802 10.7062 4.49241C10.6878 4.6328 10.6878 4.6328 10.6474 4.72886C10.4121 4.34462 10.4121 4.34462 10.4121 4.07861Z" fill="#AA8330"/>
    <path d="M2.76436 4.01953C2.80318 4.09756 2.84201 4.17559 2.88201 4.25598C2.80113 4.37421 2.80113 4.37421 2.70554 4.49244C2.66671 4.49244 2.62789 4.49244 2.58789 4.49244C2.69818 4.15254 2.69818 4.15254 2.76436 4.01953Z" fill="#8B5912"/>
    <path d="M7.82324 2.95557C7.96993 3.02673 8.09862 3.10065 8.23501 3.19202C8.23501 3.23103 8.23501 3.27005 8.23501 3.31025C8.10743 3.28033 7.99973 3.25114 7.88207 3.19202C7.8453 3.0701 7.8453 3.0701 7.82324 2.95557Z" fill="#D69D1E"/>
    <path d="M2.4707 8.92627C2.58467 8.94844 2.58467 8.94844 2.706 8.98538C2.72541 9.0244 2.74482 9.06341 2.76482 9.10361C2.88345 9.17061 2.88345 9.17061 3.00011 9.22184C3.00011 9.26085 3.00011 9.29987 3.00011 9.34006C2.7978 9.26665 2.63235 9.18889 2.4707 9.0445C2.4707 9.00548 2.4707 8.96647 2.4707 8.92627Z" fill="#F2C86D"/>
    <path d="M7.52964 8.92612C7.34121 9.09363 7.18959 9.13423 6.94141 9.16257C6.98023 9.14307 7.01905 9.12356 7.05905 9.10346C7.05905 9.06445 7.05905 9.02543 7.05905 8.98523C7.2313 8.92754 7.35059 8.92126 7.52964 8.92612Z" fill="#F0B52E"/>
    <path d="M8.35294 8.15771C8.39176 8.17722 8.43059 8.19673 8.47059 8.21683C8.35412 8.35338 8.23765 8.48993 8.11765 8.63062C8.07882 8.61111 8.04 8.59161 8 8.57151C8.22059 8.22422 8.22059 8.22422 8.35294 8.15771Z" fill="#F3BC36"/>
    <path d="M6.0004 6.08887C6.0004 6.28394 6.0004 6.47901 6.0004 6.68C5.98099 6.68 5.96158 6.68 5.94158 6.68C5.9343 6.58124 5.9343 6.58124 5.92687 6.48049C5.90754 6.26281 5.90754 6.26281 5.76143 6.18123C5.72382 6.17026 5.68621 6.15929 5.64746 6.14798C5.82393 6.08887 5.82393 6.08887 6.0004 6.08887Z" fill="#DCA72C"/>
    <path d="M2.17601 2.8374C2.23425 2.8374 2.29248 2.8374 2.35248 2.8374C2.33307 2.93494 2.31366 3.03248 2.29366 3.13297C2.23542 3.15248 2.17719 3.17198 2.11719 3.19208C2.1366 3.07504 2.15601 2.95799 2.17601 2.8374Z" fill="#E3C77A"/>
    <path d="M6.82336 7.68463C6.66087 7.84791 6.51706 7.83706 6.29395 7.86197C6.29395 7.82295 6.29395 7.78394 6.29395 7.74374C6.46787 7.65635 6.63173 7.68106 6.82336 7.68463Z" fill="#F8CF75"/>
    <path d="M7.05877 5.91113C7.05877 5.98916 7.05877 6.06719 7.05877 6.14759C6.96171 6.14759 6.86465 6.14759 6.76465 6.14759C6.76465 6.08906 6.76465 6.03054 6.76465 5.97025C6.94112 5.91113 6.94112 5.91113 7.05877 5.91113Z" fill="#EAB32B"/>
    <path d="M2.58858 4.07861C2.64682 4.09812 2.70505 4.11763 2.76505 4.13773C2.60329 4.36679 2.60329 4.36679 2.47093 4.43329C2.45152 4.37477 2.43211 4.31625 2.41211 4.25595C2.47034 4.19743 2.52858 4.13891 2.58858 4.07861Z" fill="#F2C668"/>
    <path d="M7.82387 2.54193C7.76564 2.57119 7.76564 2.57119 7.70623 2.60104C7.68682 2.65956 7.6674 2.71809 7.6474 2.77838C7.56976 2.75887 7.49211 2.73937 7.41211 2.71927C7.41211 2.68025 7.41211 2.64124 7.41211 2.60104C7.55698 2.52825 7.66385 2.5377 7.82387 2.54193Z" fill="#F6C65D"/>
    <path d="M5.35277 2.54199C5.54689 2.54199 5.741 2.54199 5.941 2.54199C5.941 2.5615 5.941 2.58101 5.941 2.60111C5.72747 2.64012 5.51395 2.67914 5.29395 2.71933C5.31336 2.66081 5.33277 2.60229 5.35277 2.54199Z" fill="#F3AF34"/>
</svg>
