<svg width="17" height="18" viewBox="0 0 17 18" fill="none" xmlns="http://www.w3.org/2000/svg">
    <path
        d="M12.0124 11.6127C12.434 12.0514 12.8562 12.4913 13.2791 12.9306C14.1217 13.8061 14.9649 14.6809 15.8068 15.5576C16.0888 15.8509 16.1621 16.2105 16.0148 16.5411C15.8757 16.854 15.5496 17.0594 15.2083 17.0455C14.9586 17.0354 14.7576 16.9242 14.5869 16.7453C14.1034 16.2396 13.6166 15.7371 13.1318 15.2333C12.3588 14.4299 11.5857 13.6259 10.8127 12.8225C10.795 12.8036 10.7748 12.7871 10.7501 12.7638C9.01819 13.9161 7.14467 14.2397 5.14726 13.6582C3.65173 13.2227 2.46214 12.3295 1.59554 11.0344C-0.256482 8.26769 0.278267 4.67552 2.68716 2.53906C5.12767 0.374777 8.67559 0.357078 11.1572 2.37598C13.6622 4.4132 14.5635 8.52622 12.0124 11.6133V11.6127ZM7.00877 12.2309C9.65849 12.2398 11.8278 10.071 11.8285 7.41184C11.8285 4.75896 9.67366 2.59658 7.02331 2.59089C4.36663 2.5852 2.19982 4.74442 2.19413 7.40552C2.18845 10.0622 4.34324 12.2227 7.00877 12.2315V12.2309Z"
        fill="#909090" />
</svg>
