<svg width="14" height="14" viewBox="0 0 14 14" fill="none" xmlns="http://www.w3.org/2000/svg">
    <path
        d="M7.23918 4.34547C5.8484 4.34547 4.45762 4.34547 3.06736 4.34547C2.69828 4.34547 2.55884 4.20585 2.55832 3.83785C2.55832 2.86621 2.55832 1.89458 2.55936 0.922938C2.55936 0.854425 2.5635 0.783836 2.58165 0.718438C2.62985 0.538851 2.81336 0.419991 2.99738 0.441272C3.17777 0.462033 3.3255 0.609959 3.33483 0.794217C3.34313 0.957714 3.3395 1.12225 3.3395 1.28626C3.3395 2.00305 3.34157 2.71984 3.33794 3.43663C3.33794 3.53266 3.36438 3.56224 3.46183 3.56172C5.98421 3.55913 8.50607 3.55913 11.0285 3.56224C11.1409 3.56224 11.1529 3.51605 11.1523 3.42418C11.1497 2.57348 11.1503 1.72277 11.1513 0.872072C11.1513 0.625011 11.2923 0.457362 11.5053 0.440234C11.7402 0.421548 11.9278 0.601654 11.9309 0.85702C11.9351 1.18972 11.932 1.52191 11.932 1.85461C11.932 2.52832 11.932 3.20203 11.932 3.87574C11.932 4.19028 11.7785 4.34443 11.4628 4.34443C10.055 4.34495 8.64707 4.34443 7.23918 4.34443V4.34547Z"
        fill="#590D8C" />
    <path
        d="M11.1509 10.5963H3.3396V10.7551C3.3396 11.5798 3.34011 12.4046 3.33856 13.2293C3.33856 13.3056 3.33545 13.3866 3.31109 13.4577C3.2551 13.6207 3.09648 13.7172 2.92698 13.7068C2.76213 13.697 2.61699 13.5771 2.57708 13.411C2.56308 13.3529 2.55893 13.2916 2.55893 13.2319C2.5579 12.2515 2.5579 11.2715 2.55842 10.2911C2.55842 9.94901 2.7046 9.80212 3.04672 9.80212C5.84539 9.80212 8.64405 9.80212 11.4422 9.80212C11.7848 9.80212 11.9321 9.94849 11.9321 10.2895C11.9321 11.27 11.9326 12.2499 11.931 13.2304C11.931 13.3067 11.9238 13.3876 11.8994 13.4593C11.8434 13.6233 11.6573 13.7286 11.4873 13.7058C11.3064 13.6814 11.1675 13.533 11.154 13.3477C11.1504 13.3004 11.1509 13.2527 11.1509 13.2054C11.1509 12.3895 11.1509 11.5731 11.1509 10.7572C11.1509 10.7063 11.1509 10.6559 11.1509 10.5968V10.5963Z"
        fill="#590D8C" />
    <path
        d="M0.610359 7.07611C0.610359 6.56226 0.611915 6.04842 0.609841 5.53509C0.608804 5.29322 0.705221 5.10584 0.916196 4.99062C1.13287 4.87228 1.35007 4.89512 1.54964 5.03681C2.28054 5.55689 3.01196 6.07592 3.73871 6.60223C4.06632 6.83943 4.06891 7.3076 3.74234 7.54376C3.01248 8.07266 2.27743 8.59377 1.54238 9.11644C1.34592 9.25606 1.13184 9.27371 0.919825 9.16056C0.708331 9.04637 0.609841 8.85848 0.610359 8.61765C0.610878 8.1038 0.610359 7.58996 0.610359 7.07611ZM3.06068 7.07351C2.49825 6.6723 1.95345 6.28302 1.39828 5.88648V8.26107C1.95708 7.86193 2.49981 7.47421 3.06068 7.07351Z"
        fill="#590D8C" />
    <path
        d="M13.88 7.07302C13.88 7.58687 13.879 8.10072 13.8805 8.61456C13.8816 8.85644 13.7831 9.04329 13.5721 9.158C13.3549 9.27582 13.1382 9.25194 12.9386 9.10972C12.2077 8.58965 11.4768 8.06958 10.7496 7.54483C10.424 7.30971 10.4235 6.8379 10.7485 6.60278C11.4758 6.07751 12.2072 5.55847 12.9376 5.03736C13.1382 4.89411 13.3539 4.87231 13.571 4.98805C13.7836 5.10172 13.8805 5.29065 13.88 5.53097C13.8795 6.04481 13.88 6.55866 13.88 7.07251V7.07302ZM13.0952 5.88547C12.5338 6.28616 11.989 6.67544 11.4302 7.07406C11.9895 7.4732 12.5348 7.86196 13.0952 8.26214V5.88547Z"
        fill="#590D8C" />
</svg>
