<svg width="9" height="10" viewBox="0 0 9 10" fill="none" xmlns="http://www.w3.org/2000/svg">
    <path
        d="M7.95238 1.77621C7.68993 1.77831 7.43883 1.88349 7.25324 2.06908C7.06766 2.25466 6.96248 2.50577 6.96038 2.76821V7.06821H2.66039C2.39729 7.06821 2.14497 7.17273 1.95893 7.35876C1.7729 7.5448 1.66838 7.79712 1.66838 8.06021C1.66838 8.32331 1.7729 8.57563 1.95893 8.76166C2.14497 8.9477 2.39729 9.05221 2.66039 9.05221H7.95038C8.21283 9.05012 8.46394 8.94494 8.64952 8.75935C8.83511 8.57377 8.94029 8.32266 8.94238 8.06021V2.77021C8.94082 2.50776 8.83614 2.25644 8.65093 2.07049C8.46572 1.88453 8.21483 1.77883 7.95238 1.77621Z"
        fill="white" />
    <path
        d="M1.33942 0.452213C1.20927 0.451859 1.08035 0.477405 0.960169 0.527365C0.839992 0.577324 0.730955 0.650698 0.639414 0.743213C0.456187 0.930141 0.353556 1.18146 0.353556 1.44321C0.353556 1.70497 0.456187 1.95628 0.639414 2.14321L7.25141 8.76221C7.43978 8.93399 7.68711 9.02656 7.94197 9.02069C8.19684 9.01482 8.43964 8.91096 8.6199 8.7307C8.80016 8.55043 8.90402 8.30764 8.90989 8.05277C8.91576 7.79791 8.82319 7.55058 8.65141 7.36221L2.04041 0.752213C1.94951 0.657951 1.84065 0.582842 1.72025 0.531318C1.59986 0.479795 1.47037 0.452898 1.33942 0.452213Z"
        fill="white" />
</svg>
