<svg width="19" height="19" viewBox="0 0 19 19" fill="none" xmlns="http://www.w3.org/2000/svg">
    <path fill-rule="evenodd" clip-rule="evenodd" d="M9.17676 8.35547C8.34833 8.35547 7.67676 9.02704 7.67676 9.85547C7.67676 10.6839 8.34833 11.3555 9.17676 11.3555C10.0052 11.3555 10.6768 10.6839 10.6768 9.85547C10.6768 9.02704 10.0052 8.35547 9.17676 8.35547ZM6.17676 9.85547C6.17676 8.19861 7.5199 6.85547 9.17676 6.85547C10.8336 6.85547 12.1768 8.19861 12.1768 9.85547C12.1768 11.5123 10.8336 12.8555 9.17676 12.8555C7.5199 12.8555 6.17676 11.5123 6.17676 9.85547Z" fill="#43384D"/>
    <path fill-rule="evenodd" clip-rule="evenodd" d="M9.17676 2.35547C8.97785 2.35547 8.78708 2.43449 8.64643 2.57514C8.50578 2.71579 8.42676 2.90656 8.42676 3.10547V3.23596C8.42521 3.62357 8.31035 4.00226 8.09634 4.32543C7.88232 4.6486 7.57847 4.90213 7.22221 5.05482C7.15879 5.082 7.09207 5.10024 7.02397 5.10914C6.70024 5.22251 6.35175 5.25045 6.01251 5.18894C5.62176 5.11809 5.2612 4.93181 4.97731 4.65412L4.9714 4.64833L4.92643 4.6033C4.85677 4.53357 4.77376 4.47795 4.68271 4.44021C4.59166 4.40247 4.49407 4.38304 4.39551 4.38304C4.29695 4.38304 4.19935 4.40247 4.1083 4.44021C4.01725 4.47795 3.93454 4.53327 3.86488 4.603L3.86429 4.60359C3.79456 4.67325 3.73924 4.75596 3.7015 4.84701C3.66375 4.93806 3.64433 5.03566 3.64433 5.13422C3.64433 5.23278 3.66375 5.33038 3.7015 5.42142C3.73924 5.51247 3.79456 5.59519 3.86429 5.66484L3.91544 5.71599C4.19313 5.99987 4.37938 6.36047 4.45023 6.75122C4.51967 7.13419 4.4751 7.52894 4.32235 7.88655C4.18317 8.25146 3.93949 8.56747 3.62154 8.79488C3.29717 9.02688 2.91049 9.15594 2.5118 9.16526L2.49426 9.16547H2.42676C2.22785 9.16547 2.03708 9.24449 1.89643 9.38514C1.75578 9.52579 1.67676 9.71656 1.67676 9.91547C1.67676 10.1144 1.75578 10.3051 1.89643 10.4458C2.03708 10.5865 2.22785 10.6655 2.42676 10.6655H2.55725C2.94486 10.667 3.32355 10.7819 3.64672 10.9959C3.96876 11.2092 4.22166 11.5116 4.37452 11.8663C4.53357 12.2287 4.58084 12.6303 4.51023 13.0197C4.43938 13.4105 4.2531 13.771 3.9754 14.0549L3.96962 14.0608L3.92459 14.1058C3.85485 14.1755 3.79924 14.2585 3.7615 14.3495C3.72375 14.4406 3.70433 14.5382 3.70433 14.6367C3.70433 14.7353 3.72375 14.8329 3.7615 14.9239C3.79924 15.015 3.85456 15.0977 3.92429 15.1673L3.92488 15.1679C3.99454 15.2377 4.07725 15.293 4.1683 15.3307C4.25935 15.3685 4.35695 15.3879 4.45551 15.3879C4.55407 15.3879 4.65166 15.3685 4.74271 15.3307C4.83376 15.293 4.91648 15.2377 4.98613 15.1679L5.03728 15.1168C5.32116 14.8391 5.68176 14.6528 6.07251 14.582C6.45548 14.5126 6.85023 14.5571 7.20783 14.7099C7.57275 14.849 7.88876 15.0927 8.11617 15.4107C8.34817 15.7351 8.47723 16.1217 8.48655 16.5204L8.48676 16.538V16.6055C8.48676 16.8044 8.56578 16.9951 8.70643 17.1358C8.84708 17.2765 9.03785 17.3555 9.23676 17.3555C9.43567 17.3555 9.62643 17.2765 9.76709 17.1358C9.90774 16.9951 9.98676 16.8044 9.98676 16.6055V16.478L9.98676 16.475C9.98831 16.0874 10.1032 15.7087 10.3172 15.3855C10.5305 15.0634 10.833 14.8105 11.1877 14.6577C11.55 14.4986 11.9516 14.4514 12.341 14.522C12.7318 14.5928 13.0923 14.7791 13.3762 15.0568L13.3821 15.0626L13.4271 15.1076C13.4967 15.1774 13.5798 15.233 13.6708 15.2707C13.7619 15.3085 13.8594 15.3279 13.958 15.3279C14.0566 15.3279 14.1542 15.3085 14.2452 15.2707C14.3363 15.233 14.419 15.1777 14.4886 15.1079L14.4892 15.1073C14.559 15.0377 14.6143 14.955 14.652 14.8639C14.6898 14.7729 14.7092 14.6753 14.7092 14.5767C14.7092 14.4782 14.6898 14.3806 14.652 14.2895C14.6143 14.1985 14.559 14.1157 14.4892 14.0461L14.4381 13.9949C14.1604 13.7111 13.9741 13.3505 13.9033 12.9597C13.8327 12.5703 13.8799 12.1687 14.039 11.8064C14.1918 11.4517 14.4447 11.1492 14.7668 10.9359C15.09 10.7219 15.4687 10.607 15.8563 10.6055L15.8593 10.6055L15.9268 10.6055C16.1257 10.6055 16.3164 10.5265 16.4571 10.3858C16.5977 10.2451 16.6768 10.0544 16.6768 9.85547C16.6768 9.65656 16.5977 9.46579 16.4571 9.32514C16.3164 9.18449 16.1257 9.10547 15.9268 9.10547H15.7993L15.7963 9.10546C15.4087 9.10392 15.03 8.98907 14.7068 8.77505C14.3836 8.56103 14.1301 8.25719 13.9774 7.90092C13.9502 7.8375 13.932 7.77078 13.9231 7.70267C13.8097 7.37895 13.7818 7.03046 13.8433 6.69122C13.9141 6.30047 14.1004 5.93991 14.3781 5.65602L14.3839 5.65011L14.4289 5.60514C14.4987 5.53549 14.5543 5.45247 14.592 5.36142C14.6298 5.27037 14.6492 5.17278 14.6492 5.07422C14.6492 4.97566 14.6298 4.87806 14.592 4.78701C14.5543 4.69597 14.499 4.61325 14.4292 4.54359L14.4286 4.543C14.359 4.47327 14.2763 4.41795 14.1852 4.38021C14.0942 4.34247 13.9966 4.32304 13.898 4.32304C13.7994 4.32304 13.7019 4.34247 13.6108 4.38021C13.5198 4.41795 13.437 4.47327 13.3674 4.543L13.3162 4.59415C13.0324 4.87184 12.6718 5.05809 12.281 5.12894C11.8916 5.19955 11.49 5.15228 11.1276 4.99323C10.7729 4.84037 10.4705 4.58747 10.2572 4.26543C10.0432 3.94226 9.92831 3.56357 9.92676 3.17596L9.92676 3.17297V3.10547C9.92676 2.90656 9.84774 2.71579 9.70709 2.57514C9.56643 2.43449 9.37567 2.35547 9.17676 2.35547ZM7.58577 1.51448C8.00772 1.09252 8.58002 0.855469 9.17676 0.855469C9.77349 0.855469 10.3458 1.09252 10.7677 1.51448C11.1897 1.93644 11.4268 2.50873 11.4268 3.10547V3.17109C11.4274 3.26578 11.4555 3.35825 11.5078 3.43721C11.5603 3.51647 11.6348 3.57866 11.7222 3.61611L11.7296 3.61928C11.8187 3.65861 11.9175 3.67038 12.0134 3.653C12.1082 3.63582 12.1957 3.59093 12.265 3.52405L12.3061 3.48293C12.5151 3.27374 12.7632 3.10778 13.0364 2.99455C13.3095 2.88132 13.6023 2.82304 13.898 2.82304C14.1937 2.82304 14.4865 2.88132 14.7596 2.99455C15.0328 3.10778 15.2809 3.27374 15.4899 3.48293C15.6988 3.69177 15.8646 3.93971 15.9777 4.2126C16.0909 4.48575 16.1492 4.77853 16.1492 5.07422C16.1492 5.3699 16.0909 5.66269 15.9777 5.93583C15.8645 6.20885 15.6986 6.45689 15.4896 6.6658C15.4895 6.6659 15.4897 6.6657 15.4896 6.6658L15.4482 6.7072C15.3813 6.77648 15.3364 6.86403 15.3192 6.95883C15.3018 7.05468 15.3136 7.15353 15.3529 7.24265C15.3741 7.29067 15.3901 7.34066 15.4008 7.39177C15.4363 7.44406 15.4818 7.4892 15.535 7.52443C15.614 7.57672 15.7064 7.60487 15.8011 7.60547H15.9268C16.5235 7.60547 17.0958 7.84252 17.5177 8.26448C17.9397 8.68644 18.1768 9.25873 18.1768 9.85547C18.1768 10.4522 17.9397 11.0245 17.5177 11.4465C17.0958 11.8684 16.5235 12.1055 15.9268 12.1055H15.8611C15.7664 12.1061 15.674 12.1342 15.595 12.1865C15.5158 12.239 15.4536 12.3135 15.4161 12.4009L15.4129 12.4083C15.3736 12.4974 15.3618 12.5963 15.3792 12.6921C15.3964 12.7869 15.4413 12.8744 15.5082 12.9437L15.5493 12.9848C15.5492 12.9847 15.5494 12.9849 15.5493 12.9848C15.7584 13.1937 15.9245 13.4421 16.0377 13.7151C16.1509 13.9882 16.2092 14.281 16.2092 14.5767C16.2092 14.8724 16.1509 15.1652 16.0377 15.4383C15.9244 15.7115 15.7585 15.9596 15.5493 16.1686L15.0193 15.638L15.5499 16.168C15.3409 16.3772 15.0928 16.5432 14.8196 16.6564C14.5465 16.7696 14.2537 16.8279 13.958 16.8279C13.6623 16.8279 13.3695 16.7696 13.0964 16.6564C12.8234 16.5432 12.5753 16.3774 12.3664 16.1683C12.3663 16.1682 12.3665 16.1684 12.3664 16.1683L12.325 16.1269C12.2557 16.06 12.1682 16.0151 12.0734 15.9979C11.9775 15.9806 11.8787 15.9923 11.7896 16.0316L11.7822 16.0349C11.6948 16.0723 11.6203 16.1345 11.5678 16.2137C11.5155 16.2927 11.4874 16.3852 11.4868 16.4798V16.6055C11.4868 17.2022 11.2497 17.7745 10.8277 18.1965C10.4058 18.6184 9.8335 18.8555 9.23676 18.8555C8.64002 18.8555 8.06772 18.6184 7.64577 18.1965C7.22381 17.7745 6.98676 17.2022 6.98676 16.6055V16.5487C6.9832 16.4533 6.95171 16.361 6.89611 16.2833C6.83921 16.2037 6.75968 16.1431 6.66787 16.1094C6.65304 16.1039 6.63839 16.098 6.62393 16.0916C6.53482 16.0523 6.43597 16.0406 6.34012 16.0579C6.24532 16.0751 6.15776 16.12 6.08848 16.1869L6.04738 16.228C6.04729 16.2281 6.04748 16.2279 6.04738 16.228C5.83848 16.4371 5.59014 16.6032 5.31712 16.7164C5.04398 16.8296 4.75119 16.8879 4.45551 16.8879C4.15982 16.8879 3.86704 16.8296 3.59389 16.7164C3.32101 16.6033 3.07307 16.4375 2.86422 16.2286C2.65503 16.0196 2.48907 15.7715 2.37584 15.4983C2.26261 15.2252 2.20433 14.9324 2.20433 14.6367C2.20433 14.341 2.26261 14.0482 2.37584 13.7751C2.48907 13.502 2.65503 13.2538 2.86422 13.0448L2.90534 13.0037C2.97222 12.9344 3.01711 12.8469 3.03429 12.7521C3.05167 12.6563 3.03994 12.5574 3.00061 12.4683L2.99736 12.4609C2.95991 12.3735 2.89776 12.299 2.81849 12.2465C2.73954 12.1942 2.64707 12.1661 2.55238 12.1655H2.42676C1.83002 12.1655 1.25772 11.9284 0.835768 11.5065C0.413811 11.0845 0.176758 10.5122 0.176758 9.91547C0.176758 9.31873 0.413811 8.74644 0.835768 8.32448C1.25772 7.90252 1.83002 7.66547 2.42676 7.66547H2.48349C2.57888 7.66191 2.67119 7.63042 2.74892 7.57482C2.82849 7.51792 2.88909 7.43839 2.92286 7.34658C2.92831 7.33175 2.93423 7.3171 2.94061 7.30265C2.97994 7.21353 2.99167 7.11468 2.97429 7.01883C2.95711 6.92404 2.91222 6.83648 2.84533 6.7672L2.80422 6.72609C2.59503 6.51713 2.42907 6.26898 2.31584 5.99583C2.20261 5.72269 2.14433 5.4299 2.14433 5.13422C2.14433 4.83853 2.20261 4.54575 2.31584 4.2726C2.42901 3.99959 2.59487 3.75154 2.80393 3.54264C3.01283 3.33358 3.26087 3.16773 3.53389 3.05455C3.80704 2.94132 4.09982 2.88304 4.39551 2.88304C4.69119 2.88304 4.98398 2.94132 5.25712 3.05455C5.53027 3.16778 5.77842 3.33374 5.98738 3.54293L6.02849 3.58404C6.09777 3.65093 6.18532 3.69582 6.28012 3.713C6.37597 3.73038 6.47482 3.71865 6.56393 3.67932C6.61196 3.65812 6.66195 3.64209 6.71306 3.63139C6.76535 3.59589 6.81049 3.55039 6.84572 3.49721C6.89801 3.41825 6.92616 3.32578 6.92676 3.23109V3.10547C6.92676 2.50873 7.16381 1.93644 7.58577 1.51448Z" fill="#43384D"/>
</svg>
