<svg width="16" height="15" viewBox="0 0 16 15" fill="none" xmlns="http://www.w3.org/2000/svg">
<path d="M14.4728 5.24873C13.0255 5.24873 12.4338 4.2398 13.1534 3.00228C13.5692 2.28499 13.3213 1.37065 12.5937 0.960771L11.2104 0.180426C10.5787 -0.190041 9.76312 0.0306631 9.38731 0.653363L9.29935 0.803126C8.57971 2.04064 7.3963 2.04064 6.66867 0.803126L6.58071 0.653363C6.22089 0.0306631 5.4053 -0.190041 4.77361 0.180426L3.3903 0.960771C2.66267 1.37065 2.41479 2.29288 2.83058 3.01016C3.55822 4.2398 2.96652 5.24873 1.51924 5.24873C0.687656 5.24873 0 5.91872 0 6.74636V8.13364C0 8.9534 0.67966 9.63127 1.51924 9.63127C2.96652 9.63127 3.55822 10.6402 2.83058 11.8777C2.41479 12.595 2.66267 13.5094 3.3903 13.9192L4.77361 14.6996C5.4053 15.07 6.22089 14.8493 6.5967 14.2266L6.68466 14.0769C7.4043 12.8394 8.58771 12.8394 9.31534 14.0769L9.4033 14.2266C9.77911 14.8493 10.5947 15.07 11.2264 14.6996L12.6097 13.9192C13.3373 13.5094 13.5852 12.5871 13.1694 11.8777C12.4418 10.6402 13.0335 9.63127 14.4808 9.63127C15.3123 9.63127 16 8.96128 16 8.13364V6.74636C15.992 5.9266 15.3123 5.24873 14.4728 5.24873ZM7.996 10.0017C6.56472 10.0017 5.3973 8.85093 5.3973 7.44C5.3973 6.02907 6.56472 4.87826 7.996 4.87826C9.42729 4.87826 10.5947 6.02907 10.5947 7.44C10.5947 8.85093 9.42729 10.0017 7.996 10.0017Z" fill="#43384D"/>
</svg>
