<svg width="18" height="18" viewBox="0 0 18 18" fill="none" xmlns="http://www.w3.org/2000/svg">
    <path
        d="M8.98867 5.29858C8.98867 5.29896 8.98835 5.29928 8.98796 5.29928C7.10192 5.29928 5.21587 5.29928 3.33053 5.29928C2.82996 5.29928 2.64084 5.10989 2.64014 4.61071C2.64014 3.29271 2.64014 1.97471 2.64154 0.656705C2.64154 0.563769 2.64717 0.468016 2.67177 0.379305C2.73716 0.1357 2.98604 -0.0255302 3.23562 0.00333631C3.48028 0.0314987 3.68065 0.232156 3.6933 0.482098C3.70455 0.703877 3.69963 0.927064 3.69963 1.14955C3.69963 2.12185 3.70244 3.09416 3.69752 4.06647C3.69752 4.19672 3.73338 4.23685 3.86555 4.23615C7.28658 4.23263 10.7069 4.23263 14.128 4.23685C14.2805 4.23685 14.2967 4.17419 14.296 4.04957C14.2925 2.89562 14.2932 1.74166 14.2946 0.587707C14.2946 0.252574 14.4858 0.0251622 14.7748 0.00192819C15.0932 -0.023418 15.3477 0.220891 15.352 0.567289C15.3576 1.01859 15.3534 1.46919 15.3534 1.92049C15.3534 2.83436 15.3534 3.74823 15.3534 4.66211C15.3534 5.08877 15.1453 5.29787 14.7171 5.29787C12.8079 5.29858 10.8986 5.29787 8.98937 5.29787C8.98898 5.29787 8.98867 5.29819 8.98867 5.29858Z"
        fill="#FEFEFE" />
    <path
        d="M14.2948 13.7786C14.2948 13.7782 14.2945 13.7779 14.2941 13.7779H3.91602C3.79704 13.7779 3.70058 13.8744 3.70058 13.9933C3.70058 15.1121 3.70128 16.2308 3.69917 17.3496C3.69917 17.4531 3.69496 17.5629 3.66191 17.6594C3.58598 17.8805 3.37085 18.0114 3.14095 17.9973C2.91738 17.984 2.72053 17.8213 2.6664 17.596C2.64741 17.5172 2.64179 17.4341 2.64179 17.3531C2.64038 16.0231 2.64038 14.6939 2.64109 13.3639C2.64109 12.8999 2.83935 12.7007 3.30336 12.7007C7.09912 12.7007 10.8949 12.7007 14.6899 12.7007C15.1546 12.7007 15.3543 12.8992 15.3543 13.3618C15.3543 14.6918 15.355 16.021 15.3529 17.351C15.3529 17.4545 15.3431 17.5643 15.31 17.6615C15.2341 17.884 14.9817 18.0269 14.7511 17.9959C14.5057 17.9628 14.3173 17.7615 14.299 17.5101C14.2941 17.4461 14.2948 17.3813 14.2948 17.3172C14.2948 16.2104 14.2948 15.1029 14.2948 13.9962C14.2948 13.9272 14.2948 13.8589 14.2948 13.7786Z"
        fill="#FEFEFE" />
    <path
        d="M0.000714264 9.00445C0.000714264 8.30743 0.00282341 7.61041 1.12154e-05 6.91409C-0.00139488 6.586 0.129372 6.33183 0.415513 6.17553C0.709387 6.01501 1.00396 6.04598 1.27464 6.23819C2.26594 6.94366 3.25794 7.64772 4.24361 8.36164C4.68794 8.6834 4.69145 9.31846 4.24853 9.63881C3.25864 10.3562 2.26172 11.0631 1.2648 11.7721C0.99834 11.9615 0.707981 11.9854 0.420434 11.832C0.13359 11.6771 1.12154e-05 11.4222 0.000714264 11.0955C0.00141731 10.3985 0.000714264 9.70147 0.000714264 9.00445ZM2.37781 9.677C2.8405 9.34642 2.83808 8.65418 2.37533 8.32368C1.82689 7.932 1.06935 8.32721 1.06935 9.00116C1.06935 9.6752 1.82937 10.0689 2.37781 9.677Z"
        fill="#FEFEFE" />
    <path
        d="M17.9992 8.99833C17.9992 9.69535 17.9978 10.3924 17.9999 11.0894C18.0013 11.4175 17.8677 11.6709 17.5816 11.8265C17.287 11.9864 16.9931 11.954 16.7224 11.7611C15.7311 11.0556 14.7398 10.3501 13.7535 9.63832C13.3119 9.31938 13.3112 8.67939 13.752 8.36045C14.7384 7.64794 15.7304 6.94388 16.721 6.237C16.9931 6.04268 17.2856 6.01311 17.5801 6.17012C17.8684 6.32431 17.9999 6.58058 17.9992 6.90656C17.9985 7.60358 17.9992 8.3006 17.9992 8.99762V8.99833ZM16.9347 8.9993C16.9347 8.32456 16.1714 7.93249 15.6223 8.32461C15.1589 8.65556 15.1594 9.34431 15.623 9.67507C16.1722 10.0669 16.9347 9.67399 16.9347 8.9993Z"
        fill="#FEFEFE" />
</svg>
