<svg width="27" height="21" viewBox="0 0 27 21" fill="none" xmlns="http://www.w3.org/2000/svg">
    <path d="M5.5472 1.45099C5.5472 1.20991 5.45275 0.9787 5.28462 0.808231C5.11649 0.637761 4.88846 0.541992 4.65069 0.541992C4.41292 0.541992 4.18489 0.637761 4.01676 0.808231C3.84863 0.9787 3.75418 1.20991 3.75418 1.45099V17.4366L1.69937 15.3513C1.53103 15.1806 1.30271 15.0848 1.06464 15.0848C0.826567 15.0848 0.598247 15.1806 0.429906 15.3513C0.261565 15.522 0.166992 15.7535 0.166992 15.9949C0.166992 16.2363 0.261565 16.4678 0.429906 16.6385L4.01596 20.2726L4.02851 20.2854C4.19683 20.4518 4.42319 20.544 4.65828 20.542C4.89337 20.5399 5.11814 20.4438 5.28363 20.2744L8.86968 16.6385C8.95303 16.5541 9.01917 16.4539 9.06433 16.3435C9.10949 16.2332 9.13277 16.115 9.13285 15.9955C9.13294 15.8761 9.10982 15.7578 9.06481 15.6474C9.01981 15.5371 8.95381 15.4368 8.87057 15.3522C8.78734 15.2677 8.6885 15.2007 8.5797 15.1549C8.4709 15.1091 8.35427 15.0855 8.23648 15.0854C8.11868 15.0853 8.00202 15.1088 7.89316 15.1544C7.7843 15.2 7.68536 15.2669 7.60201 15.3513L5.5472 17.4366V1.45099ZM11.8228 3.26898C11.8228 3.0279 11.9172 2.79669 12.0854 2.62622C12.2535 2.45575 12.4815 2.35998 12.7193 2.35998H25.2705C25.5082 2.35998 25.7363 2.45575 25.9044 2.62622C26.0725 2.79669 26.167 3.0279 26.167 3.26898C26.167 3.51006 26.0725 3.74126 25.9044 3.91173C25.7363 4.0822 25.5082 4.17797 25.2705 4.17797H12.7193C12.4815 4.17797 12.2535 4.0822 12.0854 3.91173C11.9172 3.74126 11.8228 3.51006 11.8228 3.26898ZM12.7193 7.81395C12.4815 7.81395 12.2535 7.90972 12.0854 8.08019C11.9172 8.25066 11.8228 8.48186 11.8228 8.72294C11.8228 8.96402 11.9172 9.19523 12.0854 9.3657C12.2535 9.53617 12.4815 9.63194 12.7193 9.63194H21.6844C21.9222 9.63194 22.1502 9.53617 22.3184 9.3657C22.4865 9.19523 22.5809 8.96402 22.5809 8.72294C22.5809 8.48186 22.4865 8.25066 22.3184 8.08019C22.1502 7.90972 21.9222 7.81395 21.6844 7.81395H12.7193ZM12.7193 13.2679C12.4815 13.2679 12.2535 13.3637 12.0854 13.5342C11.9172 13.7046 11.8228 13.9358 11.8228 14.1769C11.8228 14.418 11.9172 14.6492 12.0854 14.8197C12.2535 14.9901 12.4815 15.0859 12.7193 15.0859H18.0984C18.3361 15.0859 18.5642 14.9901 18.7323 14.8197C18.9004 14.6492 18.9949 14.418 18.9949 14.1769C18.9949 13.9358 18.9004 13.7046 18.7323 13.5342C18.5642 13.3637 18.3361 13.2679 18.0984 13.2679H12.7193ZM12.7193 18.7219C12.4815 18.7219 12.2535 18.8176 12.0854 18.9881C11.9172 19.1586 11.8228 19.3898 11.8228 19.6309C11.8228 19.872 11.9172 20.1032 12.0854 20.2736C12.2535 20.4441 12.4815 20.5399 12.7193 20.5399H14.5123C14.7501 20.5399 14.9781 20.4441 15.1463 20.2736C15.3144 20.1032 15.4088 19.872 15.4088 19.6309C15.4088 19.3898 15.3144 19.1586 15.1463 18.9881C14.9781 18.8176 14.7501 18.7219 14.5123 18.7219H12.7193Z" fill="#43384D"/>
</svg>
