<svg width="18" height="18" viewBox="0 0 18 18" fill="none" xmlns="http://www.w3.org/2000/svg">
    <path fill-rule="evenodd" clip-rule="evenodd" d="M0.642857 5.03947H4.23L9.19285 0L10.2857 0.460526V17.5658L9.19285 18L4.23 12.9342H0.642857L0 12.2763V5.69737L0.642857 5.03947ZM4.95 11.8421L8.99999 15.9737V2.05263L4.95 6.15789L4.5 6.35526H1.28571V11.6184H4.5L4.95 11.8421ZM18 8.98684C18.0033 11.1108 17.2863 13.1701 15.9711 14.8132L15.0557 13.8789C16.1325 12.4867 16.7171 10.7624 16.7143 8.98684C16.7143 7.14474 16.0971 5.44868 15.0634 4.10526L15.9788 3.17105C17.2889 4.81247 18.003 6.8675 18 8.98684ZM15.4286 8.98684C15.431 10.4128 14.9787 11.8006 14.1403 12.9395L13.2197 11.9974C13.8224 11.1148 14.1447 10.0636 14.1428 8.98684C14.1447 7.91437 13.8247 6.86719 13.2261 5.98684L14.1467 5.04474C14.9516 6.14342 15.4286 7.50789 15.4286 8.98684ZM12.8571 8.98684C12.8571 9.74211 12.6514 10.4474 12.2914 11.0474L11.3413 10.0763C11.4932 9.73643 11.5724 9.36723 11.5735 8.99347C11.5746 8.61972 11.4976 8.25004 11.3477 7.90921L12.2978 6.93684C12.6527 7.53421 12.8571 8.23684 12.8571 8.98684Z" fill="black"/>
</svg>
