<svg width="14" height="20" viewBox="0 0 14 20" fill="none" xmlns="http://www.w3.org/2000/svg">
<path d="M7.33464 5.00065V7.50065L10.668 4.16732L7.33464 0.833984V3.33398C3.6513 3.33398 0.667969 6.31732 0.667969 10.0007C0.667969 11.309 1.0513 12.5257 1.7013 13.5507L2.91797 12.334C2.54297 11.6423 2.33464 10.8423 2.33464 10.0007C2.33464 7.24232 4.5763 5.00065 7.33464 5.00065ZM12.968 6.45065L11.7513 7.66732C12.118 8.36732 12.3346 9.15899 12.3346 10.0007C12.3346 12.759 10.093 15.0007 7.33464 15.0007V12.5007L4.0013 15.834L7.33464 19.1673V16.6673C11.018 16.6673 14.0013 13.684 14.0013 10.0007C14.0013 8.69232 13.618 7.47565 12.968 6.45065Z" fill="#43384D"/>
</svg>
