<svg width="20" height="20" viewBox="0 0 20 20" fill="none" xmlns="http://www.w3.org/2000/svg">
    <g clip-path="url(#clip0_185_63821)">
        <path fill-rule="evenodd" clip-rule="evenodd" d="M10.7077 17.8333C10.0061 18.0573 9.27407 18.1712 8.53762 18.171C4.6127 18.171 1.43066 14.989 1.43066 11.0629C1.43087 9.44738 1.98136 7.88007 2.99145 6.61922C4.00154 5.35837 5.41098 4.47918 6.98758 4.1265V2.41806H8.26379C8.20273 1.33994 8.41656 0.636459 8.91758 0.2681C9.40563 -0.0907674 10.1075 -0.0893611 11.0635 0.272319C12.1816 0.694662 12.8484 1.36708 13.4932 2.01732C14.2098 2.73997 14.8286 3.36415 15.9812 3.57279C16.0485 3.58481 16.1089 3.6216 16.1504 3.67592C16.1919 3.73024 16.2116 3.79814 16.2055 3.86624C16.1994 3.93434 16.1681 3.99769 16.1176 4.04382C16.0671 4.08994 16.0012 4.11548 15.9329 4.1154C15.9164 4.11539 15.9 4.11392 15.8838 4.11099C14.5615 3.87173 13.8209 3.12482 13.1047 2.40244C12.5011 1.79372 11.877 1.16415 10.8701 0.783959C10.1118 0.497084 9.56391 0.471733 9.24156 0.708764C8.90398 0.957006 8.75898 1.52665 8.81063 2.40197C8.81094 2.40736 8.81063 2.41271 8.81063 2.41806H10.0875V4.12642C11.3633 4.41221 12.5357 5.044 13.476 5.95242C14.4163 6.86085 15.0881 8.01079 15.4176 9.27599H13.7757C13.6888 9.02149 13.5833 8.7737 13.4602 8.53462C13.4526 8.54003 13.4448 8.54505 13.4368 8.54966L12.7813 8.92833C12.7187 8.9628 12.6451 8.97137 12.5763 8.95222C12.5075 8.93307 12.4489 8.88771 12.4132 8.82588C12.3774 8.76405 12.3673 8.69066 12.385 8.62146C12.4027 8.55225 12.4468 8.49274 12.5079 8.45568L13.1633 8.07814C13.1715 8.07342 13.1799 8.06913 13.1886 8.06529C12.7611 7.40372 12.198 6.84051 11.5365 6.41294C11.5327 6.42165 11.5283 6.43015 11.5236 6.43841L11.1449 7.09275C11.127 7.12372 11.1031 7.15084 11.0747 7.17259C11.0462 7.19433 11.0138 7.21025 10.9792 7.21945C10.9446 7.22866 10.9085 7.23095 10.873 7.22622C10.8376 7.22148 10.8034 7.2098 10.7724 7.19185C10.7414 7.17389 10.7143 7.15002 10.6925 7.12158C10.6708 7.09314 10.6549 7.0607 10.6457 7.0261C10.6365 6.99151 10.6342 6.95544 10.6389 6.91996C10.6436 6.88448 10.6553 6.85028 10.6733 6.81931L11.0508 6.16497C11.0556 6.15669 11.0608 6.14866 11.0664 6.14091C10.366 5.78054 9.59641 5.57474 8.80961 5.5374C8.81051 5.54646 8.81102 5.5556 8.81102 5.56474V6.32095C8.81102 6.39347 8.78221 6.46302 8.73093 6.5143C8.67965 6.56558 8.6101 6.59439 8.53758 6.59439C8.46506 6.59439 8.39551 6.56558 8.34423 6.5143C8.29295 6.46302 8.26414 6.39347 8.26414 6.32095V5.56474C8.26413 5.55552 8.2646 5.5463 8.26555 5.53712C7.47875 5.5745 6.70915 5.78033 6.00875 6.14072C6.01426 6.14853 6.01949 6.15634 6.02437 6.16474L6.40191 6.81908C6.41987 6.85004 6.43155 6.88425 6.43628 6.91973C6.44102 6.95521 6.43872 6.99128 6.42952 7.02587C6.42032 7.06046 6.40439 7.09291 6.38265 7.12134C6.36091 7.14978 6.33378 7.17366 6.30281 7.19161C6.27184 7.20957 6.23764 7.22125 6.20216 7.22598C6.16668 7.23072 6.13061 7.22842 6.09602 7.21922C6.06143 7.21002 6.02898 7.19409 6.00054 7.17235C5.97211 7.15061 5.94823 7.12348 5.93027 7.09251L5.5516 6.43818C5.54686 6.42993 5.54254 6.42144 5.53867 6.41275C4.87712 6.84026 4.31391 7.4034 3.88633 8.0649C3.89507 8.06879 3.90361 8.07314 3.91191 8.0779L4.56734 8.45544C4.62841 8.4925 4.67252 8.55202 4.69023 8.62122C4.70793 8.69043 4.69781 8.76381 4.66204 8.82565C4.62627 8.88748 4.56769 8.93283 4.49888 8.95198C4.43006 8.97114 4.35648 8.96256 4.29391 8.9281L3.63844 8.54943C3.63026 8.54471 3.62233 8.53957 3.61469 8.53404C3.25412 9.23433 3.04816 10.0039 3.01074 10.7907C3.01992 10.7897 3.02914 10.7893 3.03836 10.7893H3.79559C3.86811 10.7893 3.93766 10.8181 3.98894 10.8694C4.04021 10.9206 4.06902 10.9902 4.06902 11.0627C4.06902 11.1352 4.04021 11.2048 3.98894 11.2561C3.93766 11.3073 3.86811 11.3361 3.79559 11.3361H3.03828C3.02895 11.3361 3.01977 11.3357 3.01066 11.3348C3.04806 12.1219 3.25406 12.8918 3.61473 13.5924C3.62225 13.5869 3.63013 13.5818 3.63836 13.5771L4.29383 13.1984C4.35644 13.1633 4.4304 13.1542 4.49968 13.1731C4.56896 13.1921 4.62798 13.2376 4.66395 13.2998C4.69991 13.3619 4.70993 13.4358 4.69184 13.5053C4.67374 13.5748 4.62898 13.6344 4.56727 13.6711L3.91184 14.0486C3.90359 14.0534 3.89511 14.0577 3.88641 14.0616C4.31396 14.7232 4.87717 15.2864 5.53875 15.7139C5.54262 15.7052 5.54694 15.6967 5.55168 15.6885L5.93035 15.0342C5.94831 15.0032 5.97218 14.9761 6.00062 14.9543C6.02906 14.9326 6.0615 14.9166 6.0961 14.9074C6.13069 14.8982 6.16676 14.8959 6.20224 14.9007C6.23772 14.9054 6.27192 14.9171 6.30289 14.9351C6.33386 14.953 6.36099 14.9769 6.38273 15.0053C6.40447 15.0338 6.42039 15.0662 6.4296 15.1008C6.4388 15.1354 6.4411 15.1715 6.43636 15.2069C6.43163 15.2424 6.41995 15.2766 6.40199 15.3076L6.02445 15.962C6.01961 15.9703 6.0144 15.9783 6.00883 15.9859C6.70918 16.3465 7.47875 16.5524 8.26555 16.5899C8.2646 16.5808 8.26413 16.5715 8.26414 16.5623V15.8061C8.26414 15.7336 8.29295 15.664 8.34423 15.6128C8.39551 15.5615 8.46506 15.5327 8.53758 15.5327C8.6101 15.5327 8.67965 15.5615 8.73093 15.6128C8.78221 15.664 8.81102 15.7336 8.81102 15.8061V16.5623C8.81102 16.5715 8.81051 16.5806 8.80965 16.5896C9.5743 16.5533 10.3229 16.3577 11.0077 16.0154C10.9488 16.1758 10.8981 16.3392 10.856 16.5048C10.7467 16.9389 10.6968 17.3858 10.7077 17.8333ZM8.53762 7.40365C8.4651 7.40365 8.39555 7.43245 8.34427 7.48373C8.29299 7.53501 8.26418 7.60456 8.26418 7.67708V10.4239C8.17352 10.4624 8.09208 10.5197 8.02523 10.592C7.95839 10.6644 7.90767 10.7501 7.87644 10.8435C7.84521 10.9369 7.83418 11.0358 7.84408 11.1338C7.85398 11.2318 7.88458 11.3266 7.93386 11.4119C7.98313 11.4971 8.04996 11.571 8.12992 11.6285C8.20988 11.686 8.30114 11.7258 8.39766 11.7454C8.49418 11.765 8.59376 11.7638 8.6898 11.742C8.78584 11.7202 8.87616 11.6783 8.95477 11.6189L10.0334 12.2423C10.0645 12.2609 10.0989 12.2732 10.1348 12.2783C10.1707 12.2835 10.2072 12.2814 10.2423 12.2723C10.2773 12.2632 10.3102 12.2471 10.339 12.2251C10.3678 12.2031 10.3919 12.1756 10.4099 12.1442C10.428 12.1128 10.4396 12.0781 10.444 12.0421C10.4485 12.0062 10.4457 11.9697 10.4359 11.9348C10.4261 11.8999 10.4095 11.8674 10.3869 11.839C10.3644 11.8106 10.3364 11.7871 10.3047 11.7696L9.22738 11.1475C9.23092 11.1195 9.23277 11.0914 9.23293 11.0632C9.23304 10.9719 9.2151 10.8815 9.18014 10.7971C9.14518 10.7127 9.09389 10.6361 9.02922 10.5717C8.96635 10.5094 8.89237 10.4594 8.81109 10.4244V7.67724C8.8111 7.64132 8.80404 7.60575 8.7903 7.57257C8.77656 7.53938 8.75642 7.50923 8.73102 7.48383C8.70562 7.45843 8.67547 7.43828 8.64229 7.42453C8.6091 7.41079 8.57354 7.40372 8.53762 7.40372V7.40365ZM18.3384 18.6536C18.4484 18.7641 18.5232 18.9046 18.5535 19.0576C18.5837 19.2105 18.568 19.3689 18.5083 19.5129C18.4486 19.6569 18.3476 19.7801 18.2181 19.8667C18.0885 19.9534 17.9362 19.9998 17.7803 20.0001H11.2934C11.0872 19.9955 10.891 19.9104 10.7468 19.7629C10.6026 19.6155 10.5219 19.4175 10.5219 19.2112C10.5219 19.005 10.6026 18.807 10.7468 18.6595C10.891 18.5121 11.0872 18.4269 11.2934 18.4224H11.3078C11.2136 17.8289 11.2403 17.2226 11.3864 16.6398C11.5504 16.0106 11.843 15.4221 12.2457 14.9115C11.843 14.4009 11.5504 13.8125 11.3864 13.1832C11.2404 12.6004 11.2136 11.9941 11.3078 11.4006H11.2934C11.0872 11.396 10.891 11.3109 10.7468 11.1635C10.6026 11.016 10.5219 10.818 10.5219 10.6118C10.5219 10.4055 10.6026 10.2075 10.7468 10.0601C10.891 9.91262 11.0872 9.82749 11.2934 9.8229H17.7803C17.9865 9.82749 18.1827 9.91262 18.3269 10.0601C18.4711 10.2075 18.5518 10.4055 18.5518 10.6118C18.5518 10.818 18.4711 11.016 18.3269 11.1635C18.1827 11.3109 17.9865 11.396 17.7803 11.4006H17.7658C17.8603 11.994 17.8339 12.6003 17.6883 13.1832C17.524 13.8125 17.2312 14.4009 16.8283 14.9115C17.2313 15.4221 17.5242 16.0105 17.6886 16.6398C17.8341 17.2227 17.8604 17.829 17.7658 18.4224H17.7802C17.8839 18.4223 17.9865 18.4428 18.0823 18.4825C18.1781 18.5222 18.2651 18.5804 18.3384 18.6538L18.3384 18.6536ZM17.1581 16.7714C17.0042 16.166 16.7031 15.6001 16.2724 15.0886C16.2305 15.0396 16.2073 14.9774 16.2069 14.9129C16.2065 14.8485 16.2289 14.786 16.2702 14.7365C16.702 14.2238 17.0042 13.6581 17.1581 13.0502C17.2933 12.5105 17.3126 11.9482 17.2146 11.4005H11.8591C11.7617 11.9483 11.781 12.5104 11.9156 13.0502C12.0695 13.657 12.3718 14.2216 12.8023 14.7342C12.8443 14.7832 12.8675 14.8456 12.8677 14.9101C12.8679 14.9746 12.8451 15.0371 12.8034 15.0863C12.3728 15.599 12.0694 16.1647 11.9155 16.7714C11.7809 17.3116 11.7616 17.8741 11.859 18.4222H17.2145C17.3124 17.8742 17.2932 17.3116 17.1581 16.7715L17.1581 16.7714ZM17.6632 4.76083C17.7295 4.7609 17.7937 4.73683 17.8436 4.6931C17.8935 4.64938 17.9258 4.58899 17.9345 4.52319C17.9432 4.45739 17.9277 4.39068 17.8908 4.33549C17.8539 4.28031 17.7983 4.24041 17.7341 4.22326L17.0112 4.02841C16.9411 4.00954 16.8665 4.01926 16.8036 4.05544C16.7407 4.09162 16.6948 4.15129 16.676 4.22132C16.6571 4.29136 16.6668 4.36602 16.703 4.42888C16.7392 4.49175 16.7988 4.53767 16.8689 4.55654L17.5918 4.75138C17.6151 4.75769 17.639 4.7609 17.6631 4.76095L17.6632 4.76083ZM16.7016 3.69345L17.8166 3.73552C17.8201 3.73552 17.8236 3.73572 17.8271 3.73572C17.8996 3.73706 17.9697 3.70954 18.0219 3.65921C18.0742 3.60887 18.1043 3.53986 18.1056 3.46734C18.1069 3.39482 18.0794 3.32473 18.0291 3.27251C17.9788 3.22028 17.9097 3.19018 17.8372 3.18884L16.7223 3.14677C16.6498 3.14403 16.5792 3.1702 16.526 3.21951C16.4728 3.26883 16.4414 3.33726 16.4387 3.40974C16.4359 3.48222 16.4621 3.55283 16.5114 3.60602C16.5607 3.65921 16.6292 3.69063 16.7016 3.69337L16.7016 3.69345ZM16.1044 4.43126C16.0458 4.38859 15.9726 4.37097 15.9009 4.38227C15.8293 4.39356 15.765 4.43286 15.7224 4.49152C15.6797 4.55017 15.6621 4.62337 15.6734 4.69502C15.6847 4.76667 15.724 4.8309 15.7826 4.87357L16.51 5.40279C16.5391 5.42392 16.572 5.43912 16.6069 5.44753C16.6418 5.45593 16.6781 5.45738 16.7135 5.45178C16.749 5.44619 16.783 5.43366 16.8137 5.41492C16.8443 5.39617 16.871 5.37157 16.8921 5.34253C16.9132 5.31349 16.9284 5.28057 16.9368 5.24565C16.9452 5.21074 16.9467 5.17451 16.9411 5.13903C16.9355 5.10355 16.923 5.06952 16.9042 5.03889C16.8855 5.00825 16.8609 4.98161 16.8318 4.96048L16.1044 4.43126ZM16.6687 13.0172H12.4061C12.8014 13.841 13.0571 14.2584 13.7069 14.9127C12.8421 15.8006 12.2686 16.5856 12.3362 17.891H16.7373C16.806 16.5856 16.2325 15.8006 15.3678 14.9127C16.0177 14.2583 16.2736 13.8409 16.6687 13.0171V13.0172Z" fill="#FEFEFE"/>
    </g>
    <defs>
        <clipPath id="clip0_185_63821">
            <rect width="20" height="20" fill="white"/>
        </clipPath>
    </defs>
</svg>
