<svg width="10" height="19" viewBox="0 0 10 19" fill="none" xmlns="http://www.w3.org/2000/svg">
    <path fill-rule="evenodd" clip-rule="evenodd"
        d="M0.559261 12.6199C0.891205 12.2879 1.42939 12.2879 1.76134 12.6199L5.13906 15.9976L8.51677 12.6199C8.84872 12.2879 9.38691 12.2879 9.71885 12.6199C10.0508 12.9518 10.0508 13.49 9.71885 13.8219L5.74009 17.8007C5.40815 18.1326 4.86996 18.1326 4.53802 17.8007L0.559261 13.8219C0.227317 13.49 0.227317 12.9518 0.559261 12.6199Z"
        fill="black" />
    <path fill-rule="evenodd" clip-rule="evenodd"
        d="M9.71882 5.4795C9.38687 5.81144 8.84868 5.81144 8.51674 5.4795L5.13902 2.10178L1.7613 5.4795C1.42936 5.81144 0.891171 5.81144 0.559227 5.4795C0.227282 5.14755 0.227282 4.60936 0.559227 4.27742L4.53798 0.298664C4.86993 -0.0332804 5.40811 -0.0332804 5.74006 0.298664L9.71882 4.27742C10.0508 4.60936 10.0508 5.14755 9.71882 5.4795Z"
        fill="black" />
</svg>
