<svg width="17" height="17" viewBox="0 0 17 17" fill="none" xmlns="http://www.w3.org/2000/svg">
    <path fill-rule="evenodd" clip-rule="evenodd" d="M6.65258 0.17353C6.96819 0.185165 7.23164 0.399653 7.28357 0.687256L9.46406 12.7638L11.3183 6.77321C11.3986 6.51378 11.6526 6.33289 11.9448 6.32703C12.2371 6.32116 12.4993 6.4917 12.5918 6.74766L13.7731 10.0192H15.9593C16.3275 10.0192 16.626 10.2947 16.626 10.6346C16.626 10.9744 16.3275 11.25 15.9593 11.25H13.2926C13.0057 11.25 12.7509 11.0805 12.6602 10.8292L12.0083 9.02398L9.93366 15.7267C9.84803 16.0034 9.56615 16.1883 9.25495 16.172C8.94374 16.1558 8.68629 15.9426 8.63505 15.6588L6.49533 3.80809L4.60607 10.7838C4.53188 11.0578 4.26522 11.25 3.95931 11.25H1.29264C0.924453 11.25 0.625977 10.9744 0.625977 10.6346C0.625977 10.2947 0.924453 10.0192 1.29264 10.0192H3.43879L5.97922 0.639171C6.05582 0.356308 6.33696 0.161895 6.65258 0.17353Z" fill="#43384D"/>
</svg>
