<svg width="12" height="12" viewBox="0 0 12 12" fill="none" xmlns="http://www.w3.org/2000/svg">
    <g clip-path="url(#clip0_185_63738)">
        <path d="M6 12C9.31371 12 12 9.31371 12 6C12 2.68629 9.31371 0 6 0C2.68629 0 0 2.68629 0 6C0 9.31371 2.68629 12 6 12Z" fill="#263740"/>
        <path d="M5.7144 8.09611V6.35358C5.17093 6.19833 4.7724 5.96339 4.51871 5.64849C4.26502 5.33386 4.13818 4.95183 4.13818 4.50268C4.13818 4.04799 4.28162 3.66605 4.56859 3.35677C4.85555 3.04768 5.23749 2.86955 5.7144 2.82249V2.41064H6.31749V2.82249C6.75831 2.87518 7.10902 3.02555 7.36965 3.27371C7.63027 3.52177 7.79668 3.85383 7.86877 4.26971L6.81652 4.40696C6.75268 4.07996 6.58637 3.85805 6.31749 3.74152V5.36771C6.98293 5.54799 7.43631 5.78152 7.67743 6.06858C7.91865 6.35564 8.03921 6.72352 8.03921 7.17268C8.03921 7.67461 7.88743 8.09733 7.58387 8.44111C7.2803 8.78489 6.85806 8.99564 6.3174 9.07327V9.85092H5.7143V9.09408C5.23459 9.03586 4.84515 8.85708 4.54562 8.55755C4.24618 8.25811 4.05493 7.8353 3.97168 7.28911L5.05712 7.17268C5.10146 7.39449 5.18462 7.58583 5.30668 7.74661C5.42874 7.90768 5.56468 8.02411 5.7144 8.09611ZM5.7144 3.72933C5.5508 3.78483 5.42049 3.87905 5.32346 4.01218C5.22634 4.14521 5.17787 4.29221 5.17787 4.45299C5.17787 4.59989 5.22221 4.73639 5.3109 4.86258C5.39959 4.98886 5.53402 5.09077 5.7143 5.1683L5.7144 3.72933ZM6.3174 8.15433C6.52534 8.11571 6.69437 8.01933 6.82477 7.86539C6.95509 7.71146 7.02024 7.53061 7.02024 7.32268C7.02024 7.13705 6.96549 6.97693 6.85599 6.8423C6.74649 6.70777 6.56696 6.60464 6.3174 6.53236V8.15433Z" fill="#2B9925"/>
    </g>
    <defs>
        <clipPath id="clip0_185_63738">
            <rect width="12" height="12" fill="white"/>
        </clipPath>
    </defs>
</svg>
