<svg width="19" height="19" viewBox="0 0 19 19" fill="none" xmlns="http://www.w3.org/2000/svg">
<path d="M9.875 10.9004C9.5675 10.9004 9.3125 10.6454 9.3125 10.3379V6.58789C9.3125 6.28039 9.5675 6.02539 9.875 6.02539C10.1825 6.02539 10.4375 6.28039 10.4375 6.58789V10.3379C10.4375 10.6454 10.1825 10.9004 9.875 10.9004Z" fill="#292D32"/>
<path d="M9.875 17.6504C5.945 17.6504 2.75 14.4554 2.75 10.5254C2.75 6.59539 5.945 3.40039 9.875 3.40039C13.805 3.40039 17 6.59539 17 10.5254C17 10.8329 16.745 11.0879 16.4375 11.0879C16.13 11.0879 15.875 10.8329 15.875 10.5254C15.875 7.21789 13.1825 4.52539 9.875 4.52539C6.5675 4.52539 3.875 7.21789 3.875 10.5254C3.875 13.8329 6.5675 16.5254 9.875 16.5254C10.1825 16.5254 10.4375 16.7804 10.4375 17.0879C10.4375 17.3954 10.1825 17.6504 9.875 17.6504Z" fill="#292D32"/>
<path d="M12.125 2.65039H7.625C7.3175 2.65039 7.0625 2.39539 7.0625 2.08789C7.0625 1.78039 7.3175 1.52539 7.625 1.52539H12.125C12.4325 1.52539 12.6875 1.78039 12.6875 2.08789C12.6875 2.39539 12.4325 2.65039 12.125 2.65039Z" fill="#292D32"/>
<path d="M12.9883 17.1025C12.7258 17.1025 12.4858 17.0425 12.2683 16.915C11.7733 16.63 11.4883 16.0525 11.4883 15.3325V13.6C11.4883 12.88 11.7733 12.3025 12.2683 12.0175C12.7633 11.7325 13.4008 11.7775 14.0233 12.13L15.5233 13C16.1458 13.36 16.5058 13.8925 16.5058 14.4625C16.5058 15.0325 16.1458 15.565 15.5233 15.925L14.0233 16.795C13.6783 16.9975 13.3258 17.1025 12.9883 17.1025ZM12.9958 12.9475C12.9358 12.9475 12.8758 12.9625 12.8308 12.985C12.6958 13.06 12.6133 13.2925 12.6133 13.5925V15.325C12.6133 15.625 12.6958 15.8575 12.8308 15.9325C12.9658 16.0075 13.2058 15.97 13.4608 15.82L14.9608 14.95C15.2233 14.8 15.3808 14.6125 15.3808 14.4625C15.3808 14.3125 15.2233 14.125 14.9608 13.975L13.4608 13.105C13.2883 13 13.1233 12.9475 12.9958 12.9475Z" fill="#292D32"/>
</svg>
