<svg width="20" height="20" viewBox="0 0 20 20" fill="none" xmlns="http://www.w3.org/2000/svg">
    <path d="M10 4.58125C10.3438 4.58125 10.625 4.3 10.625 3.95625V3.125C10.625 2.78125 10.3438 2.5 10 2.5C9.65625 2.5 9.375 2.78125 9.375 3.125V3.95625C9.375 4.3 9.65625 4.58125 10 4.58125Z" fill="#020000"/>
    <path d="M6.09375 4.67494C6.20625 4.88119 6.41875 4.99994 6.64375 4.99994C6.74375 4.99994 6.85 4.97494 6.94375 4.92494C7.24375 4.75619 7.35625 4.38119 7.19375 4.07494L6.8 3.35619C6.63125 3.05619 6.25625 2.94369 5.95 3.10619C5.65 3.27494 5.5375 3.64994 5.7 3.95619L6.09375 4.67494Z" fill="#020000"/>
    <path d="M13.0563 4.92522C13.15 4.97522 13.2563 5.00022 13.3563 5.00022C13.575 5.00022 13.7938 4.88147 13.9063 4.67522L14.3 3.95647C14.4688 3.65647 14.3563 3.27522 14.05 3.10647C13.75 2.94397 13.3688 3.05022 13.2 3.35647L12.8063 4.07522C12.6375 4.37522 12.75 4.75647 13.0563 4.92522Z" fill="#020000"/>
    <path d="M5.88125 6.4751C3.70625 7.4126 1.8625 9.08135 0.7 11.2688C0.6 11.4501 0.6 11.6751 0.7 11.8563C1.8625 14.0438 3.70625 15.7126 5.88125 16.6501C4.95 15.3126 4.375 13.5251 4.375 11.5626C4.375 9.6001 4.95 7.8126 5.88125 6.4751Z" fill="#EC3036"/>
    <path d="M11.6062 5.75625C11.0812 5.675 10.5437 5.625 10 5.625C9.45625 5.625 8.925 5.66875 8.39375 5.75625C6.775 6.675 5.625 8.93125 5.625 11.5625C5.625 14.1938 6.775 16.4563 8.39375 17.3688C8.91875 17.45 9.45625 17.5 10 17.5C10.5437 17.5 11.075 17.4563 11.6062 17.3688C13.225 16.45 14.375 14.1938 14.375 11.5625C14.375 8.93125 13.225 6.66875 11.6062 5.75625ZM9.48125 10.9375H10.525C11.4437 10.9375 12.1938 11.6875 12.1938 12.6062C12.1938 13.525 11.5 14.2063 10.6313 14.2625V14.6875C10.6313 15.0312 10.35 15.3125 10.0063 15.3125C9.6625 15.3125 9.38125 15.0312 9.38125 14.6875V14.2688H8.44375C8.1 14.2688 7.81875 13.9875 7.81875 13.6438C7.81875 13.3 8.1 13.0188 8.44375 13.0188H10.525C10.7562 13.0188 10.9438 12.8312 10.9438 12.6C10.9438 12.3688 10.7562 12.1812 10.525 12.1812H9.48125C8.5625 12.1812 7.8125 11.4312 7.8125 10.5125C7.8125 9.59375 8.50625 8.9125 9.375 8.85625V8.43125C9.375 8.0875 9.65625 7.80625 10 7.80625C10.3438 7.80625 10.625 8.0875 10.625 8.43125V8.85H11.5625C11.9062 8.85 12.1875 9.13125 12.1875 9.475C12.1875 9.81875 11.9062 10.1 11.5625 10.1H9.48125C9.25 10.1 9.0625 10.2875 9.0625 10.5188C9.0625 10.75 9.25 10.9375 9.48125 10.9375Z" fill="#020000"/>
    <path d="M19.3 11.2688C18.1375 9.08135 16.2938 7.4126 14.1188 6.4751C15.05 7.8126 15.625 9.6001 15.625 11.5626C15.625 13.5251 15.05 15.3126 14.1188 16.6501C16.2938 15.7126 18.1375 14.0438 19.3 11.8563C19.4 11.6751 19.4 11.4501 19.3 11.2688Z" fill="#27AE60"/>
</svg>
