<svg width="29" height="28" viewBox="0 0 29 28" fill="none" xmlns="http://www.w3.org/2000/svg">
    <path
        d="M14.4703 27.9394C12.6364 27.955 10.8176 27.6072 9.11879 26.9162C7.41998 26.2251 5.87485 25.2045 4.57254 23.9132C3.27023 22.6219 2.23654 21.0855 1.53111 19.3926C0.825685 17.6997 0.462494 15.8839 0.462494 14.0499C0.462494 12.2159 0.825685 10.4001 1.53111 8.70723C2.23654 7.01435 3.27023 5.47792 4.57254 4.18662C5.87485 2.89531 7.41998 1.8747 9.11879 1.18366C10.8176 0.492623 12.6364 0.144851 14.4703 0.160412C14.7273 0.160412 14.9738 0.262503 15.1555 0.444226C15.3373 0.625948 15.4393 0.872417 15.4393 1.12941C15.4393 1.38641 15.3373 1.63288 15.1555 1.8146C14.9738 1.99632 14.7273 2.09841 14.4703 2.09841C12.1067 2.09861 9.7962 2.79969 7.831 4.113C5.8658 5.42632 4.33417 7.29288 3.42978 9.47666C2.52539 11.6604 2.28886 14.0633 2.75011 16.3815C3.21135 18.6998 4.34965 20.8291 6.02107 22.5004C7.69249 24.1717 9.82195 25.3098 12.1402 25.7708C14.4584 26.2319 16.8613 25.9952 19.045 25.0906C21.2287 24.186 23.0952 22.6542 24.4083 20.6889C25.7215 18.7236 26.4223 16.4131 26.4223 14.0494C26.4223 13.7924 26.5244 13.5459 26.7062 13.3642C26.8879 13.1825 27.1344 13.0804 27.3913 13.0804C27.6483 13.0804 27.8948 13.1825 28.0765 13.3642C28.2583 13.5459 28.3603 13.7924 28.3603 14.0494C28.3577 17.7325 26.8934 21.2639 24.2891 23.8682C21.6848 26.4725 18.1534 27.9368 14.4703 27.9394Z"
        fill="#0969DA" />
    <path
        d="M27.3913 7.2464C27.1349 7.24457 26.8895 7.14189 26.7082 6.96057C26.5269 6.77924 26.4242 6.53383 26.4223 6.2774V2.0774H22.2223C21.9654 2.0774 21.7189 1.97531 21.5372 1.79359C21.3554 1.61187 21.2533 1.3654 21.2533 1.1084C21.2533 0.851409 21.3554 0.604941 21.5372 0.423218C21.7189 0.241495 21.9654 0.139404 22.2223 0.139404H27.3903C27.6468 0.141237 27.8922 0.243916 28.0735 0.425243C28.2548 0.60657 28.3575 0.851976 28.3594 1.1084V6.2774C28.3575 6.53366 28.255 6.77892 28.0739 6.96022C27.8928 7.14152 27.6476 7.24431 27.3913 7.2464Z"
        fill="#0969DA" />
    <path
        d="M20.9363 8.53737C20.809 8.53793 20.6829 8.5131 20.5653 8.46434C20.4476 8.41558 20.3409 8.34386 20.2514 8.25337C20.0715 8.07094 19.9707 7.82505 19.9707 7.56887C19.9707 7.31269 20.0715 7.06681 20.2514 6.88437L26.7113 0.424374C26.8013 0.334484 26.9081 0.263192 27.0256 0.214569C27.1431 0.165946 27.269 0.140945 27.3962 0.140991C27.5234 0.141038 27.6493 0.166131 27.7668 0.21484C27.8842 0.263549 27.991 0.334918 28.0808 0.424873C28.1707 0.514829 28.242 0.621609 28.2907 0.739117C28.3393 0.856624 28.3643 0.982557 28.3642 1.10973C28.3642 1.2369 28.3391 1.36281 28.2904 1.48028C28.2417 1.59776 28.1703 1.70448 28.0803 1.79437L21.6203 8.25437C21.5308 8.34456 21.4242 8.41602 21.3068 8.46461C21.1894 8.51319 21.0634 8.53793 20.9363 8.53737Z"
        fill="#0969DA" />
    <path
        d="M6.62635 13.9314C6.62635 13.1024 6.61835 12.2724 6.62635 11.4434C6.63535 10.7844 6.88935 10.5264 7.54835 10.5224C8.09902 10.4986 8.65071 10.518 9.19835 10.5804C9.48481 10.618 9.75881 10.721 9.99922 10.8812C10.2396 11.0415 10.44 11.2548 10.5849 11.5048C10.7299 11.7547 10.8155 12.0346 10.8351 12.3229C10.8548 12.6112 10.808 12.9001 10.6983 13.1674C10.65 13.2644 10.6345 13.3745 10.6542 13.4811C10.6738 13.5877 10.7276 13.685 10.8073 13.7584C11.0691 14.0518 11.2407 14.4144 11.3015 14.8029C11.3623 15.1913 11.3099 15.589 11.1503 15.9484C11.0173 16.3188 10.7779 16.6417 10.4622 16.8767C10.1464 17.1117 9.76837 17.2483 9.37535 17.2694C8.71146 17.3168 8.04552 17.3288 7.38035 17.3054C6.89035 17.2914 6.63735 16.9984 6.62735 16.4694C6.61235 15.6244 6.62735 14.7784 6.62735 13.9324L6.62635 13.9314ZM8.09035 15.1364C8.09035 15.8434 8.09035 15.8434 8.69035 15.8434C9.49035 15.8434 9.85835 15.6184 9.85635 15.1334C9.85435 14.6484 9.49335 14.4274 8.73635 14.4264C8.08735 14.4264 8.08735 14.4264 8.08735 15.1354M8.11835 12.9024C8.98335 13.0444 9.37235 12.9144 9.38235 12.4944C9.39035 12.1474 9.11435 11.9784 8.54735 11.9824C8.04735 11.9824 8.03535 12.0084 8.11835 12.9024Z"
        fill="#0969DA" />
    <path
        d="M17.3113 13.1994C17.3113 13.7524 17.3113 14.3054 17.3113 14.8584C17.2771 15.509 16.998 16.1226 16.53 16.5759C16.0621 17.0292 15.4399 17.2886 14.7886 17.3022C14.1372 17.3157 13.5048 17.0823 13.0184 16.6489C12.532 16.2154 12.2276 15.614 12.1663 14.9654C12.1263 13.7654 12.1473 12.5584 12.1593 11.3544C12.152 11.2524 12.1651 11.1501 12.1979 11.0532C12.2306 10.9564 12.2824 10.8671 12.3501 10.7906C12.4178 10.714 12.5001 10.6518 12.5922 10.6074C12.6843 10.5631 12.7843 10.5376 12.8863 10.5324C13.3253 10.5244 13.6133 10.8484 13.6163 11.3804C13.6223 12.4864 13.6163 13.5924 13.6163 14.6994C13.6114 14.8486 13.6364 14.9974 13.69 15.1368C13.7435 15.2762 13.8245 15.4034 13.9282 15.511C14.0318 15.6185 14.156 15.7042 14.2933 15.7628C14.4307 15.8215 14.5784 15.852 14.7277 15.8525C14.8771 15.8531 15.025 15.8236 15.1628 15.7659C15.3005 15.7083 15.4253 15.6235 15.5297 15.5167C15.6341 15.4099 15.716 15.2833 15.7706 15.1442C15.8251 15.0052 15.8512 14.8567 15.8473 14.7074C15.8473 13.6174 15.8473 12.5274 15.8473 11.4374C15.8473 10.8684 16.1263 10.5304 16.5763 10.5374C17.0263 10.5444 17.3033 10.8824 17.3073 11.4474C17.3073 12.0334 17.3073 12.6184 17.3073 13.2044"
        fill="#0969DA" />
    <path
        d="M20.7063 12.5054C21.0553 11.9754 21.3723 11.4894 21.6953 11.0054C21.7416 10.9061 21.8086 10.8178 21.8918 10.7465C21.975 10.6752 22.0726 10.6226 22.1778 10.5922C22.2831 10.5618 22.3937 10.5543 22.5021 10.5702C22.6105 10.5861 22.7142 10.625 22.8063 10.6844C23.1533 10.9274 23.1983 11.3514 22.9063 11.8084C22.4963 12.4534 22.0593 13.0804 21.6713 13.7384C21.5316 13.9871 21.4512 14.2646 21.4363 14.5494C21.4013 15.1994 21.4293 15.8494 21.4173 16.5024C21.4284 16.6003 21.4193 16.6993 21.3905 16.7935C21.3618 16.8877 21.314 16.975 21.2502 17.0499C21.1863 17.1249 21.1078 17.186 21.0194 17.2294C20.931 17.2729 20.8347 17.2977 20.7363 17.3024C20.6342 17.3052 20.5326 17.2871 20.4377 17.2493C20.3428 17.2114 20.2566 17.1547 20.1843 17.0824C20.1121 17.0102 20.0553 16.924 20.0175 16.8291C19.9797 16.7342 19.9616 16.6325 19.9643 16.5304C19.9453 15.8304 19.9773 15.1304 19.9523 14.4304C19.942 14.1931 19.8733 13.9619 19.7523 13.7574C19.3523 13.0914 18.9053 12.4474 18.4853 11.7894C18.1853 11.3224 18.2363 10.9244 18.6033 10.6734C18.9873 10.4104 19.3953 10.5234 19.7123 10.9944C20.0293 11.4654 20.3513 11.9654 20.7063 12.5074"
        fill="#0969DA" />
</svg>
