<svg width="30" height="33" viewBox="0 0 30 33" fill="none" xmlns="http://www.w3.org/2000/svg">
    <mask id="mask0_36_3430" style="mask-type:luminance" maskUnits="userSpaceOnUse" x="0" y="4"
        width="30" height="29">
        <path d="M29.0173 4.11926H0.581329V32.6633H29.0173V4.11926Z" fill="white" />
    </mask>
    <g mask="url(#mask0_36_3430)">
        <path
            d="M0.577318 18.3922C0.572393 21.54 1.60962 24.601 3.52715 27.0974C5.44468 29.5938 8.13465 31.3852 11.1773 32.1922C12.3437 32.504 13.546 32.6617 14.7533 32.6612C14.8703 32.6738 14.9886 32.6616 15.1005 32.6256C15.2125 32.5895 15.3156 32.5304 15.4033 32.4519C15.4909 32.3735 15.5612 32.2775 15.6094 32.1702C15.6576 32.0629 15.6827 31.9466 15.6831 31.829C15.6835 31.7114 15.6592 31.595 15.6118 31.4873C15.5644 31.3797 15.4949 31.2832 15.4078 31.2041C15.3207 31.1251 15.218 31.0651 15.1063 31.0283C14.9946 30.9914 14.8764 30.9785 14.7593 30.9902C13.0224 30.9884 11.3053 30.6221 9.71894 29.9148C8.1326 29.2075 6.71243 28.175 5.55032 26.8842C3.77989 24.9922 2.65892 22.5849 2.35031 20.0122C1.93762 16.8432 2.74575 13.6359 4.6108 11.0409C6.47584 8.44582 9.25814 6.65733 12.3933 6.03819C13.1799 5.90873 13.9738 5.82791 14.7703 5.79619C15.0037 5.8038 15.2307 5.71918 15.4021 5.56065C15.5736 5.40212 15.6757 5.18245 15.6863 4.94919C15.6823 4.83303 15.6549 4.71886 15.6057 4.61357C15.5564 4.50828 15.4864 4.41403 15.3998 4.3365C15.3132 4.25897 15.2118 4.19975 15.1018 4.1624C14.9917 4.12506 14.8752 4.11036 14.7593 4.11919C11.5692 4.13922 8.47777 5.2271 5.97815 7.20925C3.47853 9.1914 1.71479 11.9536 0.968317 15.0552C0.706285 16.148 0.576355 17.2684 0.581316 18.3922"
            fill="#FF6470" />
        <path
            d="M14.7633 32.7132C13.5516 32.713 12.3451 32.5547 11.1743 32.2422C8.11967 31.4337 5.41883 29.6362 3.4937 27.1305C1.56857 24.6248 0.527575 21.5521 0.533329 18.3922C0.527268 17.2647 0.657547 16.1405 0.921329 15.0442C1.66848 11.9388 3.43191 9.1721 5.93148 7.18364C8.43106 5.19518 11.5234 4.09899 14.7173 4.06923H14.7603C14.8828 4.05998 15.0059 4.07569 15.1222 4.1154C15.2385 4.15512 15.3455 4.21802 15.4367 4.30029C15.528 4.38256 15.6016 4.48249 15.6531 4.59404C15.7046 4.70558 15.7329 4.82642 15.7363 4.94923C15.7269 5.19592 15.6205 5.42891 15.4401 5.59748C15.2597 5.76604 15.0201 5.85653 14.7733 5.84923L14.3403 5.87823C13.6908 5.90715 13.0438 5.97797 12.4033 6.09023C9.28235 6.70936 6.51355 8.49201 4.65813 11.0768C2.80272 13.6616 1.99951 16.8552 2.41133 20.0102C2.7202 22.5716 3.83561 24.9685 5.59632 26.8542C6.75549 28.138 8.17043 29.1651 9.7502 29.8695C11.33 30.5739 13.0396 30.94 14.7693 30.9442C14.8923 30.9336 15.016 30.9488 15.1328 30.9886C15.2496 31.0285 15.3568 31.0922 15.4476 31.1758C15.5384 31.2593 15.6108 31.3609 15.6602 31.4739C15.7096 31.587 15.7349 31.7091 15.7346 31.8325C15.7342 31.9558 15.7082 32.0778 15.6582 32.1906C15.6081 32.3034 15.5351 32.4045 15.4439 32.4875C15.3526 32.5706 15.245 32.6337 15.1281 32.6729C15.0111 32.7121 14.8872 32.7265 14.7643 32.7152L14.7633 32.7132ZM14.7173 4.16923C11.5454 4.19881 8.47444 5.28754 5.99222 7.26244C3.51 9.23735 1.75896 11.9851 1.01732 15.0692C0.755437 16.158 0.62617 17.2744 0.632328 18.3942C0.62645 21.5322 1.66013 24.5837 3.5719 27.072C5.48366 29.5604 8.16582 31.3454 11.1993 32.1482C12.3616 32.4586 13.5594 32.6159 14.7623 32.6162C14.8725 32.628 14.984 32.6165 15.0895 32.5824C15.195 32.5483 15.2921 32.4924 15.3745 32.4184C15.457 32.3443 15.5229 32.2537 15.5681 32.1524C15.6132 32.0512 15.6365 31.9416 15.6365 31.8307C15.6365 31.7199 15.6132 31.6103 15.5681 31.509C15.5229 31.4078 15.457 31.3172 15.3745 31.2431C15.2921 31.169 15.195 31.1131 15.0895 31.079C14.984 31.0449 14.8725 31.0334 14.7623 31.0452C13.019 31.0413 11.2958 30.6725 9.70362 29.9626C8.1114 29.2527 6.68539 28.2174 5.51732 26.9232C3.74214 25.0221 2.61761 22.6056 2.30632 20.0232C1.89058 16.8418 2.70055 13.6214 4.57191 11.0152C6.44327 8.40895 9.2359 6.61215 12.3833 5.98923C13.028 5.87627 13.6794 5.80513 14.3333 5.77623L14.7653 5.74723C14.9865 5.75537 15.2019 5.67592 15.3648 5.52612C15.5277 5.37632 15.6249 5.16829 15.6353 4.94723C15.6316 4.83748 15.6057 4.72963 15.5591 4.63021C15.5125 4.53079 15.4461 4.44187 15.3641 4.36885C15.2821 4.29582 15.1862 4.24021 15.082 4.20538C14.9779 4.17055 14.8678 4.15723 14.7583 4.16623L14.7173 4.16923Z"
            fill="#FF6470" />
        <path
            d="M27.6273 24.5922C27.641 24.4077 27.593 24.2238 27.491 24.0695C27.3889 23.9151 27.2385 23.799 27.0633 23.7393C26.8969 23.6758 26.7138 23.671 26.5442 23.7255C26.3746 23.78 26.2286 23.8907 26.1303 24.0393C25.8303 24.5133 25.5393 25.0013 25.2763 25.4993C25.1846 25.6841 25.1669 25.897 25.2269 26.0944C25.287 26.2918 25.4202 26.4588 25.5993 26.5613C25.7737 26.6723 25.9843 26.7115 26.1869 26.6706C26.3896 26.6298 26.5685 26.5121 26.6863 26.3422C26.9993 25.8622 27.2783 25.3603 27.5593 24.8613C27.5973 24.7751 27.6203 24.6831 27.6273 24.5893"
            fill="#FF6470" />
        <path
            d="M26.0393 26.7373C25.8743 26.7366 25.7124 26.6921 25.5703 26.6083C25.3807 26.4988 25.2399 26.3214 25.1764 26.1119C25.1129 25.9024 25.1314 25.6766 25.2283 25.4803C25.4893 24.9863 25.7783 24.4933 26.0843 24.0173C26.1576 23.9011 26.2596 23.8058 26.3805 23.7404C26.5013 23.6751 26.637 23.642 26.7743 23.6443C26.8763 23.6445 26.9776 23.6611 27.0743 23.6933C27.2596 23.7561 27.4189 23.8785 27.5274 24.0412C27.6359 24.204 27.6876 24.3981 27.6743 24.5933V24.6053C27.6743 24.6143 27.6743 24.6283 27.6683 24.6453C27.6618 24.7305 27.6391 24.8136 27.6013 24.8903L27.5273 25.0213C27.2743 25.4703 27.0133 25.9353 26.7273 26.3743C26.653 26.4883 26.5508 26.5815 26.4304 26.645C26.31 26.7086 26.1754 26.7403 26.0393 26.7373ZM26.7743 23.7433C26.6538 23.7416 26.5349 23.7708 26.4288 23.828C26.3228 23.8853 26.2331 23.9687 26.1683 24.0703C25.8633 24.5453 25.5763 25.0343 25.3163 25.5263C25.2294 25.6998 25.212 25.9 25.2678 26.0858C25.3236 26.2717 25.4482 26.4293 25.6163 26.5263C25.7432 26.6015 25.8878 26.6415 26.0353 26.6423C26.1541 26.6445 26.2715 26.6165 26.3765 26.5609C26.4814 26.5053 26.5705 26.4238 26.6353 26.3243C26.9203 25.8883 27.1813 25.4243 27.4353 24.9773L27.5093 24.8463C27.5405 24.781 27.5592 24.7104 27.5643 24.6383C27.5643 24.6203 27.5643 24.6053 27.5703 24.5943C27.5819 24.4213 27.5363 24.2493 27.4405 24.1047C27.3447 23.9602 27.2041 23.8511 27.0403 23.7943C26.9565 23.7638 26.8684 23.7466 26.7793 23.7433H26.7743Z"
            fill="#FF6470" />
        <path
            d="M28.1803 17.5093C28.2989 17.5109 28.4164 17.4868 28.5248 17.4387C28.6331 17.3906 28.7298 17.3196 28.8081 17.2305C28.8864 17.1415 28.9445 17.0365 28.9784 16.9229C29.0122 16.8093 29.0211 16.6897 29.0043 16.5723C28.9263 16.0513 28.8283 15.5333 28.7113 15.0193C28.6911 14.9069 28.6477 14.8 28.5838 14.7054C28.52 14.6108 28.437 14.5305 28.3404 14.4698C28.2437 14.4091 28.1354 14.3693 28.0224 14.3528C27.9095 14.3363 27.7943 14.3437 27.6843 14.3743C27.4675 14.4333 27.2828 14.5757 27.1704 14.7703C27.058 14.9649 27.0271 15.196 27.0843 15.4133C27.1763 15.8753 27.2623 16.3383 27.3463 16.8023C27.3759 17.001 27.4767 17.1822 27.63 17.312C27.7832 17.4419 27.9785 17.5117 28.1793 17.5083"
            fill="#FF6470" />
        <path
            d="M28.1803 17.5593C27.9679 17.5622 27.7616 17.4882 27.5995 17.3509C27.4374 17.2136 27.3304 17.0223 27.2983 16.8123C27.1983 16.2683 27.1173 15.8273 27.0363 15.4243C26.9752 15.1941 27.0078 14.9491 27.1271 14.7429C27.2463 14.5367 27.4423 14.3862 27.6723 14.3243C27.7492 14.3051 27.8281 14.2953 27.9073 14.2953C28.1104 14.2951 28.3071 14.3663 28.4631 14.4965C28.619 14.6266 28.7242 14.8074 28.7603 15.0073C28.8773 15.5203 28.9763 16.0443 29.0533 16.5633C29.0722 16.6855 29.0641 16.8103 29.0295 16.929C28.995 17.0477 28.9348 17.1573 28.8533 17.2503C28.7699 17.3471 28.6666 17.4248 28.5505 17.4781C28.4344 17.5314 28.3081 17.5591 28.1803 17.5593ZM27.9073 14.3963C27.8362 14.3963 27.7653 14.405 27.6963 14.4223C27.4916 14.4778 27.3173 14.6123 27.2117 14.7962C27.1062 14.9802 27.078 15.1985 27.1333 15.4033C27.2133 15.8033 27.2963 16.2483 27.3953 16.7933C27.4236 16.9802 27.5186 17.1505 27.6627 17.2727C27.8068 17.395 27.9903 17.4609 28.1793 17.4583C28.293 17.4588 28.4055 17.4348 28.509 17.3878C28.6126 17.3409 28.7048 17.2721 28.7793 17.1863C28.851 17.104 28.9038 17.007 28.934 16.9022C28.9643 16.7973 28.9712 16.6871 28.9543 16.5793C28.8773 16.0623 28.7793 15.5413 28.6623 15.0303C28.6307 14.8529 28.5378 14.6923 28.3998 14.5764C28.2618 14.4605 28.0875 14.3968 27.9073 14.3963Z"
            fill="#FF6470" />
        <path
            d="M19.7683 30.0392C19.6671 30.0583 19.567 30.0827 19.4683 30.1122C19.0383 30.2532 18.6123 30.4042 18.1823 30.5452C17.9688 30.601 17.786 30.7388 17.6737 30.9287C17.5613 31.1186 17.5285 31.3452 17.5823 31.5592C17.6043 31.6643 17.6476 31.7639 17.7094 31.8517C17.7713 31.9395 17.8504 32.0138 17.942 32.07C18.0335 32.1262 18.1356 32.1631 18.2419 32.1784C18.3483 32.1937 18.4566 32.1872 18.5603 32.1592C19.1216 32.0088 19.673 31.8238 20.2113 31.6052C20.3866 31.5248 20.5269 31.3838 20.6065 31.2081C20.6861 31.0324 20.6995 30.834 20.6443 30.6492C20.5867 30.4641 20.4687 30.3037 20.3092 30.1937C20.1496 30.0836 19.9578 30.0303 19.7643 30.0422"
            fill="#FF6470" />
        <path
            d="M18.3533 32.2342C18.1623 32.2319 17.9777 32.165 17.8296 32.0444C17.6814 31.9239 17.5784 31.7567 17.5373 31.5702C17.4791 31.3445 17.5126 31.105 17.6305 30.9039C17.7484 30.7029 17.941 30.5567 18.1663 30.4972C18.3813 30.4272 18.5983 30.3522 18.8093 30.2812C19.0203 30.2102 19.2373 30.1352 19.4523 30.0652C19.5357 30.0394 19.6205 30.0183 19.7063 30.0022L19.7563 29.9912H19.7683C19.9728 29.9802 20.1752 30.0378 20.3433 30.1548C20.5114 30.2718 20.6356 30.4416 20.6963 30.6372C20.7547 30.8336 20.74 31.0445 20.6548 31.231C20.5697 31.4174 20.42 31.5666 20.2333 31.6512C19.6931 31.8708 19.1397 32.0565 18.5763 32.2072C18.5034 32.2257 18.4285 32.2347 18.3533 32.2342ZM19.7733 30.0892L19.7263 30.0992C19.6442 30.1146 19.5631 30.1346 19.4833 30.1592C19.2693 30.2292 19.0513 30.3032 18.8413 30.3752C18.6313 30.4472 18.4123 30.5212 18.1973 30.5922C17.9965 30.6449 17.8247 30.7749 17.7194 30.9538C17.6141 31.1327 17.5839 31.3461 17.6353 31.5472C17.6712 31.7119 17.7618 31.8595 17.8924 31.9661C18.023 32.0727 18.1858 32.132 18.3543 32.1342C18.4218 32.1342 18.4891 32.1254 18.5543 32.1082C19.1136 31.9586 19.663 31.7742 20.1993 31.5562C20.3648 31.4814 20.497 31.3484 20.5708 31.1824C20.6446 31.0164 20.6547 30.8291 20.5993 30.6562C20.5437 30.4837 20.4324 30.3345 20.283 30.2319C20.1335 30.1293 19.9543 30.0791 19.7733 30.0892Z"
            fill="#FF6470" />
        <path
            d="M29.0173 20.1782C29.0283 19.5382 28.7303 19.1782 28.3003 19.1202C28.0959 19.0925 27.8885 19.143 27.7198 19.2617C27.551 19.3804 27.4333 19.5584 27.3903 19.7602C27.2743 20.3022 27.1773 20.8492 27.1083 21.3992C27.0879 21.6048 27.146 21.8104 27.2711 21.9748C27.3961 22.1392 27.5788 22.2501 27.7823 22.2852C27.9808 22.3236 28.1864 22.2867 28.359 22.1816C28.5317 22.0766 28.6591 21.9111 28.7163 21.7172C28.8543 21.1532 28.9423 20.5762 29.0173 20.1782Z"
            fill="#FF6470" />
        <path
            d="M27.9273 22.3483C27.8753 22.3483 27.8235 22.3436 27.7723 22.3343C27.5559 22.2978 27.3615 22.1801 27.2288 22.0053C27.0961 21.8304 27.0352 21.6115 27.0583 21.3933C27.1243 20.8703 27.2193 20.3173 27.3413 19.7503C27.3822 19.555 27.4894 19.3799 27.6447 19.2546C27.8 19.1294 27.9938 19.0618 28.1933 19.0633C28.2314 19.0632 28.2695 19.0655 28.3073 19.0703C28.7943 19.1333 29.0793 19.5472 29.0683 20.1782V20.1872C29.0473 20.2982 29.0253 20.4223 29.0013 20.5573C28.9413 20.8973 28.8663 21.3203 28.7663 21.7293C28.7146 21.9107 28.6042 22.0699 28.4524 22.1819C28.3006 22.2939 28.1159 22.3524 27.9273 22.3483ZM28.1923 19.1632C28.0158 19.162 27.8443 19.2219 27.7068 19.3327C27.5694 19.4435 27.4745 19.5985 27.4383 19.7712C27.3173 20.3352 27.2223 20.8853 27.1573 21.4053C27.1396 21.5978 27.1948 21.7899 27.312 21.9437C27.4292 22.0974 27.6 22.2015 27.7903 22.2353C27.8355 22.2434 27.8814 22.2474 27.9273 22.2472C28.0933 22.2511 28.2559 22.2 28.3898 22.1017C28.5236 22.0035 28.6212 21.8638 28.6673 21.7042C28.7673 21.2992 28.8373 20.8953 28.9003 20.5393C28.9243 20.4063 28.9453 20.2822 28.9663 20.1722C28.9743 19.5992 28.7233 19.2242 28.2923 19.1722C28.2592 19.1671 28.2258 19.1641 28.1923 19.1632Z"
            fill="#FF6470" />
        <path
            d="M21.8153 29.2493C21.8165 29.3987 21.856 29.5452 21.9301 29.675C22.0042 29.8047 22.1104 29.9132 22.2385 29.9901C22.3666 30.067 22.5123 30.1097 22.6616 30.1141C22.811 30.1185 22.9589 30.0845 23.0913 30.0153C23.5971 29.6736 24.0734 29.2903 24.5153 28.8693C24.6576 28.7192 24.7362 28.5199 24.7347 28.3131C24.7332 28.1064 24.6517 27.9082 24.5073 27.7602C24.3688 27.608 24.1783 27.5133 23.9733 27.4948C23.7683 27.4763 23.5639 27.5353 23.4003 27.6603C22.9753 27.9883 22.5513 28.3193 22.1573 28.6823C22.0166 28.8549 21.9015 29.0469 21.8153 29.2523"
            fill="#FF6470" />
        <path
            d="M22.6953 30.1862C22.4541 30.1696 22.227 30.0661 22.0562 29.8949C21.8854 29.7237 21.7824 29.4965 21.7663 29.2552V29.2392L21.7743 29.2252C21.8083 29.1662 21.8393 29.1022 21.8743 29.0392C21.9337 28.8912 22.0202 28.7555 22.1293 28.6392C22.5153 28.2832 22.9223 27.9642 23.3763 27.6142C23.5261 27.4977 23.7106 27.4347 23.9003 27.4352C24.0226 27.4354 24.1436 27.461 24.2555 27.5104C24.3674 27.5598 24.4678 27.6319 24.5503 27.7222C24.7035 27.8799 24.7895 28.0908 24.7905 28.3107C24.7914 28.5305 24.7071 28.7422 24.5553 28.9012C24.1112 29.3243 23.6325 29.7096 23.1243 30.0532C22.9978 30.1394 22.8484 30.1857 22.6953 30.1862ZM21.8673 29.2622C21.8834 29.4761 21.9759 29.6771 22.1279 29.8284C22.2799 29.9797 22.4814 30.0712 22.6953 30.0862C22.8267 30.0859 22.955 30.047 23.0643 29.9742C23.5675 29.6338 24.0415 29.2522 24.4813 28.8332C24.6136 28.6919 24.6863 28.5049 24.684 28.3113C24.6818 28.1177 24.6049 27.9324 24.4693 27.7942C24.3961 27.7143 24.3071 27.6505 24.208 27.6068C24.1088 27.563 24.0017 27.5404 23.8933 27.5402C23.7257 27.5397 23.5627 27.5953 23.4303 27.6982C22.9783 28.0472 22.5733 28.3642 22.1903 28.7172C22.0909 28.8239 22.012 28.948 21.9573 29.0832C21.9293 29.1422 21.8993 29.2032 21.8693 29.2612L21.8673 29.2622Z"
            fill="#FF6470" />
    </g>
    <mask id="mask1_36_3430" style="mask-type:luminance" maskUnits="userSpaceOnUse" x="23" y="0"
        width="6" height="10">
        <path d="M28.5813 0.779297H23.0933V9.2793H28.5813V0.779297Z" fill="white" />
    </mask>
    <g mask="url(#mask1_36_3430)">
        <path
            d="M25.2743 5.67932H25.1743C24.613 5.67932 24.052 5.67932 23.4913 5.67932C23.4351 5.68222 23.3788 5.67648 23.3243 5.66232C23.2403 5.63499 23.1704 5.57577 23.1296 5.4974C23.0889 5.41904 23.0805 5.3278 23.1063 5.24332C23.4423 3.85065 23.7793 2.45799 24.1173 1.06532C24.132 0.979815 24.1784 0.90296 24.2471 0.849988C24.3158 0.797016 24.4019 0.771794 24.4883 0.77932H26.5453C26.6015 0.77405 26.658 0.782824 26.7099 0.804852C26.7618 0.82688 26.8074 0.86147 26.8427 0.905509C26.8779 0.949547 26.9016 1.00165 26.9116 1.05713C26.9217 1.11261 26.9178 1.16972 26.9003 1.22332C26.7003 2.05932 26.5003 2.89532 26.3003 3.73132C26.3003 3.74432 26.3003 3.75732 26.2923 3.77932H26.3923C26.9823 3.77932 27.5743 3.77932 28.1653 3.77932C28.2444 3.77188 28.3239 3.78964 28.3923 3.83005C28.4607 3.87045 28.5146 3.93145 28.5463 4.00432C28.5749 4.06769 28.586 4.13757 28.5785 4.20669C28.5709 4.27581 28.545 4.34163 28.5033 4.39732C28.2307 4.81665 27.9573 5.23765 27.6833 5.66032C26.952 6.78832 26.2223 7.91699 25.4943 9.04632C25.4539 9.12222 25.3921 9.18457 25.3165 9.22564C25.241 9.2667 25.155 9.28467 25.0693 9.27732C24.9923 9.27232 24.9133 9.28332 24.8373 9.27232C24.7844 9.26519 24.7335 9.24686 24.6882 9.21854C24.6429 9.19022 24.6042 9.15257 24.5745 9.1081C24.5449 9.06362 24.5251 9.01335 24.5165 8.96062C24.5078 8.9079 24.5105 8.85393 24.5243 8.80232C24.7657 7.80232 25.0077 6.80032 25.2503 5.79632C25.2583 5.76232 25.2653 5.72732 25.2763 5.68232"
            fill="#FF6470" />
    </g>
    <path
        d="M7.83862 20.9524V24.0784H9.60229C9.74292 24.0784 9.85034 24.1125 9.92456 24.1809C10.0007 24.2493 10.0388 24.3352 10.0388 24.4387C10.0388 24.5442 10.0017 24.6301 9.92749 24.6965C9.85327 24.761 9.74487 24.7932 9.60229 24.7932H7.50171C7.31226 24.7932 7.17554 24.7512 7.09155 24.6672C7.00952 24.5833 6.96851 24.4475 6.96851 24.26V20.9524C6.96851 20.7766 7.00757 20.6448 7.08569 20.5569C7.16577 20.469 7.27026 20.425 7.39917 20.425C7.53003 20.425 7.6355 20.469 7.71558 20.5569C7.79761 20.6428 7.83862 20.7747 7.83862 20.9524ZM10.6482 24.3362V20.9524C10.6482 20.7766 10.6882 20.6448 10.7683 20.5569C10.8484 20.469 10.9519 20.425 11.0789 20.425C11.2097 20.425 11.3152 20.469 11.3953 20.5569C11.4773 20.6428 11.5183 20.7747 11.5183 20.9524V24.3362C11.5183 24.5139 11.4773 24.6467 11.3953 24.7346C11.3152 24.8225 11.2097 24.8665 11.0789 24.8665C10.9539 24.8665 10.8503 24.8225 10.7683 24.7346C10.6882 24.6448 10.6482 24.512 10.6482 24.3362ZM13.9441 24.1458L13.2556 21.4094V24.3743C13.2556 24.5383 13.2185 24.6614 13.1443 24.7434C13.072 24.8254 12.9753 24.8665 12.8542 24.8665C12.7371 24.8665 12.6414 24.8264 12.5671 24.7463C12.4929 24.6643 12.4558 24.5403 12.4558 24.3743V20.9758C12.4558 20.7883 12.5046 20.6624 12.6023 20.5979C12.7 20.5315 12.8318 20.4983 12.9978 20.4983H13.2673C13.4294 20.4983 13.5466 20.5129 13.6189 20.5422C13.6931 20.5715 13.7478 20.6243 13.783 20.7004C13.8181 20.7766 13.8582 20.9006 13.9031 21.0725L14.5271 23.425L15.1511 21.0725C15.196 20.9006 15.2361 20.7766 15.2712 20.7004C15.3064 20.6243 15.3601 20.5715 15.4324 20.5422C15.5066 20.5129 15.6248 20.4983 15.7869 20.4983H16.0564C16.2224 20.4983 16.3542 20.5315 16.4519 20.5979C16.5496 20.6624 16.5984 20.7883 16.5984 20.9758V24.3743C16.5984 24.5383 16.5613 24.6614 16.4871 24.7434C16.4148 24.8254 16.3171 24.8665 16.1941 24.8665C16.0789 24.8665 15.9841 24.8254 15.9099 24.7434C15.8357 24.6614 15.7986 24.5383 15.7986 24.3743V21.4094L15.1101 24.1458C15.0652 24.3235 15.0281 24.4543 14.9988 24.5383C14.9714 24.6204 14.9197 24.6956 14.8435 24.7639C14.7673 24.8323 14.6619 24.8665 14.5271 24.8665C14.4255 24.8665 14.3396 24.844 14.2693 24.7991C14.199 24.7561 14.1443 24.7004 14.1052 24.6321C14.0662 24.5637 14.0349 24.4885 14.0115 24.4065C13.99 24.3225 13.9675 24.2356 13.9441 24.1458ZM17.5271 24.3362V20.9524C17.5271 20.7766 17.5671 20.6448 17.6472 20.5569C17.7273 20.469 17.8308 20.425 17.9578 20.425C18.0886 20.425 18.1941 20.469 18.2742 20.5569C18.3562 20.6428 18.3972 20.7747 18.3972 20.9524V24.3362C18.3972 24.5139 18.3562 24.6467 18.2742 24.7346C18.1941 24.8225 18.0886 24.8665 17.9578 24.8665C17.8328 24.8665 17.7292 24.8225 17.6472 24.7346C17.5671 24.6448 17.5271 24.512 17.5271 24.3362ZM22.1619 21.2161H21.2126V24.3362C21.2126 24.5159 21.1726 24.6497 21.0925 24.7375C21.0125 24.8235 20.9089 24.8665 20.782 24.8665C20.6531 24.8665 20.5476 24.8225 20.4656 24.7346C20.3855 24.6467 20.3455 24.5139 20.3455 24.3362V21.2161H19.3962C19.2478 21.2161 19.1375 21.1838 19.0652 21.1194C18.9929 21.053 18.9568 20.9661 18.9568 20.8586C18.9568 20.7473 18.9939 20.6594 19.0681 20.595C19.1443 20.5305 19.2537 20.4983 19.3962 20.4983H22.1619C22.3123 20.4983 22.4236 20.5315 22.4958 20.5979C22.5701 20.6643 22.6072 20.7512 22.6072 20.8586C22.6072 20.9661 22.5701 21.053 22.4958 21.1194C22.4216 21.1838 22.3103 21.2161 22.1619 21.2161Z"
        fill="#FF6470" />
    <path
        d="M10.5903 15.7012C10.5865 16.0014 10.5227 16.2978 10.4026 16.5729C10.2824 16.848 10.1084 17.0963 9.89077 17.3031C9.67316 17.5099 9.41633 17.6711 9.13545 17.7771C8.85457 17.883 8.55531 17.9317 8.25532 17.9202C7.82102 17.9325 7.38877 17.8562 6.98492 17.6959C6.58107 17.5357 6.21408 17.2949 5.90632 16.9882C5.50632 16.5882 5.47632 16.1882 5.80632 15.8492C5.87977 15.775 5.96779 15.7168 6.06482 15.6783C6.16184 15.6398 6.26579 15.6217 6.37013 15.6253C6.47447 15.6288 6.57696 15.654 6.67112 15.699C6.76529 15.7441 6.84911 15.8082 6.91732 15.8872C7.11103 16.0949 7.35588 16.2481 7.62736 16.3314C7.89885 16.4148 8.18745 16.4254 8.46432 16.3622C8.5909 16.3236 8.70777 16.2584 8.80711 16.171C8.90645 16.0835 8.98597 15.9759 9.04033 15.8552C9.08233 15.7242 8.81232 15.4012 8.61332 15.2992C8.14432 15.0572 7.62833 14.9062 7.14033 14.6992C6.75879 14.5696 6.42997 14.3189 6.20382 13.9854C5.97768 13.6519 5.86655 13.2537 5.88733 12.8512C5.92789 12.4248 6.10319 12.0225 6.38781 11.7024C6.67244 11.3824 7.05159 11.1613 7.47032 11.0712C7.92695 10.9707 8.40031 10.9738 8.8556 11.0802C9.3109 11.1866 9.73657 11.3937 10.1013 11.6862C10.1819 11.7393 10.251 11.8079 10.3048 11.8881C10.3585 11.9682 10.3958 12.0582 10.4144 12.1528C10.433 12.2475 10.4326 12.3449 10.4132 12.4394C10.3938 12.5339 10.3557 12.6236 10.3013 12.7032C10.25 12.7898 10.1808 12.8645 10.0984 12.9223C10.016 12.9802 9.92225 13.0199 9.82336 13.0388C9.72448 13.0577 9.6227 13.0554 9.52478 13.032C9.42685 13.0086 9.33501 12.9647 9.25532 12.9032C9.06382 12.7423 8.83843 12.6268 8.59599 12.5654C8.35355 12.5039 8.10035 12.498 7.85533 12.5482C7.67833 12.6032 7.54633 12.8022 7.39433 12.9362C7.52433 13.0672 7.63132 13.2472 7.78732 13.3192C8.26732 13.5432 8.77732 13.7062 9.25732 13.9302C9.63016 14.0595 9.95605 14.2969 10.1934 14.6122C10.4308 14.9274 10.569 15.3072 10.5903 15.7012Z"
        fill="#FF6470" />
    <path
        d="M13.0853 12.5212V13.7122C13.5213 13.7122 13.9343 13.7002 14.3463 13.7122C14.8463 13.7302 15.1343 13.9912 15.1533 14.4122C15.1596 14.5169 15.1434 14.6218 15.1059 14.7198C15.0683 14.8178 15.0104 14.9067 14.9358 14.9805C14.8612 15.0543 14.7718 15.1114 14.6734 15.1479C14.575 15.1844 14.47 15.1995 14.3653 15.1922C13.9533 15.2182 13.5383 15.1972 13.0923 15.1972V16.3762C13.5363 16.3762 13.9643 16.3692 14.3923 16.3762C14.9643 16.3872 15.3283 16.6832 15.3343 17.1262C15.3403 17.5692 14.9863 17.8672 14.4083 17.8732C13.7423 17.8802 13.0763 17.8842 12.4083 17.8732C11.8303 17.8612 11.5653 17.5862 11.5633 16.9992C11.5573 15.2992 11.5573 13.5992 11.5633 11.8992C11.5633 11.3102 11.8293 11.0332 12.4053 11.0222C13.104 11.0089 13.804 11.0089 14.5053 11.0222C14.6091 11.0127 14.7137 11.0247 14.8127 11.0573C14.9117 11.09 15.0029 11.1427 15.0806 11.2121C15.1584 11.2815 15.221 11.3661 15.2647 11.4608C15.3083 11.5554 15.332 11.658 15.3343 11.7622C15.3212 11.9723 15.2257 12.1688 15.0687 12.309C14.9116 12.4492 14.7056 12.5219 14.4953 12.5112C14.0343 12.5292 13.5723 12.5112 13.0863 12.5112"
        fill="#FF6470" />
    <path
        d="M17.8513 16.4302C18.2783 16.4302 18.6413 16.4232 19.0033 16.4302C19.0954 16.425 19.1877 16.438 19.2748 16.4685C19.3618 16.499 19.442 16.5464 19.5107 16.6081C19.5794 16.6697 19.6352 16.7443 19.6749 16.8275C19.7147 16.9108 19.7376 17.0011 19.7423 17.0932C19.758 17.1889 19.7531 17.2868 19.7281 17.3805C19.7031 17.4742 19.6585 17.5615 19.5973 17.6366C19.536 17.7117 19.4595 17.773 19.3728 17.8164C19.2861 17.8598 19.1912 17.8843 19.0943 17.8882C18.3812 17.9247 17.6666 17.9177 16.9543 17.8672C16.8654 17.8603 16.7788 17.8353 16.6998 17.7937C16.6209 17.7522 16.5512 17.695 16.4951 17.6257C16.4389 17.5564 16.3975 17.4763 16.3733 17.3904C16.3491 17.3046 16.3426 17.2147 16.3543 17.1262C16.3483 15.3442 16.3483 13.5622 16.3543 11.7802C16.3482 11.6779 16.3633 11.5755 16.3986 11.4792C16.4339 11.383 16.4886 11.2951 16.5594 11.2209C16.6301 11.1468 16.7154 11.088 16.8099 11.0483C16.9044 11.0086 17.0061 10.9887 17.1085 10.9901C17.211 10.9914 17.3121 11.0138 17.4056 11.0559C17.499 11.098 17.5828 11.1589 17.6516 11.2349C17.7205 11.3108 17.7729 11.4001 17.8058 11.4972C17.8386 11.5943 17.851 11.6971 17.8423 11.7992C17.8503 13.3132 17.8423 14.8282 17.8423 16.4292"
        fill="#FF6470" />
    <path
        d="M22.2373 16.4292C22.6643 16.4292 23.0113 16.4172 23.3573 16.4292C23.55 16.4252 23.7369 16.4948 23.8801 16.6237C24.0233 16.7526 24.1121 16.9312 24.1283 17.1232C24.1374 17.3173 24.0696 17.5071 23.9397 17.6516C23.8098 17.7961 23.6283 17.8836 23.4343 17.8952C22.7377 17.9232 22.0402 17.9159 21.3443 17.8732C21.2596 17.8713 21.1762 17.8519 21.0993 17.8163C21.0225 17.7807 20.9537 17.7296 20.8974 17.6663C20.8411 17.603 20.7985 17.5287 20.7721 17.4482C20.7458 17.3677 20.7363 17.2826 20.7443 17.1982C20.7363 15.3682 20.7333 13.5382 20.7443 11.7082C20.7429 11.612 20.7611 11.5164 20.7977 11.4274C20.8343 11.3383 20.8886 11.2577 20.9574 11.1903C21.0261 11.1228 21.1078 11.0701 21.1975 11.0352C21.2872 11.0003 21.3831 10.984 21.4793 10.9872C21.6822 10.9932 21.8744 11.0791 22.0143 11.2261C22.1542 11.3731 22.2304 11.5693 22.2263 11.7722C22.2473 12.6372 22.2343 13.5022 22.2343 14.3672C22.2343 15.0302 22.2343 15.6932 22.2343 16.4272"
        fill="#FF6470" />
</svg>
