<svg width="30" height="33" viewBox="0 0 30 33" fill="none" xmlns="http://www.w3.org/2000/svg">
    <mask id="mask0_36_3401" style="mask-type:luminance" maskUnits="userSpaceOnUse" x="0" y="3"
        width="30" height="30">
        <path d="M29.0173 3.72717H0.581329V32.2712H29.0173V3.72717Z" fill="white" />
    </mask>
    <g mask="url(#mask0_36_3401)">
        <path
            d="M0.577318 18.0001C0.572393 21.148 1.60962 24.2089 3.52715 26.7053C5.44468 29.2017 8.13465 30.9932 11.1773 31.8001C12.3437 32.1119 13.546 32.2696 14.7533 32.2691C14.8703 32.2817 14.9886 32.2695 15.1005 32.2335C15.2125 32.1974 15.3156 32.1383 15.4033 32.0598C15.4909 31.9814 15.5612 31.8854 15.6094 31.7781C15.6576 31.6708 15.6827 31.5546 15.6831 31.4369C15.6835 31.3193 15.6592 31.2029 15.6118 31.0952C15.5644 30.9876 15.4949 30.8911 15.4078 30.812C15.3207 30.733 15.218 30.6731 15.1063 30.6362C14.9946 30.5993 14.8764 30.5864 14.7593 30.5981C13.0224 30.5964 11.3053 30.23 9.71894 29.5227C8.1326 28.8154 6.71243 27.7829 5.55032 26.4921C3.77989 24.6001 2.65892 22.1928 2.35031 19.6201C1.93762 16.4511 2.74575 13.2438 4.6108 10.6488C6.47584 8.05373 9.25814 6.26524 12.3933 5.6461C13.1799 5.51664 13.9738 5.43582 14.7703 5.4041C15.0037 5.41171 15.2307 5.32709 15.4021 5.16856C15.5736 5.01003 15.6757 4.79036 15.6863 4.5571C15.6823 4.44094 15.6549 4.32677 15.6057 4.22148C15.5564 4.11619 15.4864 4.02195 15.3998 3.94441C15.3132 3.86688 15.2118 3.80766 15.1018 3.77031C14.9917 3.73297 14.8752 3.71827 14.7593 3.7271C11.5692 3.74713 8.47777 4.83501 5.97815 6.81716C3.47853 8.79931 1.71479 11.5615 0.968317 14.6631C0.706285 15.7559 0.576355 16.8763 0.581316 18.0001"
            fill="#0969DA" />
        <path
            d="M14.7633 32.3211C13.5516 32.3209 12.3451 32.1626 11.1743 31.8501C8.11967 31.0416 5.41883 29.2441 3.4937 26.7384C1.56857 24.2327 0.527575 21.16 0.533329 18.0001C0.527268 16.8726 0.657547 15.7484 0.921329 14.6521C1.66848 11.5467 3.43191 8.78001 5.93148 6.79155C8.43106 4.80309 11.5234 3.7069 14.7173 3.67714H14.7603C14.8828 3.66789 15.0059 3.6836 15.1222 3.72331C15.2385 3.76303 15.3455 3.82593 15.4367 3.9082C15.528 3.99047 15.6016 4.0904 15.6531 4.20195C15.7046 4.31349 15.7329 4.43433 15.7363 4.55714C15.7269 4.80383 15.6205 5.03682 15.4401 5.20539C15.2597 5.37395 15.0201 5.46444 14.7733 5.45714L14.3403 5.48614C13.6908 5.51506 13.0438 5.58588 12.4033 5.69814C9.28235 6.31728 6.51355 8.09992 4.65813 10.6847C2.80272 13.2695 1.99951 16.4631 2.41133 19.6181C2.7202 22.1795 3.83561 24.5764 5.59632 26.4621C6.75549 27.7459 8.17043 28.773 9.7502 29.4774C11.33 30.1818 13.0396 30.5479 14.7693 30.5521C14.8923 30.5416 15.016 30.5567 15.1328 30.5965C15.2496 30.6364 15.3568 30.7001 15.4476 30.7837C15.5384 30.8672 15.6108 30.9688 15.6602 31.0818C15.7096 31.1949 15.7349 31.317 15.7346 31.4404C15.7342 31.5638 15.7082 31.6857 15.6582 31.7985C15.6081 31.9113 15.5351 32.0124 15.4439 32.0954C15.3526 32.1785 15.245 32.2416 15.1281 32.2808C15.0111 32.32 14.8872 32.3344 14.7643 32.3231L14.7633 32.3211ZM14.7173 3.77714C11.5454 3.80672 8.47444 4.89545 5.99222 6.87035C3.51 8.84526 1.75896 11.593 1.01732 14.6771C0.755437 15.7659 0.62617 16.8823 0.632328 18.0021C0.62645 21.1401 1.66013 24.1916 3.5719 26.6799C5.48366 29.1683 8.16582 30.9533 11.1993 31.7561C12.3616 32.0665 13.5594 32.2238 14.7623 32.2241C14.8725 32.236 14.984 32.2244 15.0895 32.1903C15.195 32.1563 15.2921 32.1004 15.3745 32.0263C15.457 31.9522 15.5229 31.8616 15.5681 31.7603C15.6132 31.6591 15.6365 31.5495 15.6365 31.4386C15.6365 31.3278 15.6132 31.2182 15.5681 31.1169C15.5229 31.0157 15.457 30.9251 15.3745 30.851C15.2921 30.7769 15.195 30.721 15.0895 30.6869C14.984 30.6528 14.8725 30.6413 14.7623 30.6531C13.019 30.6492 11.2958 30.2804 9.70362 29.5705C8.1114 28.8606 6.68539 27.8253 5.51732 26.5311C3.74214 24.63 2.61761 22.2135 2.30632 19.6311C1.89058 16.4497 2.70055 13.2293 4.57191 10.6231C6.44327 8.01686 9.2359 6.22006 12.3833 5.59714C13.028 5.48418 13.6794 5.41304 14.3333 5.38414L14.7653 5.35514C14.9865 5.36329 15.2019 5.28383 15.3648 5.13403C15.5277 4.98423 15.6249 4.7762 15.6353 4.55514C15.6316 4.44539 15.6057 4.33754 15.5591 4.23812C15.5125 4.1387 15.4461 4.04978 15.3641 3.97676C15.2821 3.90373 15.1862 3.84812 15.082 3.81329C14.9779 3.77846 14.8678 3.76514 14.7583 3.77414L14.7173 3.77714Z"
            fill="#0969DA" />
        <path
            d="M27.6273 24.2002C27.641 24.0156 27.593 23.8317 27.491 23.6774C27.3889 23.523 27.2385 23.4069 27.0633 23.3472C26.8969 23.2837 26.7138 23.2789 26.5442 23.3334C26.3746 23.3879 26.2286 23.4986 26.1303 23.6472C25.8303 24.1212 25.5393 24.6092 25.2763 25.1072C25.1846 25.292 25.1669 25.5049 25.2269 25.7023C25.287 25.8997 25.4202 26.0667 25.5993 26.1692C25.7737 26.2802 25.9843 26.3194 26.1869 26.2785C26.3896 26.2377 26.5685 26.12 26.6863 25.9502C26.9993 25.4702 27.2783 24.9682 27.5593 24.4692C27.5973 24.383 27.6203 24.291 27.6273 24.1972"
            fill="#0969DA" />
        <path
            d="M26.0393 26.3452C25.8743 26.3446 25.7124 26.3 25.5703 26.2162C25.3807 26.1067 25.2399 25.9293 25.1764 25.7198C25.1129 25.5103 25.1314 25.2845 25.2283 25.0882C25.4893 24.5942 25.7783 24.1012 26.0843 23.6252C26.1576 23.509 26.2596 23.4137 26.3805 23.3483C26.5013 23.283 26.637 23.2499 26.7743 23.2522C26.8763 23.2524 26.9776 23.269 27.0743 23.3012C27.2596 23.364 27.4189 23.4864 27.5274 23.6491C27.6359 23.8119 27.6876 24.006 27.6743 24.2012V24.2132C27.6743 24.2222 27.6743 24.2362 27.6683 24.2532C27.6618 24.3384 27.6391 24.4215 27.6013 24.4982L27.5273 24.6292C27.2743 25.0782 27.0133 25.5432 26.7273 25.9822C26.653 26.0962 26.5508 26.1894 26.4304 26.253C26.31 26.3165 26.1754 26.3482 26.0393 26.3452ZM26.7743 23.3512C26.6538 23.3495 26.5349 23.3787 26.4288 23.4359C26.3228 23.4932 26.2331 23.5766 26.1683 23.6782C25.8633 24.1532 25.5763 24.6422 25.3163 25.1342C25.2294 25.3077 25.212 25.5079 25.2678 25.6937C25.3236 25.8796 25.4482 26.0372 25.6163 26.1342C25.7432 26.2094 25.8878 26.2494 26.0353 26.2502C26.1541 26.2525 26.2715 26.2244 26.3765 26.1688C26.4814 26.1132 26.5705 26.0318 26.6353 25.9322C26.9203 25.4962 27.1813 25.0322 27.4353 24.5852L27.5093 24.4542C27.5405 24.3889 27.5592 24.3184 27.5643 24.2462C27.5643 24.2282 27.5643 24.2132 27.5703 24.2022C27.5819 24.0292 27.5363 23.8572 27.4405 23.7126C27.3447 23.5681 27.2041 23.459 27.0403 23.4022C26.9565 23.3717 26.8684 23.3545 26.7793 23.3512H26.7743Z"
            fill="#0969DA" />
        <path
            d="M28.1803 17.1172C28.2989 17.1188 28.4164 17.0947 28.5248 17.0466C28.6331 16.9985 28.7298 16.9275 28.8081 16.8384C28.8864 16.7494 28.9445 16.6445 28.9784 16.5308C29.0122 16.4172 29.0211 16.2976 29.0043 16.1802C28.9263 15.6592 28.8283 15.1412 28.7113 14.6272C28.6911 14.5148 28.6477 14.4079 28.5838 14.3133C28.52 14.2187 28.437 14.1385 28.3404 14.0777C28.2437 14.017 28.1354 13.9772 28.0224 13.9607C27.9095 13.9443 27.7943 13.9516 27.6843 13.9822C27.4675 14.0413 27.2828 14.1836 27.1704 14.3782C27.058 14.5728 27.0271 14.8039 27.0843 15.0212C27.1763 15.4832 27.2623 15.9462 27.3463 16.4102C27.3759 16.6089 27.4767 16.7901 27.63 16.92C27.7832 17.0498 27.9785 17.1196 28.1793 17.1162"
            fill="#0969DA" />
        <path
            d="M28.1803 17.1672C27.9679 17.1701 27.7616 17.0961 27.5995 16.9588C27.4374 16.8215 27.3304 16.6302 27.2983 16.4202C27.1983 15.8762 27.1173 15.4352 27.0363 15.0322C26.9752 14.802 27.0078 14.557 27.1271 14.3508C27.2463 14.1446 27.4423 13.9941 27.6723 13.9322C27.7492 13.913 27.8281 13.9032 27.9073 13.9032C28.1104 13.903 28.3071 13.9742 28.4631 14.1044C28.619 14.2345 28.7242 14.4153 28.7603 14.6152C28.8773 15.1282 28.9763 15.6522 29.0533 16.1712C29.0722 16.2934 29.0641 16.4182 29.0295 16.5369C28.995 16.6556 28.9348 16.7653 28.8533 16.8582C28.7699 16.955 28.6666 17.0327 28.5505 17.086C28.4344 17.1393 28.3081 17.167 28.1803 17.1672ZM27.9073 14.0042C27.8362 14.0042 27.7653 14.0129 27.6963 14.0302C27.4916 14.0857 27.3173 14.2202 27.2117 14.4041C27.1062 14.5881 27.078 14.8065 27.1333 15.0112C27.2133 15.4112 27.2963 15.8562 27.3953 16.4012C27.4236 16.5881 27.5186 16.7584 27.6627 16.8806C27.8068 17.0029 27.9903 17.0688 28.1793 17.0662C28.293 17.0667 28.4055 17.0427 28.509 16.9957C28.6126 16.9488 28.7048 16.88 28.7793 16.7942C28.851 16.7119 28.9038 16.6149 28.934 16.5101C28.9643 16.4052 28.9712 16.295 28.9543 16.1872C28.8773 15.6702 28.7793 15.1492 28.6623 14.6382C28.6307 14.4608 28.5378 14.3002 28.3998 14.1843C28.2618 14.0684 28.0875 14.0047 27.9073 14.0042Z"
            fill="#0969DA" />
        <path
            d="M19.7683 29.6471C19.6671 29.6662 19.567 29.6906 19.4683 29.7201C19.0383 29.8611 18.6123 30.0121 18.1823 30.1531C17.9688 30.2089 17.786 30.3467 17.6737 30.5366C17.5613 30.7265 17.5285 30.9531 17.5823 31.1671C17.6043 31.2722 17.6476 31.3718 17.7094 31.4596C17.7713 31.5474 17.8504 31.6217 17.942 31.6779C18.0335 31.7341 18.1356 31.771 18.2419 31.7863C18.3483 31.8017 18.4566 31.7951 18.5603 31.7671C19.1216 31.6167 19.673 31.4317 20.2113 31.2131C20.3866 31.1327 20.5269 30.9917 20.6065 30.816C20.6861 30.6403 20.6995 30.4419 20.6443 30.2571C20.5867 30.072 20.4687 29.9116 20.3092 29.8016C20.1496 29.6915 19.9578 29.6382 19.7643 29.6501"
            fill="#0969DA" />
        <path
            d="M18.3533 31.8421C18.1623 31.8398 17.9777 31.7729 17.8296 31.6524C17.6814 31.5318 17.5784 31.3646 17.5373 31.1781C17.4791 30.9524 17.5126 30.7129 17.6305 30.5119C17.7484 30.3108 17.941 30.1646 18.1663 30.1051C18.3813 30.0351 18.5983 29.9601 18.8093 29.8891C19.0203 29.8181 19.2373 29.7431 19.4523 29.6731C19.5357 29.6473 19.6205 29.6262 19.7063 29.6101L19.7563 29.5991H19.7683C19.9728 29.5881 20.1752 29.6457 20.3433 29.7627C20.5114 29.8797 20.6356 30.0495 20.6963 30.2451C20.7547 30.4415 20.74 30.6525 20.6548 30.8389C20.5697 31.0253 20.42 31.1746 20.2333 31.2591C19.6931 31.4787 19.1397 31.6644 18.5763 31.8151C18.5034 31.8336 18.4285 31.8426 18.3533 31.8421ZM19.7733 29.6971L19.7263 29.7071C19.6442 29.7225 19.5631 29.7425 19.4833 29.7671C19.2693 29.8371 19.0513 29.9111 18.8413 29.9831C18.6313 30.0551 18.4123 30.1291 18.1973 30.2001C17.9965 30.2528 17.8247 30.3828 17.7194 30.5617C17.6141 30.7406 17.5839 30.954 17.6353 31.1551C17.6712 31.3198 17.7618 31.4674 17.8924 31.574C18.023 31.6806 18.1858 31.7399 18.3543 31.7421C18.4218 31.7421 18.4891 31.7334 18.5543 31.7161C19.1136 31.5665 19.663 31.3821 20.1993 31.1641C20.3648 31.0893 20.497 30.9563 20.5708 30.7903C20.6446 30.6244 20.6547 30.4371 20.5993 30.2641C20.5437 30.0916 20.4324 29.9424 20.283 29.8398C20.1335 29.7372 19.9543 29.687 19.7733 29.6971Z"
            fill="#0969DA" />
        <path
            d="M29.0173 19.7861C29.0283 19.1461 28.7303 18.7861 28.3003 18.7281C28.0959 18.7004 27.8885 18.7509 27.7198 18.8696C27.551 18.9883 27.4333 19.1664 27.3903 19.3681C27.2743 19.9101 27.1773 20.4571 27.1083 21.0071C27.0879 21.2127 27.146 21.4183 27.2711 21.5827C27.3961 21.7471 27.5788 21.858 27.7823 21.8931C27.9808 21.9315 28.1864 21.8946 28.359 21.7895C28.5317 21.6845 28.6591 21.519 28.7163 21.3251C28.8543 20.7611 28.9423 20.1841 29.0173 19.7861Z"
            fill="#0969DA" />
        <path
            d="M27.9273 21.9562C27.8753 21.9562 27.8235 21.9515 27.7723 21.9422C27.5559 21.9057 27.3615 21.788 27.2288 21.6132C27.0961 21.4383 27.0352 21.2194 27.0583 21.0012C27.1243 20.4782 27.2193 19.9252 27.3413 19.3582C27.3822 19.1629 27.4894 18.9878 27.6447 18.8626C27.8 18.7373 27.9938 18.6697 28.1933 18.6712C28.2314 18.6711 28.2695 18.6734 28.3073 18.6782C28.7943 18.7412 29.0793 19.1552 29.0683 19.7862V19.7952C29.0473 19.9062 29.0253 20.0302 29.0013 20.1652C28.9413 20.5052 28.8663 20.9282 28.7663 21.3372C28.7146 21.5186 28.6042 21.6778 28.4524 21.7898C28.3006 21.9018 28.1159 21.9603 27.9273 21.9562ZM28.1923 18.7712C28.0158 18.7699 27.8443 18.8298 27.7068 18.9406C27.5694 19.0515 27.4745 19.2064 27.4383 19.3792C27.3173 19.9432 27.2223 20.4932 27.1573 21.0132C27.1396 21.2057 27.1948 21.3978 27.312 21.5516C27.4292 21.7053 27.6 21.8094 27.7903 21.8432C27.8355 21.8513 27.8814 21.8553 27.9273 21.8552C28.0933 21.859 28.2559 21.8079 28.3898 21.7096C28.5236 21.6114 28.6212 21.4717 28.6673 21.3122C28.7673 20.9072 28.8373 20.5032 28.9003 20.1472C28.9243 20.0142 28.9453 19.8902 28.9663 19.7802C28.9743 19.2072 28.7233 18.8322 28.2923 18.7802C28.2592 18.775 28.2258 18.772 28.1923 18.7712Z"
            fill="#0969DA" />
        <path
            d="M21.8153 28.8572C21.8165 29.0066 21.856 29.1532 21.9301 29.2829C22.0042 29.4126 22.1104 29.5211 22.2385 29.598C22.3666 29.6749 22.5123 29.7176 22.6616 29.722C22.811 29.7264 22.9589 29.6924 23.0913 29.6232C23.5971 29.2815 24.0734 28.8982 24.5153 28.4772C24.6576 28.3271 24.7362 28.1278 24.7347 27.9211C24.7332 27.7143 24.6517 27.5162 24.5073 27.3682C24.3688 27.2159 24.1783 27.1212 23.9733 27.1027C23.7683 27.0842 23.5639 27.1432 23.4003 27.2682C22.9753 27.5962 22.5513 27.9272 22.1573 28.2902C22.0166 28.4628 21.9015 28.6548 21.8153 28.8602"
            fill="#0969DA" />
        <path
            d="M22.6953 29.7941C22.4541 29.7775 22.227 29.674 22.0562 29.5028C21.8854 29.3316 21.7824 29.1044 21.7663 28.8631V28.8471L21.7743 28.8331C21.8083 28.7741 21.8393 28.7101 21.8743 28.6471C21.9337 28.4991 22.0202 28.3634 22.1293 28.2471C22.5153 27.8911 22.9223 27.5721 23.3763 27.2221C23.5261 27.1056 23.7106 27.0426 23.9003 27.0431C24.0226 27.0433 24.1436 27.0689 24.2555 27.1183C24.3674 27.1677 24.4678 27.2398 24.5503 27.3301C24.7035 27.4878 24.7895 27.6988 24.7905 27.9186C24.7914 28.1384 24.7071 28.3501 24.5553 28.5091C24.1112 28.9322 23.6325 29.3176 23.1243 29.6611C22.9978 29.7473 22.8484 29.7936 22.6953 29.7941ZM21.8673 28.8701C21.8834 29.084 21.9759 29.285 22.1279 29.4363C22.2799 29.5876 22.4814 29.6791 22.6953 29.6941C22.8267 29.6938 22.955 29.6549 23.0643 29.5821C23.5675 29.2418 24.0415 28.8601 24.4813 28.4411C24.6136 28.2998 24.6863 28.1128 24.684 27.9192C24.6818 27.7256 24.6049 27.5403 24.4693 27.4021C24.3961 27.3222 24.3071 27.2584 24.208 27.2147C24.1088 27.1709 24.0017 27.1483 23.8933 27.1481C23.7257 27.1476 23.5627 27.2032 23.4303 27.3061C22.9783 27.6551 22.5733 27.9721 22.1903 28.3251C22.0909 28.4318 22.012 28.5559 21.9573 28.6911C21.9293 28.7501 21.8993 28.8111 21.8693 28.8691L21.8673 28.8701Z"
            fill="#0969DA" />
    </g>
    <mask id="mask1_36_3401" style="mask-type:luminance" maskUnits="userSpaceOnUse" x="23" y="0"
        width="6" height="9">
        <path d="M28.5813 0.387207H23.0933V8.88721H28.5813V0.387207Z" fill="white" />
    </mask>
    <g mask="url(#mask1_36_3401)">
        <path
            d="M25.2743 5.28723H25.1743C24.613 5.28723 24.052 5.28723 23.4913 5.28723C23.4351 5.29013 23.3788 5.28439 23.3243 5.27023C23.2403 5.2429 23.1704 5.18368 23.1296 5.10531C23.0889 5.02695 23.0805 4.93571 23.1063 4.85123C23.4423 3.45856 23.7793 2.0659 24.1173 0.673231C24.132 0.587725 24.1784 0.51087 24.2471 0.457898C24.3158 0.404926 24.4019 0.379704 24.4883 0.387231H26.5453C26.6015 0.381961 26.658 0.390735 26.7099 0.412762C26.7618 0.43479 26.8074 0.469381 26.8427 0.513419C26.8779 0.557457 26.9016 0.609561 26.9116 0.66504C26.9217 0.720518 26.9178 0.777629 26.9003 0.831231C26.7003 1.66723 26.5003 2.50323 26.3003 3.33923C26.3003 3.35223 26.3003 3.36523 26.2923 3.38723H26.3923C26.9823 3.38723 27.5743 3.38723 28.1653 3.38723C28.2444 3.3798 28.3239 3.39755 28.3923 3.43796C28.4607 3.47836 28.5146 3.53936 28.5463 3.61223C28.5749 3.6756 28.586 3.74548 28.5785 3.8146C28.5709 3.88372 28.545 3.94955 28.5033 4.00523C28.2307 4.42456 27.9573 4.84556 27.6833 5.26823C26.952 6.39623 26.2223 7.5249 25.4943 8.65423C25.4539 8.73013 25.3921 8.79248 25.3165 8.83355C25.241 8.87461 25.155 8.89258 25.0693 8.88523C24.9923 8.88023 24.9133 8.89123 24.8373 8.88023C24.7844 8.8731 24.7335 8.85477 24.6882 8.82645C24.6429 8.79813 24.6042 8.76048 24.5745 8.71601C24.5449 8.67153 24.5251 8.62126 24.5165 8.56853C24.5078 8.51581 24.5105 8.46184 24.5243 8.41023C24.7657 7.41023 25.0077 6.40823 25.2503 5.40423C25.2583 5.37023 25.2653 5.33523 25.2763 5.29023"
            fill="#0969DA" />
    </g>
    <path
        d="M6.58434 14.6652C6.58434 13.8362 6.57634 13.0062 6.58434 12.1772C6.59334 11.5182 6.84734 11.2602 7.50634 11.2562C8.05701 11.2324 8.6087 11.2518 9.15634 11.3142C9.44281 11.3518 9.7168 11.4547 9.95721 11.615C10.1976 11.7753 10.398 11.9886 10.5429 12.2386C10.6879 12.4885 10.7735 12.7684 10.7931 13.0567C10.8128 13.3449 10.766 13.6338 10.6563 13.9012C10.608 13.9982 10.5925 14.1083 10.6121 14.2149C10.6318 14.3215 10.6856 14.4188 10.7653 14.4922C11.0271 14.7855 11.1987 15.1482 11.2595 15.5366C11.3203 15.9251 11.2679 16.3228 11.1083 16.6822C10.9753 17.0526 10.7359 17.3755 10.4202 17.6105C10.1044 17.8455 9.72636 17.9821 9.33334 18.0032C8.66945 18.0505 8.00351 18.0625 7.33834 18.0392C6.84834 18.0252 6.59534 17.7322 6.58534 17.2032C6.57034 16.3582 6.58534 15.5122 6.58534 14.6662L6.58434 14.6652ZM8.04834 15.8702C8.04834 16.5772 8.04834 16.5772 8.64834 16.5772C9.44834 16.5772 9.81634 16.3522 9.81434 15.8672C9.81234 15.3822 9.45134 15.1612 8.69434 15.1602C8.04534 15.1602 8.04534 15.1602 8.04534 15.8692M8.07634 13.6362C8.94134 13.7782 9.33034 13.6482 9.34034 13.2282C9.34834 12.8812 9.07234 12.7122 8.50534 12.7162C8.00534 12.7162 7.99334 12.7422 8.07634 13.6362Z"
        fill="#0969DA" />
    <path
        d="M17.2693 13.9331C17.2693 14.4861 17.2693 15.0391 17.2693 15.5921C17.2351 16.2428 16.956 16.8563 16.488 17.3096C16.0201 17.7629 15.3979 18.0224 14.7466 18.036C14.0952 18.0495 13.4628 17.8161 12.9764 17.3827C12.49 16.9492 12.1856 16.3478 12.1243 15.6991C12.0843 14.4991 12.1053 13.2921 12.1173 12.0881C12.11 11.9862 12.1231 11.8838 12.1559 11.787C12.1886 11.6902 12.2404 11.6009 12.3081 11.5243C12.3758 11.4478 12.4581 11.3855 12.5502 11.3412C12.6423 11.2968 12.7423 11.2713 12.8443 11.2661C13.2833 11.2581 13.5713 11.5821 13.5743 12.1141C13.5803 13.2201 13.5743 14.3261 13.5743 15.4331C13.5694 15.5824 13.5944 15.7311 13.648 15.8706C13.7015 16.01 13.7825 16.1372 13.8862 16.2447C13.9898 16.3523 14.114 16.4379 14.2513 16.4966C14.3887 16.5553 14.5364 16.5858 14.6857 16.5863C14.8351 16.5868 14.983 16.5574 15.1208 16.4997C15.2585 16.442 15.3833 16.3573 15.4877 16.2505C15.5921 16.1437 15.674 16.017 15.7286 15.878C15.7831 15.739 15.8092 15.5904 15.8053 15.4411C15.8053 14.3511 15.8053 13.2611 15.8053 12.1711C15.8053 11.6021 16.0843 11.2641 16.5343 11.2711C16.9843 11.2781 17.2613 11.6161 17.2653 12.1811C17.2653 12.7671 17.2653 13.3521 17.2653 13.9381"
        fill="#0969DA" />
    <path
        d="M20.6643 13.2392C21.0133 12.7092 21.3303 12.2232 21.6533 11.7392C21.6996 11.6398 21.7666 11.5516 21.8498 11.4803C21.933 11.409 22.0305 11.3564 22.1358 11.3259C22.2411 11.2955 22.3517 11.288 22.4601 11.3039C22.5685 11.3199 22.6722 11.3588 22.7643 11.4182C23.1113 11.6612 23.1563 12.0852 22.8643 12.5422C22.4543 13.1872 22.0173 13.8142 21.6293 14.4722C21.4896 14.7208 21.4092 14.9984 21.3943 15.2832C21.3593 15.9332 21.3873 16.5832 21.3753 17.2362C21.3864 17.334 21.3773 17.4331 21.3485 17.5273C21.3197 17.6215 21.272 17.7087 21.2081 17.7837C21.1443 17.8587 21.0658 17.9198 20.9774 17.9632C20.889 18.0066 20.7927 18.0315 20.6943 18.0362C20.5922 18.0389 20.4906 18.0209 20.3957 17.983C20.3008 17.9452 20.2146 17.8884 20.1423 17.8162C20.0701 17.744 20.0133 17.6577 19.9755 17.5628C19.9377 17.4679 19.9196 17.3663 19.9223 17.2642C19.9033 16.5642 19.9353 15.8642 19.9103 15.1642C19.9 14.9268 19.8313 14.6957 19.7103 14.4912C19.3103 13.8252 18.8633 13.1812 18.4433 12.5232C18.1433 12.0562 18.1943 11.6582 18.5613 11.4072C18.9453 11.1442 19.3533 11.2572 19.6703 11.7282C19.9873 12.1992 20.3093 12.6992 20.6643 13.2412"
        fill="#0969DA" />
    <path
        d="M7.83862 20.2344V23.3604H9.60229C9.74292 23.3604 9.85034 23.3945 9.92456 23.4629C10.0007 23.5312 10.0388 23.6172 10.0388 23.7207C10.0388 23.8262 10.0017 23.9121 9.92749 23.9785C9.85327 24.043 9.74487 24.0752 9.60229 24.0752H7.50171C7.31226 24.0752 7.17554 24.0332 7.09155 23.9492C7.00952 23.8652 6.96851 23.7295 6.96851 23.542V20.2344C6.96851 20.0586 7.00757 19.9268 7.08569 19.8389C7.16577 19.751 7.27026 19.707 7.39917 19.707C7.53003 19.707 7.6355 19.751 7.71558 19.8389C7.79761 19.9248 7.83862 20.0566 7.83862 20.2344ZM10.6482 23.6182V20.2344C10.6482 20.0586 10.6882 19.9268 10.7683 19.8389C10.8484 19.751 10.9519 19.707 11.0789 19.707C11.2097 19.707 11.3152 19.751 11.3953 19.8389C11.4773 19.9248 11.5183 20.0566 11.5183 20.2344V23.6182C11.5183 23.7959 11.4773 23.9287 11.3953 24.0166C11.3152 24.1045 11.2097 24.1484 11.0789 24.1484C10.9539 24.1484 10.8503 24.1045 10.7683 24.0166C10.6882 23.9268 10.6482 23.7939 10.6482 23.6182ZM13.9441 23.4277L13.2556 20.6914V23.6562C13.2556 23.8203 13.2185 23.9434 13.1443 24.0254C13.072 24.1074 12.9753 24.1484 12.8542 24.1484C12.7371 24.1484 12.6414 24.1084 12.5671 24.0283C12.4929 23.9463 12.4558 23.8223 12.4558 23.6562V20.2578C12.4558 20.0703 12.5046 19.9443 12.6023 19.8799C12.7 19.8135 12.8318 19.7803 12.9978 19.7803H13.2673C13.4294 19.7803 13.5466 19.7949 13.6189 19.8242C13.6931 19.8535 13.7478 19.9062 13.783 19.9824C13.8181 20.0586 13.8582 20.1826 13.9031 20.3545L14.5271 22.707L15.1511 20.3545C15.196 20.1826 15.2361 20.0586 15.2712 19.9824C15.3064 19.9062 15.3601 19.8535 15.4324 19.8242C15.5066 19.7949 15.6248 19.7803 15.7869 19.7803H16.0564C16.2224 19.7803 16.3542 19.8135 16.4519 19.8799C16.5496 19.9443 16.5984 20.0703 16.5984 20.2578V23.6562C16.5984 23.8203 16.5613 23.9434 16.4871 24.0254C16.4148 24.1074 16.3171 24.1484 16.1941 24.1484C16.0789 24.1484 15.9841 24.1074 15.9099 24.0254C15.8357 23.9434 15.7986 23.8203 15.7986 23.6562V20.6914L15.1101 23.4277C15.0652 23.6055 15.0281 23.7363 14.9988 23.8203C14.9714 23.9023 14.9197 23.9775 14.8435 24.0459C14.7673 24.1143 14.6619 24.1484 14.5271 24.1484C14.4255 24.1484 14.3396 24.126 14.2693 24.0811C14.199 24.0381 14.1443 23.9824 14.1052 23.9141C14.0662 23.8457 14.0349 23.7705 14.0115 23.6885C13.99 23.6045 13.9675 23.5176 13.9441 23.4277ZM17.5271 23.6182V20.2344C17.5271 20.0586 17.5671 19.9268 17.6472 19.8389C17.7273 19.751 17.8308 19.707 17.9578 19.707C18.0886 19.707 18.1941 19.751 18.2742 19.8389C18.3562 19.9248 18.3972 20.0566 18.3972 20.2344V23.6182C18.3972 23.7959 18.3562 23.9287 18.2742 24.0166C18.1941 24.1045 18.0886 24.1484 17.9578 24.1484C17.8328 24.1484 17.7292 24.1045 17.6472 24.0166C17.5671 23.9268 17.5271 23.7939 17.5271 23.6182ZM22.1619 20.498H21.2126V23.6182C21.2126 23.7979 21.1726 23.9316 21.0925 24.0195C21.0125 24.1055 20.9089 24.1484 20.782 24.1484C20.6531 24.1484 20.5476 24.1045 20.4656 24.0166C20.3855 23.9287 20.3455 23.7959 20.3455 23.6182V20.498H19.3962C19.2478 20.498 19.1375 20.4658 19.0652 20.4014C18.9929 20.335 18.9568 20.248 18.9568 20.1406C18.9568 20.0293 18.9939 19.9414 19.0681 19.877C19.1443 19.8125 19.2537 19.7803 19.3962 19.7803H22.1619C22.3123 19.7803 22.4236 19.8135 22.4958 19.8799C22.5701 19.9463 22.6072 20.0332 22.6072 20.1406C22.6072 20.248 22.5701 20.335 22.4958 20.4014C22.4216 20.4658 22.3103 20.498 22.1619 20.498Z"
        fill="#0969DA" />
</svg>
