<svg width="30" height="30" viewBox="0 0 30 30" fill="none" xmlns="http://www.w3.org/2000/svg">
    <path
        d="M14.7993 29.3724C11.0285 29.3724 7.41208 27.8744 4.74568 25.208C2.07929 22.5417 0.581329 18.9252 0.581329 15.1544C0.581329 11.3836 2.07929 7.76715 4.74568 5.10076C7.41208 2.43436 11.0285 0.936401 14.7993 0.936401C15.0624 0.936401 15.3147 1.04092 15.5008 1.22695C15.6868 1.41299 15.7913 1.66531 15.7913 1.9284C15.7913 2.1915 15.6868 2.44382 15.5008 2.62985C15.3147 2.81589 15.0624 2.9204 14.7993 2.9204C12.3797 2.9202 10.0143 3.63752 8.00232 4.98165C5.99033 6.32577 4.42211 8.23633 3.49597 10.4717C2.56982 12.7071 2.32735 15.167 2.79921 17.5402C3.27106 19.9134 4.43606 22.0933 6.14688 23.8044C7.85769 25.5155 10.0375 26.6809 12.4106 27.1531C14.7837 27.6254 17.2436 27.3833 19.4792 26.4575C21.7147 25.5317 23.6255 23.9638 24.97 21.9521C26.3144 19.9403 27.0321 17.5751 27.0323 15.1554C27.0323 14.8923 27.1368 14.64 27.3229 14.454C27.5089 14.2679 27.7612 14.1634 28.0243 14.1634C28.2874 14.1634 28.5397 14.2679 28.7258 14.454C28.9118 14.64 29.0163 14.8923 29.0163 15.1554C29.0129 18.9249 27.5139 22.5391 24.8485 25.2045C22.183 27.87 18.5689 29.369 14.7993 29.3724Z"
        fill="#FF6470" />
    <path
        d="M21.4153 2.23535C21.6778 2.23744 21.9289 2.34263 22.1145 2.52821C22.3001 2.7138 22.4052 2.9649 22.4073 3.22735V7.52735H26.7073C26.9704 7.52735 27.2227 7.63187 27.4088 7.8179C27.5948 8.00394 27.6993 8.25626 27.6993 8.51935C27.6993 8.78245 27.5948 9.03477 27.4088 9.2208C27.2227 9.40684 26.9704 9.51135 26.7073 9.51135H21.4173C21.1549 9.50926 20.9038 9.40407 20.7182 9.21849C20.5326 9.03291 20.4274 8.7818 20.4253 8.51935V3.22935C20.4269 2.9669 20.5316 2.71558 20.7168 2.52962C20.902 2.34366 21.1529 2.23797 21.4153 2.23535Z"
        fill="#FF6470" />
    <path
        d="M28.0283 0.911381C28.1585 0.911026 28.2874 0.936572 28.4076 0.986532C28.5278 1.03649 28.6368 1.10987 28.7283 1.20238C28.9116 1.38931 29.0142 1.64063 29.0142 1.90238C29.0142 2.16413 28.9116 2.41545 28.7283 2.60238L22.1163 9.22138C21.928 9.39316 21.6806 9.48573 21.4258 9.47986C21.1709 9.47399 20.9281 9.37013 20.7478 9.18987C20.5676 9.0096 20.4637 8.7668 20.4579 8.51194C20.452 8.25707 20.5446 8.00975 20.7163 7.82138L27.3273 1.21138C27.4182 1.11712 27.5271 1.04201 27.6475 0.990486C27.7679 0.938962 27.8974 0.912065 28.0283 0.911381Z"
        fill="#FF6470" />
    <path
        d="M10.5343 16.2504C10.5305 16.5506 10.4667 16.847 10.3466 17.1221C10.2264 17.3972 10.0524 17.6455 9.83477 17.8523C9.61716 18.0591 9.36033 18.2203 9.07945 18.3263C8.79857 18.4322 8.49931 18.4809 8.19932 18.4694C7.76502 18.4817 7.33277 18.4054 6.92892 18.2451C6.52507 18.0849 6.15808 17.8441 5.85032 17.5374C5.45032 17.1374 5.42032 16.7374 5.75032 16.3984C5.82377 16.3242 5.91179 16.266 6.00882 16.2275C6.10584 16.189 6.20979 16.1709 6.31413 16.1745C6.41847 16.178 6.52096 16.2032 6.61512 16.2482C6.70929 16.2933 6.79311 16.3574 6.86133 16.4364C7.05503 16.6441 7.29988 16.7973 7.57136 16.8806C7.84285 16.964 8.13145 16.9746 8.40832 16.9114C8.5349 16.8728 8.65177 16.8076 8.75111 16.7202C8.85045 16.6327 8.92997 16.5251 8.98433 16.4044C9.02633 16.2734 8.75632 15.9504 8.55732 15.8484C8.08832 15.6064 7.57233 15.4554 7.08433 15.2484C6.70279 15.1188 6.37397 14.8681 6.14782 14.5346C5.92168 14.2011 5.81055 13.8029 5.83133 13.4004C5.87189 12.974 6.04719 12.5717 6.33181 12.2516C6.61644 11.9316 6.99559 11.7105 7.41432 11.6204C7.87095 11.5199 8.34431 11.523 8.7996 11.6294C9.2549 11.7358 9.68057 11.9429 10.0453 12.2354C10.1259 12.2885 10.195 12.3571 10.2488 12.4372C10.3025 12.5174 10.3398 12.6074 10.3584 12.702C10.377 12.7967 10.3766 12.8941 10.3572 12.9886C10.3378 13.0831 10.2997 13.1728 10.2453 13.2524C10.194 13.339 10.1248 13.4137 10.0424 13.4715C9.95999 13.5294 9.86625 13.5691 9.76736 13.588C9.66848 13.6069 9.5667 13.6046 9.46878 13.5812C9.37085 13.5578 9.27901 13.5139 9.19932 13.4524C9.00782 13.2915 8.78243 13.176 8.53999 13.1146C8.29755 13.0531 8.04435 13.0472 7.79933 13.0974C7.62233 13.1524 7.49033 13.3514 7.33833 13.4854C7.46833 13.6164 7.57532 13.7964 7.73132 13.8684C8.21132 14.0924 8.72132 14.2554 9.20132 14.4794C9.57416 14.6087 9.90005 14.8461 10.1374 15.1614C10.3748 15.4766 10.513 15.8564 10.5343 16.2504Z"
        fill="#FF6470" />
    <path
        d="M13.0293 13.0704V14.2614C13.4653 14.2614 13.8783 14.2494 14.2903 14.2614C14.7903 14.2794 15.0783 14.5404 15.0973 14.9614C15.1036 15.0661 15.0874 15.171 15.0499 15.269C15.0123 15.367 14.9544 15.4559 14.8798 15.5297C14.8052 15.6035 14.7158 15.6606 14.6174 15.6971C14.519 15.7336 14.414 15.7487 14.3093 15.7414C13.8973 15.7674 13.4823 15.7464 13.0363 15.7464V16.9254C13.4803 16.9254 13.9083 16.9184 14.3363 16.9254C14.9083 16.9364 15.2723 17.2324 15.2783 17.6754C15.2843 18.1184 14.9303 18.4164 14.3523 18.4224C13.6863 18.4294 13.0203 18.4334 12.3523 18.4224C11.7743 18.4104 11.5093 18.1354 11.5073 17.5484C11.5013 15.8484 11.5013 14.1484 11.5073 12.4484C11.5073 11.8594 11.7733 11.5824 12.3493 11.5714C13.048 11.5581 13.748 11.5581 14.4493 11.5714C14.5531 11.5619 14.6577 11.5739 14.7567 11.6065C14.8557 11.6392 14.9469 11.6919 15.0246 11.7613C15.1024 11.8307 15.165 11.9153 15.2087 12.01C15.2523 12.1046 15.276 12.2072 15.2783 12.3114C15.2652 12.5215 15.1697 12.718 15.0127 12.8582C14.8556 12.9984 14.6496 13.0711 14.4393 13.0604C13.9783 13.0784 13.5163 13.0604 13.0303 13.0604"
        fill="#FF6470" />
    <path
        d="M17.7953 16.9794C18.2223 16.9794 18.5853 16.9724 18.9473 16.9794C19.0394 16.9742 19.1317 16.9872 19.2188 17.0177C19.3058 17.0482 19.386 17.0956 19.4547 17.1573C19.5234 17.2189 19.5792 17.2935 19.6189 17.3767C19.6587 17.46 19.6816 17.5503 19.6863 17.6424C19.702 17.7381 19.6971 17.836 19.6721 17.9297C19.6471 18.0234 19.6025 18.1106 19.5413 18.1858C19.48 18.2609 19.4035 18.3222 19.3168 18.3656C19.2301 18.409 19.1352 18.4335 19.0383 18.4374C18.3252 18.4739 17.6106 18.4669 16.8983 18.4164C16.8094 18.4095 16.7228 18.3845 16.6438 18.3429C16.5649 18.3014 16.4952 18.2442 16.4391 18.1749C16.3829 18.1056 16.3415 18.0255 16.3173 17.9396C16.2931 17.8538 16.2866 17.7639 16.2983 17.6754C16.2923 15.8934 16.2923 14.1114 16.2983 12.3294C16.2922 12.2271 16.3073 12.1247 16.3426 12.0284C16.3779 11.9322 16.4326 11.8443 16.5034 11.7701C16.5741 11.696 16.6594 11.6372 16.7539 11.5975C16.8484 11.5578 16.9501 11.5379 17.0525 11.5392C17.155 11.5406 17.2561 11.563 17.3496 11.6051C17.443 11.6472 17.5268 11.7081 17.5956 11.7841C17.6645 11.86 17.7169 11.9493 17.7498 12.0464C17.7826 12.1435 17.795 12.2463 17.7863 12.3484C17.7943 13.8624 17.7863 15.3774 17.7863 16.9784"
        fill="#FF6470" />
    <path
        d="M22.1813 16.9784C22.6083 16.9784 22.9553 16.9664 23.3013 16.9784C23.494 16.9744 23.6809 17.044 23.8241 17.1729C23.9674 17.3018 24.0561 17.4804 24.0723 17.6724C24.0814 17.8665 24.0136 18.0563 23.8837 18.2008C23.7538 18.3453 23.5723 18.4328 23.3783 18.4444C22.6817 18.4724 21.9842 18.4651 21.2883 18.4224C21.2036 18.4205 21.1202 18.4011 21.0433 18.3655C20.9665 18.3299 20.8977 18.2788 20.8414 18.2155C20.7851 18.1522 20.7425 18.0779 20.7161 17.9974C20.6898 17.9169 20.6803 17.8318 20.6883 17.7474C20.6803 15.9174 20.6773 14.0874 20.6883 12.2574C20.6869 12.1612 20.7051 12.0656 20.7417 11.9766C20.7783 11.8875 20.8326 11.8069 20.9014 11.7394C20.9701 11.672 21.0518 11.6193 21.1415 11.5844C21.2312 11.5495 21.3271 11.5332 21.4233 11.5364C21.6262 11.5424 21.8184 11.6283 21.9583 11.7753C22.0982 11.9223 22.1744 12.1185 22.1703 12.3214C22.1913 13.1864 22.1783 14.0514 22.1783 14.9164C22.1783 15.5794 22.1783 16.2424 22.1783 16.9764"
        fill="#FF6470" />
</svg>
