<svg width="29" height="31" viewBox="0 0 29 31" fill="none" xmlns="http://www.w3.org/2000/svg">
    <path
        d="M14.4703 30.9393C12.6364 30.9549 10.8176 30.6071 9.11879 29.916C7.41998 29.225 5.87485 28.2044 4.57254 26.9131C3.27023 25.6218 2.23654 24.0854 1.53111 22.3925C0.825685 20.6996 0.462494 18.8838 0.462494 17.0498C0.462494 15.2158 0.825685 13.4 1.53111 11.7071C2.23654 10.0142 3.27023 8.4778 4.57254 7.1865C5.87485 5.89519 7.41998 4.87457 9.11879 4.18354C10.8176 3.4925 12.6364 3.14473 14.4703 3.16029C14.7273 3.16029 14.9738 3.26238 15.1555 3.4441C15.3373 3.62583 15.4393 3.8723 15.4393 4.12929C15.4393 4.38628 15.3373 4.63275 15.1555 4.81448C14.9738 4.9962 14.7273 5.09829 14.4703 5.09829C12.1067 5.09849 9.7962 5.79957 7.831 7.11288C5.8658 8.4262 4.33417 10.2928 3.42978 12.4765C2.52539 14.6603 2.28886 17.0632 2.75011 19.3814C3.21135 21.6996 4.34965 23.829 6.02107 25.5003C7.69249 27.1716 9.82195 28.3097 12.1402 28.7707C14.4584 29.2318 16.8613 28.9951 19.045 28.0905C21.2287 27.1859 23.0952 25.6541 24.4083 23.6888C25.7215 21.7235 26.4223 19.4129 26.4223 17.0493C26.4223 16.7923 26.5244 16.5458 26.7062 16.3641C26.8879 16.1824 27.1344 16.0803 27.3913 16.0803C27.6483 16.0803 27.8948 16.1824 28.0765 16.3641C28.2583 16.5458 28.3603 16.7923 28.3603 17.0493C28.3577 20.7323 26.8934 24.2638 24.2891 26.8681C21.6848 29.4724 18.1534 30.9366 14.4703 30.9393Z"
        fill="#0969DA" />
    <path
        d="M6.58434 14.7543C6.58434 13.9253 6.57634 13.0953 6.58434 12.2663C6.59334 11.6073 6.84734 11.3493 7.50634 11.3453C8.05701 11.3215 8.6087 11.3409 9.15634 11.4033C9.44281 11.4409 9.7168 11.5438 9.95721 11.7041C10.1976 11.8644 10.398 12.0777 10.5429 12.3277C10.6879 12.5776 10.7735 12.8575 10.7931 13.1458C10.8128 13.434 10.766 13.7229 10.6563 13.9903C10.608 14.0873 10.5925 14.1974 10.6121 14.304C10.6318 14.4106 10.6856 14.5079 10.7653 14.5813C11.0271 14.8747 11.1987 15.2373 11.2595 15.6257C11.3203 16.0142 11.2679 16.4119 11.1083 16.7713C10.9753 17.1417 10.7359 17.4646 10.4202 17.6996C10.1044 17.9346 9.72636 18.0712 9.33334 18.0923C8.66945 18.1396 8.00351 18.1516 7.33834 18.1283C6.84834 18.1143 6.59534 17.8213 6.58534 17.2923C6.57034 16.4473 6.58534 15.6013 6.58534 14.7553L6.58434 14.7543ZM8.04834 15.9593C8.04834 16.6663 8.04834 16.6663 8.64834 16.6663C9.44834 16.6663 9.81634 16.4413 9.81434 15.9563C9.81234 15.4713 9.45134 15.2503 8.69434 15.2493C8.04534 15.2493 8.04534 15.2493 8.04534 15.9583M8.07634 13.7253C8.94134 13.8673 9.33034 13.7373 9.34034 13.3173C9.34834 12.9703 9.07234 12.8013 8.50534 12.8053C8.00534 12.8053 7.99334 12.8313 8.07634 13.7253Z"
        fill="#0969DA" />
    <path
        d="M17.2693 14.0223C17.2693 14.5753 17.2693 15.1283 17.2693 15.6813C17.2351 16.3319 16.956 16.9454 16.488 17.3987C16.0201 17.852 15.3979 18.1115 14.7466 18.1251C14.0952 18.1386 13.4628 17.9052 12.9764 17.4718C12.49 17.0383 12.1856 16.4369 12.1243 15.7882C12.0843 14.5882 12.1053 13.3813 12.1173 12.1773C12.11 12.0753 12.1231 11.9729 12.1559 11.8761C12.1886 11.7793 12.2404 11.69 12.3081 11.6135C12.3758 11.5369 12.4581 11.4746 12.5502 11.4303C12.6423 11.386 12.7423 11.3604 12.8443 11.3552C13.2833 11.3472 13.5713 11.6713 13.5743 12.2033C13.5803 13.3093 13.5743 14.4153 13.5743 15.5223C13.5694 15.6715 13.5944 15.8203 13.648 15.9597C13.7015 16.0991 13.7825 16.2263 13.8862 16.3339C13.9898 16.4414 14.114 16.527 14.2513 16.5857C14.3887 16.6444 14.5364 16.6749 14.6857 16.6754C14.8351 16.6759 14.983 16.6465 15.1208 16.5888C15.2585 16.5311 15.3833 16.4464 15.4877 16.3396C15.5921 16.2328 15.674 16.1061 15.7286 15.9671C15.7831 15.8281 15.8092 15.6795 15.8053 15.5303C15.8053 14.4403 15.8053 13.3502 15.8053 12.2602C15.8053 11.6912 16.0843 11.3533 16.5343 11.3603C16.9843 11.3673 17.2613 11.7053 17.2653 12.2703C17.2653 12.8563 17.2653 13.4412 17.2653 14.0272"
        fill="#0969DA" />
    <path
        d="M20.6643 13.3283C21.0133 12.7983 21.3303 12.3123 21.6533 11.8283C21.6996 11.7289 21.7666 11.6407 21.8498 11.5694C21.933 11.4981 22.0305 11.4455 22.1358 11.4151C22.2411 11.3846 22.3517 11.3771 22.4601 11.3931C22.5685 11.409 22.6722 11.4479 22.7643 11.5073C23.1113 11.7503 23.1563 12.1743 22.8643 12.6313C22.4543 13.2763 22.0173 13.9033 21.6293 14.5613C21.4896 14.8099 21.4092 15.0875 21.3943 15.3723C21.3593 16.0223 21.3873 16.6723 21.3753 17.3253C21.3864 17.4231 21.3773 17.5222 21.3485 17.6164C21.3197 17.7106 21.272 17.7978 21.2081 17.8728C21.1443 17.9478 21.0658 18.0089 20.9774 18.0523C20.889 18.0957 20.7927 18.1206 20.6943 18.1253C20.5922 18.128 20.4906 18.11 20.3957 18.0721C20.3008 18.0343 20.2146 17.9775 20.1423 17.9053C20.0701 17.8331 20.0133 17.7469 19.9755 17.6519C19.9377 17.557 19.9196 17.4554 19.9223 17.3533C19.9033 16.6533 19.9353 15.9533 19.9103 15.2533C19.9 15.0159 19.8313 14.7848 19.7103 14.5803C19.3103 13.9143 18.8633 13.2703 18.4433 12.6123C18.1433 12.1453 18.1943 11.7473 18.5613 11.4963C18.9453 11.2333 19.3533 11.3463 19.6703 11.8173C19.9873 12.2883 20.3093 12.7883 20.6643 13.3303"
        fill="#0969DA" />
    <mask id="mask0_36_3373" style="mask-type:luminance" maskUnits="userSpaceOnUse" x="20" y="0"
        width="9" height="10">
        <path d="M28.5813 0.884277H20.0813V9.38028H28.5813V0.884277Z" fill="white" />
    </mask>
    <g mask="url(#mask0_36_3373)">
        <path
            d="M28.5813 5.15031C28.5781 5.99087 28.3258 6.81161 27.8562 7.50876C27.3865 8.2059 26.7207 8.74812 25.9429 9.06687C25.1652 9.38561 24.3103 9.46655 23.4865 9.29946C22.6627 9.13237 21.907 8.72475 21.3149 8.12815C20.7227 7.53154 20.3208 6.77275 20.1599 5.94772C19.999 5.12269 20.0864 4.26848 20.411 3.49312C20.7356 2.71775 21.2828 2.05604 21.9835 1.59168C22.6841 1.12732 23.5068 0.881149 24.3473 0.884307C24.9054 0.886405 25.4577 0.998412 25.9725 1.21393C26.4873 1.42946 26.9547 1.74427 27.3478 2.14041C27.741 2.53654 28.0523 3.00624 28.2639 3.52268C28.4756 4.03912 28.5834 4.59219 28.5813 5.15031ZM26.9433 3.32631L22.5233 7.74331C23.1342 8.17065 23.8761 8.36923 24.6188 8.3042C25.3615 8.23918 26.0576 7.91471 26.585 7.38771C27.1123 6.86071 27.4373 6.16484 27.5028 5.42218C27.5683 4.67952 27.3702 3.93751 26.9433 3.32631ZM26.1433 2.52631C25.5022 2.07251 24.715 1.87385 23.9353 1.96907C23.1556 2.06428 22.4394 2.44656 21.9263 3.04131C21.4569 3.57213 21.1822 4.247 21.1474 4.95479C21.1127 5.66258 21.3201 6.36109 21.7353 6.93531L26.1413 2.52331"
            fill="#0969DA" />
    </g>
    <path
        d="M10.1008 22.8743C10.1008 23.134 10.0334 23.3674 9.89862 23.5745C9.76581 23.7815 9.5705 23.9436 9.31268 24.0608C9.05487 24.178 8.74921 24.2366 8.39569 24.2366C7.97186 24.2366 7.62225 24.1565 7.34686 23.9963C7.15155 23.8811 6.99237 23.7278 6.86932 23.5364C6.74823 23.343 6.68768 23.1555 6.68768 22.9739C6.68768 22.8684 6.72382 22.7786 6.79608 22.7043C6.8703 22.6282 6.96405 22.5901 7.07733 22.5901C7.16913 22.5901 7.24628 22.6194 7.30878 22.678C7.37323 22.7366 7.42792 22.8235 7.47284 22.9387C7.52753 23.0754 7.58612 23.1897 7.64862 23.2815C7.71307 23.3733 7.80292 23.4495 7.91815 23.51C8.03339 23.5686 8.18475 23.5979 8.37225 23.5979C8.63007 23.5979 8.83905 23.5383 8.99921 23.4192C9.16132 23.2981 9.24237 23.1477 9.24237 22.968C9.24237 22.8254 9.19843 22.7102 9.11053 22.6223C9.0246 22.5325 8.91229 22.4641 8.77362 22.4172C8.6369 22.3704 8.45331 22.3206 8.22284 22.2678C7.91425 22.1956 7.65546 22.1116 7.44647 22.0159C7.23944 21.9182 7.0744 21.7864 6.95135 21.6204C6.83026 21.4524 6.76971 21.2444 6.76971 20.9963C6.76971 20.76 6.83417 20.55 6.96307 20.3665C7.09198 20.1829 7.2785 20.0422 7.52264 19.9446C7.76678 19.845 8.05389 19.7952 8.38397 19.7952C8.64764 19.7952 8.87518 19.8284 9.06659 19.8948C9.25995 19.9592 9.4201 20.0461 9.54706 20.1555C9.67401 20.2629 9.76678 20.3762 9.82538 20.4954C9.88397 20.6145 9.91327 20.7307 9.91327 20.844C9.91327 20.9475 9.87616 21.0413 9.80194 21.1252C9.72968 21.2073 9.63885 21.2483 9.52948 21.2483C9.42987 21.2483 9.3537 21.2239 9.30096 21.175C9.25018 21.1243 9.19452 21.0422 9.13397 20.929C9.05585 20.7668 8.9621 20.6409 8.85272 20.551C8.74335 20.4592 8.56757 20.4133 8.32538 20.4133C8.10077 20.4133 7.91913 20.4631 7.78046 20.5627C7.64374 20.6604 7.57538 20.7786 7.57538 20.9172C7.57538 21.0032 7.59882 21.0774 7.64569 21.1399C7.69257 21.2024 7.75702 21.2561 7.83905 21.301C7.92108 21.3459 8.00409 21.3811 8.08807 21.4065C8.17206 21.4319 8.31073 21.469 8.50409 21.5178C8.74628 21.5745 8.96503 21.637 9.16034 21.7053C9.3576 21.7737 9.5246 21.8567 9.66132 21.9543C9.79999 22.052 9.90741 22.176 9.98358 22.3264C10.0617 22.4749 10.1008 22.6575 10.1008 22.8743ZM13.6281 20.5862H12.6789V23.7063C12.6789 23.886 12.6389 24.0198 12.5588 24.1077C12.4787 24.1936 12.3752 24.2366 12.2482 24.2366C12.1193 24.2366 12.0139 24.1926 11.9318 24.1047C11.8517 24.0168 11.8117 23.884 11.8117 23.7063V20.5862H10.8625C10.7141 20.5862 10.6037 20.554 10.5314 20.4895C10.4592 20.4231 10.423 20.3362 10.423 20.2288C10.423 20.1174 10.4601 20.0295 10.5344 19.9651C10.6105 19.9006 10.7199 19.8684 10.8625 19.8684H13.6281C13.7785 19.8684 13.8898 19.9016 13.9621 19.968C14.0363 20.0344 14.0734 20.1213 14.0734 20.2288C14.0734 20.3362 14.0363 20.4231 13.9621 20.4895C13.8879 20.554 13.7766 20.5862 13.6281 20.5862ZM16.3967 19.7952C16.842 19.7952 17.2238 19.886 17.5422 20.0676C17.8625 20.2473 18.1047 20.5042 18.2687 20.8381C18.4328 21.1702 18.5148 21.5608 18.5148 22.01C18.5148 22.342 18.4699 22.6438 18.3801 22.9153C18.2902 23.1868 18.1555 23.4221 17.9758 23.6213C17.7961 23.8206 17.5754 23.9729 17.3137 24.0784C17.0519 24.1838 16.7521 24.2366 16.4142 24.2366C16.0783 24.2366 15.7775 24.1829 15.5119 24.0754C15.2463 23.9661 15.0246 23.8127 14.8469 23.6155C14.6691 23.4182 14.5344 23.1809 14.4426 22.9036C14.3527 22.6262 14.3078 22.3264 14.3078 22.0042C14.3078 21.6741 14.3547 21.3713 14.4484 21.0959C14.5441 20.8206 14.6818 20.5862 14.8615 20.3928C15.0412 20.1995 15.2599 20.052 15.5178 19.9504C15.7756 19.8469 16.0685 19.7952 16.3967 19.7952ZM17.633 22.0042C17.633 21.6897 17.5822 21.4172 17.4807 21.1868C17.3791 20.9563 17.2336 20.7825 17.0441 20.6653C16.8566 20.5461 16.6408 20.4866 16.3967 20.4866C16.2228 20.4866 16.0617 20.5198 15.9133 20.5862C15.7668 20.6506 15.6398 20.7454 15.5324 20.8704C15.4269 20.9954 15.343 21.1555 15.2805 21.3508C15.2199 21.5442 15.1896 21.762 15.1896 22.0042C15.1896 22.2483 15.2199 22.469 15.2805 22.6663C15.343 22.8635 15.4299 23.0276 15.5412 23.1584C15.6545 23.2874 15.7834 23.384 15.9279 23.4485C16.0744 23.5129 16.2346 23.5452 16.4084 23.5452C16.631 23.5452 16.8351 23.4895 17.0207 23.3782C17.2082 23.2668 17.3566 23.095 17.466 22.8625C17.5773 22.6301 17.633 22.344 17.633 22.0042ZM20.926 22.4905H20.1291V23.7063C20.1291 23.8801 20.0881 24.012 20.006 24.1018C19.924 24.1917 19.8205 24.2366 19.6955 24.2366C19.5646 24.2366 19.4592 24.1926 19.3791 24.1047C19.299 24.0149 19.259 23.884 19.259 23.7122V20.4016C19.259 20.2102 19.3029 20.0735 19.3908 19.9915C19.4787 19.9094 19.6183 19.8684 19.8098 19.8684H20.926C21.256 19.8684 21.5099 19.8938 21.6877 19.9446C21.8635 19.9934 22.0148 20.0745 22.1418 20.1877C22.2707 20.301 22.3683 20.4397 22.4348 20.6038C22.5012 20.7678 22.5344 20.9524 22.5344 21.1575C22.5344 21.595 22.3996 21.927 22.1301 22.1536C21.8605 22.3782 21.4592 22.4905 20.926 22.4905ZM20.715 20.5217H20.1291V21.8342H20.715C20.9201 21.8342 21.091 21.8127 21.2277 21.7698C21.3664 21.7268 21.4719 21.6565 21.5441 21.5588C21.6164 21.4612 21.6525 21.3333 21.6525 21.175C21.6525 20.9856 21.5969 20.8313 21.4855 20.7122C21.3605 20.5852 21.1037 20.5217 20.715 20.5217Z"
        fill="#0969DA" />
</svg>
