<svg width="30" height="32" viewBox="0 0 30 32" fill="none" xmlns="http://www.w3.org/2000/svg">
    <path
        d="M14.7993 31.2794C11.0285 31.2794 7.41208 29.7814 4.74568 27.115C2.07929 24.4486 0.581329 20.8322 0.581329 17.0614C0.581329 13.2905 2.07929 9.67413 4.74568 7.00774C7.41208 4.34135 11.0285 2.84338 14.7993 2.84338C15.0624 2.84338 15.3147 2.9479 15.5008 3.13393C15.6868 3.31997 15.7913 3.57229 15.7913 3.83538C15.7913 4.09848 15.6868 4.3508 15.5008 4.53683C15.3147 4.72287 15.0624 4.82738 14.7993 4.82738C12.3797 4.82719 10.0143 5.5445 8.00232 6.88863C5.99033 8.23275 4.42211 10.1433 3.49597 12.3787C2.56982 14.6141 2.32735 17.0739 2.79921 19.4471C3.27106 21.8203 4.43606 24.0003 6.14688 25.7114C7.85769 27.4225 10.0375 28.5879 12.4106 29.0601C14.7837 29.5324 17.2436 29.2903 19.4792 28.3645C21.7147 27.4387 23.6255 25.8708 24.97 23.8591C26.3144 21.8473 27.0321 19.482 27.0323 17.0624C27.0323 16.7993 27.1368 16.547 27.3229 16.3609C27.5089 16.1749 27.7612 16.0704 28.0243 16.0704C28.2874 16.0704 28.5397 16.1749 28.7258 16.3609C28.9118 16.547 29.0163 16.7993 29.0163 17.0624C29.0129 20.8319 27.5139 24.4461 24.8485 27.1115C22.183 29.777 18.5689 31.2759 14.7993 31.2794Z"
        fill="#FF6470" />
    <mask id="mask0_36_3386" style="mask-type:luminance" maskUnits="userSpaceOnUse" x="20" y="0"
        width="9" height="9">
        <path d="M28.5813 0.0473633H20.0813V8.54336H28.5813V0.0473633Z" fill="white" />
    </mask>
    <g mask="url(#mask0_36_3386)">
        <path
            d="M28.5813 4.31339C28.5781 5.15395 28.3258 5.9747 27.8562 6.67184C27.3865 7.36898 26.7207 7.91121 25.9429 8.22995C25.1651 8.54869 24.3103 8.62964 23.4865 8.46255C22.6627 8.29546 21.907 7.88784 21.3148 7.29123C20.7227 6.69463 20.3208 5.93583 20.1599 5.11081C19.999 4.28578 20.0864 3.43157 20.411 2.6562C20.7356 1.88083 21.2828 1.21913 21.9835 0.754766C22.6841 0.290402 23.5067 0.0442348 24.3473 0.0473933C24.9054 0.0494905 25.4577 0.161498 25.9725 0.37702C26.4873 0.592542 26.9547 0.907359 27.3478 1.30349C27.741 1.69963 28.0523 2.16933 28.2639 2.68577C28.4756 3.20221 28.5834 3.75527 28.5813 4.31339ZM26.9433 2.48939L22.5233 6.90639C23.1342 7.33374 23.8761 7.53231 24.6188 7.46729C25.3615 7.40226 26.0576 7.07779 26.5849 6.55079C27.1123 6.02379 27.4372 5.32793 27.5028 4.58527C27.5683 3.84261 27.3702 3.10059 26.9433 2.48939ZM26.1433 1.68939C25.5022 1.2356 24.715 1.03693 23.9353 1.13215C23.1556 1.22737 22.4394 1.60964 21.9263 2.20439C21.4568 2.73522 21.1821 3.41009 21.1474 4.11787C21.1127 4.82566 21.32 5.52417 21.7353 6.09839L26.1413 1.68639"
            fill="#FF6470" />
    </g>
    <path
        d="M10.5903 15.1574C10.5865 15.4576 10.5227 15.754 10.4026 16.0291C10.2824 16.3042 10.1084 16.5525 9.89077 16.7593C9.67316 16.9661 9.41633 17.1273 9.13545 17.2332C8.85457 17.3392 8.55531 17.3879 8.25532 17.3764C7.82102 17.3887 7.38877 17.3123 6.98492 17.1521C6.58107 16.9919 6.21408 16.7511 5.90632 16.4444C5.50632 16.0444 5.47632 15.6444 5.80632 15.3054C5.87977 15.2312 5.96779 15.173 6.06482 15.1345C6.16184 15.0959 6.26579 15.0779 6.37013 15.0815C6.47447 15.085 6.57696 15.1101 6.67112 15.1552C6.76529 15.2003 6.84911 15.2644 6.91732 15.3434C7.11103 15.5511 7.35588 15.7042 7.62736 15.7876C7.89885 15.871 8.18745 15.8816 8.46432 15.8184C8.5909 15.7798 8.70777 15.7146 8.80711 15.6271C8.90645 15.5397 8.98597 15.4321 9.04033 15.3114C9.08233 15.1804 8.81232 14.8574 8.61332 14.7554C8.14432 14.5134 7.62833 14.3624 7.14033 14.1554C6.75879 14.0257 6.42997 13.7751 6.20382 13.4416C5.97768 13.1081 5.86655 12.7098 5.88733 12.3074C5.92789 11.881 6.10319 11.4786 6.38781 11.1586C6.67244 10.8385 7.05159 10.6175 7.47032 10.5274C7.92695 10.4269 8.40031 10.43 8.8556 10.5364C9.3109 10.6428 9.73657 10.8499 10.1013 11.1424C10.1819 11.1955 10.251 11.2641 10.3048 11.3442C10.3585 11.4243 10.3958 11.5143 10.4144 11.609C10.433 11.7037 10.4326 11.8011 10.4132 11.8956C10.3938 11.9901 10.3557 12.0797 10.3013 12.1594C10.25 12.246 10.1808 12.3207 10.0984 12.3785C10.016 12.4364 9.92225 12.4761 9.82336 12.495C9.72448 12.5139 9.6227 12.5116 9.52478 12.4882C9.42685 12.4648 9.33501 12.4209 9.25532 12.3594C9.06382 12.1985 8.83843 12.083 8.59599 12.0216C8.35355 11.9601 8.10035 11.9542 7.85533 12.0044C7.67833 12.0594 7.54633 12.2584 7.39433 12.3924C7.52433 12.5234 7.63132 12.7034 7.78732 12.7754C8.26732 12.9994 8.77732 13.1624 9.25732 13.3864C9.63016 13.5157 9.95605 13.7531 10.1934 14.0683C10.4308 14.3836 10.569 14.7633 10.5903 15.1574Z"
        fill="#FF6470" />
    <path
        d="M13.0853 11.9774V13.1684C13.5213 13.1684 13.9343 13.1564 14.3463 13.1684C14.8463 13.1864 15.1343 13.4474 15.1533 13.8684C15.1596 13.9731 15.1434 14.078 15.1059 14.176C15.0683 14.274 15.0104 14.3629 14.9358 14.4367C14.8612 14.5105 14.7718 14.5676 14.6734 14.6041C14.575 14.6406 14.47 14.6557 14.3653 14.6484C13.9533 14.6744 13.5383 14.6534 13.0923 14.6534V15.8324C13.5363 15.8324 13.9643 15.8254 14.3923 15.8324C14.9643 15.8434 15.3283 16.1394 15.3343 16.5824C15.3403 17.0254 14.9863 17.3234 14.4083 17.3294C13.7423 17.3364 13.0763 17.3404 12.4083 17.3294C11.8303 17.3174 11.5653 17.0424 11.5633 16.4554C11.5573 14.7554 11.5573 13.0554 11.5633 11.3554C11.5633 10.7664 11.8293 10.4894 12.4053 10.4784C13.104 10.4651 13.804 10.4651 14.5053 10.4784C14.6091 10.4689 14.7137 10.4809 14.8127 10.5135C14.9117 10.5462 15.0029 10.5989 15.0806 10.6683C15.1584 10.7377 15.221 10.8223 15.2647 10.9169C15.3083 11.0116 15.332 11.1142 15.3343 11.2184C15.3212 11.4285 15.2257 11.625 15.0687 11.7652C14.9116 11.9054 14.7056 11.9781 14.4953 11.9674C14.0343 11.9854 13.5723 11.9674 13.0863 11.9674"
        fill="#FF6470" />
    <path
        d="M17.8513 15.8864C18.2783 15.8864 18.6413 15.8794 19.0033 15.8864C19.0954 15.8812 19.1877 15.8942 19.2748 15.9247C19.3618 15.9552 19.442 16.0026 19.5107 16.0642C19.5794 16.1259 19.6352 16.2004 19.6749 16.2837C19.7147 16.367 19.7376 16.4573 19.7423 16.5494C19.758 16.6451 19.7531 16.743 19.7281 16.8367C19.7031 16.9303 19.6585 17.0176 19.5973 17.0928C19.536 17.1679 19.4595 17.2292 19.3728 17.2726C19.2861 17.316 19.1912 17.3405 19.0943 17.3444C18.3812 17.3809 17.6666 17.3739 16.9543 17.3234C16.8654 17.3164 16.7788 17.2914 16.6998 17.2499C16.6209 17.2084 16.5512 17.1512 16.4951 17.0819C16.4389 17.0125 16.3975 16.9325 16.3733 16.8466C16.3491 16.7608 16.3426 16.6709 16.3543 16.5824C16.3483 14.8004 16.3483 13.0184 16.3543 11.2364C16.3482 11.1341 16.3633 11.0316 16.3986 10.9354C16.4339 10.8392 16.4886 10.7512 16.5594 10.6771C16.6301 10.6029 16.7154 10.5442 16.8099 10.5045C16.9044 10.4647 17.0061 10.4449 17.1085 10.4462C17.211 10.4475 17.3121 10.4699 17.4056 10.5121C17.499 10.5542 17.5828 10.6151 17.6516 10.691C17.7205 10.767 17.7729 10.8563 17.8058 10.9534C17.8386 11.0505 17.851 11.1533 17.8423 11.2554C17.8503 12.7694 17.8423 14.2844 17.8423 15.8854"
        fill="#FF6470" />
    <path
        d="M22.2373 15.8854C22.6643 15.8854 23.0113 15.8734 23.3573 15.8854C23.55 15.8814 23.7369 15.9509 23.8801 16.0799C24.0233 16.2088 24.1121 16.3874 24.1283 16.5794C24.1374 16.7735 24.0696 16.9633 23.9397 17.1078C23.8098 17.2523 23.6283 17.3398 23.4343 17.3514C22.7377 17.3794 22.0402 17.372 21.3443 17.3294C21.2596 17.3274 21.1762 17.3081 21.0993 17.2725C21.0225 17.2369 20.9537 17.1858 20.8974 17.1225C20.8411 17.0592 20.7985 16.9849 20.7721 16.9044C20.7458 16.8238 20.7363 16.7388 20.7443 16.6544C20.7363 14.8244 20.7333 12.9944 20.7443 11.1644C20.7429 11.0681 20.7611 10.9726 20.7977 10.8836C20.8343 10.7945 20.8886 10.7138 20.9574 10.6464C21.0261 10.579 21.1078 10.5263 21.1975 10.4914C21.2872 10.4565 21.3831 10.4401 21.4793 10.4434C21.6822 10.4494 21.8744 10.5353 22.0143 10.6823C22.1542 10.8293 22.2304 11.0255 22.2263 11.2284C22.2473 12.0934 22.2343 12.9584 22.2343 13.8234C22.2343 14.4864 22.2343 15.1494 22.2343 15.8834"
        fill="#FF6470" />
    <path
        d="M10.1008 23.5343C10.1008 23.7941 10.0334 24.0275 9.89861 24.2345C9.76579 24.4415 9.57048 24.6036 9.31267 24.7208C9.05486 24.838 8.74919 24.8966 8.39568 24.8966C7.97185 24.8966 7.62224 24.8165 7.34685 24.6564C7.15154 24.5411 6.99236 24.3878 6.86931 24.1964C6.74821 24.0031 6.68767 23.8156 6.68767 23.6339C6.68767 23.5284 6.7238 23.4386 6.79607 23.3644C6.87029 23.2882 6.96404 23.2501 7.07732 23.2501C7.16911 23.2501 7.24626 23.2794 7.30876 23.338C7.37321 23.3966 7.4279 23.4835 7.47282 23.5988C7.52751 23.7355 7.58611 23.8497 7.64861 23.9415C7.71306 24.0333 7.8029 24.1095 7.91814 24.17C8.03337 24.2286 8.18474 24.2579 8.37224 24.2579C8.63005 24.2579 8.83904 24.1984 8.99919 24.0792C9.1613 23.9581 9.24236 23.8077 9.24236 23.6281C9.24236 23.4855 9.19841 23.3702 9.11052 23.2823C9.02458 23.1925 8.91228 23.1241 8.77361 23.0773C8.63689 23.0304 8.45329 22.9806 8.22282 22.9279C7.91423 22.8556 7.65544 22.7716 7.44646 22.6759C7.23943 22.5782 7.07439 22.4464 6.95134 22.2804C6.83025 22.1124 6.7697 21.9044 6.7697 21.6564C6.7697 21.42 6.83415 21.2101 6.96306 21.0265C7.09196 20.8429 7.27849 20.7023 7.52263 20.6046C7.76677 20.505 8.05388 20.4552 8.38396 20.4552C8.64763 20.4552 8.87517 20.4884 9.06657 20.5548C9.25993 20.6193 9.42009 20.7062 9.54704 20.8156C9.674 20.923 9.76677 21.0363 9.82536 21.1554C9.88396 21.2745 9.91325 21.3907 9.91325 21.504C9.91325 21.6075 9.87614 21.7013 9.80193 21.7853C9.72966 21.8673 9.63884 21.9083 9.52946 21.9083C9.42986 21.9083 9.35368 21.8839 9.30095 21.8351C9.25017 21.7843 9.1945 21.7023 9.13396 21.589C9.05583 21.4269 8.96208 21.3009 8.85271 21.2111C8.74333 21.1193 8.56755 21.0734 8.32536 21.0734C8.10075 21.0734 7.91911 21.1232 7.78044 21.2228C7.64372 21.3204 7.57536 21.4386 7.57536 21.5773C7.57536 21.6632 7.5988 21.7374 7.64568 21.7999C7.69255 21.8624 7.757 21.9161 7.83904 21.9611C7.92107 22.006 8.00407 22.0411 8.08806 22.0665C8.17204 22.0919 8.31071 22.129 8.50407 22.1779C8.74626 22.2345 8.96501 22.297 9.16032 22.3654C9.35759 22.4337 9.52458 22.5167 9.6613 22.6144C9.79997 22.712 9.90739 22.8361 9.98357 22.9865C10.0617 23.1349 10.1008 23.3175 10.1008 23.5343ZM13.6281 21.2462H12.6789V24.3663C12.6789 24.546 12.6388 24.6798 12.5588 24.7677C12.4787 24.8536 12.3752 24.8966 12.2482 24.8966C12.1193 24.8966 12.0138 24.8527 11.9318 24.7648C11.8517 24.6769 11.8117 24.5441 11.8117 24.3663V21.2462H10.8625C10.714 21.2462 10.6037 21.214 10.5314 21.1495C10.4592 21.0831 10.423 20.9962 10.423 20.8888C10.423 20.7775 10.4601 20.6896 10.5343 20.6251C10.6105 20.5607 10.7199 20.5284 10.8625 20.5284H13.6281C13.7785 20.5284 13.8898 20.5616 13.9621 20.6281C14.0363 20.6945 14.0734 20.7814 14.0734 20.8888C14.0734 20.9962 14.0363 21.0831 13.9621 21.1495C13.8879 21.214 13.7765 21.2462 13.6281 21.2462ZM16.3967 20.4552C16.842 20.4552 17.2238 20.546 17.5422 20.7277C17.8625 20.9073 18.1047 21.1642 18.2687 21.4982C18.4328 21.8302 18.5148 22.2208 18.5148 22.67C18.5148 23.0021 18.4699 23.3038 18.3801 23.5753C18.2902 23.8468 18.1554 24.0822 17.9758 24.2814C17.7961 24.4806 17.5754 24.6329 17.3136 24.7384C17.0519 24.8439 16.7521 24.8966 16.4142 24.8966C16.0783 24.8966 15.7775 24.8429 15.5119 24.7355C15.2463 24.6261 15.0246 24.4728 14.8468 24.2755C14.6691 24.0782 14.5343 23.8409 14.4426 23.5636C14.3527 23.2863 14.3078 22.9865 14.3078 22.6642C14.3078 22.3341 14.3547 22.0314 14.4484 21.756C14.5441 21.4806 14.6818 21.2462 14.8615 21.0529C15.0412 20.8595 15.2599 20.712 15.5177 20.6105C15.7756 20.507 16.0685 20.4552 16.3967 20.4552ZM17.633 22.6642C17.633 22.3497 17.5822 22.0773 17.4806 21.8468C17.3791 21.6163 17.2336 21.4425 17.0441 21.3253C16.8566 21.2062 16.6408 21.1466 16.3967 21.1466C16.2228 21.1466 16.0617 21.1798 15.9133 21.2462C15.7668 21.3107 15.6398 21.4054 15.5324 21.5304C15.4269 21.6554 15.3429 21.8156 15.2804 22.0109C15.2199 22.2042 15.1896 22.422 15.1896 22.6642C15.1896 22.9083 15.2199 23.129 15.2804 23.3263C15.3429 23.5236 15.4299 23.6876 15.5412 23.8185C15.6545 23.9474 15.7834 24.0441 15.9279 24.1085C16.0744 24.173 16.2345 24.2052 16.4084 24.2052C16.631 24.2052 16.8351 24.1495 17.0207 24.0382C17.2082 23.9269 17.3566 23.755 17.466 23.5226C17.5773 23.2902 17.633 23.004 17.633 22.6642ZM20.9259 23.1505H20.1291V24.3663C20.1291 24.5402 20.0881 24.672 20.006 24.7618C19.924 24.8517 19.8205 24.8966 19.6955 24.8966C19.5646 24.8966 19.4592 24.8527 19.3791 24.7648C19.299 24.6749 19.259 24.5441 19.259 24.3722V21.0616C19.259 20.8702 19.3029 20.7335 19.3908 20.6515C19.4787 20.5695 19.6183 20.5284 19.8097 20.5284H20.9259C21.256 20.5284 21.5099 20.5538 21.6877 20.6046C21.8634 20.6534 22.0148 20.7345 22.1418 20.8478C22.2707 20.9611 22.3683 21.0997 22.4347 21.2638C22.5011 21.4279 22.5343 21.6124 22.5343 21.8175C22.5343 22.255 22.3996 22.587 22.1301 22.8136C21.8605 23.0382 21.4592 23.1505 20.9259 23.1505ZM20.715 21.1818H20.1291V22.4943H20.715C20.9201 22.4943 21.091 22.4728 21.2277 22.4298C21.3664 22.3868 21.4718 22.3165 21.5441 22.2189C21.6164 22.1212 21.6525 21.9933 21.6525 21.8351C21.6525 21.6456 21.5968 21.4913 21.4855 21.3722C21.3605 21.2452 21.1037 21.1818 20.715 21.1818Z"
        fill="#FF6470" />
</svg>
