<svg xmlns="http://www.w3.org/2000/svg" width="138.113" height="172.708" viewBox="0 0 138.113 172.708">
    <g id="Group_12681" data-name="Group 12681" transform="translate(-98.943 -232.435)">
        <g id="Verified-amico" transform="translate(74.613 237.922)">
            <g id="freepik--Floor--inject-35" transform="translate(24.33 87.236)">
                <path id="Path_58834" data-name="Path 58834" d="M142.042,228.545c-27.054-15.606-70.773-15.606-97.653,0s-26.724,40.947.343,56.565,70.773,15.622,97.653,0S169.108,244.166,142.042,228.545Z" transform="translate(-24.33 -216.84)" fill="#fafafa"/>
            </g>
            <g id="freepik--Shadows--inject-35" transform="translate(32.331 93.616)">
                <path id="Path_58835" data-name="Path 58835" d="M334.919,340.343a.959.959,0,0,1,0,1.818l-3.55,2.047a3.449,3.449,0,0,1-3.134,0l-38.909-22.47a.956.956,0,0,1,0-1.815l3.547-2.047a3.455,3.455,0,0,1,3.137,0Z" transform="translate(-215.782 -293.077)" fill="#f0f0f0"/>
                <path id="Path_58836" data-name="Path 58836" d="M312.105,358.3a.958.958,0,0,1,0,1.818l-3.55,2.047a3.455,3.455,0,0,1-3.137,0l-33.232-19.2a.958.958,0,0,1,0-1.818l3.55-2.047a3.454,3.454,0,0,1,3.137,0Z" transform="translate(-203.887 -307.811)" fill="#f0f0f0"/>
                <path id="Path_58837" data-name="Path 58837" d="M66.678,395.418a9.491,9.491,0,0,0-8.611,0c-2.372,1.377-2.356,3.611.028,4.988a9.491,9.491,0,0,0,8.611,0C69.074,399.029,69.059,396.795,66.678,395.418Z" transform="translate(-54.516 -346.435)" fill="#f0f0f0"/>
                <path id="Path_58838" data-name="Path 58838" d="M116.7,379.965c7.366-4.254,19.278-4.254,26.592,0s7.28,11.151-.089,15.4-19.278,4.254-26.592,0S109.334,384.219,116.7,379.965Z" transform="translate(-92.585 -334.214)" fill="#f0f0f0"/>
                <path id="Path_58839" data-name="Path 58839" d="M65.832,300.532,81.659,291.4a.7.7,0,0,0,0-1.224l-13.948-8.094a.7.7,0,0,0-.7,0l-16.176,9.339a.7.7,0,0,0,0,1.224l13.6,7.9A1.4,1.4,0,0,0,65.832,300.532Z" transform="translate(-50.475 -268.429)" fill="#f0f0f0"/>
                <path id="Path_58840" data-name="Path 58840" d="M224.844,239.3a14.909,14.909,0,0,0-13.464,0c-3.7,2.142-3.69,5.652.043,7.806a14.824,14.824,0,0,0,13.464,0C228.583,244.945,228.577,241.457,224.844,239.3Z" transform="translate(-160.223 -237.69)" fill="#f0f0f0"/>
            </g>
            <g id="freepik--Window--inject-35" transform="translate(28.311 31.072)">
                <path id="Path_58841" data-name="Path 58841" d="M128.671,85.308l-1.2-.7L114.8,91.9v1.386Z" transform="translate(-91.097 -68.909)" fill="#f5f5f5"/>
                <path id="Path_58842" data-name="Path 58842" d="M128.671,86.89h0L114.8,94.868v1.585l13.874-7.971Z" transform="translate(-91.097 -70.491)" fill="#e0e0e0"/>
                <rect id="Rectangle_6195" data-name="Rectangle 6195" width="16.004" transform="translate(23.701 24.376) rotate(-29.91)" fill="#e0e0e0"/>
                <path id="Path_58843" data-name="Path 58843" d="M59.654,125.008l-1.2-.7L45.78,131.6v1.389Z" transform="translate(-43.197 -96.46)" fill="#f5f5f5"/>
                <path id="Path_58844" data-name="Path 58844" d="M59.654,126.59h0L45.78,134.571v1.582l13.877-7.971Z" transform="translate(-43.197 -98.043)" fill="#e0e0e0"/>
                <rect id="Rectangle_6196" data-name="Rectangle 6196" width="16.004" transform="translate(2.586 36.525) rotate(-29.91)" fill="#e0e0e0"/>
                <path id="Path_58845" data-name="Path 58845" d="M157.19,41.778l-1.2-.7.07,35.885,1.2.7Z" transform="translate(-119.682 -38.699)" fill="#f0f0f0"/>
                <path id="Path_58846" data-name="Path 58846" d="M126.114,159.048l-1.2-.7-13.8,7.926,1.2.7Z" transform="translate(-88.536 -120.084)" fill="#f5f5f5"/>
                <path id="Path_58847" data-name="Path 58847" d="M126.914,74.629,110.35,84.146l-.08-39.056,16.564-9.52Zm-15.2,7.136,13.8-7.926-.07-35.885-13.795,7.923.061,35.889" transform="translate(-87.953 -34.875)" fill="#e0e0e0"/>
                <path id="Path_58848" data-name="Path 58848" d="M124.114,33.995l-1.2-.695L106.35,42.817l1.2.7Z" transform="translate(-85.232 -33.3)" fill="#f5f5f5"/>
                <path id="Path_58849" data-name="Path 58849" d="M107.55,65.1l-1.2-.7.08,39.056,1.2.7Z" transform="translate(-85.232 -54.883)" fill="#f0f0f0"/>
                <path id="Path_58850" data-name="Path 58850" d="M88.18,81.478l-1.2-.7.07,35.889,1.2.7Z" transform="translate(-71.79 -66.251)" fill="#f0f0f0"/>
                <path id="Path_58851" data-name="Path 58851" d="M57.1,198.758l-1.2-.7-13.8,7.923,1.2.7Z" transform="translate(-40.643 -147.642)" fill="#f5f5f5"/>
                <path id="Path_58852" data-name="Path 58852" d="M57.9,114.329,41.34,123.843l-.08-39.056L57.824,75.27ZM42.71,121.465l13.807-7.923L56.45,77.654,42.643,85.592l.067,35.873" transform="translate(-40.06 -62.427)" fill="#e0e0e0"/>
                <path id="Path_58853" data-name="Path 58853" d="M55.1,73.7,53.9,73,37.34,82.517l1.2.7Z" transform="translate(-37.34 -60.852)" fill="#f5f5f5"/>
                <path id="Path_58854" data-name="Path 58854" d="M38.54,104.8l-1.2-.7.08,39.059,1.2.695Z" transform="translate(-37.34 -82.435)" fill="#f0f0f0"/>
            </g>
            <g id="freepik--Furniture--inject-35" transform="translate(32.742 88.913)">
                <path id="Path_58855" data-name="Path 58855" d="M140.87,307.207l1.349.786,0-1.564Z" transform="translate(-113.62 -280.692)" fill="#e6e6e6"/>
                <path id="Path_58856" data-name="Path 58856" d="M145.16,281.665v-.015h0Z" transform="translate(-116.597 -263.495)" fill="#787878"/>
                <rect id="Rectangle_6197" data-name="Rectangle 6197" height="15.187" transform="translate(21.987 14.358)" fill="#cfcfcf"/>
                <path id="Path_58857" data-name="Path 58857" d="M115.262,256.84l-13.152,7.6h0Z" transform="translate(-86.721 -246.277)" fill="#cfcfcf"/>
                <path id="Path_58858" data-name="Path 58858" d="M112.083,266.491v1.564l1.408-.814-.052-18.36L97.45,258.1l.052,18.376,1.408-.814V274.1l11.827-6.818Zm-13.207-7.58h0l13.158-7.6.018,5.961-13.158,7.6ZM98.9,266.5h0l13.158-7.6h0v.018l.018,5.94-13.158,7.6Z" transform="translate(-83.487 -240.752)" fill="#e6e6e6"/>
                <path id="Path_58859" data-name="Path 58859" d="M115.351,287.608l-.018-5.943v-.015l-13.152,7.6h0l.015,5.958Z" transform="translate(-86.769 -263.495)" fill="#e0e0e0"/>
                <path id="Path_58860" data-name="Path 58860" d="M115.281,262.8l-.018-5.961-13.152,7.6h0l.015,5.961Z" transform="translate(-86.721 -246.277)" fill="#e0e0e0"/>
                <path id="Path_58861" data-name="Path 58861" d="M65.783,260.605,51.82,252.49l.052,18.376,13.963,8.115Z" transform="translate(-51.82 -243.258)" fill="#e0e0e0"/>
                <path id="Path_58862" data-name="Path 58862" d="M65.783,239.668l15.992-9.235-13.96-8.112-16,9.232Z" transform="translate(-51.82 -222.32)" fill="#e0e0e0"/>
                <path id="Path_58863" data-name="Path 58863" d="M140.87,307.207l1.349.786,0-1.564Z" transform="translate(-113.62 -280.692)" fill="#e6e6e6"/>
                <path id="Path_58864" data-name="Path 58864" d="M145.16,281.665v-.015h0Z" transform="translate(-116.597 -263.495)" fill="#787878"/>
                <rect id="Rectangle_6198" data-name="Rectangle 6198" height="15.187" transform="translate(21.987 14.358)" fill="#cfcfcf"/>
                <path id="Path_58865" data-name="Path 58865" d="M115.262,256.84l-13.152,7.6h0Z" transform="translate(-86.721 -246.277)" fill="#cfcfcf"/>
                <path id="Path_58866" data-name="Path 58866" d="M115.351,287.608l-.018-5.943v-.015l-13.152,7.6h0l.015,5.958Z" transform="translate(-86.769 -263.495)" fill="#fff" opacity="0.8"/>
                <path id="Path_58867" data-name="Path 58867" d="M115.281,262.8l-.018-5.961-13.152,7.6h0l.015,5.961Z" transform="translate(-86.721 -246.277)" fill="#fff" opacity="0.8"/>
                <path id="Path_58868" data-name="Path 58868" d="M120.733,270.313l-.006-.823-4.556,2.629h0l.006.823Z" transform="translate(-96.478 -255.056)" fill="#e0e0e0"/>
                <path id="Path_58869" data-name="Path 58869" d="M120.733,294.773l-.006-.823-4.556,2.629h0l.006.823Z" transform="translate(-96.478 -272.031)" fill="#e0e0e0"/>
                <path id="Path_58870" data-name="Path 58870" d="M65.783,260.605,51.82,252.49l.052,18.376,13.963,8.115Z" transform="translate(-51.82 -243.258)" fill="#ebebeb"/>
                <path id="Path_58871" data-name="Path 58871" d="M65.783,239.668l15.992-9.235-13.96-8.112-16,9.232Z" transform="translate(-51.82 -222.32)" fill="#f0f0f0"/>
            </g>
            <g id="freepik--Lamp--inject-35" transform="translate(82.146 46.299)">
                <path id="Path_58872" data-name="Path 58872" d="M234.71,84.647a2.414,2.414,0,0,0-.97-.939,5.957,5.957,0,0,0-5.392,0,2.374,2.374,0,0,0-.958.939c-.373.75-.049,1.594.976,2.185a5.939,5.939,0,0,0,5.392,0C234.777,86.241,235.093,85.4,234.71,84.647Z" transform="translate(-222.964 -83.063)" opacity="0.1"/>
                <path id="Path_58873" data-name="Path 58873" d="M234.87,254.48a1.919,1.919,0,0,1-1.1,1.493,5.939,5.939,0,0,1-5.392,0,1.954,1.954,0,0,1-1.123-1.493h0v1.2h0a1.907,1.907,0,0,0,1.123,1.564,5.957,5.957,0,0,0,5.392,0,1.876,1.876,0,0,0,1.1-1.564h0Z" transform="translate(-222.971 -202.025)" fill="#e0e0e0"/>
                <path id="Path_58874" data-name="Path 58874" d="M228.37,250.812a5.938,5.938,0,0,0,5.392,0,1.919,1.919,0,0,0,1.1-1.493,1.374,1.374,0,0,0-.153-.692,2.415,2.415,0,0,0-.97-.939,5.957,5.957,0,0,0-5.392,0,2.35,2.35,0,0,0-.958.936,1.4,1.4,0,0,0-.147.692A1.958,1.958,0,0,0,228.37,250.812Z" transform="translate(-222.968 -196.863)" fill="#f0f0f0"/>
                <rect id="Rectangle_6199" data-name="Rectangle 6199" width="0.113" height="10.052" transform="translate(5.099 12.695)" fill="#e0e0e0"/>
                <path id="Path_58875" data-name="Path 58875" d="M229.737,157.128a.278.278,0,1,1-.278-.278A.278.278,0,0,1,229.737,157.128Z" transform="translate(-224.31 -134.27)" fill="#f0f0f0"/>
                <path id="Path_58876" data-name="Path 58876" d="M238.831,112.71H237.46v42.985h0a.34.34,0,0,0,.2.282,1.065,1.065,0,0,0,.97,0,.33.33,0,0,0,.2-.282h0Z" transform="translate(-230.057 -103.638)" fill="#e0e0e0"/>
                <path id="Path_58877" data-name="Path 58877" d="M229.229,97.586h0c-.878-3.06-4.223-9.336-4.223-9.336h0c.383.75.067,1.594-.952,2.185a5.939,5.939,0,0,1-5.392,0c-1.025-.591-1.349-1.435-.976-2.185h0s-3.345,6.292-4.22,9.336h0c-.594,1.53.135,3.182,2.185,4.367a12.559,12.559,0,0,0,11.435,0C229.128,100.766,229.838,99.1,229.229,97.586Z" transform="translate(-213.267 -86.663)" fill="#f0f0f0"/>
                <path id="Path_58878" data-name="Path 58878" d="M234.71,84.647a2.414,2.414,0,0,0-.97-.939,5.957,5.957,0,0,0-5.392,0,2.374,2.374,0,0,0-.958.939c-.373.75-.049,1.594.976,2.185a5.939,5.939,0,0,0,5.392,0C234.777,86.241,235.093,85.4,234.71,84.647Z" transform="translate(-222.964 -83.063)" fill="#e0e0e0"/>
            </g>
            <g id="freepik--plant-2--inject-35" transform="translate(42.724 78.763)">
                <path id="Path_58879" data-name="Path 58879" d="M88.331,239.476a7.1,7.1,0,0,1,6.426,0c1.781,1.025,1.753,2.687-.021,3.712a7.1,7.1,0,0,1-6.426,0C86.529,242.163,86.557,240.5,88.331,239.476Z" transform="translate(-86.207 -223.543)" opacity="0.05"/>
                <path id="Path_58880" data-name="Path 58880" d="M86.26,220.13l4.872.144L96,220.13a17.383,17.383,0,0,1-1.319,8.281h0a2.219,2.219,0,0,1-.964.982,5.75,5.75,0,0,1-5.2,0,2.17,2.17,0,0,1-.961-1.007A17.6,17.6,0,0,1,86.26,220.13Z" transform="translate(-85.675 -210.65)" fill="#fff"/>
                <path id="Path_58881" data-name="Path 58881" d="M87.788,211.744c-1.909,1.1-1.919,2.889-.021,3.978a7.62,7.62,0,0,0,6.888,0c1.909-1.1,1.919-2.889.021-3.978A7.62,7.62,0,0,0,87.788,211.744Z" transform="translate(-85.765 -204.259)" fill="#ebebeb"/>
                <path id="Path_58882" data-name="Path 58882" d="M90.972,213.587c-1.49.86-1.5,2.252-.018,3.112a5.919,5.919,0,0,0,5.373,0c1.487-.86,1.5-2.252.018-3.112A5.919,5.919,0,0,0,90.972,213.587Z" transform="translate(-88.193 -205.662)" fill="#e0e0e0"/>
                <g id="Group_12677" data-name="Group 12677" transform="translate(1.656 7.281)" opacity="0.15">
                    <path id="Path_58883" data-name="Path 58883" d="M90.972,213.587c-1.49.86-1.5,2.252-.018,3.112a5.919,5.919,0,0,0,5.373,0c1.487-.86,1.5-2.252.018-3.112A5.919,5.919,0,0,0,90.972,213.587Z" transform="translate(-89.849 -212.942)"/>
                </g>
                <path id="Path_58884" data-name="Path 58884" d="M90.3,198.768a3.21,3.21,0,0,1-2.858.652,2.993,2.993,0,0,1-2-2.026,5.863,5.863,0,0,0,1.564-1.086,4.021,4.021,0,0,0-2.215.08,2.258,2.258,0,0,1-.165-2.111,3.868,3.868,0,0,1,2.641-.184,3.507,3.507,0,0,0-2.656-.842,10.2,10.2,0,0,1,.643-4.1,7.636,7.636,0,0,1,4.171,1.438,6.628,6.628,0,0,1-.2,1.931,1.567,1.567,0,0,0,.845-1.249,2.41,2.41,0,0,1,1.8,1.285,4.746,4.746,0,0,1-1.077,2.179,2.638,2.638,0,0,0,1.5-1.512C93.325,195.711,93.123,198.526,90.3,198.768Z" transform="translate(-84.438 -189.15)" fill="#00a9dc"/>
                <path id="Path_58885" data-name="Path 58885" d="M90.3,198.768a3.21,3.21,0,0,1-2.858.652,2.993,2.993,0,0,1-2-2.026,5.863,5.863,0,0,0,1.564-1.086,4.021,4.021,0,0,0-2.215.08,2.258,2.258,0,0,1-.165-2.111,3.868,3.868,0,0,1,2.641-.184,3.507,3.507,0,0,0-2.656-.842,10.2,10.2,0,0,1,.643-4.1,7.636,7.636,0,0,1,4.171,1.438,6.628,6.628,0,0,1-.2,1.931,1.567,1.567,0,0,0,.845-1.249,2.41,2.41,0,0,1,1.8,1.285,4.746,4.746,0,0,1-1.077,2.179,2.638,2.638,0,0,0,1.5-1.512C93.325,195.711,93.123,198.526,90.3,198.768Z" transform="translate(-84.438 -189.15)" opacity="0.2"/>
                <path id="Path_58886" data-name="Path 58886" d="M90.3,198.768a3.21,3.21,0,0,1-2.858.652,2.993,2.993,0,0,1-2-2.026,5.863,5.863,0,0,0,1.564-1.086,4.021,4.021,0,0,0-2.215.08,2.258,2.258,0,0,1-.165-2.111,3.868,3.868,0,0,1,2.641-.184,3.507,3.507,0,0,0-2.656-.842,10.2,10.2,0,0,1,.643-4.1,7.636,7.636,0,0,1,4.171,1.438,6.628,6.628,0,0,1-.2,1.931,1.567,1.567,0,0,0,.845-1.249,2.41,2.41,0,0,1,1.8,1.285,4.746,4.746,0,0,1-1.077,2.179,2.638,2.638,0,0,0,1.5-1.512C93.325,195.711,93.123,198.526,90.3,198.768Z" transform="translate(-84.438 -189.15)" fill="#fff" opacity="0.3"/>
                <path id="Path_58887" data-name="Path 58887" d="M93.129,200.238h0a.1.1,0,0,0,.1-.11,15.673,15.673,0,0,0-4.615-9.2.107.107,0,1,0-.15.15,15.4,15.4,0,0,1,4.553,9.07A.107.107,0,0,0,93.129,200.238Z" transform="translate(-87.202 -190.351)" fill="#f5f5f5"/>
                <path id="Path_58888" data-name="Path 58888" d="M95.975,205.113a2.984,2.984,0,0,0,4.664-1.224,5.012,5.012,0,0,1-1.411-.961,4.015,4.015,0,0,1,2.093.061,1.955,1.955,0,0,0,.306-1.882,3.856,3.856,0,0,0-2.494-.15,3.672,3.672,0,0,1,2.586-.765,8.354,8.354,0,0,0-.349-3.672,8.067,8.067,0,0,0-4.039,1.328,5.435,5.435,0,0,0,.07,1.714,1.258,1.258,0,0,1-.719-1.1,2.5,2.5,0,0,0-1.766,1.154,3.807,3.807,0,0,0,.875,1.925,2.147,2.147,0,0,1-1.313-1.328C93.34,202.42,93.355,204.9,95.975,205.113Z" transform="translate(-90.907 -194.265)" fill="#00a9dc"/>
                <path id="Path_58889" data-name="Path 58889" d="M95.975,205.113a2.984,2.984,0,0,0,4.664-1.224,5.012,5.012,0,0,1-1.411-.961,4.015,4.015,0,0,1,2.093.061,1.955,1.955,0,0,0,.306-1.882,3.856,3.856,0,0,0-2.494-.15,3.672,3.672,0,0,1,2.586-.765,8.354,8.354,0,0,0-.349-3.672,8.067,8.067,0,0,0-4.039,1.328,5.435,5.435,0,0,0,.07,1.714,1.258,1.258,0,0,1-.719-1.1,2.5,2.5,0,0,0-1.766,1.154,3.807,3.807,0,0,0,.875,1.925,2.147,2.147,0,0,1-1.313-1.328C93.34,202.42,93.355,204.9,95.975,205.113Z" transform="translate(-90.907 -194.265)" fill="#fff" opacity="0.3"/>
                <path id="Path_58890" data-name="Path 58890" d="M100.517,206.471a.1.1,0,0,0,.1-.089,14.768,14.768,0,0,1,4.859-8.082.11.11,0,0,0,0-.15.107.107,0,0,0-.15,0,14.94,14.94,0,0,0-4.924,8.207.1.1,0,0,0,.086.119Z" transform="translate(-95.519 -195.375)" fill="#fff"/>
            </g>
            <g id="freepik--plant-1--inject-35" transform="translate(27.653 110.028)">
                <path id="Path_58891" data-name="Path 58891" d="M68.765,371.86l-5.774.168-5.777-.168c-.248,3.9.514,7.874,1.564,9.817h0a2.641,2.641,0,0,0,1.144,1.163,6.769,6.769,0,0,0,6.151,0,2.58,2.58,0,0,0,1.144-1.193C68.26,379.694,69.013,375.74,68.765,371.86Z" transform="translate(-50.441 -347.214)" fill="#fff"/>
                <path id="Path_58892" data-name="Path 58892" d="M67.166,361.907c2.261,1.307,2.274,3.424.028,4.731a9,9,0,0,1-8.17,0c-2.264-1.307-2.274-3.424-.024-4.731A9,9,0,0,1,67.166,361.907Z" transform="translate(-50.547 -339.627)" fill="#ebebeb"/>
                <path id="Path_58893" data-name="Path 58893" d="M69.143,364.1c1.766,1.019,1.775,2.671.018,3.69a7.021,7.021,0,0,1-6.371,0c-1.781-1.019-1.775-2.671-.021-3.69A7.027,7.027,0,0,1,69.143,364.1Z" transform="translate(-53.417 -341.296)" fill="#e0e0e0"/>
                <g id="Group_12678" data-name="Group 12678" transform="translate(8.037 22.036)" opacity="0.15">
                    <path id="Path_58894" data-name="Path 58894" d="M69.143,364.1c1.766,1.019,1.775,2.671.018,3.69a7.021,7.021,0,0,1-6.371,0c-1.781-1.019-1.775-2.671-.021-3.69A7.027,7.027,0,0,1,69.143,364.1Z" transform="translate(-61.454 -363.333)"/>
                </g>
                <path id="Path_58895" data-name="Path 58895" d="M80.569,291.32c-13.015,4.263-13.134,12.969-10.2,19.181.741,1.258,2.981,1.931,4.93-5.78l-3.421.425,3.978-2.02,1.037-3.094-3.323.248,4.217-1.775a62.731,62.731,0,0,1,2.782-7.185Z" transform="translate(-58.524 -291.32)" fill="#00a9dc"/>
                <path id="Path_58896" data-name="Path 58896" d="M80.569,291.32c-13.015,4.263-13.134,12.969-10.2,19.181.741,1.258,2.981,1.931,4.93-5.78l-3.421.425,3.978-2.02,1.037-3.094-3.323.248,4.217-1.775a62.731,62.731,0,0,1,2.782-7.185Z" transform="translate(-58.524 -291.32)" opacity="0.2"/>
                <path id="Path_58897" data-name="Path 58897" d="M80.569,291.32c-13.015,4.263-13.134,12.969-10.2,19.181.741,1.258,2.981,1.931,4.93-5.78l-3.421.425,3.978-2.02,1.037-3.094-3.323.248,4.217-1.775a62.731,62.731,0,0,1,2.782-7.185Z" transform="translate(-58.524 -291.32)" fill="#fff" opacity="0.2"/>
                <path id="Path_58898" data-name="Path 58898" d="M80.456,298.44c-6.864,5.2-7.485,11.182-5.545,17.415C74.226,310.365,73.485,304.814,80.456,298.44Z" transform="translate(-62.093 -296.261)" fill="#fff"/>
                <path id="Path_58899" data-name="Path 58899" d="M35.19,320.22c12.828,1.809,14.382,9.9,12.684,16.16-.48,1.291-2.448,2.292-5.551-4.566l3.256-.162-4.045-1.224-1.478-2.708,3.134-.321-4.22-.952a59.139,59.139,0,0,0-3.779-6.227Z" transform="translate(-35.19 -311.376)" fill="#00a9dc"/>
                <path id="Path_58900" data-name="Path 58900" d="M35.19,320.22c12.828,1.809,14.382,9.9,12.684,16.16-.48,1.291-2.448,2.292-5.551-4.566l3.256-.162-4.045-1.224-1.478-2.708,3.134-.321-4.22-.952a59.139,59.139,0,0,0-3.779-6.227Z" transform="translate(-35.19 -311.376)" fill="#fff" opacity="0.2"/>
                <path id="Path_58901" data-name="Path 58901" d="M47.57,324.85c7.258,3.712,8.828,9.18,8.057,15.3C55.352,334.924,55.122,329.63,47.57,324.85Z" transform="translate(-43.782 -314.59)" fill="#fff"/>
                <path id="Path_58902" data-name="Path 58902" d="M35.19,320.22c12.828,1.809,14.382,9.9,12.684,16.16-.48,1.291-2.448,2.292-5.551-4.566l3.256-.162-4.045-1.224-1.478-2.708,3.134-.321-4.22-.952a59.139,59.139,0,0,0-3.779-6.227Z" transform="translate(-35.19 -311.376)" opacity="0.1"/>
                <path id="Path_58903" data-name="Path 58903" d="M89.122,330.13c-11.766.193-14.076,7.31-13.241,13.158.288,1.224,1.955,2.338,5.508-3.495l-2.91-.523,3.782-.646,1.634-2.274-2.788-.643,3.911-.386A53.939,53.939,0,0,1,89.122,330.13Z" transform="translate(-63.322 -318.254)" fill="#00a9dc"/>
                <path id="Path_58904" data-name="Path 58904" d="M87.465,332.92c-6.959,2.531-8.981,7.277-8.975,12.877C79.322,341.127,80.124,336.381,87.465,332.92Z" transform="translate(-65.24 -320.19)" fill="#fff"/>
                <path id="Path_58905" data-name="Path 58905" d="M89.122,330.13c-11.766.193-14.076,7.31-13.241,13.158.288,1.224,1.955,2.338,5.508-3.495l-2.91-.523,3.782-.646,1.634-2.274-2.788-.643,3.911-.386A53.939,53.939,0,0,1,89.122,330.13Z" transform="translate(-63.322 -318.254)" fill="#fff" opacity="0.2"/>
            </g>
            <g id="freepik--Device--inject-35" transform="translate(108.436 30.089)">
                <path id="Path_58906" data-name="Path 58906" d="M342.8,53.018a3.559,3.559,0,0,0-1.438-1.53L303.957,30.206a1.637,1.637,0,0,0-.548-.107,4.961,4.961,0,0,0-4.134,2.727h0a.857.857,0,0,0-.095.389V114.1a3.577,3.577,0,0,0,1.805,3.109l37.412,21.32a1.177,1.177,0,0,0,.144.058h0a3.441,3.441,0,0,0,4.609-3.081V54.6A3.581,3.581,0,0,0,342.8,53.018Z" transform="translate(-299.18 -30.095)" fill="#37474f"/>
                <path id="Path_58907" data-name="Path 58907" d="M299.315,32.816h0a4.986,4.986,0,0,1,4.134-2.727,1.637,1.637,0,0,1,.539.107l37.394,21.286a3.632,3.632,0,0,1,1.836,3.109v80.921a3.441,3.441,0,0,1-4.608,3.081h0a1.175,1.175,0,0,1-.144-.058l-37.44-21.329a3.577,3.577,0,0,1-1.805-3.109V33.211A.857.857,0,0,1,299.315,32.816Z" transform="translate(-299.208 -30.089)" fill="#455a64"/>
                <path id="Path_58908" data-name="Path 58908" d="M342.045,89.5a1.793,1.793,0,0,0-.887-1.564l-34.75-19.753a.894.894,0,0,0-1.337.78V134.21a1.787,1.787,0,0,0,.9,1.555l34.741,19.8a.894.894,0,0,0,1.337-.777Z" transform="translate(-303.268 -56.444)" fill="#00a9dc"/>
                <path id="Path_58909" data-name="Path 58909" d="M342.045,89.5a1.793,1.793,0,0,0-.887-1.564l-34.75-19.753a.894.894,0,0,0-1.337.78V134.21a1.787,1.787,0,0,0,.9,1.555l34.741,19.8a.894.894,0,0,0,1.337-.777Z" transform="translate(-303.268 -56.444)" opacity="0.2"/>
                <path id="Path_58910" data-name="Path 58910" d="M432.548,106.586v80.921a3.44,3.44,0,0,1-4.608,3.081h0a.891.891,0,0,0,1.193-.835v-80.93a3.562,3.562,0,0,0-.612-1.977l3.672-1.836A3.58,3.58,0,0,1,432.548,106.586Z" transform="translate(-388.538 -82.084)" opacity="0.3"/>
                <path id="Path_58911" data-name="Path 58911" d="M303.652,30.1a1.637,1.637,0,0,1,.539.107L341.6,51.489a3.559,3.559,0,0,1,1.438,1.53l-3.672,1.836a3.529,3.529,0,0,0-1.2-1.132L300.772,32.44a.894.894,0,0,0-1.242.383h0A4.971,4.971,0,0,1,303.652,30.1Z" transform="translate(-299.423 -30.096)" fill="#fff" opacity="0.1"/>
                <path id="Path_58912" data-name="Path 58912" d="M349.324,81.269c-.263-.153-.48-.034-.484.269a1.062,1.062,0,0,0,.48.826l7.344,4.238c.263.153.474.024.477-.278a1.04,1.04,0,0,0-.474-.817Z" transform="translate(-333.644 -65.561)" fill="#263238"/>
                <path id="Path_58913" data-name="Path 58913" d="M379.484,98.673c-.263-.15-.474-.031-.474.272a1.043,1.043,0,0,0,.471.826c.263.15.48.028.48-.275A1.047,1.047,0,0,0,379.484,98.673Z" transform="translate(-354.581 -77.641)" fill="#263238"/>
                <path id="Path_58914" data-name="Path 58914" d="M363.052,79.109c-.526-.306-.949-.064-.952.542a2.1,2.1,0,0,0,.946,1.646c.523.306.961.055.961-.548A2.1,2.1,0,0,0,363.052,79.109Z" transform="translate(-342.846 -64.017)" fill="#263238"/>
                <path id="Path_58915" data-name="Path 58915" d="M360.814,327.751c-1.068-.612-1.931-.125-1.934,1.1a4.263,4.263,0,0,0,1.922,3.366c1.068.612,1.955.11,1.958-1.117A4.284,4.284,0,0,0,360.814,327.751Z" transform="translate(-340.611 -236.481)" fill="#263238"/>
            </g>
            <g id="freepik--Screen--inject-35" transform="translate(101.615 44.226)">
                <path id="Path_58916" data-name="Path 58916" d="M316.616,97.437c-.043-.113-.092-.226-.144-.337a3.321,3.321,0,0,0-.9-1.123,3.429,3.429,0,0,0-.41-.275L281.208,76.384a.783.783,0,0,0-.174-.055,2.007,2.007,0,0,0-.306-.04,4.415,4.415,0,0,0-2.916,1.3,3.06,3.06,0,0,0-.835,1.175h0a1.106,1.106,0,0,0-.061.168.745.745,0,0,0-.024.187v73.42h0a3.235,3.235,0,0,0,.441,1.631,3.372,3.372,0,0,0,.236.352,3.268,3.268,0,0,0,.964.838L312.5,174.71a1.158,1.158,0,0,0,.129.055h.015a3.119,3.119,0,0,0,4.183-2.8V98.539h0a3.249,3.249,0,0,0-.208-1.1Z" transform="translate(-276.89 -76.288)" fill="#00a9dc"/>
                <path id="Path_58917" data-name="Path 58917" d="M276.969,78.764h0a4.5,4.5,0,0,1,3.752-2.476,1.475,1.475,0,0,1,.493.095L315.181,95.7a3.29,3.29,0,0,1,1.643,2.824V171.98a3.119,3.119,0,0,1-4.183,2.8h-.015a1.161,1.161,0,0,1-.129-.055L278.53,155.376a3.253,3.253,0,0,1-1.64-2.821V79.119A.8.8,0,0,1,276.969,78.764Z" transform="translate(-276.89 -76.288)" fill="#00a9dc"/>
                <path id="Path_58918" data-name="Path 58918" d="M397.818,145.794v73.442a3.119,3.119,0,0,1-4.183,2.8h-.015a.811.811,0,0,0,1.086-.759V147.835a3.238,3.238,0,0,0-.551-1.793l3.326-1.662A3.238,3.238,0,0,1,397.818,145.794Z" transform="translate(-357.9 -123.543)" fill="#fff" opacity="0.2"/>
                <path id="Path_58919" data-name="Path 58919" d="M280.9,76.289a1.475,1.475,0,0,1,.493.095L315.358,95.7a3.25,3.25,0,0,1,1.307,1.4l-3.326,1.662a3.2,3.2,0,0,0-1.092-1.028L278.279,78.412a.814.814,0,0,0-1.129.352h0A4.515,4.515,0,0,1,280.9,76.289Z" transform="translate(-277.07 -76.288)" fill="#fff" opacity="0.4"/>
                <path id="Path_58920" data-name="Path 58920" d="M276.969,78.764h0a4.5,4.5,0,0,1,3.752-2.476,1.475,1.475,0,0,1,.493.095L315.181,95.7a3.29,3.29,0,0,1,1.643,2.824V171.98a3.119,3.119,0,0,1-4.183,2.8h-.015a1.161,1.161,0,0,1-.129-.055L278.53,155.376a3.253,3.253,0,0,1-1.64-2.821V79.119A.8.8,0,0,1,276.969,78.764Z" transform="translate(-276.89 -76.288)" fill="#fff" opacity="0.3"/>
                <path id="Path_58921" data-name="Path 58921" d="M286.176,146.529h0a3.178,3.178,0,0,0-.2-1.089A3.178,3.178,0,0,1,286.176,146.529Z" transform="translate(-283.198 -124.279)" fill="#fff" opacity="0.3"/>
                <path id="Path_58922" data-name="Path 58922" d="M315.839,159.312l-30.264-17.476c-.291-.168-.526-.034-.526.306L285,176.253a1.163,1.163,0,0,0,.526.918l30.261,17.473c.291.165.526.034.529-.306l.043-34.114A1.154,1.154,0,0,0,315.839,159.312Z" transform="translate(-282.518 -121.727)" fill="#00a9dc"/>
                <path id="Path_58923" data-name="Path 58923" d="M291.41,101.455l.361.208,0-1.545-.358-.208Z" transform="translate(-286.967 -92.682)" fill="#fff"/>
                <path id="Path_58924" data-name="Path 58924" d="M289.39,100.958l.358.208.006-1.252-.361-.205Z" transform="translate(-285.565 -92.543)" fill="#fff"/>
                <path id="Path_58925" data-name="Path 58925" d="M287.37,100.517l.358.208,0-.927-.358-.208Z" transform="translate(-284.163 -92.459)" fill="#fff"/>
                <path id="Path_58926" data-name="Path 58926" d="M285.35,100.037l.358.205,0-.624-.361-.208Z" transform="translate(-282.761 -92.335)" fill="#fff"/>
                <path id="Path_58927" data-name="Path 58927" d="M295.79,104.537l2.2,1.273,0-1.3-2.2-1.273Z" transform="translate(-290.006 -94.992)" fill="#fff"/>
                <path id="Path_58928" data-name="Path 58928" d="M306.56,110.764l1.1.636,0-1.3-1.1-.633Z" transform="translate(-297.481 -99.316)" fill="#fff"/>
                <path id="Path_58929" data-name="Path 58929" d="M380.82,153.677l0-1.047,1.181.682-1.181-.682Z" transform="translate(-349.017 -129.269)" fill="#fff"/>
                <path id="Path_58930" data-name="Path 58930" d="M380.82,153.677l1.184.682v-1.047l-1.181-.682Z" transform="translate(-349.017 -129.269)" fill="#00a9dc"/>
                <path id="Path_58931" data-name="Path 58931" d="M382.351,153.148v-.41l-2.231-1.288v1.53l2.231,1.288v-.407l.285.165V153.3Zm-.832.407-1.184-.682v-1.047l1.184.682Z" transform="translate(-348.531 -128.45)" fill="#fff"/>
                <path id="Path_58932" data-name="Path 58932" d="M369.67,147.117l2.2,1.27.006-1.3-2.2-1.27Z" transform="translate(-341.279 -124.543)" fill="#fff"/>
                <path id="Path_58933" data-name="Path 58933" d="M335.33,127.037l2.2,1.273.006-1.3-2.2-1.273Z" transform="translate(-317.447 -110.607)" fill="#fff"/>
                <path id="Path_58934" data-name="Path 58934" d="M318.493,310.24l0,1.294,5.643,3.259.006-1.294Z" transform="translate(-305.76 -238.649)" fill="#00a9dc"/>
                <path id="Path_58935" data-name="Path 58935" d="M332.214,304.337l-5.808-3.357-.006,1.294,5.811,3.354Z" transform="translate(-311.25 -232.223)" fill="#00a9dc"/>
                <path id="Path_58936" data-name="Path 58936" d="M286.74,285.971l7.133,4.146,0-1.291-7.133-4.146Z" transform="translate(-283.726 -220.911)" fill="#00a9dc"/>
                <path id="Path_58937" data-name="Path 58937" d="M297.333,284.132,286.763,278l0,1.291,10.569,6.132Z" transform="translate(-283.74 -216.275)" fill="#00a9dc"/>
                <path id="Path_58938" data-name="Path 58938" d="M315.14,302.461l12.871,7.43,0-1.291-12.868-7.43Z" transform="translate(-303.435 -232.354)" fill="#00a9dc"/>
                <path id="Path_58939" data-name="Path 58939" d="M295.1,296.744l-8.339-4.814,0,1.291,8.339,4.813Z" transform="translate(-283.74 -225.942)" fill="#00a9dc"/>
                <path id="Path_58940" data-name="Path 58940" d="M350.29,316.064,360.575,322l.006-1.294-10.288-5.94Z" transform="translate(-327.829 -241.793)" fill="#00a9dc"/>
                <path id="Path_58941" data-name="Path 58941" d="M362.1,329.571l6.668,3.85,0-1.291-6.665-3.85Z" transform="translate(-336.025 -251.169)" fill="#00a9dc"/>
                <path id="Path_58942" data-name="Path 58942" d="M286.76,307.734l12.871,7.43,0-1.291-12.871-7.433Z" transform="translate(-283.74 -236.012)" fill="#00a9dc"/>
                <path id="Path_58943" data-name="Path 58943" d="M286.763,316.42l0,1.294,8.342,4.813v-1.294Z" transform="translate(-283.74 -242.938)" fill="#00a9dc"/>
                <path id="Path_58944" data-name="Path 58944" d="M323.526,337.635,318.44,334.7v1.294l5.083,2.935Z" transform="translate(-305.725 -255.624)" fill="#00a9dc"/>
                <path id="Path_58945" data-name="Path 58945" d="M287.517,264.442a.542.542,0,0,0-.548-.055c-.306.171-.306.731,0,1.252l.174.306,1.089,1.885,1.1-.612.177-.1c.306-.171.306-.734,0-1.255a1.6,1.6,0,0,0-.545-.588.557.557,0,0,0-.548-.055l-.178.1-.174-.306a1.564,1.564,0,0,0-.545-.572Z" transform="translate(-283.726 -206.792)" fill="#fff"/>
                <path id="Path_58946" data-name="Path 58946" d="M301.059,273.032a2.962,2.962,0,0,1,1.343,2.326,1.15,1.15,0,0,1-.184.667l.177.878-.673-.594a1.191,1.191,0,0,1-.673-.181,2.962,2.962,0,0,1-1.34-2.326C299.713,272.946,300.316,272.6,301.059,273.032Z" transform="translate(-292.727 -212.699)" fill="#fff"/>
                <path id="Path_58947" data-name="Path 58947" d="M308.187,176.678l1.564,2.858,2.274.793.961,2.974,2.3,1.64.266,2.8,2.1,2.329-.462,2.347,1.7,2.785-1.138,1.668,1.126,2.974-1.7.823.444,2.87-2.105-.1-.278,2.485-2.3-1.016-.973,1.857-2.271-1.833-1.576,1.05-2.017-2.466-2.023.135-1.567-2.861-2.271-.79-.961-2.977-2.3-1.637-.263-2.8-2.1-2.326.459-2.35-1.7-2.785,1.138-1.668-1.126-2.974,1.708-.823-.447-2.87,2.105.1.278-2.485,2.3,1.013.976-1.857,2.268,1.833,1.576-1.047,2.017,2.466Z" transform="translate(-288.327 -143.794)" fill="#00a9dc"/>
                <g id="Group_12679" data-name="Group 12679" transform="translate(5.043 29.766)" opacity="0.4">
                    <path id="Path_58948" data-name="Path 58948" d="M308.187,176.678l1.564,2.858,2.274.793.961,2.974,2.3,1.64.266,2.8,2.1,2.329-.462,2.347,1.7,2.785-1.138,1.668,1.126,2.974-1.7.823.444,2.87-2.105-.1-.278,2.485-2.3-1.016-.973,1.857-2.271-1.833-1.576,1.05-2.017-2.466-2.023.135-1.567-2.861-2.271-.79-.961-2.977-2.3-1.637-.263-2.8-2.1-2.326.459-2.35-1.7-2.785,1.138-1.668-1.126-2.974,1.708-.823-.447-2.87,2.105.1.278-2.485,2.3,1.013.976-1.857,2.268,1.833,1.576-1.047,2.017,2.466Z" transform="translate(-293.37 -173.56)" fill="#fff"/>
                </g>
                <path id="Path_58949" data-name="Path 58949" d="M313.077,188.288c5.367,3.1,9.7,10.612,9.685,16.781s-4.382,8.654-9.734,5.557-9.7-10.612-9.688-16.781S307.707,185.192,313.077,188.288Z" transform="translate(-295.246 -153.091)" fill="#00a9dc"/>
                <g id="Group_12680" data-name="Group 12680" transform="translate(8.094 33.865)" opacity="0.2">
                    <path id="Path_58950" data-name="Path 58950" d="M313.077,188.288c5.367,3.1,9.7,10.612,9.685,16.781s-4.382,8.654-9.734,5.557-9.7-10.612-9.688-16.781S307.707,185.192,313.077,188.288Z" transform="translate(-303.34 -186.956)" fill="#fff"/>
                </g>
                <path id="Path_58951" data-name="Path 58951" d="M326.027,217.24c.236.135.376.578.165.655-1.931.7-6.022,2.39-8.519,4.813a.5.5,0,0,1-.612,0,1.594,1.594,0,0,1-.612-.679,64.229,64.229,0,0,0-3.847-6.7c-.257-.392-.092-.762.214-.584a.424.424,0,0,1,.07.049,21.3,21.3,0,0,1,4.012,4.483,12.848,12.848,0,0,1,9.027-2.075.306.306,0,0,1,.1.037Z" transform="translate(-301.586 -172.345)" fill="#fff"/>
                <path id="Path_58952" data-name="Path 58952" d="M288.977,125.571a4.309,4.309,0,0,1,1.952,3.384c0,1.242-.884,1.744-1.965,1.12A4.309,4.309,0,0,1,287,126.691C287.015,125.449,287.894,124.947,288.977,125.571Z" transform="translate(-283.906 -110.304)" fill="#fff"/>
                <path id="Path_58953" data-name="Path 58953" d="M316.243,144.012l-10.569-6.132,0,1.294,10.569,6.132Z" transform="translate(-296.863 -119.032)" fill="#fff"/>
            </g>
            <g id="freepik--Character--inject-35" transform="translate(57.575 50.012)">
                <path id="Path_58954" data-name="Path 58954" d="M186.11,165.05h.306c1.989.024,4.5,1.377,5.732,4.847l4.777,9.248-5.462,2.414-2.984-8.73Z" transform="translate(-169.85 -143.674)" fill="#ffa8a7"/>
                <path id="Path_58955" data-name="Path 58955" d="M191.985,177.916a12.36,12.36,0,0,1,.465,3.424,9.282,9.282,0,0,0,.722,3.58,3.283,3.283,0,0,1,3.929.144,3.023,3.023,0,0,1,.884,1.242l-4.477,1.977-2.984-8.73-1.466-4.814A5.569,5.569,0,0,1,191.985,177.916Z" transform="translate(-171.897 -150.399)" fill="#f28f8f"/>
                <path id="Path_58956" data-name="Path 58956" d="M203.133,208.974a3.259,3.259,0,0,1,2.466-2,3.486,3.486,0,0,1,3.036,1.245,2.4,2.4,0,0,1,.125,2.546,3.173,3.173,0,0,1-3.638,1.723A2.923,2.923,0,0,1,203.133,208.974Z" transform="translate(-181.569 -172.75)" fill="#ffa8a7"/>
                <path id="Path_58957" data-name="Path 58957" d="M140.779,393.825a1.429,1.429,0,0,1-1.322.793,1.408,1.408,0,0,1-1.065-.918,3.948,3.948,0,0,1-.217-1.441q-.049-2.448.116-4.878a16.5,16.5,0,0,0,3.406.355l-.523,4.514a4.2,4.2,0,0,1-.395,1.576Z" transform="translate(-136.575 -297.969)" fill="#ffa8a7"/>
                <path id="Path_58958" data-name="Path 58958" d="M133.621,391.359a11.574,11.574,0,0,0,.786-4.159l.282.067q-.165,2.433-.116,4.878a3.948,3.948,0,0,0,.217,1.441,1.408,1.408,0,0,0,1.065.918,1.429,1.429,0,0,0,1.322-.793,4.2,4.2,0,0,0,.395-1.576l.523-4.5h.361a21.255,21.255,0,0,0,.018,5.123,10.205,10.205,0,0,1-.646,5.037,2.28,2.28,0,0,1-.832,1.028,1.72,1.72,0,0,1-1.353.122,3.023,3.023,0,0,1-1.175-.728,4.844,4.844,0,0,1-1.423-2.678A9.089,9.089,0,0,1,133.621,391.359Z" transform="translate(-132.973 -297.844)" fill="#455a64"/>
                <path id="Path_58959" data-name="Path 58959" d="M188.413,389.908l-.278,1.677a4.185,4.185,0,0,1-1.76-1.35c-.034-1.285-.018-2.61,0-3.256a16.221,16.221,0,0,0,1.613,2.035,4.025,4.025,0,0,1,.425.894Z" transform="translate(-170.02 -297.692)" fill="#455a64"/>
                <path id="Path_58960" data-name="Path 58960" d="M192.877,398.043l-.707.184.278-1.677C192.623,397.03,192.73,397.544,192.877,398.043Z" transform="translate(-174.055 -304.333)" fill="#455a64"/>
                <path id="Path_58961" data-name="Path 58961" d="M188.413,389.908l-.278,1.677a4.185,4.185,0,0,1-1.76-1.35c-.034-1.285-.018-2.61,0-3.256a16.221,16.221,0,0,0,1.613,2.035,4.025,4.025,0,0,1,.425.894Z" transform="translate(-170.02 -297.692)" opacity="0.2"/>
                <path id="Path_58962" data-name="Path 58962" d="M192.877,398.043l-.707.184.278-1.677C192.623,397.03,192.73,397.544,192.877,398.043Z" transform="translate(-174.055 -304.333)" opacity="0.3"/>
                <path id="Path_58963" data-name="Path 58963" d="M185.872,378a7.038,7.038,0,0,1,.551-1.279,3.69,3.69,0,0,0,.612,1.934c.477.771,1.117,1.435,1.579,2.222a17.036,17.036,0,0,0,1.585,2.9,3.48,3.48,0,0,0,2.9,1.129,1.555,1.555,0,0,0,1.065-.477.835.835,0,0,0,.174-.5,7.805,7.805,0,0,0,1.2,1.047c.483.337,1.065.692,1.144,1.276a1.258,1.258,0,0,1-.695,1.19,3.3,3.3,0,0,1-1.417.306,9.128,9.128,0,0,1-3.118-.266,4.333,4.333,0,0,1-2.485-1.805,5.538,5.538,0,0,1-.557-1.4c-.138-.5-.254-1.013-.428-1.493a4.025,4.025,0,0,0-.435-.894,16.219,16.219,0,0,1-1.613-2.035c-.018-.043-.04-.083-.058-.125A2.8,2.8,0,0,1,185.872,378Z" transform="translate(-169.59 -290.571)" fill="#455a64"/>
                <path id="Path_58964" data-name="Path 58964" d="M194.674,384.173a3.479,3.479,0,0,1-2.9-1.129,17.034,17.034,0,0,1-1.585-2.9c-.462-.786-1.1-1.45-1.579-2.222a3.691,3.691,0,0,1-.612-1.934l.174-.324a30.635,30.635,0,0,1,4.425.82,28.39,28.39,0,0,0,1.634,4.266,10.773,10.773,0,0,0,1.686,2.448.835.835,0,0,1-.174.5,1.555,1.555,0,0,1-1.071.474Z" transform="translate(-171.161 -289.836)" fill="#ffa8a7"/>
                <path id="Path_58965" data-name="Path 58965" d="M155.076,204.879q.119,1.836.236,3.672c2.769,11.417,1.943,28.474,1.943,28.474l-.086,20.809a3.534,3.534,0,0,1-4.927-1.068c-.471-5.113-2.849-13.158-2.142-19.428-.958-4.948-1.671-11.986-1.671-11.986L146.1,237.523l-4.85,23.492c-2.142.918-4.042.288-4.66-.545.5-12.959.285-19.19,2.283-25.181-.612-16.075-.808-23.339,3.109-28.863l-.049-2.087Z" transform="translate(-135.483 -170.941)" fill="#00a9dc"/>
                <path id="Path_58966" data-name="Path 58966" d="M155.076,204.879q.119,1.836.236,3.672c2.769,11.417,1.943,28.474,1.943,28.474l-.086,20.809a3.534,3.534,0,0,1-4.927-1.068c-.471-5.113-2.849-13.158-2.142-19.428-.958-4.948-1.671-11.986-1.671-11.986L146.1,237.523l-4.85,23.492c-2.142.918-4.042.288-4.66-.545.5-12.959.285-19.19,2.283-25.181-.612-16.075-.808-23.339,3.109-28.863l-.049-2.087Z" transform="translate(-135.483 -170.941)" opacity="0.3"/>
                <path id="Path_58967" data-name="Path 58967" d="M175.827,260.1a9.125,9.125,0,0,0,3.978-1.778,3.993,3.993,0,0,1-2.9,2.592l-1.224,5.074-.367-3.14Z" transform="translate(-162.355 -208.402)" opacity="0.2"/>
                <path id="Path_58968" data-name="Path 58968" d="M154.814,164.35l1.4.1a1.793,1.793,0,0,1,1.353.783l3.244,4.8a3.889,3.889,0,0,1-.248,4.7h0a2.271,2.271,0,0,0-.52,1.766l1.108,10.964c-6.377,4.734-15.074,1.894-17.975.349a18.922,18.922,0,0,1,2.323-7.6,5.851,5.851,0,0,0,.56-4.486l-.918-3.3,1.328-7.846Z" transform="translate(-140.057 -143.188)" fill="#455a64"/>
                <path id="Path_58969" data-name="Path 58969" d="M194.512,128c.11.591.575,2.368.11,3.366-.223.474-.474.762-.306,1.261s.869.786.964,1.337c.08.444-.269.829-.483,1.224a2.163,2.163,0,0,0,1.267,3.088,2.794,2.794,0,0,1-2.078-1.138,2.6,2.6,0,0,1-.282-2.268,2.874,2.874,0,0,0,.205-.664,2.2,2.2,0,0,0-.5-1.242,4.284,4.284,0,0,1-.64-2.837A2.917,2.917,0,0,1,194.512,128Z" transform="translate(-174.445 -117.961)" fill="#263238"/>
                <path id="Path_58970" data-name="Path 58970" d="M168.953,116.071a5.783,5.783,0,0,0-.7-2.73,7.566,7.566,0,0,0-6.392-4.137,5.732,5.732,0,0,0-3.516,1.077,6.615,6.615,0,0,0-2.237,3.44,6.882,6.882,0,0,0-.153,3.914,4.2,4.2,0,0,0,2.555,2.84,5.949,5.949,0,0,0,2.537.15,21.622,21.622,0,0,0,5.318-1.261,3.656,3.656,0,0,0,1.732-.976A3.822,3.822,0,0,0,168.953,116.071Z" transform="translate(-148.776 -104.916)" fill="#263238"/>
                <path id="Path_58971" data-name="Path 58971" d="M170.131,150.239v3.115s2.543,1.625,1.472,2.485c-2.02,1.625-6.353-2.5-6.353-2.5v-5.2Z" transform="translate(-155.373 -131.938)" fill="#ffa8a7"/>
                <path id="Path_58972" data-name="Path 58972" d="M165.25,148.14c.6,2.73,3.479,4.41,4.881,4.749v-2.65Z" transform="translate(-155.373 -131.938)" fill="#f28f8f"/>
                <path id="Path_58973" data-name="Path 58973" d="M154.2,128.964a1.53,1.53,0,0,1,2.782,1.261.878.878,0,0,0,.82-.083,1.4,1.4,0,0,0,.526-.7,8.374,8.374,0,0,0,.193-1.157c.777-.122,1.224-1.4,1.224-1.53.19.037,3.794.2,4.957-1.888,1.57.266,2.1,2.105,2.142,2.1a9.4,9.4,0,0,1,.15,1.965,15.058,15.058,0,0,1-.713,3.978,3.7,3.7,0,0,1-1.61,2.589,3.473,3.473,0,0,1-1.937.306,7.939,7.939,0,0,1-5.814-4.244,1.294,1.294,0,0,1-1.628.306,3.571,3.571,0,0,1-1.059-1.282,1.915,1.915,0,0,1-.034-1.619Z" transform="translate(-147.591 -115.789)" fill="#ffa8a7"/>
                <path id="Path_58974" data-name="Path 58974" d="M184.6,138.84l1.255,2.323-1.619.236Z" transform="translate(-168.552 -125.484)" fill="#f28f8f"/>
                <path id="Path_58975" data-name="Path 58975" d="M178.956,149.55l1.2.643a.8.8,0,0,1-.936.226A.719.719,0,0,1,178.956,149.55Z" transform="translate(-164.847 -132.917)" fill="#f28f8f"/>
                <path id="Path_58976" data-name="Path 58976" d="M178.956,149.55l1.2.643a.8.8,0,0,1-.936.226A.719.719,0,0,1,178.956,149.55Z" transform="translate(-164.847 -132.917)" opacity="0.3"/>
                <path id="Path_58977" data-name="Path 58977" d="M179.64,150.963a.753.753,0,0,1-.422-.058.646.646,0,0,1-.306-.655.734.734,0,0,1,.722.713Z" transform="translate(-164.849 -133.403)" fill="#f28f8f"/>
                <path id="Path_58978" data-name="Path 58978" d="M177.8,137.921a.462.462,0,1,0,.523-.392A.462.462,0,0,0,177.8,137.921Z" transform="translate(-164.079 -124.571)" fill="#263238"/>
                <path id="Path_58979" data-name="Path 58979" d="M190.41,139.214a.462.462,0,1,0,.18-.306A.462.462,0,0,0,190.41,139.214Z" transform="translate(-172.831 -125.467)" fill="#263238"/>
                <path id="Path_58980" data-name="Path 58980" d="M192.72,134.206l.918.845a.652.652,0,0,0-.1-.744A.783.783,0,0,0,192.72,134.206Z" transform="translate(-174.437 -122.218)" fill="#263238"/>
                <path id="Path_58981" data-name="Path 58981" d="M177.448,131.952l-1.114.56a.667.667,0,0,1,.306-.692A.789.789,0,0,1,177.448,131.952Z" transform="translate(-163.057 -120.573)" fill="#263238"/>
                <path id="Path_58982" data-name="Path 58982" d="M161.049,133.787a2.792,2.792,0,0,1,.049,1.971c-.184.364-.526.633-.71,1a2.255,2.255,0,0,0-.135,1.343,8.918,8.918,0,0,1,.174,1.359,2.518,2.518,0,0,1-2.678,2.466,1.684,1.684,0,0,0,1.42-.854,2.519,2.519,0,0,0,.272-1.53c-.049-.523-.193-1.034-.285-1.551a3.415,3.415,0,0,1,0-1.564c.15-.523.5-1.025.395-1.558-.058-.291-.248-.545-.278-.838a.826.826,0,0,1,.612-.86A1.173,1.173,0,0,1,161.049,133.787Z" transform="translate(-150.168 -121.539)" fill="#263238"/>
                <path id="Path_58983" data-name="Path 58983" d="M166.018,110.061a3.461,3.461,0,0,1-1,.8,8.293,8.293,0,0,1-4.459,1.08,2.363,2.363,0,0,1-.918-.174,1.371,1.371,0,0,1-.744-1.037,5.261,5.261,0,0,1,1.662-1.836,6,6,0,0,1,3.366-.918,7.17,7.17,0,0,1,2.075.346,1.307,1.307,0,0,1,.324.612A1.414,1.414,0,0,1,166.018,110.061Z" transform="translate(-150.966 -104.062)" opacity="0.3"/>
                <path id="Path_58984" data-name="Path 58984" d="M162.992,98.152a3.482,3.482,0,0,0-2.368-2.681,5.245,5.245,0,0,0-3.645.1,6.818,6.818,0,0,0-2.9,2.268,3.564,3.564,0,0,0-.866,2.473,2.782,2.782,0,0,0,1.965,2.206,5.508,5.508,0,0,0,3.112-.037,11.732,11.732,0,0,0,3.335-1.622C162.318,100.123,163.111,99.144,162.992,98.152Z" transform="translate(-147.01 -95.195)" fill="#263238"/>
                <path id="Path_58985" data-name="Path 58985" d="M162.52,193.57a5.135,5.135,0,0,0,6.166,1.812,3.816,3.816,0,0,1-3.519.979A4.206,4.206,0,0,1,162.52,193.57Z" transform="translate(-153.478 -163.466)" opacity="0.2"/>
                <path id="Path_58986" data-name="Path 58986" d="M189.783,216.291a.043.043,0,0,0,0,.021.04.04,0,0,0,0,.028l.49.56h0a.13.13,0,0,1,0-.037c.018.086.147.083.358-.037l4.1-2.307a2.317,2.317,0,0,0,.786-.747l3.568-6.643c.058-.11.055-.174,0-.205h.015l-.471-.56a.1.1,0,0,0-.064-.024h-.275l-4.1,2.307h-.046l-.021.015h-.052l-.052.046v.015h0v.015l-.015.018-.015.018v.021l-.015.021v.021l-.015.021-.015.021v.058l-3.568,6.643h0v.018a.042.042,0,0,0,0,.018v.018a.042.042,0,0,0,0,.018h0a.055.055,0,0,0,0,.018h0a.426.426,0,0,0-.591.615Zm9.211-9.379Zm-4.774,2.754h0c.034-.034.073-.064.113-.1-.04.034-.08.055-.113.089Zm-.2.205.052-.052Zm-3.749,6.965h0a.065.065,0,0,1,0-.021.132.132,0,0,0,0,.034v-.021Z" transform="translate(-172.308 -172.329)" fill="#e0e0e0"/>
                <path id="Path_58987" data-name="Path 58987" d="M189.783,216.291a.043.043,0,0,0,0,.021.04.04,0,0,0,0,.028l.49.56h0a.13.13,0,0,1,0-.037c.018.086.147.083.358-.037l4.1-2.307a2.317,2.317,0,0,0,.786-.747l3.568-6.643c.058-.11.055-.174,0-.205h.015l-.471-.56a.1.1,0,0,0-.064-.024h-.275l-4.1,2.307h-.046l-.021.015h-.052l-.052.046v.015h0v.015l-.015.018-.015.018v.021l-.015.021v.021l-.015.021-.015.021v.058l-3.568,6.643h0v.018a.042.042,0,0,0,0,.018v.018a.042.042,0,0,0,0,.018h0a.055.055,0,0,0,0,.018h0a.426.426,0,0,0-.591.615Zm9.211-9.379Zm-4.774,2.754h0c.034-.034.073-.064.113-.1-.04.034-.08.055-.113.089Zm-.2.205.052-.052Zm-3.749,6.965h0a.065.065,0,0,1,0-.021.132.132,0,0,0,0,.034v-.021Z" transform="translate(-172.308 -172.329)" opacity="0.2"/>
                <path id="Path_58988" data-name="Path 58988" d="M190.088,223.525h0a.055.055,0,0,1,0-.018h0a.043.043,0,0,1,0-.018v-.018a.043.043,0,0,1,0-.018v-.018h0l3.568-6.643.49.56-3.522,6.6a.385.385,0,0,0-.046.122h0a.083.083,0,0,0,.015.073h0l-.49-.56a.04.04,0,0,1,0-.028.043.043,0,0,1,0-.021A.04.04,0,0,1,190.088,223.525Z" transform="translate(-172.61 -179.581)" fill="#fff" opacity="0.15"/>
                <path id="Path_58989" data-name="Path 58989" d="M201.916,210.743v-.04l.015-.021.015-.021v-.021l.015-.021V210.6l.015-.018.015-.018v-.015h0v-.015l.052-.046h.052l.021-.015h.046l4.1-2.307h.275a.1.1,0,0,1,.064.024l.487.56q-.031-.037-.119-.018h0a.787.787,0,0,0-.223.095l-3.565,1.738a1.716,1.716,0,0,0-.233.156h0a2.658,2.658,0,0,0-.223.193h0a2.42,2.42,0,0,0-.2.205h0a1.506,1.506,0,0,0-.135.2l-.49-.56Z" transform="translate(-180.815 -173.592)" fill="#fff" opacity="0.2"/>
                <path id="Path_58990" data-name="Path 58990" d="M141.722,168.192a3.213,3.213,0,0,1,3.189-3.042s1.447.995,1.447,5.426l-.122,11.087h0l.814.34a33.311,33.311,0,0,0,7.13,2.142,7.072,7.072,0,0,1,4.5-1.53l-.612,1.129c1.148.734,3.739-.591,3.739-.591a4.552,4.552,0,0,1-2.246,4.143c-1.389.851-14.642-.4-17.442-2.219C140.262,183.9,141.006,173.394,141.722,168.192Z" transform="translate(-138.51 -143.743)" fill="#ffa8a7"/>
                <path id="Path_58991" data-name="Path 58991" d="M212.47,213.1a7.514,7.514,0,0,1,.15,1.325,4.832,4.832,0,0,1-1.276,2.834,1.472,1.472,0,0,1-.551.389.649.649,0,0,1-.64-.1.958.958,0,0,1-.22-.667,3.611,3.611,0,0,1,.058-1.074,1.5,1.5,0,0,1,.563-.9,3.423,3.423,0,0,1,.716-.306,1.79,1.79,0,0,0,.643-.462Z" transform="translate(-186.371 -177.02)" fill="#ffa8a7"/>
            </g>
            <g id="freepik--speech-bubble--inject-35" transform="translate(81.63 55.455)">
                <path id="Path_58992" data-name="Path 58992" d="M219.764,117.911l8.348-4.792c.731-.419,2.448.15,2.448,1.325a.545.545,0,0,0-.814-.471l-8.351,4.792a1.6,1.6,0,0,0-.633.682l-1.622-.918A1.61,1.61,0,0,1,219.764,117.911Z" transform="translate(-216.826 -112.981)" fill="#00a9dc"/>
                <path id="Path_58993" data-name="Path 58993" d="M220.361,132.021a1.619,1.619,0,0,0-.184.731v6.2a.542.542,0,0,0,.811.471,1.61,1.61,0,0,1-2.448-1.325v-6.2a1.622,1.622,0,0,1,.211-.8Z" transform="translate(-216.41 -125.556)" fill="#00a9dc"/>
                <path id="Path_58994" data-name="Path 58994" d="M219.764,117.911l8.348-4.792c.731-.419,2.448.15,2.448,1.325a.545.545,0,0,0-.814-.471l-8.351,4.792a1.6,1.6,0,0,0-.633.682l-1.622-.918A1.61,1.61,0,0,1,219.764,117.911Z" transform="translate(-216.826 -112.981)" fill="#fff" opacity="0.4"/>
                <path id="Path_58995" data-name="Path 58995" d="M220.361,132.021a1.619,1.619,0,0,0-.184.731v6.2a.542.542,0,0,0,.811.471,1.61,1.61,0,0,1-2.448-1.325v-6.2a1.622,1.622,0,0,1,.211-.8Z" transform="translate(-216.41 -125.556)" fill="#fff" opacity="0.2"/>
                <path id="Path_58996" data-name="Path 58996" d="M233.058,116.058l-8.351,4.792a1.631,1.631,0,0,0-.817,1.414v6.2a.542.542,0,0,0,.811.471l8.351-4.771a1.634,1.634,0,0,0,.82-1.414V116.53a.545.545,0,0,0-.814-.471Z" transform="translate(-220.123 -115.067)" fill="#00a9dc"/>
                <path id="Path_58997" data-name="Path 58997" d="M217.063,141.847l2.007.376V139.65l-2.078,1.962a.138.138,0,0,0,.07.236Z" transform="translate(-215.306 -131.489)" fill="#00a9dc"/>
                <path id="Path_58998" data-name="Path 58998" d="M215.343,137.512l-1.646-.942-2.075,1.983a.138.138,0,0,0,.028.22l1.64.918Z" transform="translate(-211.579 -129.352)" fill="#00a9dc"/>
                <path id="Path_58999" data-name="Path 58999" d="M215.343,137.512l-1.646-.942-2.075,1.983a.138.138,0,0,0,.028.22l1.64.918Z" transform="translate(-211.579 -129.352)" fill="#fff" opacity="0.2"/>
                <path id="Path_59000" data-name="Path 59000" d="M235.944,122.7c.205-.119.349.116.162.413a47.952,47.952,0,0,0-3.513,6.646,1.316,1.316,0,0,1-.52.63.41.41,0,0,1-.508,0,10.248,10.248,0,0,0-1.616-1.255c-.159-.1-.028-.471.177-.591a.251.251,0,0,1,.08-.031,5.508,5.508,0,0,1,1.836-.052,27.391,27.391,0,0,1,3.773-5.655A.471.471,0,0,1,235.944,122.7Z" transform="translate(-224.279 -119.703)" fill="#fff"/>
            </g>
        </g>
        <g id="Group_1_" data-name="Group (1)" transform="translate(142.996 232.435)">
            <path id="Path_58803" data-name="Path 58803" d="M66.908,88.923l13.465-.671a2.544,2.544,0,0,0,2.4-2.228l.49-3.952L68.5,82.807a2.544,2.544,0,0,0-2.4,2.228l-.33,2.664A1.09,1.09,0,0,0,66.908,88.923Z" transform="translate(-47.294 -59.318)" fill="#0d8ba0"/>
            <path id="Path_58804" data-name="Path 58804" d="M102.745,82.072l-.49,3.952a2.544,2.544,0,0,1-2.4,2.227l-7.136.356a8.931,8.931,0,0,0,6.75-6.372Z" transform="translate(-66.777 -59.318)" fill="#02718c"/>
            <path id="Path_58805" data-name="Path 58805" d="M71.5,38.317l14.761-.735a2.544,2.544,0,0,0,2.4-2.228l.49-3.952-14.761.735a2.544,2.544,0,0,0-2.4,2.228Z" transform="translate(-51.437 -22.696)" fill="#0d8ba0"/>
            <path id="Path_58806" data-name="Path 58806" d="M105.42,31.4l-.49,3.952a2.544,2.544,0,0,1-2.4,2.227L94.014,38a9.5,9.5,0,0,0,7.4-6.4Z" transform="translate(-67.712 -22.695)" fill="#02718c"/>
            <path id="Path_58807" data-name="Path 58807" d="M86.448,24.731,72.313,20.415a2.544,2.544,0,0,1-1.782-2.746l.49-3.952,14.135,4.315a2.544,2.544,0,0,1,1.782,2.746Zm1.741-14.048L74.053,6.367a2.544,2.544,0,0,1-1.782-2.746L72.6.957A1.09,1.09,0,0,1,74,.048L86.9,3.985A2.544,2.544,0,0,1,88.678,6.73Z" transform="translate(-50.726)" fill="#06d0ff"/>
            <path id="Path_58808" data-name="Path 58808" d="M108.018,18.053l-.49,3.952-8.094-2.471a9.839,9.839,0,0,0,7.531-3.868A2.543,2.543,0,0,1,108.018,18.053ZM106.277,32.1l-.49,3.952-8.518-2.6a9.584,9.584,0,0,0,8.057-3.662A2.541,2.541,0,0,1,106.277,32.1Z" transform="translate(-70.065 -11.323)" fill="#00addb"/>
            <path id="Path_58809" data-name="Path 58809" d="M83.4,18.949h0a1.272,1.272,0,0,0,.891,1.373L90,22.066a1.272,1.272,0,0,0,.743-2.432L85.03,17.889A1.272,1.272,0,0,0,83.4,18.949ZM85.137,4.9h0a1.272,1.272,0,0,0,.891,1.373l5.714,1.744a1.272,1.272,0,0,0,.743-2.432L86.77,3.841A1.272,1.272,0,0,0,85.137,4.9Z" transform="translate(-60.031 -2.736)" fill="#52efff"/>
            <path id="Path_58810" data-name="Path 58810" d="M30.877,88.962,17.928,92.719A2.543,2.543,0,0,1,14.935,91.4l-1.752-3.576L27.377,83.7a2.544,2.544,0,0,1,2.993,1.324l1.181,2.411A1.09,1.09,0,0,1,30.877,88.962ZM25.9,75.888,11.7,80.007a2.544,2.544,0,0,1-2.993-1.324L6.957,75.106l14.194-4.118a2.544,2.544,0,0,1,2.993,1.324Z" transform="translate(-4.791 -51.234)" fill="#8042e0"/>
            <path id="Path_58811" data-name="Path 58811" d="M4.874,53.747,16.83,45.058a2.544,2.544,0,0,0,.789-3.177L16.438,39.47a1.09,1.09,0,0,0-1.62-.4L3.912,46.994a2.544,2.544,0,0,0-.789,3.177Z" transform="translate(-1.832 -28.086)" fill="#ff5ad0"/>
            <path id="Path_58812" data-name="Path 58812" d="M23.342,47.127h0a1.272,1.272,0,0,1-.394,1.588l-4.833,3.512a1.272,1.272,0,0,1-1.5-2.057l4.833-3.513A1.272,1.272,0,0,1,23.342,47.127Z" transform="translate(-11.396 -33.546)" fill="#ff97eb"/>
            <path id="Path_58813" data-name="Path 58813" d="M57.655,85.025l1.181,2.411a1.089,1.089,0,0,1-.675,1.526L52.067,90.73a7.99,7.99,0,0,0,2.716-7.062A2.545,2.545,0,0,1,57.655,85.025ZM51.429,72.312l1.751,3.576-8.473,2.458A7.98,7.98,0,0,0,48.035,71.1l.4-.116A2.544,2.544,0,0,1,51.429,72.312Z" transform="translate(-32.075 -51.234)" fill="#772dbd"/>
            <path id="Path_58814" data-name="Path 58814" d="M42.486,39.471l1.181,2.411a2.543,2.543,0,0,1-.789,3.176L38.9,47.947a7.969,7.969,0,0,0,.918-8.119l1.045-.76A1.091,1.091,0,0,1,42.486,39.471Z" transform="translate(-27.88 -28.086)" fill="#f91ed0"/>
            <path id="Path_58815" data-name="Path 58815" d="M27.333,98.157l11.955-8.689a2.544,2.544,0,0,0,.789-3.177l-1.752-3.576L26.371,91.4a2.544,2.544,0,0,0-.789,3.177Z" transform="translate(-18.065 -59.783)" fill="#ff5ad0"/>
            <path id="Path_58816" data-name="Path 58816" d="M45.8,92.978h0a1.272,1.272,0,0,1-.394,1.588l-4.833,3.512a1.272,1.272,0,1,1-1.5-2.057l4.833-3.513A1.272,1.272,0,0,1,45.8,92.978Z" transform="translate(-27.627 -66.686)" fill="#ff97eb"/>
            <path id="Path_58817" data-name="Path 58817" d="M61.119,82.715l1.752,3.576a2.544,2.544,0,0,1-.789,3.177l-5.224,3.8a7.974,7.974,0,0,0,1.863-8.807Z" transform="translate(-40.857 -59.783)" fill="#f91ed0"/>
            <path id="Path_58818" data-name="Path 58818" d="M88.422,119.919a.479.479,0,0,0,0-.8,13.539,13.539,0,0,1-3.778-3.778.479.479,0,0,0-.8,0,13.537,13.537,0,0,1-3.778,3.778.478.478,0,0,0,0,.8,13.537,13.537,0,0,1,3.778,3.778.479.479,0,0,0,.8,0,13.539,13.539,0,0,1,3.778-3.778Z" transform="translate(-57.479 -83.211)" fill="#ffc751"/>
            <path id="Path_58819" data-name="Path 58819" d="M93.727,125.883a13.535,13.535,0,0,0-3.778,3.779.479.479,0,0,1-.8,0,13.492,13.492,0,0,0-1.7-2.078q-.126-.126-.256-.249.171.015.346.014a4.109,4.109,0,0,0,4.106-3.966l0,0a13.5,13.5,0,0,0,2.078,1.7A.479.479,0,0,1,93.727,125.883Z" transform="translate(-62.784 -89.176)" fill="#ffaf40"/>
            <path id="Path_58820" data-name="Path 58820" d="M81.035,116.055a.266.266,0,0,0,0-.442,7.516,7.516,0,0,1-2.1-2.1.266.266,0,0,0-.442,0,7.516,7.516,0,0,1-2.1,2.1.266.266,0,0,0,0,.442,7.52,7.52,0,0,1,2.1,2.1.266.266,0,0,0,.442,0,7.52,7.52,0,0,1,2.1-2.1Z" transform="translate(-54.894 -81.958)" fill="#79ff79"/>
            <path id="Path_58821" data-name="Path 58821" d="M83.98,119.367a7.515,7.515,0,0,0-2.1,2.1.266.266,0,0,1-.442,0,7.491,7.491,0,0,0-1.087-1.291q.1.008.192.008a2.281,2.281,0,0,0,2.279-2.2h0a7.481,7.481,0,0,0,1.153.944A.266.266,0,0,1,83.98,119.367Z" transform="translate(-57.839 -85.27)" fill="#29e088"/>
            <path id="Path_58822" data-name="Path 58822" d="M31.458,19.94a.532.532,0,0,0,0-.886,15.059,15.059,0,0,1-4.2-4.2.532.532,0,0,0-.886,0,15.06,15.06,0,0,1-4.2,4.2.532.532,0,0,0,0,.886,15.06,15.06,0,0,1,4.2,4.2.532.532,0,0,0,.886,0,15.059,15.059,0,0,1,4.2-4.2Z" transform="translate(-15.611 -10.562)" fill="#ffe059"/>
            <path id="Path_58823" data-name="Path 58823" d="M37.359,26.578a15.064,15.064,0,0,0-4.2,4.2.533.533,0,0,1-.886,0,15,15,0,0,0-1.892-2.311q-.141-.141-.285-.277.192.016.385.016A4.571,4.571,0,0,0,35.045,23.8l0,0a15,15,0,0,0,2.311,1.892A.533.533,0,0,1,37.359,26.578Z" transform="translate(-21.512 -17.199)" fill="#ffc751"/>
            <path id="Path_58824" data-name="Path 58824" d="M6.9,12.24a.367.367,0,0,0,0-.611A10.386,10.386,0,0,1,4,8.73a.367.367,0,0,0-.611,0,10.344,10.344,0,0,1-1.305,1.594A10.343,10.343,0,0,1,.492,11.629a.367.367,0,0,0,0,.611,10.344,10.344,0,0,1,1.594,1.305,10.34,10.34,0,0,1,1.305,1.594.367.367,0,0,0,.611,0,10.39,10.39,0,0,1,2.9-2.9Z" transform="translate(0 -6.191)" fill="#06d0ff"/>
            <path id="Path_58825" data-name="Path 58825" d="M10.971,16.816a10.389,10.389,0,0,0-2.9,2.9.367.367,0,0,1-.611,0,10.341,10.341,0,0,0-1.5-1.785q.132.011.266.011A3.152,3.152,0,0,0,9.375,14.9l0,0a10.348,10.348,0,0,0,1.594,1.305A.367.367,0,0,1,10.971,16.816Z" transform="translate(-4.07 -10.768)" fill="#00addb"/>
            <path id="Path_58826" data-name="Path 58826" d="M116.694,100.121a.367.367,0,0,0,0-.611,10.381,10.381,0,0,1-2.9-2.9.367.367,0,0,0-.611,0,10.391,10.391,0,0,1-2.9,2.9.367.367,0,0,0,0,.611,10.4,10.4,0,0,1,2.9,2.9.367.367,0,0,0,.611,0,10.388,10.388,0,0,1,2.9-2.9Z" transform="translate(-79.353 -69.708)" fill="#fe255f"/>
            <path id="Path_58827" data-name="Path 58827" d="M120.766,104.7a10.379,10.379,0,0,0-2.9,2.9.368.368,0,0,1-.611,0,10.344,10.344,0,0,0-1.5-1.785q.131.011.266.011a3.153,3.153,0,0,0,3.15-3.043l0,0a10.329,10.329,0,0,0,1.594,1.3A.368.368,0,0,1,120.766,104.7Z" transform="translate(-83.425 -74.284)" fill="#e01152"/>
            <path id="Path_58828" data-name="Path 58828" d="M8.194,85.506a.282.282,0,0,0,0-.47,7.978,7.978,0,0,1-2.227-2.227.282.282,0,0,0-.47,0,7.942,7.942,0,0,1-1,1.225,7.942,7.942,0,0,1-1.225,1,.282.282,0,0,0,0,.47,7.943,7.943,0,0,1,1.225,1,7.946,7.946,0,0,1,1,1.224.282.282,0,0,0,.47,0,7.98,7.98,0,0,1,2.227-2.227Z" transform="translate(-2.036 -59.76)" fill="#ffe059"/>
            <path id="Path_58829" data-name="Path 58829" d="M11.319,89.022a7.982,7.982,0,0,0-2.227,2.227.282.282,0,0,1-.469,0,7.947,7.947,0,0,0-1.154-1.371q.1.009.2.009a2.422,2.422,0,0,0,2.42-2.338h0a7.948,7.948,0,0,0,1.225,1A.282.282,0,0,1,11.319,89.022Z" transform="translate(-5.161 -63.276)" fill="#ffc751"/>
            <path id="Path_58830" data-name="Path 58830" d="M129.057,43.9a.282.282,0,0,0,0-.47A7.977,7.977,0,0,1,126.83,41.2a.282.282,0,0,0-.47,0,7.976,7.976,0,0,1-2.227,2.227.282.282,0,0,0,0,.47,7.976,7.976,0,0,1,2.227,2.227.282.282,0,0,0,.47,0,7.977,7.977,0,0,1,2.227-2.227Z" transform="translate(-89.39 -29.687)" fill="#ffe059"/>
            <path id="Path_58831" data-name="Path 58831" d="M132.182,47.413a7.987,7.987,0,0,0-2.227,2.227.282.282,0,0,1-.469,0,7.946,7.946,0,0,0-1.154-1.371c.067.006.135.009.2.009a2.422,2.422,0,0,0,2.42-2.338h0a7.956,7.956,0,0,0,1.225,1A.282.282,0,0,1,132.182,47.413Z" transform="translate(-92.516 -33.203)" fill="#ffc751"/>
            <path id="Path_58832" data-name="Path 58832" d="M10.356,128.727a.282.282,0,0,0,0-.469,7.987,7.987,0,0,1-2.227-2.227.282.282,0,0,0-.47,0,7.987,7.987,0,0,1-2.227,2.227.282.282,0,0,0,0,.469,7.976,7.976,0,0,1,2.227,2.227.282.282,0,0,0,.47,0,7.976,7.976,0,0,1,2.227-2.227Z" transform="translate(-3.598 -90.998)" fill="#8042e0"/>
            <path id="Path_58833" data-name="Path 58833" d="M13.483,132.243a7.979,7.979,0,0,0-2.227,2.227.282.282,0,0,1-.469,0A7.942,7.942,0,0,0,9.633,133.1q.1.008.2.008a2.422,2.422,0,0,0,2.42-2.337h0a7.961,7.961,0,0,0,1.225,1A.282.282,0,0,1,13.483,132.243Z" transform="translate(-6.725 -94.515)" fill="#772dbd"/>
        </g>
    </g>
</svg>
