<svg xmlns="http://www.w3.org/2000/svg" width="164.138" height="148.767" viewBox="0 0 164.138 148.767">
    <g id="Group_12676" data-name="Group 12676" transform="translate(-98 -270)">
        <g id="Group_12675" data-name="Group 12675" transform="translate(98 270)">
            <g id="Documents-rafiki_1_" data-name="Documents-rafiki (1)" transform="translate(0 26.464)">
                <g id="freepik--background-complete--inject-11">
                    <rect id="Rectangle_6158" data-name="Rectangle 6158" width="164.138" height="0.082" transform="translate(0 107.477)" fill="#e6e6e6"/>
                    <rect id="Rectangle_6159" data-name="Rectangle 6159" width="6.162" height="0.082" transform="translate(147.602 110.373)" fill="#e6e6e6"/>
                    <rect id="Rectangle_6160" data-name="Rectangle 6160" width="2.853" height="0.082" transform="translate(122.47 112.625)" fill="#e6e6e6"/>
                    <rect id="Rectangle_6161" data-name="Rectangle 6161" width="6.355" height="0.082" transform="translate(91.904 111.492)" fill="#e6e6e6"/>
                    <rect id="Rectangle_6162" data-name="Rectangle 6162" width="14.178" height="0.082" transform="translate(26.567 111.449)" fill="#e6e6e6"/>
                    <rect id="Rectangle_6163" data-name="Rectangle 6163" width="2.078" height="0.082" transform="translate(21.568 111.449)" fill="#e6e6e6"/>
                    <rect id="Rectangle_6164" data-name="Rectangle 6164" width="30.753" height="0.082" transform="translate(62.142 109.506)" fill="#e6e6e6"/>
                    <path id="Path_58693" data-name="Path 58693" d="M103.468,147.836H40.081a1.874,1.874,0,0,1-1.871-1.874v-89.1A1.874,1.874,0,0,1,40.081,55h63.387a1.874,1.874,0,0,1,1.874,1.874v89.087A1.874,1.874,0,0,1,103.468,147.836ZM40.081,55.066a1.792,1.792,0,0,0-1.789,1.792v89.1a1.792,1.792,0,0,0,1.789,1.792h63.387a1.8,1.8,0,0,0,1.792-1.792v-89.1a1.8,1.8,0,0,0-1.792-1.792Z" transform="translate(-25.667 -55)" fill="#e6e6e6"/>
                    <path id="Path_58694" data-name="Path 58694" d="M319.764,147.836h-63.39a1.878,1.878,0,0,1-1.874-1.874v-89.1A1.878,1.878,0,0,1,256.374,55h63.39a1.874,1.874,0,0,1,1.868,1.858v89.1A1.874,1.874,0,0,1,319.764,147.836Zm-63.39-92.771a1.8,1.8,0,0,0-1.792,1.792v89.1a1.8,1.8,0,0,0,1.792,1.792h63.39a1.8,1.8,0,0,0,1.792-1.792v-89.1a1.8,1.8,0,0,0-1.792-1.792Z" transform="translate(-170.954 -55)" fill="#e6e6e6"/>
                    <rect id="Rectangle_6165" data-name="Rectangle 6165" width="66.394" height="47.314" transform="translate(19.273 6.132)" fill="#fafafa"/>
                    <rect id="Rectangle_6166" data-name="Rectangle 6166" width="67.047" height="47.314" transform="translate(19.848 6.132)" fill="#f5f5f5"/>
                    <rect id="Rectangle_6167" data-name="Rectangle 6167" width="43.451" height="63.607" transform="translate(85.174 8.062) rotate(90)" fill="#fafafa"/>
                    <path id="Path_58695" data-name="Path 58695" d="M100.98,123.01,111.071,79.56H124.3L114.209,123.01Z" transform="translate(-67.831 -71.498)" fill="#fff"/>
                    <path id="Path_58696" data-name="Path 58696" d="M147.8,123.01,157.894,79.56h5.975L153.775,123.01Z" transform="translate(-99.281 -71.498)" fill="#fff"/>
                    <rect id="Rectangle_6168" data-name="Rectangle 6168" width="43.451" height="0.22" transform="translate(85.174 8.062) rotate(90)" fill="#fafafa"/>
                    <path id="Path_58697" data-name="Path 58697" d="M54.78,70.679V89.43h4.96A27.963,27.963,0,0,0,70.678,71.657a1.989,1.989,0,0,0-1.97-2.327H56.129A1.349,1.349,0,0,0,54.78,70.679Z" transform="translate(-36.797 -64.626)" fill="#e0e0e0"/>
                    <path id="Path_58698" data-name="Path 58698" d="M54.78,168.086V135.17h4.96s10.068,19.385,11.234,32.916Z" transform="translate(-36.797 -108.852)" fill="#e0e0e0"/>
                    <rect id="Rectangle_6169" data-name="Rectangle 6169" width="5.627" height="1.513" rx="0.757" transform="translate(17.668 24.804)" fill="#f5f5f5"/>
                    <path id="Path_58699" data-name="Path 58699" d="M236.39,70.679V89.43h-4.97a27.906,27.906,0,0,1-10.938-17.773,1.993,1.993,0,0,1,1.97-2.327h12.593a1.352,1.352,0,0,1,1.346,1.349Z" transform="translate(-148.084 -64.626)" fill="#e0e0e0"/>
                    <path id="Path_58700" data-name="Path 58700" d="M235.844,168.086V135.17h-4.97s-10.065,19.385-11.234,32.916Z" transform="translate(-147.538 -108.852)" fill="#e0e0e0"/>
                    <rect id="Rectangle_6170" data-name="Rectangle 6170" width="5.627" height="1.513" rx="0.757" transform="translate(88.611 26.315) rotate(180)" fill="#f5f5f5"/>
                    <rect id="Rectangle_6171" data-name="Rectangle 6171" width="10.909" height="42.262" transform="translate(75.897 65.215)" fill="#fafafa"/>
                    <path id="Path_58701" data-name="Path 58701" d="M249.313,372.411h2.912V367.53H246.26Z" transform="translate(-165.419 -264.934)" fill="#f4f8ff"/>
                    <rect id="Rectangle_6172" data-name="Rectangle 6172" width="10.909" height="42.262" transform="translate(23.708 65.215)" fill="#e0e0e0"/>
                    <rect id="Rectangle_6173" data-name="Rectangle 6173" width="54.73" height="40.581" transform="translate(32.076 65.215)" fill="#fafafa"/>
                    <path id="Path_58702" data-name="Path 58702" d="M147.8,231.8c0,3.939,3.795,7.176,8.437,7.176h4.189c4.639,0,8.433-3.23,8.433-7.176Z" transform="translate(-99.281 -173.761)" fill="#ebebeb"/>
                    <path id="Path_58703" data-name="Path 58703" d="M139.028,204.33h7.879a21.981,21.981,0,0,0-1.369,5.738c0,2.127,5.994,10.456-2.57,10.456s-2.57-8.332-2.57-10.456A22.019,22.019,0,0,0,139.028,204.33Z" transform="translate(-92.938 -155.309)" fill="#e0e0e0"/>
                    <rect id="Rectangle_6174" data-name="Rectangle 6174" width="50.213" height="10.232" transform="translate(34.334 67.687)" fill="#ebebeb"/>
                    <path id="Path_58704" data-name="Path 58704" d="M100.622,372.411H97.71V367.53h5.968Z" transform="translate(-65.634 -264.934)" fill="#fafafa"/>
                    <path id="Path_58705" data-name="Path 58705" d="M176.37,273.613a1.543,1.543,0,1,0,1.543-1.543A1.543,1.543,0,0,0,176.37,273.613Z" transform="translate(-118.472 -200.811)" fill="#fafafa"/>
                    <rect id="Rectangle_6175" data-name="Rectangle 6175" width="50.213" height="10.232" transform="translate(34.334 80.391)" fill="#ebebeb"/>
                    <path id="Path_58706" data-name="Path 58706" d="M176.37,312.313a1.543,1.543,0,1,0,1.543-1.543A1.543,1.543,0,0,0,176.37,312.313Z" transform="translate(-118.472 -226.807)" fill="#fafafa"/>
                    <rect id="Rectangle_6176" data-name="Rectangle 6176" width="50.213" height="10.232" transform="translate(34.334 93.092)" fill="#ebebeb"/>
                    <circle id="Ellipse_700" data-name="Ellipse 700" cx="1.543" cy="1.543" r="1.543" transform="translate(57.898 96.667)" fill="#fafafa"/>
                    <rect id="Rectangle_6177" data-name="Rectangle 6177" width="24.368" height="17.346" transform="translate(97.055 5.561)" fill="#e0e0e0"/>
                    <rect id="Rectangle_6178" data-name="Rectangle 6178" width="24.972" height="17.346" transform="translate(98.44 5.561)" fill="#f5f5f5"/>
                    <rect id="Rectangle_6179" data-name="Rectangle 6179" width="14.162" height="21.788" transform="translate(121.82 7.153) rotate(90)" fill="#fff"/>
                    <rect id="Rectangle_6180" data-name="Rectangle 6180" width="5.912" height="14.119" transform="translate(117.985 11.276) rotate(90)" fill="#f5f5f5"/>
                    <rect id="Rectangle_6181" data-name="Rectangle 6181" width="14.831" height="15.554" transform="translate(126.36 14.234)" fill="#e0e0e0"/>
                    <rect id="Rectangle_6182" data-name="Rectangle 6182" width="15.439" height="15.554" transform="translate(127.748 14.234)" fill="#f5f5f5"/>
                    <rect id="Rectangle_6183" data-name="Rectangle 6183" width="12.369" height="12.255" transform="translate(141.595 15.826) rotate(90)" fill="#fff"/>
                    <path id="Path_58707" data-name="Path 58707" d="M405.68,117.832h0a2.062,2.062,0,0,1,2.058-2.062h.466a2.062,2.062,0,0,1,2.058,2.062h0a2.058,2.058,0,0,1-2.058,2.058h-.45a2.058,2.058,0,0,1-2.075-2.058Z" transform="translate(-272.505 -95.821)" fill="#f5f5f5"/>
                    <path id="Path_58708" data-name="Path 58708" d="M303.306,161.85H257.022V170.9H249.9v9.051h-7.12V189h-7.12v9.051h-7.12V207.1h-7.12v9.051H214.3V225.2h-7.12v9.051h96.126Z" transform="translate(-139.168 -126.774)" fill="#fafafa"/>
                    <rect id="Rectangle_6184" data-name="Rectangle 6184" width="40.585" height="2.715" transform="translate(67.28 98.427)" fill="#ebebeb"/>
                    <rect id="Rectangle_6185" data-name="Rectangle 6185" width="40.585" height="2.715" transform="translate(74.4 89.376)" fill="#ebebeb"/>
                    <rect id="Rectangle_6186" data-name="Rectangle 6186" width="40.585" height="2.715" transform="translate(81.521 80.326)" fill="#ebebeb"/>
                    <rect id="Rectangle_6187" data-name="Rectangle 6187" width="40.585" height="2.715" transform="translate(88.641 71.275)" fill="#ebebeb"/>
                    <rect id="Rectangle_6188" data-name="Rectangle 6188" width="40.585" height="2.715" transform="translate(95.761 62.228)" fill="#ebebeb"/>
                    <rect id="Rectangle_6189" data-name="Rectangle 6189" width="40.585" height="2.715" transform="translate(102.881 53.177)" fill="#ebebeb"/>
                    <rect id="Rectangle_6190" data-name="Rectangle 6190" width="40.585" height="2.715" transform="translate(110.002 44.127)" fill="#ebebeb"/>
                    <rect id="Rectangle_6191" data-name="Rectangle 6191" width="40.585" height="2.715" transform="translate(117.122 35.076)" fill="#ebebeb"/>
                    <path id="Path_58709" data-name="Path 58709" d="M376.322,161.85V170.9H369.2v9.051h-7.12V189h-7.12v9.051h-7.12V207.1h-7.12v9.051H333.6V225.2h-7.12v9.051h56.962v-72.4Z" transform="translate(-219.305 -126.774)" fill="#fff"/>
                </g>
                <g id="freepik--Shadow--inject-11" transform="translate(18.42 114.87)">
                    <ellipse id="Ellipse_701" data-name="Ellipse 701" cx="63.649" cy="3.716" rx="63.649" ry="3.716" fill="#f5f5f5"/>
                </g>
                <g id="freepik--Character--inject-11" transform="translate(87.978 26.669)">
                    <path id="Path_58710" data-name="Path 58710" d="M359.853,161.8c.46,1.54,2.83,4.422,3.017,6.52s-3.854,5.453-3.854,5.453-3.02-10.1-1.129-11.276S359.853,161.8,359.853,161.8Z" transform="translate(-327.961 -153.343)" fill="#263238"/>
                    <path id="Path_58711" data-name="Path 58711" d="M299.533,191.119c-.716.6-1.418,1.1-2.15,1.615s-1.487.985-2.255,1.425a25.547,25.547,0,0,1-2.38,1.244c-.414.187-.824.371-1.251.532-.21.085-.423.167-.64.24l-.657.23a4.347,4.347,0,0,1-1.727.125,9.867,9.867,0,0,1-1.431-.276,18.9,18.9,0,0,1-2.564-.913,34.165,34.165,0,0,1-4.658-2.478l.614-1.142c.775.328,1.569.657,2.357.942s1.582.588,2.377.834a19.939,19.939,0,0,0,2.364.617,7.714,7.714,0,0,0,1.113.135,2.321,2.321,0,0,0,.827-.085,21.212,21.212,0,0,0,2.193-.985c.364-.19.725-.384,1.08-.594s.716-.414,1.067-.63c.706-.437,1.4-.9,2.078-1.375s1.362-.985,1.97-1.467Z" transform="translate(-275.94 -171.754)" fill="#e58a7b"/>
                    <path id="Path_58712" data-name="Path 58712" d="M334.5,184.336c-.814-.637-4.182,1.448-5.2,2.318l.745,4.507s4.842-2.029,5.131-3.414A3.837,3.837,0,0,0,334.5,184.336Z" transform="translate(-309.177 -168.467)" fill="#00a9dc"/>
                    <path id="Path_58713" data-name="Path 58713" d="M334.5,184.336c-.814-.637-4.182,1.448-5.2,2.318l.745,4.507s4.842-2.029,5.131-3.414A3.837,3.837,0,0,0,334.5,184.336Z" transform="translate(-309.177 -168.467)" opacity="0.2"/>
                    <path id="Path_58714" data-name="Path 58714" d="M350.069,194.158l-10.223,1.993c-5.282-14.3-4.133-14.772-4.133-14.772a20.526,20.526,0,0,1,2.3-1.083l.138-.053c.657-.24.788-.276,1.661-.532,1.5-.358,2.905-.657,4.642-.9l.328-.046c.328-.039.627-.072.929-.1.2-.023.407-.036.6-.049l.657-.036c1.123-.056,1.927-.039,1.927-.039C348.582,187.468,349.088,190.032,350.069,194.158Z" transform="translate(-313.414 -164.649)" fill="#00a9dc"/>
                    <path id="Path_58715" data-name="Path 58715" d="M350.069,194.158l-10.223,1.993c-5.282-14.3-4.133-14.772-4.133-14.772a20.526,20.526,0,0,1,2.3-1.083l.138-.053c.657-.24.788-.276,1.661-.532,1.5-.358,2.905-.657,4.642-.9l.328-.046c.328-.039.627-.072.929-.1.2-.023.407-.036.6-.049l.657-.036c1.123-.056,1.927-.039,1.927-.039C348.582,187.468,349.088,190.032,350.069,194.158Z" transform="translate(-313.414 -164.649)" opacity="0.2"/>
                    <path id="Path_58716" data-name="Path 58716" d="M355.04,158.984c-.657,1.087,1.723,1.589,3.132.476a2.258,2.258,0,0,0-.105-3.434C357.1,155.547,355.04,158.984,355.04,158.984Z" transform="translate(-326.392 -149.5)" fill="#00a9dc"/>
                    <path id="Path_58717" data-name="Path 58717" d="M355.04,158.984c-.657,1.087,1.723,1.589,3.132.476a2.258,2.258,0,0,0-.105-3.434C357.1,155.547,355.04,158.984,355.04,158.984Z" transform="translate(-326.392 -149.5)" opacity="0.4"/>
                    <path id="Path_58718" data-name="Path 58718" d="M378.433,394.426l-2.557.19-.936-5.886,2.557-.19Z" transform="translate(-339.834 -305.716)" fill="#e58a7b"/>
                    <path id="Path_58719" data-name="Path 58719" d="M428.334,372.026l-2.17,1.366-3.864-4.583,2.17-1.369Z" transform="translate(-371.647 -291.543)" fill="#e58a7b"/>
                    <path id="Path_58720" data-name="Path 58720" d="M374.94,388.737l.519,3.27,2.521-.423-.479-3.033Z" transform="translate(-339.834 -305.723)" fill="#cf6f64"/>
                    <path id="Path_58721" data-name="Path 58721" d="M424.473,367.45l-2.173,1.366,1.6,1.9,2.219-1.31Z" transform="translate(-371.647 -291.549)" fill="#cf6f64"/>
                    <path id="Path_58722" data-name="Path 58722" d="M349,229.218s-.036,20.294,1.622,27.936c1.727,7.951,6.805,26.039,6.805,26.039l3.683-.476s-2.879-18.272-4.107-26.173c-1.336-8.611-.515-28.783-.515-28.783Z" transform="translate(-322.41 -197.716)" fill="#00a9dc"/>
                    <path id="Path_58723" data-name="Path 58723" d="M349,229.218s-.036,20.294,1.622,27.936c1.727,7.951,6.805,26.039,6.805,26.039l3.683-.476s-2.879-18.272-4.107-26.173c-1.336-8.611-.515-28.783-.515-28.783Z" transform="translate(-322.41 -197.716)" opacity="0.7"/>
                    <path id="Path_58724" data-name="Path 58724" d="M367.415,251.479l-1.806-1.8c.069,7.8.506,11.647,2.006,15.843C367.379,261.088,367.36,255.842,367.415,251.479Z" transform="translate(-333.567 -212.44)" opacity="0.5"/>
                    <path id="Path_58725" data-name="Path 58725" d="M356.74,227.6s5.505,16.772,8.236,26.433c2.882,10.193,13.932,21.466,13.932,21.466l3.171-1.832s-7.55-10.7-10.327-20.212c-5.646-19.306-3.325-23.4-7.491-27.322Z" transform="translate(-327.609 -196.621)" fill="#00a9dc"/>
                    <path id="Path_58726" data-name="Path 58726" d="M356.74,227.6s5.505,16.772,8.236,26.433c2.882,10.193,13.932,21.466,13.932,21.466l3.171-1.832s-7.55-10.7-10.327-20.212c-5.646-19.306-3.325-23.4-7.491-27.322Z" transform="translate(-327.609 -196.621)" opacity="0.7"/>
                    <path id="Path_58727" data-name="Path 58727" d="M337.727,147.09c1.464.489,2.794,4.123,2.849,5.554s-4.241,3.4-4.241,3.4-1.894-4.6-1.366-7.55C335.2,147.215,337.727,147.09,337.727,147.09Z" transform="translate(-312.922 -143.528)" fill="#263238"/>
                    <path id="Path_58728" data-name="Path 58728" d="M277.634,193.561,275.9,191.67l-.568,2.37s1.234,1.09,2.232.716Z" transform="translate(-272.924 -173.474)" fill="#e58a7b"/>
                    <path id="Path_58729" data-name="Path 58729" d="M269.215,190.02l-1.215.965,2.406,1.947.568-2.37Z" transform="translate(-268 -172.365)" fill="#e58a7b"/>
                    <path id="Path_58730" data-name="Path 58730" d="M429.5,379.772l2.029-2.045a.207.207,0,0,1,.269-.02l1.848,1.372a.41.41,0,0,1,.036.614c-.722.7-1.1,1-2,1.9-.548.555-1.293,1.418-2.052,2.183s-1.556.053-1.313-.328a5.052,5.052,0,0,0,.985-3.257A.657.657,0,0,1,429.5,379.772Z" transform="translate(-375.66 -298.412)" fill="#263238"/>
                    <path id="Path_58731" data-name="Path 58731" d="M368.981,405.93h2.882a.217.217,0,0,1,.213.177l.453,2.278a.387.387,0,0,1-.384.456c-1.008-.016-1.494-.076-2.761-.076-.778,0-2.387.079-3.463.079s-1.192-1.064-.748-1.159a6.577,6.577,0,0,0,3.388-1.6A.656.656,0,0,1,368.981,405.93Z" transform="translate(-333.11 -317.397)" fill="#263238"/>
                    <path id="Path_58732" data-name="Path 58732" d="M373.866,194.31l-1.576.939,1.819,6.838C373.711,200.015,373.889,197.74,373.866,194.31Z" transform="translate(-338.054 -175.247)" fill="#00a9dc" opacity="0.27" style="mix-blend-mode: multiply;isolation: isolate"/>
                    <path id="Path_58733" data-name="Path 58733" d="M349.81,152.787c1.119.936,2.744,2.3,4.658.706,1.641-1.372,2.79-4.973-.154-5.1C352.774,148.319,349.81,152.787,349.81,152.787Z" transform="translate(-322.954 -144.4)" fill="#263238"/>
                    <path id="Path_58734" data-name="Path 58734" d="M351.014,163.74c0,1.549.24,4.343,1.477,5.137,0,0-.112,1.6-2.889,2.134-3.05.594-1.753-1.231-1.753-1.231,1.589-.722,1.313-1.95.788-3.053Z" transform="translate(-321.453 -154.712)" fill="#e58a7b"/>
                    <path id="Path_58735" data-name="Path 58735" d="M352.225,167.45l-1.405,1.769a4.985,4.985,0,0,1,.3.794,2.093,2.093,0,0,0,1.293-1.763,2.243,2.243,0,0,0-.19-.8Z" transform="translate(-323.632 -157.204)" fill="#cf6f64"/>
                    <path id="Path_58736" data-name="Path 58736" d="M344.122,146.642c.328,2.524.529,3.585-.483,5.111a3.25,3.25,0,0,1-5.771-.223c-.985-2.137-1.353-5.909.893-7.37a3.47,3.47,0,0,1,5.361,2.482Z" transform="translate(-314.413 -141.173)" fill="#e58a7b"/>
                    <path id="Path_58737" data-name="Path 58737" d="M344.164,137.287c-1.707,1.211,1.717,1.569,1.72,3.325,0,.725,1.192,3.027,2.886,2.9l1.641-2.915C352.138,137.8,348.057,134.52,344.164,137.287Z" transform="translate(-318.841 -136.24)" fill="#263238"/>
                    <path id="Path_58738" data-name="Path 58738" d="M336.909,139.415a3.637,3.637,0,0,0-3.969,4.379,19.565,19.565,0,0,1,6.414-.509C343.471,143.705,336.909,139.415,336.909,139.415Z" transform="translate(-311.586 -138.368)" fill="#263238"/>
                    <path id="Path_58739" data-name="Path 58739" d="M357.514,157.854a1.855,1.855,0,0,1-.43,1.352c-.423.5-.985.2-1.182-.384-.167-.532-.148-1.428.423-1.71a.837.837,0,0,1,1.188.742Z" transform="translate(-326.985 -150.208)" fill="#e58a7b"/>
                    <path id="Path_58740" data-name="Path 58740" d="M346.388,156.586c.039.2-.036.387-.167.414s-.272-.118-.312-.328.036-.391.167-.417S346.349,156.382,346.388,156.586Z" transform="translate(-320.326 -149.682)" fill="#263238"/>
                    <path id="Path_58741" data-name="Path 58741" d="M339.4,157.96c.039.2-.036.391-.167.417s-.272-.118-.312-.328.036-.391.167-.414S339.358,157.753,339.4,157.96Z" transform="translate(-315.631 -150.61)" fill="#263238"/>
                    <path id="Path_58742" data-name="Path 58742" d="M338.585,157.563l-.515-.043S338.4,157.852,338.585,157.563Z" transform="translate(-315.068 -150.534)" fill="#263238"/>
                    <path id="Path_58743" data-name="Path 58743" d="M341.493,159.34a5.613,5.613,0,0,1-.473,1.435.89.89,0,0,0,.752,0Z" transform="translate(-317.049 -151.757)" fill="#df5753"/>
                    <path id="Path_58744" data-name="Path 58744" d="M345.8,163.578a.059.059,0,0,1-.01-.118,1.641,1.641,0,0,0,1.188-.886.06.06,0,1,1,.112.046,1.73,1.73,0,0,1-1.277.959Z" transform="translate(-320.218 -153.904)" fill="#263238"/>
                    <path id="Path_58745" data-name="Path 58745" d="M346.785,153.482a.125.125,0,0,1-.082-.03.965.965,0,0,0-.84-.249.129.129,0,1,1-.062-.249,1.218,1.218,0,0,1,1.067.305.121.121,0,0,1,0,.171A.118.118,0,0,1,346.785,153.482Z" transform="translate(-320.195 -147.451)" fill="#263238"/>
                    <path id="Path_58746" data-name="Path 58746" d="M336.281,154.168a.1.1,0,0,1-.046,0,.121.121,0,0,1-.066-.161,1.2,1.2,0,0,1,.831-.732.122.122,0,1,1,.046.24.985.985,0,0,0-.657.588.125.125,0,0,1-.108.066Z" transform="translate(-313.784 -147.681)" fill="#263238"/>
                    <path id="Path_58747" data-name="Path 58747" d="M429,385.888a.348.348,0,0,1-.282-.158.207.207,0,0,1-.036-.2c.115-.309,1.021-.506,1.123-.529a.062.062,0,0,1,.062.026.056.056,0,0,1,0,.066c-.177.292-.525.781-.85.8Zm.686-.739c-.358.092-.831.256-.89.42a.082.082,0,0,0,.02.089.223.223,0,0,0,.2.108C429.19,385.756,429.436,385.53,429.689,385.149Z" transform="translate(-375.928 -303.336)" fill="#00a9dc"/>
                    <path id="Path_58748" data-name="Path 58748" d="M429.486,384.13a1.2,1.2,0,0,1-.86-.259.213.213,0,0,1,.023-.266.328.328,0,0,1,.24-.125h.026c.368,0,.873.5.893.515a.059.059,0,0,1,.016.059.062.062,0,0,1-.043.043A1.183,1.183,0,0,1,429.486,384.13Zm-.571-.529h-.02a.2.2,0,0,0-.151.079c-.046.062-.033.1-.016.121.1.151.6.236.909.2a1.451,1.451,0,0,0-.722-.4Z" transform="translate(-375.873 -302.317)" fill="#00a9dc"/>
                    <path id="Path_58749" data-name="Path 58749" d="M372.858,405.969a.985.985,0,0,1-.627-.158.328.328,0,0,1-.125-.292.19.19,0,0,1,.092-.164c.3-.177,1.359.348,1.477.407a.062.062,0,0,1-.013.115,4.376,4.376,0,0,1-.8.092Zm-.486-.532a.217.217,0,0,0-.112.023.062.062,0,0,0-.033.062.23.23,0,0,0,.082.2,1.657,1.657,0,0,0,1.146.072A3.433,3.433,0,0,0,372.372,405.438Z" transform="translate(-337.93 -316.987)" fill="#00a9dc"/>
                    <path id="Path_58750" data-name="Path 58750" d="M374.884,404.642h-.023c-.328-.141-.962-.7-.916-.985,0-.066.059-.151.223-.167h.049c.571,0,.719,1.044.725,1.09a.048.048,0,0,1-.059.062Zm-.657-1.037h-.036c-.105,0-.112.049-.112.062-.026.174.407.611.735.8-.066-.256-.233-.86-.6-.86Z" transform="translate(-339.164 -315.758)" fill="#00a9dc"/>
                    <path id="Path_58751" data-name="Path 58751" d="M345.575,156.2l-.515-.046S345.385,156.485,345.575,156.2Z" transform="translate(-319.763 -149.614)" fill="#263238"/>
                    <path id="Path_58752" data-name="Path 58752" d="M345.375,183.223c-5.492,1.224-3.795-2.1-3.467-2.83l.138-.053c.657-.24.788-.276,1.661-.532a33.064,33.064,0,0,1,4.642-.9l.328-.046c.328-.043.627-.075.929-.1.2-.023.407-.036.6-.049l.657-.039h0C350.975,179.182,351.247,181.92,345.375,183.223Z" transform="translate(-317.307 -164.741)" fill="#e58a7b"/>
                    <path id="Path_58753" data-name="Path 58753" d="M357.9,224.107l.64.827c.049.062-.02.151-.138.174L347.676,227.2c-.092.02-.177,0-.194-.069l-.272-.9a.169.169,0,0,1,.151-.151l10.354-2.016a.187.187,0,0,1,.181.043Z" transform="translate(-321.207 -195.229)" fill="#26395a"/>
                    <path id="Path_58754" data-name="Path 58754" d="M375.226,225.814l.279-.053c.056,0,.092-.046.082-.082l-.361-1.162c0-.036-.066-.053-.121-.043l-.276.053c-.056,0-.092.049-.082.082l.361,1.165C375.118,225.807,375.173,225.827,375.226,225.814Z" transform="translate(-339.703 -195.507)" fill="#00a9dc"/>
                    <path id="Path_58755" data-name="Path 58755" d="M352.707,238.734l-2.137-.794.328,2.032s1.549.558,2.341-.158Z" transform="translate(-323.464 -204.554)" fill="#e58a7b"/>
                    <path id="Path_58756" data-name="Path 58756" d="M343.329,238.478l-.509,1.333,2.872.161-.328-2.032Z" transform="translate(-318.258 -204.554)" fill="#e58a7b"/>
                    <path id="Path_58757" data-name="Path 58757" d="M350.074,230.714l.279-.053c.053,0,.092-.046.079-.082l-.361-1.162c0-.036-.062-.053-.118-.043l-.279.053c-.056,0-.092.049-.079.082l.361,1.165C349.965,230.707,350.018,230.727,350.074,230.714Z" transform="translate(-322.807 -198.799)" fill="#00a9dc"/>
                    <path id="Path_58758" data-name="Path 58758" d="M362.649,228.254l.276-.053c.056,0,.092-.046.082-.082l-.361-1.162c0-.036-.066-.053-.121-.043l-.276.053c-.056,0-.092.049-.082.082l.361,1.165a.105.105,0,0,0,.121.039Z" transform="translate(-331.253 -197.146)" fill="#00a9dc"/>
                    <path id="Path_58759" data-name="Path 58759" d="M354.106,175.406c.233-.089.525.732.453.837-.167.24-3.234,1.077-3.371.607a2.05,2.05,0,0,1,.115-.748A11.073,11.073,0,0,0,354.106,175.406Z" transform="translate(-323.878 -162.544)" fill="#00a9dc"/>
                    <path id="Path_58760" data-name="Path 58760" d="M358.444,174.388c.118-.272.456-.709.752-.46s.42.788.227.876S358.24,174.844,358.444,174.388Z" transform="translate(-328.735 -161.506)" fill="#00a9dc"/>
                    <path id="Path_58761" data-name="Path 58761" d="M360.253,175.233c.2-.217.657-.515.863-.181s.131.883-.079.9S359.909,175.591,360.253,175.233Z" transform="translate(-329.918 -162.21)" fill="#00a9dc"/>
                    <path id="Path_58762" data-name="Path 58762" d="M360.742,172.623a.909.909,0,0,1,.456-.876c.374-.243.739-.4.883-.657a1.812,1.812,0,0,1,.036.735c-.076.351-1.241.62-1.162.926Z" transform="translate(-330.294 -159.65)" fill="#00a9dc"/>
                    <path id="Path_58763" data-name="Path 58763" d="M360.2,171.6a.909.909,0,0,1-.092-.985,2.916,2.916,0,0,0,.387-1.024,1.829,1.829,0,0,1,.43.6c.125.328-.706,1.192-.473,1.408Z" transform="translate(-329.802 -158.642)" fill="#00a9dc"/>
                    <path id="Path_58764" data-name="Path 58764" d="M396.291,276.769a.039.039,0,0,1-.033-.02c-.076-.105-7.58-10.813-10.331-20.222a137.888,137.888,0,0,1-4.13-18.41c-.568-3.506-.913-5.623-2.042-7.36a.041.041,0,0,1,.056-.059c1.142,1.753,1.487,3.877,2.055,7.393A138.258,138.258,0,0,0,386,256.475c2.748,9.4,10.246,20.09,10.321,20.2a.046.046,0,0,1,0,.056A.043.043,0,0,1,396.291,276.769Z" transform="translate(-343.061 -199.683)" fill="#00a9dc"/>
                    <path id="Path_58765" data-name="Path 58765" d="M396.291,276.769a.039.039,0,0,1-.033-.02c-.076-.105-7.58-10.813-10.331-20.222a137.888,137.888,0,0,1-4.13-18.41c-.568-3.506-.913-5.623-2.042-7.36a.041.041,0,0,1,.056-.059c1.142,1.753,1.487,3.877,2.055,7.393A138.258,138.258,0,0,0,386,256.475c2.748,9.4,10.246,20.09,10.321,20.2a.046.046,0,0,1,0,.056A.043.043,0,0,1,396.291,276.769Z" transform="translate(-343.061 -199.683)" opacity="0.4"/>
                    <path id="Path_58766" data-name="Path 58766" d="M376.964,391.335l-5.016.65-.328-1.4,5.223-1.106Z" transform="translate(-337.604 -306.348)" fill="#00a9dc"/>
                    <path id="Path_58767" data-name="Path 58767" d="M424.617,367.178l-3.7,2.137-1.247-1.067,4.048-2.738Z" transform="translate(-369.881 -290.246)" fill="#00a9dc"/>
                    <path id="Path_58768" data-name="Path 58768" d="M364.063,189.13c.177.913.279,1.773.378,2.662s.135,1.769.161,2.659a26.289,26.289,0,0,1-.059,2.689c-.036.45-.076.9-.138,1.352-.026.223-.056.45-.1.676l-.121.7a4.373,4.373,0,0,1-.725,1.572,9.738,9.738,0,0,1-.932,1.119,18.6,18.6,0,0,1-2.035,1.806,34.024,34.024,0,0,1-4.419,2.886l-.7-1.09c.657-.522,1.313-1.06,1.97-1.609s1.28-1.1,1.881-1.681A20.57,20.57,0,0,0,360.9,201.1a7.808,7.808,0,0,0,.657-.913,2.3,2.3,0,0,0,.328-.765,21.734,21.734,0,0,0,.187-2.4q0-.616,0-1.231c0-.41-.016-.827-.036-1.241-.039-.827-.115-1.641-.2-2.482s-.2-1.671-.328-2.449Z" transform="translate(-326.689 -171.767)" fill="#e58a7b"/>
                    <path id="Path_58769" data-name="Path 58769" d="M373.15,179.219c1.4,1.136,1.067,4.51,1.067,4.51l-4.727,1.556s.217-3.89.453-5.289C370.219,178.333,371.768,178.1,373.15,179.219Z" transform="translate(-336.173 -164.647)" fill="#00a9dc"/>
                    <path id="Path_58770" data-name="Path 58770" d="M373.15,179.219c1.4,1.136,1.067,4.51,1.067,4.51l-4.727,1.556s.217-3.89.453-5.289C370.219,178.333,371.768,178.1,373.15,179.219Z" transform="translate(-336.173 -164.647)" opacity="0.2"/>
                </g>
                <g id="freepik--Documents--inject-11" transform="translate(23.466 17.1)">
                    <path id="Path_58771" data-name="Path 58771" d="M122.082,217.8h0a3.611,3.611,0,0,0-3.519-2.8H92.3a3.611,3.611,0,0,0-3.611,3.611v58.374A3.611,3.611,0,0,0,92.3,280.6h83.382a3.611,3.611,0,0,0,3.611-3.611V227.95a3.611,3.611,0,0,0-3.611-3.611H130.3a8.431,8.431,0,0,1-8.217-6.541Z" transform="translate(-83.042 -179.576)" fill="#00a9dc"/>
                    <path id="Path_58772" data-name="Path 58772" d="M122.082,217.8h0a3.611,3.611,0,0,0-3.519-2.8H92.3a3.611,3.611,0,0,0-3.611,3.611v58.374A3.611,3.611,0,0,0,92.3,280.6h83.382a3.611,3.611,0,0,0,3.611-3.611V227.95a3.611,3.611,0,0,0-3.611-3.611H130.3a8.431,8.431,0,0,1-8.217-6.541Z" transform="translate(-83.042 -179.576)" opacity="0.6"/>
                    <path id="Path_58773" data-name="Path 58773" d="M162.17,168.15l2.341,7.58a3.811,3.811,0,0,0,4.763,2.515l7.577-2.341Z" transform="translate(-132.4 -148.106)" fill="#00a9dc" opacity="0.22"/>
                    <path id="Path_58774" data-name="Path 58774" d="M101.254,168.15l-27.083,8.368a3.8,3.8,0,0,0-2.518,4.76l15.462,50.055a3.808,3.808,0,0,0,4.763,2.515l34.663-10.708a3.8,3.8,0,0,0,2.515-4.76L115.924,175.9Z" transform="translate(-71.484 -148.106)" fill="#00a9dc"/>
                    <path id="Path_58775" data-name="Path 58775" d="M101.254,168.15l-27.083,8.368a3.8,3.8,0,0,0-2.518,4.76l15.462,50.055a3.808,3.808,0,0,0,4.763,2.515l34.663-10.708a3.8,3.8,0,0,0,2.515-4.76L115.924,175.9Z" transform="translate(-71.484 -148.106)" fill="#fff" opacity="0.8"/>
                    <g id="Group_12655" data-name="Group 12655" transform="translate(19.655 69.596)" opacity="0.28">
                        <path id="Path_58776" data-name="Path 58776" d="M156.045,322.347l-22.533,6.959a1.668,1.668,0,0,1-2.081-1.1h0a1.668,1.668,0,0,1,1.1-2.078l22.533-6.963a1.668,1.668,0,0,1,2.081,1.1h0a1.668,1.668,0,0,1-1.1,2.078Z" transform="translate(-131.358 -319.096)" fill="#00a9dc"/>
                    </g>
                    <g id="Group_12656" data-name="Group 12656" transform="translate(6.022 28.751)" opacity="0.28">
                        <path id="Path_58777" data-name="Path 58777" d="M103.9,197.925,91.982,201.6a1.671,1.671,0,0,1-2.081-1.1h0a1.671,1.671,0,0,1,1.1-2.081l11.916-3.68a1.664,1.664,0,0,1,2.081,1.1h0a1.671,1.671,0,0,1-1.1,2.081Z" transform="translate(-89.828 -194.672)" fill="#00a9dc"/>
                    </g>
                    <g id="Group_12657" data-name="Group 12657" transform="translate(7.974 32.655)" opacity="0.28">
                        <path id="Path_58778" data-name="Path 58778" d="M117.617,209.816,97.92,215.9a1.668,1.668,0,0,1-2.071-1.1h0a1.664,1.664,0,0,1,1.1-2.078l19.7-6.083a1.668,1.668,0,0,1,2.081,1.1h0a1.674,1.674,0,0,1-1.106,2.081Z" transform="translate(-95.775 -206.565)" fill="#00a9dc"/>
                    </g>
                    <g id="Group_12658" data-name="Group 12658" transform="translate(9.918 36.165)" opacity="0.28">
                        <path id="Path_58779" data-name="Path 58779" d="M132.592,220.508l-28.744,8.863a1.664,1.664,0,0,1-2.078-1.1h0a1.671,1.671,0,0,1,1.1-2.081l28.744-8.863a1.668,1.668,0,0,1,2.078,1.1h0A1.668,1.668,0,0,1,132.592,220.508Z" transform="translate(-101.697 -217.258)" fill="#00a9dc"/>
                    </g>
                    <g id="Group_12659" data-name="Group 12659" transform="translate(23.9 42.469)" opacity="0.28">
                        <path id="Path_58780" data-name="Path 58780" d="M163.148,239.71l-16.709,5.164a1.668,1.668,0,0,1-2.078-1.1h0a1.668,1.668,0,0,1,1.1-2.078l16.709-5.164a1.674,1.674,0,0,1,2.081,1.1h0A1.668,1.668,0,0,1,163.148,239.71Z" transform="translate(-144.288 -236.461)" fill="#00a9dc"/>
                    </g>
                    <g id="Group_12660" data-name="Group 12660" transform="translate(11.865 49.998)" opacity="0.28">
                        <path id="Path_58781" data-name="Path 58781" d="M114.15,262.648,109.781,264a1.668,1.668,0,0,1-2.081-1.1h0a1.668,1.668,0,0,1,1.1-2.081l4.369-1.349a1.671,1.671,0,0,1,2.081,1.1h0A1.674,1.674,0,0,1,114.15,262.648Z" transform="translate(-107.626 -259.397)" fill="#00a9dc"/>
                    </g>
                    <g id="Group_12661" data-name="Group 12661" transform="translate(13.814 48.774)" opacity="0.28">
                        <path id="Path_58782" data-name="Path 58782" d="M144.461,258.918l-28.744,8.88a1.668,1.668,0,0,1-2.078-1.1h0a1.664,1.664,0,0,1,1.1-2.078l28.744-8.88a1.668,1.668,0,0,1,2.078,1.1h0a1.668,1.668,0,0,1-1.1,2.081Z" transform="translate(-113.565 -255.668)" fill="#00a9dc"/>
                    </g>
                    <g id="Group_12662" data-name="Group 12662" transform="translate(15.762 58.504)" opacity="0.28">
                        <path id="Path_58783" data-name="Path 58783" d="M139.3,288.559l-17.651,5.453a1.668,1.668,0,0,1-2.078-1.1h0a1.671,1.671,0,0,1,1.1-2.081l17.651-5.453a1.671,1.671,0,0,1,2.081,1.1h0a1.664,1.664,0,0,1-1.1,2.078Z" transform="translate(-119.497 -285.308)" fill="#00a9dc"/>
                    </g>
                    <g id="Group_12663" data-name="Group 12663" transform="translate(39.792 55.079)" opacity="0.28">
                        <path id="Path_58784" data-name="Path 58784" d="M199.563,278.127l-4.711,1.454a1.671,1.671,0,0,1-2.081-1.1h0a1.668,1.668,0,0,1,1.1-2.078l4.711-1.454a1.664,1.664,0,0,1,2.078,1.1h0A1.668,1.668,0,0,1,199.563,278.127Z" transform="translate(-192.698 -274.875)" fill="#00a9dc"/>
                    </g>
                    <g id="Group_12664" data-name="Group 12664" transform="translate(17.711 61.374)" opacity="0.28">
                        <path id="Path_58785" data-name="Path 58785" d="M156.328,297.317l-28.737,8.863a1.668,1.668,0,0,1-2.081-1.1h0a1.664,1.664,0,0,1,1.1-2.078l28.74-8.88a1.674,1.674,0,0,1,2.081,1.1h0a1.668,1.668,0,0,1-1.1,2.094Z" transform="translate(-125.436 -294.051)" fill="#00a9dc"/>
                    </g>
                    <path id="Path_58786" data-name="Path 58786" d="M138.726,108.312l8.594,19.152a2.071,2.071,0,0,1-1.037,2.731L109.825,146.56a2.068,2.068,0,0,1-2.731-1.037l-8.6-19.152a2.068,2.068,0,0,1,1.037-2.735l36.458-16.365A2.075,2.075,0,0,1,138.726,108.312Z" transform="translate(-89.506 -107.092)" fill="#00a9dc"/>
                    <path id="Path_58787" data-name="Path 58787" d="M138.726,108.312l8.594,19.152a2.071,2.071,0,0,1-1.037,2.731L109.825,146.56a2.068,2.068,0,0,1-2.731-1.037l-8.6-19.152a2.068,2.068,0,0,1,1.037-2.735l36.458-16.365A2.075,2.075,0,0,1,138.726,108.312Z" transform="translate(-89.506 -107.092)" opacity="0.3"/>
                    <rect id="Rectangle_6192" data-name="Rectangle 6192" width="1.277" height="0.328" transform="matrix(0.912, -0.409, 0.409, 0.912, 42.31, 0.797)" fill="#00a9dc"/>
                    <rect id="Rectangle_6193" data-name="Rectangle 6193" width="3.982" height="0.328" transform="matrix(0.912, -0.409, 0.409, 0.912, 37.045, 3.157)" fill="#00a9dc"/>
                    <rect id="Rectangle_6194" data-name="Rectangle 6194" width="0.328" height="2.429" transform="translate(8.658 21.344) rotate(-24.18)" fill="#00a9dc"/>
                    <path id="Path_58788" data-name="Path 58788" d="M137.839,107.2l-9.4,18.416a8.42,8.42,0,0,1-9.618,4.317L98.81,124.719a2.1,2.1,0,0,1,1.057-1.083l36.458-16.365A2.068,2.068,0,0,1,137.839,107.2Z" transform="translate(-89.839 -107.091)" fill="#00a9dc" opacity="0.6"/>
                    <path id="Path_58789" data-name="Path 58789" d="M191.851,179.23l-28.291,1.746a3.808,3.808,0,0,0-3.575,4.035l3.227,52.288a3.808,3.808,0,0,0,4.041,3.572l36.209-2.236a3.8,3.8,0,0,0,3.565-4.035L204.3,190.227Z" transform="translate(-130.928 -155.549)" fill="#00a9dc"/>
                    <path id="Path_58790" data-name="Path 58790" d="M191.851,179.23l-28.291,1.746a3.808,3.808,0,0,0-3.575,4.035l3.227,52.288a3.808,3.808,0,0,0,4.041,3.572l36.209-2.236a3.8,3.8,0,0,0,3.565-4.035L204.3,190.227Z" transform="translate(-130.928 -155.549)" fill="#fff" opacity="0.8"/>
                    <g id="Group_12665" data-name="Group 12665" transform="translate(37.331 75.106)" opacity="0.22">
                        <path id="Path_58791" data-name="Path 58791" d="M210.5,339.2l-23.541,1.454a1.668,1.668,0,0,1-1.76-1.559h0a1.671,1.671,0,0,1,1.556-1.763l23.541-1.451a1.668,1.668,0,0,1,1.763,1.556h0A1.668,1.668,0,0,1,210.5,339.2Z" transform="translate(-185.201 -335.881)" fill="#00a9dc"/>
                    </g>
                    <g id="Group_12666" data-name="Group 12666" transform="translate(34.485 29.692)" opacity="0.22">
                        <path id="Path_58792" data-name="Path 58792" d="M190.749,200.869l-12.451.762a1.671,1.671,0,0,1-1.763-1.556h0a1.671,1.671,0,0,1,1.559-1.763l12.451-.768a1.664,1.664,0,0,1,1.76,1.556h0a1.668,1.668,0,0,1-1.556,1.769Z" transform="translate(-176.532 -197.541)" fill="#00a9dc"/>
                    </g>
                    <g id="Group_12667" data-name="Group 12667" transform="translate(34.892 35.785)" opacity="0.22">
                        <path id="Path_58793" data-name="Path 58793" d="M200.11,219.422l-20.573,1.267a1.664,1.664,0,0,1-1.763-1.556h0a1.668,1.668,0,0,1,1.559-1.763L199.9,216.1a1.664,1.664,0,0,1,1.763,1.556h0a1.668,1.668,0,0,1-1.556,1.763Z" transform="translate(-177.771 -216.1)" fill="#00a9dc"/>
                    </g>
                    <g id="Group_12668" data-name="Group 12668" transform="translate(35.292 41.786)" opacity="0.22">
                        <path id="Path_58794" data-name="Path 58794" d="M210.787,237.706l-30.024,1.851A1.671,1.671,0,0,1,178.994,238h0a1.664,1.664,0,0,1,1.556-1.76l30.027-1.855a1.668,1.668,0,0,1,1.76,1.559h0A1.668,1.668,0,0,1,210.787,237.706Z" transform="translate(-178.991 -234.382)" fill="#00a9dc"/>
                    </g>
                    <g id="Group_12669" data-name="Group 12669" transform="translate(48.275 48.374)" opacity="0.22">
                        <path id="Path_58795" data-name="Path 58795" d="M237.761,257.772l-17.454,1.077a1.668,1.668,0,0,1-1.763-1.556h0a1.664,1.664,0,0,1,1.556-1.763l17.454-1.077a1.664,1.664,0,0,1,1.763,1.556h0a1.668,1.668,0,0,1-1.556,1.763Z" transform="translate(-218.54 -254.45)" fill="#00a9dc"/>
                    </g>
                    <g id="Group_12670" data-name="Group 12670" transform="translate(35.706 49.944)" opacity="0.22">
                        <path id="Path_58796" data-name="Path 58796" d="M186.58,262.553l-4.566.282a1.664,1.664,0,0,1-1.76-1.556h0a1.668,1.668,0,0,1,1.556-1.763l4.566-.282a1.671,1.671,0,0,1,1.763,1.559h0A1.668,1.668,0,0,1,186.58,262.553Z" transform="translate(-180.251 -259.232)" fill="#00a9dc"/>
                    </g>
                    <g id="Group_12671" data-name="Group 12671" transform="translate(36.11 54.96)" opacity="0.22">
                        <path id="Path_58797" data-name="Path 58797" d="M213.274,277.833l-30.027,1.851a1.668,1.668,0,0,1-1.763-1.556h0a1.671,1.671,0,0,1,1.559-1.763l30.024-1.851a1.668,1.668,0,0,1,1.763,1.559h0A1.664,1.664,0,0,1,213.274,277.833Z" transform="translate(-181.482 -274.511)" fill="#00a9dc"/>
                    </g>
                    <g id="Group_12672" data-name="Group 12672" transform="translate(36.517 62.261)" opacity="0.22">
                        <path id="Path_58798" data-name="Path 58798" d="M202.926,300.073l-18.439,1.139a1.671,1.671,0,0,1-1.763-1.559h0a1.668,1.668,0,0,1,1.559-1.76l18.439-1.139a1.668,1.668,0,0,1,1.76,1.559h0A1.661,1.661,0,0,1,202.926,300.073Z" transform="translate(-182.722 -296.752)" fill="#00a9dc"/>
                    </g>
                    <g id="Group_12673" data-name="Group 12673" transform="translate(61.619 61.548)" opacity="0.22">
                        <path id="Path_58799" data-name="Path 58799" d="M265.877,297.9l-4.924.3a1.664,1.664,0,0,1-1.76-1.556h0a1.664,1.664,0,0,1,1.556-1.763l4.924-.3a1.664,1.664,0,0,1,1.763,1.556h0a1.671,1.671,0,0,1-1.559,1.763Z" transform="translate(-259.19 -294.58)" fill="#00a9dc"/>
                    </g>
                    <g id="Group_12674" data-name="Group 12674" transform="translate(36.924 68.133)" opacity="0.22">
                        <path id="Path_58800" data-name="Path 58800" d="M215.751,317.963l-30.024,1.851a1.668,1.668,0,0,1-1.763-1.556h0a1.668,1.668,0,0,1,1.556-1.763l30.027-1.851a1.664,1.664,0,0,1,1.76,1.556h0A1.664,1.664,0,0,1,215.751,317.963Z" transform="translate(-183.961 -314.641)" fill="#00a9dc"/>
                    </g>
                    <path id="Path_58801" data-name="Path 58801" d="M257.07,179.23l.489,7.918a3.808,3.808,0,0,0,4.035,3.568l7.928-.489Z" transform="translate(-196.147 -155.549)" fill="#00a9dc" opacity="0.22"/>
                    <path id="Path_58802" data-name="Path 58802" d="M138.8,233.665h0a2.84,2.84,0,0,0-2.954-2.8H109.551a4.591,4.591,0,0,0-4.314,3.611L94.86,287.64a2.889,2.889,0,0,0,2.905,3.611h83.382a4.6,4.6,0,0,0,4.314-3.611l8.558-43.825a2.888,2.888,0,0,0-2.905-3.611H145.743A6.632,6.632,0,0,1,138.8,233.665Z" transform="translate(-87.14 -190.232)" fill="#00a9dc" opacity="0.5"/>
                </g>
            </g>
            <g id="Group_1_" data-name="Group (1)" transform="translate(8.494 0)">
                <path id="Path_58803" data-name="Path 58803" d="M67.069,89.886l15.36-.765a2.9,2.9,0,0,0,2.735-2.541l.559-4.508-16.838.839a2.9,2.9,0,0,0-2.735,2.541l-.377,3.039A1.243,1.243,0,0,0,67.069,89.886Z" transform="translate(-45.07 -56.117)" fill="#0d8ba0"/>
                <path id="Path_58804" data-name="Path 58804" d="M104.155,82.072l-.559,4.509a2.9,2.9,0,0,1-2.736,2.541l-8.14.406a10.188,10.188,0,0,0,7.7-7.269Z" transform="translate(-63.502 -56.117)" fill="#02718c"/>
                <path id="Path_58805" data-name="Path 58805" d="M71.5,39.29l16.838-.839a2.9,2.9,0,0,0,2.736-2.541l.558-4.508-16.838.839a2.9,2.9,0,0,0-2.735,2.541Z" transform="translate(-48.989 -21.471)" fill="#0d8ba0"/>
                <path id="Path_58806" data-name="Path 58806" d="M107.025,31.4l-.559,4.509a2.9,2.9,0,0,1-2.736,2.541l-9.717.484a10.834,10.834,0,0,0,8.44-7.305Z" transform="translate(-64.386 -21.47)" fill="#02718c"/>
                <path id="Path_58807" data-name="Path 58807" d="M88.69,28.21,72.566,23.287a2.9,2.9,0,0,1-2.032-3.132l.559-4.508L87.216,20.57A2.9,2.9,0,0,1,89.249,23.7Zm1.985-16.025L74.552,7.263a2.9,2.9,0,0,1-2.032-3.132L72.9,1.091a1.244,1.244,0,0,1,1.6-1.036L89.2,4.545a2.9,2.9,0,0,1,2.033,3.132Z" transform="translate(-48.316 0)" fill="#06d0ff"/>
                <path id="Path_58808" data-name="Path 58808" d="M109.53,18.389l-.559,4.509-9.232-2.819a11.223,11.223,0,0,0,8.591-4.412A2.9,2.9,0,0,1,109.53,18.389Zm-1.986,16.025-.559,4.509L97.27,35.955a10.932,10.932,0,0,0,9.19-4.178A2.9,2.9,0,0,1,107.544,34.413Z" transform="translate(-66.612 -10.712)" fill="#00addb"/>
                <path id="Path_58809" data-name="Path 58809" d="M83.4,21.082h0a1.451,1.451,0,0,0,1.016,1.566l6.518,1.99a1.451,1.451,0,0,0,.847-2.775l-6.518-1.99A1.451,1.451,0,0,0,83.4,21.082ZM85.383,5.058h0A1.451,1.451,0,0,0,86.4,6.624l6.518,1.99a1.451,1.451,0,0,0,.847-2.775l-6.518-1.99A1.451,1.451,0,0,0,85.383,5.058Z" transform="translate(-57.119 -2.588)" fill="#52efff"/>
                <path id="Path_58810" data-name="Path 58810" d="M34.242,91.505l-14.77,4.285a2.9,2.9,0,0,1-3.414-1.51l-2-4.079L30.25,85.5a2.9,2.9,0,0,1,3.414,1.51l1.347,2.75A1.244,1.244,0,0,1,34.242,91.505ZM28.56,76.592,12.37,81.29a2.9,2.9,0,0,1-3.414-1.51l-2-4.079L23.148,71a2.9,2.9,0,0,1,3.414,1.51Z" transform="translate(-4.861 -48.469)" fill="#8042e0"/>
                <path id="Path_58811" data-name="Path 58811" d="M5.157,55.842,18.795,45.93a2.9,2.9,0,0,0,.9-3.624l-1.347-2.75A1.244,1.244,0,0,0,16.5,39.1L4.059,48.139a2.9,2.9,0,0,0-.9,3.623Z" transform="translate(-2.062 -26.57)" fill="#ff5ad0"/>
                <path id="Path_58812" data-name="Path 58812" d="M24.362,47.227h0a1.451,1.451,0,0,1-.45,1.812L18.4,53.045A1.451,1.451,0,0,1,16.693,50.7l5.513-4.007A1.451,1.451,0,0,1,24.362,47.227Z" transform="translate(-11.109 -31.736)" fill="#ff97eb"/>
                <path id="Path_58813" data-name="Path 58813" d="M59.477,87.014l1.347,2.75a1.243,1.243,0,0,1-.77,1.741L53.1,93.522a9.114,9.114,0,0,0,3.1-8.056A2.9,2.9,0,0,1,59.477,87.014Zm-7.1-14.5,2,4.079-9.665,2.8a9.1,9.1,0,0,0,3.8-8.261L48.96,71A2.9,2.9,0,0,1,52.374,72.513Z" transform="translate(-30.672 -48.469)" fill="#772dbd"/>
                <path id="Path_58814" data-name="Path 58814" d="M42.99,39.557l1.347,2.75a2.9,2.9,0,0,1-.9,3.623l-4.534,3.3a9.09,9.09,0,0,0,1.047-9.262l1.192-.867A1.244,1.244,0,0,1,42.99,39.557Z" transform="translate(-26.703 -26.57)" fill="#f91ed0"/>
                <path id="Path_58815" data-name="Path 58815" d="M27.616,100.329l13.637-9.912a2.9,2.9,0,0,0,.9-3.623l-2-4.079L26.518,92.626a2.9,2.9,0,0,0-.9,3.624Z" transform="translate(-17.418 -56.556)" fill="#ff5ad0"/>
                <path id="Path_58816" data-name="Path 58816" d="M46.819,93.079h0a1.45,1.45,0,0,1-.45,1.811L40.856,98.9A1.451,1.451,0,1,1,39.15,96.55l5.513-4.007A1.451,1.451,0,0,1,46.819,93.079Z" transform="translate(-26.464 -63.087)" fill="#ff97eb"/>
                <path id="Path_58817" data-name="Path 58817" d="M61.718,82.715l2,4.079a2.9,2.9,0,0,1-.9,3.624l-5.959,4.331A9.1,9.1,0,0,0,58.983,84.7Z" transform="translate(-38.98 -56.556)" fill="#f91ed0"/>
                <path id="Path_58818" data-name="Path 58818" d="M89.627,120.592a.546.546,0,0,0,0-.909,15.443,15.443,0,0,1-4.31-4.31.546.546,0,0,0-.909,0,15.442,15.442,0,0,1-4.31,4.31.546.546,0,0,0,0,.909,15.442,15.442,0,0,1,4.31,4.31.546.546,0,0,0,.909,0,15.443,15.443,0,0,1,4.31-4.31Z" transform="translate(-54.705 -78.72)" fill="#ffc751"/>
                <path id="Path_58819" data-name="Path 58819" d="M94.646,126.234a15.439,15.439,0,0,0-4.31,4.31.546.546,0,0,1-.908,0,15.389,15.389,0,0,0-1.94-2.37q-.144-.144-.292-.284.2.017.4.016a4.687,4.687,0,0,0,4.683-4.524l0,0a15.4,15.4,0,0,0,2.37,1.94A.546.546,0,0,1,94.646,126.234Z" transform="translate(-59.724 -84.363)" fill="#ffaf40"/>
                <path id="Path_58820" data-name="Path 58820" d="M81.7,116.429a.3.3,0,0,0,0-.5,8.573,8.573,0,0,1-2.393-2.393.3.3,0,0,0-.5,0,8.573,8.573,0,0,1-2.393,2.393.3.3,0,0,0,0,.5,8.578,8.578,0,0,1,2.393,2.392.3.3,0,0,0,.5,0,8.578,8.578,0,0,1,2.393-2.392Z" transform="translate(-52.26 -77.535)" fill="#79ff79"/>
                <path id="Path_58821" data-name="Path 58821" d="M84.49,119.562a8.572,8.572,0,0,0-2.393,2.393.3.3,0,0,1-.5,0,8.544,8.544,0,0,0-1.239-1.473q.109.009.219.009a2.6,2.6,0,0,0,2.6-2.512h0a8.535,8.535,0,0,0,1.316,1.077A.3.3,0,0,1,84.49,119.562Z" transform="translate(-55.045 -80.668)" fill="#29e088"/>
                <path id="Path_58822" data-name="Path 58822" d="M32.8,20.69a.607.607,0,0,0,0-1.011A17.178,17.178,0,0,1,28,14.884a.607.607,0,0,0-1.011,0A17.178,17.178,0,0,1,22.2,19.679a.607.607,0,0,0,0,1.011,17.178,17.178,0,0,1,4.795,4.795.607.607,0,0,0,1.011,0A17.178,17.178,0,0,1,32.8,20.69Z" transform="translate(-15.097 -9.992)" fill="#ffe059"/>
                <path id="Path_58823" data-name="Path 58823" d="M38.382,26.969a17.184,17.184,0,0,0-4.8,4.8.608.608,0,0,1-1.011,0,17.109,17.109,0,0,0-2.159-2.636q-.16-.16-.325-.316.219.018.44.018a5.214,5.214,0,0,0,5.21-5.033l0,0a17.107,17.107,0,0,0,2.636,2.159A.607.607,0,0,1,38.382,26.969Z" transform="translate(-20.679 -16.271)" fill="#ffc751"/>
                <path id="Path_58824" data-name="Path 58824" d="M7.825,12.757a.419.419,0,0,0,0-.7A11.847,11.847,0,0,1,4.519,8.753a.419.419,0,0,0-.7,0,11.8,11.8,0,0,1-1.489,1.818A11.8,11.8,0,0,1,.515,12.06a.419.419,0,0,0,0,.7,11.8,11.8,0,0,1,1.818,1.489,11.8,11.8,0,0,1,1.489,1.818.419.419,0,0,0,.7,0,11.851,11.851,0,0,1,3.307-3.307Z" transform="translate(-0.328 -5.857)" fill="#06d0ff"/>
                <path id="Path_58825" data-name="Path 58825" d="M11.676,17.086a11.851,11.851,0,0,0-3.307,3.307.419.419,0,0,1-.7,0,11.8,11.8,0,0,0-1.713-2.036q.15.013.3.013A3.6,3.6,0,0,0,9.855,14.9l0,0a11.8,11.8,0,0,0,1.818,1.489A.419.419,0,0,1,11.676,17.086Z" transform="translate(-4.178 -10.187)" fill="#00addb"/>
                <path id="Path_58826" data-name="Path 58826" d="M117.618,100.638a.419.419,0,0,0,0-.7,11.841,11.841,0,0,1-3.307-3.307.419.419,0,0,0-.7,0,11.852,11.852,0,0,1-3.307,3.307.419.419,0,0,0,0,.7,11.861,11.861,0,0,1,3.307,3.307.419.419,0,0,0,.7,0,11.849,11.849,0,0,1,3.307-3.307Z" transform="translate(-75.399 -65.946)" fill="#fe255f"/>
                <path id="Path_58827" data-name="Path 58827" d="M121.471,104.967a11.839,11.839,0,0,0-3.307,3.307.419.419,0,0,1-.7,0,11.8,11.8,0,0,0-1.713-2.036q.15.013.3.013a3.6,3.6,0,0,0,3.593-3.471l0,0a11.782,11.782,0,0,0,1.818,1.489A.419.419,0,0,1,121.471,104.967Z" transform="translate(-79.251 -70.275)" fill="#e01152"/>
                <path id="Path_58828" data-name="Path 58828" d="M8.9,85.9a.322.322,0,0,0,0-.536,9.1,9.1,0,0,1-2.54-2.54.322.322,0,0,0-.536,0,9.059,9.059,0,0,1-1.144,1.4,9.059,9.059,0,0,1-1.4,1.144.322.322,0,0,0,0,.536,9.06,9.06,0,0,1,1.4,1.144,9.063,9.063,0,0,1,1.144,1.4.322.322,0,0,0,.536,0A9.1,9.1,0,0,1,8.9,85.9Z" transform="translate(-2.254 -56.535)" fill="#ffe059"/>
                <path id="Path_58829" data-name="Path 58829" d="M11.861,89.229a9.105,9.105,0,0,0-2.54,2.54.322.322,0,0,1-.535,0,9.065,9.065,0,0,0-1.316-1.564q.115.01.233.01a2.763,2.763,0,0,0,2.76-2.667l0,0a9.067,9.067,0,0,0,1.4,1.144A.322.322,0,0,1,11.861,89.229Z" transform="translate(-5.211 -59.862)" fill="#ffc751"/>
                <path id="Path_58830" data-name="Path 58830" d="M129.768,44.294a.322.322,0,0,0,0-.536,9.1,9.1,0,0,1-2.54-2.54.322.322,0,0,0-.536,0,9.1,9.1,0,0,1-2.54,2.54.322.322,0,0,0,0,.536,9.1,9.1,0,0,1,2.54,2.54.322.322,0,0,0,.536,0,9.1,9.1,0,0,1,2.54-2.54Z" transform="translate(-84.894 -28.084)" fill="#ffe059"/>
                <path id="Path_58831" data-name="Path 58831" d="M132.724,47.62a9.111,9.111,0,0,0-2.54,2.54.322.322,0,0,1-.535,0,9.063,9.063,0,0,0-1.316-1.564c.077.006.154.01.233.01a2.762,2.762,0,0,0,2.76-2.667l0,0a9.075,9.075,0,0,0,1.4,1.144A.322.322,0,0,1,132.724,47.62Z" transform="translate(-87.851 -31.411)" fill="#ffc751"/>
                <path id="Path_58832" data-name="Path 58832" d="M11.066,129.124a.322.322,0,0,0,0-.535,9.11,9.11,0,0,1-2.54-2.54.322.322,0,0,0-.536,0,9.055,9.055,0,0,1-1.144,1.4,9.058,9.058,0,0,1-1.4,1.144.322.322,0,0,0,0,.535,9.061,9.061,0,0,1,1.4,1.144,9.056,9.056,0,0,1,1.144,1.4.322.322,0,0,0,.536,0,9.1,9.1,0,0,1,2.54-2.54Z" transform="translate(-3.732 -86.087)" fill="#8042e0"/>
                <path id="Path_58833" data-name="Path 58833" d="M14.025,132.451a9.1,9.1,0,0,0-2.54,2.54.322.322,0,0,1-.535,0,9.06,9.06,0,0,0-1.316-1.564q.115.01.233.009a2.762,2.762,0,0,0,2.76-2.666l0,0a9.082,9.082,0,0,0,1.4,1.144A.322.322,0,0,1,14.025,132.451Z" transform="translate(-6.69 -89.414)" fill="#772dbd"/>
            </g>
        </g>
    </g>
</svg>
