<svg xmlns="http://www.w3.org/2000/svg" xmlns:xlink="http://www.w3.org/1999/xlink" width="220.331" height="117.993" viewBox="0 0 220.331 117.993">
    <defs>
        <clipPath id="clip-path">
            <rect id="Rectangle_6896" data-name="Rectangle 6896" width="220.331" height="117.993" fill="none"/>
        </clipPath>
        <clipPath id="clip-path-3">
            <rect id="Rectangle_6892" data-name="Rectangle 6892" width="69.164" height="37.378" fill="none"/>
        </clipPath>
        <clipPath id="clip-path-4">
            <rect id="Rectangle_6893" data-name="Rectangle 6893" width="28.807" height="28.807" fill="none"/>
        </clipPath>
    </defs>
    <g id="Group_13077" data-name="Group 13077" transform="translate(-68 -153.72)">
        <g id="Group_13071" data-name="Group 13071" transform="translate(68 153.72)">
            <g id="Group_13070" data-name="Group 13070" clip-path="url(#clip-path)">
                <g id="Group_13069" data-name="Group 13069" transform="translate(0 0)">
                    <g id="Group_13068" data-name="Group 13068" clip-path="url(#clip-path)">
                        <path id="Path_63020" data-name="Path 63020" d="M1327.62,102.539l-.254-.3a52.645,52.645,0,0,1,17.271-8.884c9.392-2.745,23.457-3.522,37.114,8.36l-.259.3c-13.518-11.76-27.436-11-36.732-8.283a52.228,52.228,0,0,0-17.14,8.811" transform="translate(-1223.771 -84.498)" fill="#dadada"/>
                        <path id="Path_63021" data-name="Path 63021" d="M266.174,195.161c-1.467-15.632-7.526-27.5-23.226-36.2-4.63-2.567-10.427-3.821-13.2-8.328-2.756-4.476-1.732-10.191-2.278-15.418-1.4-13.412-14.218-23.783-27.628-25.2S173.088,114.666,162.9,123.5c-7.643,6.63-14.338,15.094-23.968,18.2-15.88,5.12-33.16-6.3-49.456-2.72-8.769,1.927-16.126,8.067-21.5,15.261-8.99,12.038-11.231,27.259-8.481,42.03a50.165,50.165,0,0,0,10.457,22.559l188.956-.395c5.525-5.525,7.892-16.574,7.263-23.276" transform="translate(-53.839 -101.236)" fill="#f6f5f5"/>
                        <path id="Path_63022" data-name="Path 63022" d="M828.129,71.93a14.6,14.6,0,1,1-14.6-14.6,14.6,14.6,0,0,1,14.6,14.6" transform="translate(-736.576 -52.856)" fill="#f6f5f5"/>
                        <path id="Path_63023" data-name="Path 63023" d="M1232.386,6.05A6.051,6.051,0,1,1,1226.335,0a6.051,6.051,0,0,1,6.051,6.051" transform="translate(-1125.047 0.001)" fill="#f6f5f5"/>
                        <path id="Path_63024" data-name="Path 63024" d="M2418.92,547.069a6.051,6.051,0,1,1-6.051-6.051,6.051,6.051,0,0,1,6.051,6.051" transform="translate(-2218.978 -498.794)" fill="#f6f5f5"/>
                        <path id="Path_63025" data-name="Path 63025" d="M2316.2,756.489l-.348-.185c7.1-13.379,7.849-27.76,2.062-39.457-6.084-12.3-18.5-20.57-34.969-23.3l.065-.389c16.594,2.747,29.115,11.1,35.258,23.51,5.845,11.811,5.091,26.324-2.067,39.817" transform="translate(-2104.773 -639.064)" fill="#dadada"/>
                        <path id="Path_63026" data-name="Path 63026" d="M17.221,542.524A63.9,63.9,0,0,1,.907,510.458c-1.977-10.961-.7-21.836,3.6-30.624,6.638-13.575,19.484-20.57,35.241-19.194l-.034.393c-15.588-1.362-28.29,5.554-34.852,18.974C.6,488.72-.667,499.509,1.3,510.388A63.511,63.511,0,0,0,17.51,542.256Z" transform="translate(0.001 -424.532)" fill="#dadada"/>
                        <rect id="Rectangle_6886" data-name="Rectangle 6886" width="83.871" height="59.719" transform="translate(63.11 57.849)" fill="#102048"/>
                        <path id="Path_63027" data-name="Path 63027" d="M1804.628,242.283h-15.516V228.12a5.174,5.174,0,0,1,10.347-.047v.047l0,8.989c0,.043,0,.091,0,.134v.272l.016-.008a5.167,5.167,0,0,0,5.154,4.775" transform="translate(-1649.48 -205.547)" fill="#92d7ef"/>
                        <path id="Path_63028" data-name="Path 63028" d="M1932.212,364.369V367.5a5.169,5.169,0,0,1-10.323.395Z" transform="translate(-1771.895 -335.932)" fill="#d3eff9"/>
                        <path id="Path_63029" data-name="Path 63029" d="M977.473,222.946c-.11,0-.217,0-.324.012-.071,0-.138.008-.205.016s-.146.016-.221.028c-.043,0-.087.012-.13.02s-.11.02-.162.032c-.079.016-.154.032-.233.051-.111.028-.221.059-.331.1-.055.016-.11.036-.162.055s-.107.04-.158.059a2.133,2.133,0,0,0-.217.095,2.075,2.075,0,0,0-.189.091c-.016.008-.035.016-.055.028-.055.028-.111.059-.166.091a4.7,4.7,0,0,0-.62.414c-.055.043-.114.091-.166.134s-.118.1-.177.158-.115.11-.17.166a5.264,5.264,0,0,0-.434.5c-.059.079-.114.154-.17.233a5.844,5.844,0,0,0-.454.833c-.031.071-.059.146-.091.221a5.854,5.854,0,0,0-.209.695c-.016.083-.032.162-.047.241-.028.162-.051.328-.063.493v72.57H903.155V231.012a8.065,8.065,0,0,1,8.066-8.066Z" transform="translate(-832.668 -205.546)" fill="#d3eff9"/>
                        <rect id="Rectangle_6889" data-name="Rectangle 6889" width="45.865" height="2.762" transform="translate(78.663 40.974)" fill="#92d7ef"/>
                        <rect id="Rectangle_6890" data-name="Rectangle 6890" width="52.484" height="2.762" transform="translate(78.663 49.064)" fill="#92d7ef"/>
                        <rect id="Rectangle_6891" data-name="Rectangle 6891" width="28.454" height="2.762" transform="translate(98.945 57.252)" fill="#92d7ef"/>
                        <path id="Path_63030" data-name="Path 63030" d="M1329.094,830.461a.94.94,0,0,1-.8-.38,1.767,1.767,0,0,1-.215-1.1l.268-7.138.394.015-.268,7.138a1.413,1.413,0,0,0,.14.858c.336.463,1.142.063,1.3-.023a6.218,6.218,0,0,0,1.917-2,5.828,5.828,0,0,1,2.207-2.173c.569-.249.988.116,1.324.408a1.707,1.707,0,0,0,.562.378,2.822,2.822,0,0,0,1.53-.12,3.559,3.559,0,0,1,1.448-.173,3.93,3.93,0,0,1,1.177.426,2.2,2.2,0,0,0,1.633.324,9.232,9.232,0,0,0,2.555-1.23c.235-.144.47-.288.707-.426a5.237,5.237,0,0,1,3.649-.886l-.088.385a4.885,4.885,0,0,0-3.363.843c-.234.136-.466.278-.7.421a9.527,9.527,0,0,1-2.669,1.277,2.586,2.586,0,0,1-1.9-.354,3.622,3.622,0,0,0-1.061-.39,3.259,3.259,0,0,0-1.289.164,3.159,3.159,0,0,1-1.742.117,2.01,2.01,0,0,1-.709-.459c-.352-.305-.583-.485-.908-.345a5.463,5.463,0,0,0-2.044,2.04,6.505,6.505,0,0,1-2.052,2.123,2.216,2.216,0,0,1-1.005.287" transform="translate(-1224.422 -757.698)" fill="#102048"/>
                        <g id="Group_13064" data-name="Group 13064" transform="translate(70.487 57.355)" opacity="0.3">
                            <g id="Group_13063" data-name="Group 13063">
                                <g id="Group_13062" data-name="Group 13062" clip-path="url(#clip-path-3)">
                                    <path id="Path_63031" data-name="Path 63031" d="M972.32,737.887V772.27H903.156V734.892l21.605,17.975a5.466,5.466,0,0,0,4.293,1.156,8.21,8.21,0,0,1,1.361-.075l14.727.414a8.369,8.369,0,0,1,1.507.185,5.416,5.416,0,0,0,4.384-.9Z" transform="translate(-903.156 -734.892)" fill="#86d5ff"/>
                                </g>
                            </g>
                        </g>
                        <path id="Path_63032" data-name="Path 63032" d="M840.188,765.971l-.576.639-26.029,28.862-4.929,5.462V741.212Z" transform="translate(-745.542 -683.364)" fill="#00a9dc"/>
                        <path id="Path_63033" data-name="Path 63033" d="M1510.754,741.226l-31.535,24.757,31.535,34.961Z" transform="translate(-1363.773 -683.376)" fill="#00a9dc"/>
                        <path id="Path_63034" data-name="Path 63034" d="M839.612,1054.419l-26.029,28.862-4.929,1.085v-10.611c13.01-9.325,27.607-20.137,30.942-20.37Z" transform="translate(-745.542 -971.173)" fill="#002056"/>
                        <path id="Path_63035" data-name="Path 63035" d="M1486.622,1054.419l26.029,28.862,4.929,1.085v-10.611c-13.011-9.325-27.607-20.137-30.942-20.37Z" transform="translate(-1370.598 -971.173)" fill="#002056"/>
                        <path id="Path_63036" data-name="Path 63036" d="M892.5,1078.629H808.633l.015-7.856,28.9-26.218a8.243,8.243,0,0,1,5.538-2.138h14.734a8.242,8.242,0,0,1,5.472,2.079l29.294,26.006Z" transform="translate(-745.523 -961.061)" fill="#00a9dc"/>
                        <g id="Group_13067" data-name="Group 13067" transform="translate(127.004 88.761)" opacity="0.4">
                            <g id="Group_13066" data-name="Group 13066">
                                <g id="Group_13065" data-name="Group 13065" clip-path="url(#clip-path-4)">
                                    <path id="Path_63037" data-name="Path 63037" d="M1641.715,1137.3a14.4,14.4,0,1,0,14.4,14.4,14.4,14.4,0,0,0-14.4-14.4" transform="translate(-1627.312 -1137.299)" fill="#5b4dad"/>
                                </g>
                            </g>
                        </g>
                        <path id="Path_63038" data-name="Path 63038" d="M1711.738,1151.7a14.4,14.4,0,1,1-14.4-14.4,14.4,14.4,0,0,1,14.4,14.4" transform="translate(-1551.586 -1048.538)" fill="#fbc343"/>
                        <path id="Path_63039" data-name="Path 63039" d="M1778.366,1237.463a2.434,2.434,0,0,1-1.807-.8l-5.1-5.627a1.184,1.184,0,0,1,1.755-1.589l5.1,5.626a.072.072,0,0,0,.069.024.068.068,0,0,0,.057-.044l5.485-12.487a1.184,1.184,0,1,1,2.168.952L1780.607,1236a2.452,2.452,0,0,1-2.241,1.462" transform="translate(-1632.927 -1126.494)" fill="#fff"/>
                        <rect id="Rectangle_6894" data-name="Rectangle 6894" width="219.012" height="0.395" transform="translate(1.319 117.399)" fill="#102048"/>
                    </g>
                </g>
            </g>
        </g>
        <g id="Group_13076" data-name="Group 13076" transform="translate(146.947 178.714)">
            <path id="Path_63093" data-name="Path 63093" d="M176.4,98.087a4.4,4.4,0,0,0,.061.453,4.641,4.641,0,0,0,1.435,2.544,4.579,4.579,0,0,0,3.089,1.236h42.991a3.786,3.786,0,0,0,3.862-3.765,4.514,4.514,0,0,0,0-.453,4.707,4.707,0,0,0-4.579-4.213h-43a3.8,3.8,0,0,0-3.857,4.2Z" transform="translate(-176.379 -91.879)" fill="#00a9dc"/>
            <path id="Path_63094" data-name="Path 63094" d="M176.4,98.087a4.4,4.4,0,0,0,.061.453,4.641,4.641,0,0,0,1.435,2.544,4.579,4.579,0,0,0,3.089,1.236h42.991a3.786,3.786,0,0,0,3.862-3.765,4.514,4.514,0,0,0,0-.453,4.707,4.707,0,0,0-4.579-4.213h-43a3.8,3.8,0,0,0-3.857,4.2Z" transform="translate(-176.379 -91.879)" fill="#fff" opacity="0.8"/>
            <path id="Path_63095" data-name="Path 63095" d="M228.938,98.51a2.693,2.693,0,0,1-.031.407,4.707,4.707,0,0,0-4.579-4.071l-45.708.1a3.847,3.847,0,0,1,2.738-1.089h42.991a4.707,4.707,0,0,1,4.579,4.213Q228.943,98.291,228.938,98.51Z" transform="translate(-177.48 -91.865)" fill="#00a9dc"/>
            <path id="Path_63096" data-name="Path 63096" d="M228.938,98.51a2.693,2.693,0,0,1-.031.407,4.707,4.707,0,0,0-4.579-4.071l-45.708.1a3.847,3.847,0,0,1,2.738-1.089h42.991a4.707,4.707,0,0,1,4.579,4.213Q228.943,98.291,228.938,98.51Z" transform="translate(-177.48 -91.865)" fill="#fff" opacity="0.5" style="isolation: isolate"/>
            <path id="Path_63097" data-name="Path 63097" d="M259.93,97.835l.183,2.035,1.913-.712.453,1.018-1.954.651,1.4,1.725-.88.646-1.369-1.791-1.018,1.791-.962-.646,1.084-1.725-2.035-.651.275-1.018,2.061.687L258.9,97.81Z" transform="translate(-215.855 -93.806)" fill="#00a9dc"/>
            <path id="Path_63098" data-name="Path 63098" d="M236.775,97.85l.183,2.035,1.913-.712.458,1.018-1.969.667,1.4,1.725-.875.646-1.369-1.791-1.018,1.791-.967-.646,1.089-1.725-2.035-.651.275-1.018,2.061.687-.178-2.035Z" transform="translate(-204.479 -93.82)" fill="#00a9dc"/>
            <path id="Path_63099" data-name="Path 63099" d="M213.7,97.85l.178,2.035,1.913-.712.458,1.018-1.959.651,1.4,1.725-.85.661-1.369-1.791-1.018,1.791-.962-.646,1.084-1.725-2.035-.651.28-1.018,2.035.687-.178-2.035Z" transform="translate(-193.163 -93.82)" fill="#00a9dc"/>
            <path id="Path_63100" data-name="Path 63100" d="M190.57,97.835l.178,2.035,1.918-.712.453,1.018-1.959.651,1.409,1.725-.88.646-1.369-1.791L189.3,103.2l-.962-.646,1.084-1.725-2.035-.651.275-1.018,2.035.687-.178-2.035Z" transform="translate(-181.787 -93.806)" fill="#00a9dc"/>
            <rect id="Rectangle_6915" data-name="Rectangle 6915" width="2.005" height="0.509" transform="translate(35.278 0)" fill="#00a9dc"/>
            <rect id="Rectangle_6916" data-name="Rectangle 6916" width="6.538" height="0.509" transform="translate(39.358 0)" fill="#00a9dc"/>
        </g>
    </g>
</svg>
