<svg xmlns="http://www.w3.org/2000/svg" width="165.996" height="152.179" viewBox="0 0 165.996 152.179">
    <g id="Group_14122" data-name="Group 14122" transform="translate(-105 -156.821)">
        <g id="Emails-amico" transform="translate(78.4 89.41)">
            <g id="freepik--Floor--inject-76" transform="translate(26.6 122.088)">
                <ellipse id="freepik--floor--inject-76-2" data-name="freepik--floor--inject-76" cx="82.998" cy="48.751" rx="82.998" ry="48.751" transform="translate(0 0)" fill="#f5f5f5"/>
            </g>
            <g id="freepik--Shadows--inject-76" transform="translate(30.643 132.429)">
                <path id="freepik--Shadow--inject-76" d="M58.48,342.4c4.8,2.772,4.8,7.267,0,10.031s-12.591,2.772-17.395,0-4.8-7.271,0-10.031S53.65,339.623,58.48,342.4Z" transform="translate(-37.482 -303.947)" fill="#e0e0e0"/>
                <path id="freepik--shadow--inject-76-2" data-name="freepik--shadow--inject-76" d="M121.209,287.237l43.565,25.152a3.556,3.556,0,0,0,3.217,0l73.747-42.577a.981.981,0,0,0,0-1.858L198.173,242.8a3.555,3.555,0,0,0-3.217,0l-73.747,42.58A.979.979,0,0,0,121.209,287.237Z" transform="translate(-89.682 -242.414)" fill="#e0e0e0"/>
            </g>
            <g id="freepik--Plants--inject-76" transform="translate(167.825 122.274)">
                <g id="freepik--plants--inject-76-2" data-name="freepik--plants--inject-76" transform="translate(0 0)">
                    <path id="Path_65162" data-name="Path 65162" d="M411.017,243.613l-3.035-1.754a48.838,48.838,0,0,1-1.089-14.263c1.014-9.5,6.123-13.631,9.641-12.26,2.341.921,3.065,3.581-.869,9.24C413.346,227.924,410.5,234.871,411.017,243.613Z" transform="translate(-406.723 -215.08)" fill="#00a9dc"/>
                    <g id="Group_14111" data-name="Group 14111" opacity="0.3">
                        <path id="Path_65163" data-name="Path 65163" d="M411.017,243.613l-3.035-1.754a48.838,48.838,0,0,1-1.089-14.263c1.014-9.5,6.123-13.631,9.641-12.26,2.341.921,3.065,3.581-.869,9.24C413.346,227.924,410.5,234.871,411.017,243.613Z" transform="translate(-406.723 -215.08)"/>
                    </g>
                    <path id="Path_65164" data-name="Path 65164" d="M413.774,242.6h.041a.208.208,0,0,0,.167-.245c-1.664-8.757,1.4-18.6,5.2-22.7a.212.212,0,0,0-.312-.286c-3.856,4.172-6.977,14.174-5.287,23.06A.2.2,0,0,0,413.774,242.6Z" transform="translate(-410.74 -217.737)" fill="#fff"/>
                    <path id="Path_65165" data-name="Path 65165" d="M421.836,261.437c.479.241,1.754-.851,2.11-1.115a4.458,4.458,0,0,0,1.393-1.772,4.187,4.187,0,0,0,.241-2.523,9.818,9.818,0,0,0-.372-1.315l-.435-1.271a3.277,3.277,0,0,1-.256-1.293,3.38,3.38,0,0,1,1.508-2.118,3.317,3.317,0,0,0,1.486-2.515,3.749,3.749,0,0,0-1.051-2.181c-.539-.617-1.174-1.155-1.668-1.813a2.619,2.619,0,0,1-.617-1.627,2.723,2.723,0,0,1,.308-1.051,14.7,14.7,0,0,0,1.025-2.125,2.094,2.094,0,0,0-.468-2.185,2.493,2.493,0,0,0-1.858-.372,4.22,4.22,0,0,0-1.672.684c-1.642,1.025-2.5,3.076-4.261,3.886a18.207,18.207,0,0,1-2.14.643,2.674,2.674,0,0,0-1.728,1.311c-.594,1.349.71,2.905.316,4.325-.346,1.256-1.52,1.787-2.136,2.935a2.6,2.6,0,0,0-.234,1.631,7.724,7.724,0,0,0,.817,2.694,23.674,23.674,0,0,0,1.624,2.493S421.761,261.4,421.836,261.437Z" transform="translate(-409.592 -228.312)" fill="#00a9dc"/>
                    <g id="Group_14112" data-name="Group 14112" transform="translate(1.696 7.822)" opacity="0.15">
                        <path id="Path_65166" data-name="Path 65166" d="M421.836,261.437c.479.241,1.754-.851,2.11-1.115a4.458,4.458,0,0,0,1.393-1.772,4.187,4.187,0,0,0,.241-2.523,9.818,9.818,0,0,0-.372-1.315l-.435-1.271a3.277,3.277,0,0,1-.256-1.293,3.38,3.38,0,0,1,1.508-2.118,3.317,3.317,0,0,0,1.486-2.515,3.749,3.749,0,0,0-1.051-2.181c-.539-.617-1.174-1.155-1.668-1.813a2.619,2.619,0,0,1-.617-1.627,2.723,2.723,0,0,1,.308-1.051,14.7,14.7,0,0,0,1.025-2.125,2.094,2.094,0,0,0-.468-2.185,2.493,2.493,0,0,0-1.858-.372,4.22,4.22,0,0,0-1.672.684c-1.642,1.025-2.5,3.076-4.261,3.886a18.207,18.207,0,0,1-2.14.643,2.674,2.674,0,0,0-1.728,1.311c-.594,1.349.71,2.905.316,4.325-.346,1.256-1.52,1.787-2.136,2.935a2.6,2.6,0,0,0-.234,1.631,7.724,7.724,0,0,0,.817,2.694,23.674,23.674,0,0,0,1.624,2.493S421.761,261.4,421.836,261.437Z" transform="translate(-411.287 -236.134)"/>
                    </g>
                    <path id="Path_65167" data-name="Path 65167" d="M426.6,261.9h0a.212.212,0,0,0,.193-.23c-.769-8.33,2.7-17.744,5.424-20.568a.212.212,0,1,0-.3-.294c-2.783,2.879-6.316,12.453-5.543,20.9A.212.212,0,0,0,426.6,261.9Z" transform="translate(-419.008 -231.197)" fill="#fff"/>
                    <path id="Path_65168" data-name="Path 65168" d="M429.035,267.189h.063a27.909,27.909,0,0,1,6.008-1.282.212.212,0,0,0,.189-.23.2.2,0,0,0-.227-.189,28.832,28.832,0,0,0-6.115,1.3.212.212,0,0,0,.082.409Z" transform="translate(-420.61 -246.759)" fill="#fff"/>
                </g>
            </g>
            <g id="freepik--Device--inject-76" transform="translate(61.032 67.411)">
                <g id="freepik--Laptop--inject-76" transform="translate(0)">
                    <path id="Path_65169" data-name="Path 65169" d="M126.34,275.9a3.942,3.942,0,0,0,1.839,3.05l40.017,23.1a4.087,4.087,0,0,0,3.674,0l70.444-40.671a3.448,3.448,0,0,0,0-6.1l-40.009-23.1a4.053,4.053,0,0,0-3.674,0L128.179,272.85a3.949,3.949,0,0,0-1.839,3.054Z" transform="translate(-123.717 -170.685)" fill="#37474f"/>
                    <path id="Path_65170" data-name="Path 65170" d="M130,274.971l40.017,23.105a4.053,4.053,0,0,0,3.674,0L244.139,257.4a1.119,1.119,0,0,0,0-2.121l-40.009-23.105a4.053,4.053,0,0,0-3.674,0L130,272.85A1.12,1.12,0,0,0,130,274.971Z" transform="translate(-125.541 -170.685)" fill="#455a64"/>
                    <path id="Path_65171" data-name="Path 65171" d="M170.027,368.27v3.979a3.749,3.749,0,0,1-1.858-.438l-39.991-23.105a3.44,3.44,0,0,1-.186-5.985c-.825.591-.743,1.456.186,2.006l40.017,23.105a3.79,3.79,0,0,0,1.832.438Z" transform="translate(-123.716 -240.437)" fill="#263238"/>
                    <path id="Path_65172" data-name="Path 65172" d="M120.178,169.645c-.951-.55-.9-1.486-.9-2.649V111.732a4.087,4.087,0,0,1,1.858-3.184L191.57,67.874a3.942,3.942,0,0,1,3.559-.067c.955.55.9,1.486.9,2.653v55.26a4.064,4.064,0,0,1-1.839,3.184l-70.452,40.674a3.938,3.938,0,0,1-3.563.067Z" transform="translate(-119.279 -67.414)" fill="#37474f"/>
                    <path id="Path_65173" data-name="Path 65173" d="M196.95,70.454c0-1.17-.825-1.642-1.839-1.059L124.66,110.073a3.715,3.715,0,0,0-1.3,1.371l-2.619-1.523h0a3.745,3.745,0,0,1,1.3-1.375l70.444-40.674a3.938,3.938,0,0,1,3.563-.067C197,68.373,196.95,69.283,196.95,70.454Z" transform="translate(-120.197 -67.411)" fill="#455a64"/>
                    <path id="Path_65174" data-name="Path 65174" d="M123.526,241.6a3.949,3.949,0,0,1-3.344-.045c-.951-.55-.9-1.486-.9-2.649V183.639a3.715,3.715,0,0,1,.539-1.809l2.623,1.52h0a3.767,3.767,0,0,0-.539,1.809v55.268C121.9,241.511,122.612,242,123.526,241.6Z" transform="translate(-119.279 -139.321)" fill="#263238"/>
                    <path id="Path_65175" data-name="Path 65175" d="M132.115,121.347,200.022,82.14c.609-.372,1.115-.067,1.115.635v48.253a2.433,2.433,0,0,1-1.115,1.91l-67.907,39.2c-.609.349-1.115.067-1.115-.639V123.257A2.441,2.441,0,0,1,132.115,121.347Z" transform="translate(-126.645 -76.568)" fill="#fafafa"/>
                    <path id="Path_65176" data-name="Path 65176" d="M144.342,278.455,209.73,240.7a2.021,2.021,0,0,1,1.835,0l1.089.6a.561.561,0,0,1,0,1.063L147.266,280.1a2.032,2.032,0,0,1-1.858,0l-1.077-.591A.557.557,0,0,1,144.342,278.455Z" transform="translate(-134.786 -176.179)" fill="#263238"/>
                    <path id="Path_65177" data-name="Path 65177" d="M158.053,286.615l65.388-37.754a1.876,1.876,0,0,1,1.679-.093l17.019,9.83c.42.241.349.676-.156.97l-65.31,37.7a1.9,1.9,0,0,1-1.683.1l-17.09-9.782C157.478,287.343,157.548,286.908,158.053,286.615Z" transform="translate(-143.378 -181.292)" fill="#263238"/>
                    <path id="Path_65178" data-name="Path 65178" d="M217.525,267.148l2.051-1.181c.085-.048.093-.126,0-.171l-1.958-1.115a.335.335,0,0,0-.3,0l-2.047,1.185c-.089.048-.1.126,0,.171l1.958,1.115A.323.323,0,0,0,217.525,267.148Zm-2.972-4.087-2.047,1.181c-.089.048-.1.126-.019.171l1.958,1.115a.334.334,0,0,0,.3,0l2.047-1.185c.089-.048.1-.126.019-.171l-1.958-1.115a.323.323,0,0,0-.312,0Zm-6.617,3.819-3.463,2c-.089.048-.1.126-.019.171l1.958,1.133a.334.334,0,0,0,.3,0l3.466-2c.085-.048.093-.126,0-.171l-1.962-1.115a.323.323,0,0,0-.293-.03Zm3.622-2.092-2.047,1.181c-.085.048-.093.126-.019.171l1.962,1.115a.334.334,0,0,0,.3,0l2.047-1.185c.085-.048.093-.126,0-.171l-1.962-1.115a.323.323,0,0,0-.294-.011Zm-8.032,4.637-2.047,1.181c-.085.052-.093.126-.019.171l1.962,1.115a.338.338,0,0,0,.3,0l2.047-1.181c.085-.052.093-.126.019-.175l-1.962-1.115a.323.323,0,0,0-.312-.011Zm-2.991,1.728-2.069,1.167c-.089.052-.1.126,0,.171l1.958,1.133a.334.334,0,0,0,.3,0l2.047-1.181c.089-.052.1-.126.019-.175l-1.958-1.115a.323.323,0,0,0-.308-.015Zm7.676,4.614,2.051-1.181c.085-.052.093-.126,0-.171L208.3,273.3a.323.323,0,0,0-.3,0l-2.047,1.181c-.089.052-.1.126-.019.171l1.958,1.133a.334.334,0,0,0,.3-.033Zm-2.991,1.728,2.047-1.181c.085-.052.1-.126.019-.171l-1.958-1.133a.331.331,0,0,0-.3,0l-2.047,1.181c-.085.052-.093.126,0,.171l1.958,1.115a.334.334,0,0,0,.268,0Zm-2.994,1.728,2.051-1.181c.085-.052.093-.126,0-.171l-1.958-1.133a.323.323,0,0,0-.3,0l-2.047,1.185c-.089.052-.1.126-.019.171l1.958,1.133a.323.323,0,0,0,.3-.019Zm-3.017,1.713,2.047-1.181c.089-.052.1-.126,0-.171l-1.958-1.133a.323.323,0,0,0-.3,0l-2.021,1.193c-.085.052-.093.126,0,.171l1.958,1.133A.323.323,0,0,0,199.209,280.935Zm15.314-12.075,2.047-1.181c.085-.048.1-.126.019-.171l-1.958-1.115a.334.334,0,0,0-.3,0l-2.051,1.185c-.085.048-.093.126,0,.171l1.958,1.115a.323.323,0,0,0,.293,0Zm-3.344,5.164,4.566-2.638c.089-.048.1-.126,0-.171l-4.755-2.746a.342.342,0,0,0-.3,0l-2.359,1.363c-.089.052-.1.13-.019.175l2.519,1.453c.078.045.067.123-.019.171l-1.861,1.089c-.085.052-.093.126,0,.171l1.958,1.133a.334.334,0,0,0,.282,0Zm-13.665-1.159-2.021,1.181c-.085.052-.093.126,0,.171l1.958,1.133a.334.334,0,0,0,.3,0l2.047-1.181c.085-.052.093-.126.019-.171l-1.962-1.133a.323.323,0,0,0-.327,0Zm-2.98,1.713-2.047,1.181c-.089.052-.1.126,0,.171l1.958,1.133a.323.323,0,0,0,.3,0l2.047-1.181c.089-.052.1-.126.019-.171l-1.977-1.133a.323.323,0,0,0-.3,0Zm-16.559,18.446a.323.323,0,0,0,.3,0l2.047-1.181c.085-.048.093-.126.019-.171l-1.962-1.115a.323.323,0,0,0-.3,0l-2.047,1.181c-.085.052-.093.13-.019.175Zm-7.375-4.611-2.047,1.181c-.085.052-.1.13-.019.175l1.962,1.115a.323.323,0,0,0,.3,0l2.047-1.181c.085-.048.093-.126,0-.171l-1.958-1.115A.323.323,0,0,0,170.6,288.414Zm3.793,3.466a.346.346,0,0,0,.3,0l2.047-1.181c.085-.052.093-.13,0-.175l-1.958-1.115a.323.323,0,0,0-.3,0l-2.029,1.167c-.085.048-.1.126-.019.171Zm8.259,1.858,2.047-1.181c.085-.048.093-.126,0-.171l-1.962-1.115a.334.334,0,0,0-.3,0l-2.047,1.185c-.085.048-.093.126,0,.171l1.958,1.115a.323.323,0,0,0,.294-.007Zm-3.292,1.739a.323.323,0,0,0,.3,0l2.047-1.181c.089-.048.1-.126,0-.171l-1.958-1.115a.334.334,0,0,0-.3,0l-2.047,1.185c-.089.048-.1.126-.019.171Zm-5.788-8.79-2.051,1.181c-.085.052-.093.13,0,.175l1.958,1.115a.323.323,0,0,0,.3,0l2.047-1.181c.089-.048.1-.126.019-.171l-1.958-1.133A.334.334,0,0,0,173.574,286.686Zm14.961-8.638-2.047,1.181c-.089.052-.1.126-.019.171l1.958,1.115a.323.323,0,0,0,.3,0l2.051-1.181c.085-.052.093-.126,0-.171l-1.958-1.133a.323.323,0,0,0-.268.019Zm-11.97,6.91-2.047,1.181c-.085.052-.1.13-.019.175l1.958,1.115a.331.331,0,0,0,.3,0l2.047-1.181c.085-.052.093-.126,0-.171l-1.958-1.115a.334.334,0,0,0-.268,0Zm14.961-8.638-2.047,1.181c-.085.052-.093.126,0,.171l1.958,1.133a.323.323,0,0,0,.3,0l2.047-1.181c.085-.052.093-.126.019-.171l-1.962-1.115a.323.323,0,0,0-.3-.019Zm-5.97,3.459-2.047,1.181c-.085.052-.093.126,0,.171l1.958,1.133a.323.323,0,0,0,.3,0l2.047-1.181c.085-.052.1-.126.019-.171l-1.973-1.133A.331.331,0,0,0,185.555,279.779Zm-2.991,1.728-2.047,1.181c-.089.052-.1.126-.019.171l1.958,1.133a.323.323,0,0,0,.3,0l2.051-1.181c.085-.052.093-.126,0-.171l-1.943-1.148a.335.335,0,0,0-.3.011Zm-2.972,1.728-2.051,1.181c-.085.052-.093.13,0,.175l1.958,1.115a.323.323,0,0,0,.3,0l2.047-1.181c.089-.052.1-.126.019-.171l-1.973-1.133a.334.334,0,0,0-.316.011Zm13.661,1.159,2.047-1.181c.089-.052.1-.126,0-.171l-1.958-1.115a.334.334,0,0,0-.3,0l-2.051,1.181c-.085.052-.093.126,0,.171l1.958,1.133a.323.323,0,0,0,.282-.022ZM221.17,259.23l-2.047,1.181c-.085.048-.093.126-.019.171l1.962,1.115a.334.334,0,0,0,.3,0l2.047-1.185c.085-.048.093-.126.019-.171l-1.962-1.115a.323.323,0,0,0-.316,0Zm-3.622,2.088L215.5,262.5c-.085.048-.093.126-.019.171l1.962,1.115a.334.334,0,0,0,.3,0l2.047-1.185c.085-.048.093-.126.019-.171l-1.962-1.115a.334.334,0,0,0-.316,0Zm6.6-3.83-2.047,1.181c-.089.048-.1.126-.019.171l1.958,1.115a.334.334,0,0,0,.3,0l2.047-1.185c.089-.048.1-.126.019-.171l-1.958-1.115A.323.323,0,0,0,224.145,257.488Zm-16.54,15.374,2.047-1.181c.085-.048.093-.126.019-.171l-1.962-1.115a.334.334,0,0,0-.3,0l-2.047,1.185c-.085.048-.093.126-.019.171l1.962,1.115a.323.323,0,0,0,.3,0Zm19.828-17.09a.334.334,0,0,0-.3,0l-2.047,1.185c-.085.048-.093.126-.019.171l1.962,1.115a.334.334,0,0,0,.3,0l2.047-1.185c.085-.048.093-.126.019-.171Zm-31.208,26.9,2.047-1.181c.085-.052.093-.126,0-.171l-1.958-1.133a.323.323,0,0,0-.3,0l-2.01,1.181c-.085.052-.1.126,0,.171l1.958,1.133a.331.331,0,0,0,.271-.011Zm36.7-21.177,2.047-1.181c.089-.048.1-.126.019-.171l-1.969-1.17a.334.334,0,0,0-.3,0l-2.047,1.181c-.089.052-.1.13-.019.175l1.958,1.115a.323.323,0,0,0,.312.03Zm-5.792.111,2.051-1.181c.085-.048.093-.126,0-.171l-1.958-1.115a.335.335,0,0,0-.3,0l-2.047,1.185c-.089.048-.1.126-.019.171l1.958,1.115a.323.323,0,0,0,.316-.037Zm3.1-4.209a.334.334,0,0,0-.3,0l-2.047,1.185c-.085.048-.093.126,0,.171l1.958,1.115a.323.323,0,0,0,.3,0l2.047-1.181c.085-.048.1-.126,0-.171Zm.632-.372,4.755,2.746a.331.331,0,0,0,.3,0l2.047-1.181c.085-.048.093-.126,0-.171l-4.755-2.746a.334.334,0,0,0-.3,0l-2.047,1.181c-.074.033-.074.111,0,.156Zm-6.91,3.8-2.047,1.185c-.085.048-.093.126,0,.171l1.958,1.115a.323.323,0,0,0,.3,0l2.047-1.181c.085-.048.1-.126.019-.171l-1.958-1.115A.342.342,0,0,0,223.949,260.832Zm-22.511,13-2.047,1.185c-.085.048-.093.126,0,.171l1.962,1.115a.323.323,0,0,0,.3,0l2.017-1.17c.085-.048.093-.126.019-.171l-1.962-1.115A.334.334,0,0,0,201.438,273.835Zm28.21-10.629a.323.323,0,0,0,.3,0l2.047-1.181c.085-.048.093-.126,0-.171l-1.947-1.137a.335.335,0,0,0-.3,0L227.7,261.9c-.085.052-.093.13-.019.175Zm-25.215,8.917-2.047,1.185c-.089.048-.1.126,0,.171l1.958,1.115a.323.323,0,0,0,.3,0l2.047-1.181c.089-.048.1-.126.019-.171l-1.958-1.115a.334.334,0,0,0-.338-.011ZM180.967,291.3a.323.323,0,0,0,.3,0l2.047-1.181c.089-.048.1-.126,0-.171l-1.936-1.129a.334.334,0,0,0-.3,0L179.031,290c-.089.052-.1.13-.019.175Zm-3.477-3.645-2.058,1.2c-.085.048-.093.126,0,.171l1.958,1.115a.323.323,0,0,0,.3,0l2.047-1.181c.089-.052.1-.13.019-.175l-1.958-1.115a.323.323,0,0,0-.3,0Zm6.769,1.906,2.047-1.181c.085-.048.093-.126,0-.171l-1.958-1.118a.334.334,0,0,0-.3,0L182,288.269c-.085.052-.093.13,0,.175l1.962,1.115a.323.323,0,0,0,.293.015Zm2.991-1.728,2.047-1.181c.089-.052.1-.126.019-.171l-1.958-1.126a.334.334,0,0,0-.3,0l-2.047,1.181c-.089.052-.1.13,0,.175l1.958,1.115a.323.323,0,0,0,.279.022Zm2.994-1.728,2.047-1.181c.085-.052.093-.126,0-.171l-1.958-1.133a.334.334,0,0,0-.3,0l-2.047,1.181c-.085.052-.1.13-.019.171l1.962,1.115a.323.323,0,0,0,.312.033Zm-9.764-.178-2.047,1.181c-.085.048-.1.126-.019.171l1.958,1.115a.342.342,0,0,0,.3,0l2.047-1.181c.085-.052.093-.13,0-.175l-1.958-1.115a.323.323,0,0,0-.282.019Zm2.994-1.728-2.051,1.181c-.085.048-.093.126,0,.171l1.958,1.115a.334.334,0,0,0,.3,0l2.047-1.185c.085-.048.1-.126.019-.171l-1.958-1.115a.323.323,0,0,0-.312.019Zm11.967-6.91-2.047,1.181c-.085.048-.093.126,0,.171l1.958,1.115a.334.334,0,0,0,.3,0l2.047-1.185c.085-.048.093-.126.019-.171l-1.962-1.115a.323.323,0,0,0-.312.019Zm-2.991,1.75-2.047,1.181c-.089.048-.1.126-.019.171l1.958,1.115a.334.334,0,0,0,.3,0l2.047-1.185c.089-.048.1-.126,0-.171l-1.958-1.115A.323.323,0,0,0,192.451,279.036Zm5.985-3.459-2.047,1.185c-.089.048-.1.126,0,.171l1.958,1.115a.334.334,0,0,0,.3,0l2.047-1.185c.089-.048.1-.126.019-.171l-1.958-1.115a.334.334,0,0,0-.316-.007Zm-11.97,6.907-2.047,1.181c-.089.048-.1.126-.019.171l1.958,1.115a.334.334,0,0,0,.3,0l2.051-1.185c.085-.048.093-.126,0-.171l-1.958-1.115A.323.323,0,0,0,186.466,282.484Zm2.991-1.728-2.047,1.181c-.085.048-.093.126,0,.171l1.958,1.115a.334.334,0,0,0,.3,0l2.047-1.185c.085-.048.1-.126.019-.171l-1.962-1.115A.323.323,0,0,0,189.456,280.757Zm-3.819,11.25,2.047-1.181c.089-.048.1-.126.019-.171l-1.958-1.115a.334.334,0,0,0-.3,0l-2.047,1.181c-.089.052-.1.13,0,.175l1.958,1.115A.323.323,0,0,0,185.637,292.006Zm-15.779-.743-1.958-1.115a.323.323,0,0,0-.3,0l-2.047,1.181c-.089.052-.1.13,0,.175l1.958,1.115a.323.323,0,0,0,.3,0l2.047-1.181C169.929,291.386,169.937,291.3,169.859,291.263Zm3.9.977-1.958-1.115a.323.323,0,0,0-.3,0l-3.132,1.813c-.089.052-.1.13,0,.175l1.958,1.115a.323.323,0,0,0,.3,0l3.151-1.817A.1.1,0,0,0,173.759,292.24Zm-6.825-3.21-1.958-1.115a.323.323,0,0,0-.3,0l-2.523,1.456c-.085.048-.093.126,0,.171l1.958,1.115a.334.334,0,0,0,.3,0l2.519-1.456C167.005,289.149,167.013,289.068,166.935,289.03Zm1.932-1.115a.323.323,0,0,0,.3,0l2.047-1.181c.089-.052.1-.13.019-.175l-1.958-1.115a.323.323,0,0,0-.3,0l-2.047,1.181c-.089.048-.1.126-.019.171Zm8.478,5.491-1.958-1.115a.334.334,0,0,0-.3,0l-3.938,2.274c-.085.052-.1.126,0,.171l1.958,1.115a.331.331,0,0,0,.3,0l3.934-2.274c.071-.052.078-.13,0-.175Zm1.382,2.433-1.962-1.115a.334.334,0,0,0-.3,0l-2.523,1.445c-.085.052-.093.126,0,.171l1.962,1.133a.338.338,0,0,0,.3,0l2.519-1.456c.071-.059.082-.137,0-.182Zm12.39-20.768a.323.323,0,0,0,.3,0l2.047-1.181c.085-.052.093-.126.019-.171l-1.962-1.115a.338.338,0,0,0-.3,0l-2.043,1.159c-.085.052-.093.126-.019.171Zm-5.985,3.455a.323.323,0,0,0,.3,0l2.047-1.181c.085-.048.1-.126.019-.171l-1.962-1.133a.338.338,0,0,0-.3,0l-2.047,1.181c-.085.052-.093.13,0,.175Zm-13.275,7.661a.342.342,0,0,0,.3,0l2.047-1.207c.085-.052.093-.13,0-.175l-1.958-1.115a.323.323,0,0,0-.3,0l-2.047,1.181c-.085.048-.1.126,0,.171Zm16.265-9.381a.323.323,0,0,0,.3,0l2.047-1.181c.089-.048.1-.126.019-.171l-1.958-1.133a.334.334,0,0,0-.3,0l-2.047,1.181c-.089.052-.1.13-.019.175Zm-5.985,3.455a.323.323,0,0,0,.3,0l2.047-1.181c.089-.048.1-.126,0-.171l-1.958-1.133a.334.334,0,0,0-.3,0l-2.047,1.181c-.089.052-.1.13-.019.175Zm-1.943,15.708a.334.334,0,0,0-.3,0l-3.151,1.82c-.085.048-.093.126,0,.171l1.958,1.115a.323.323,0,0,0,.3,0l3.151-1.82c.085-.048.093-.126,0-.171Zm-2.352-13.23a.334.334,0,0,0,.3,0l2.051-1.185c.085-.048.093-.126,0-.171l-1.958-1.115a.323.323,0,0,0-.3,0l-2.047,1.181c-.089.048-.1.126-.019.171Zm-2.991,1.728a.334.334,0,0,0,.3,0l2.047-1.185c.089-.048.1-.126.019-.171L175.257,282a.323.323,0,0,0-.3,0l-2.051,1.181c-.085.048-.093.126,0,.171Zm60.785-20.508a.323.323,0,0,0-.3,0l-5.042,2.909c-.085.052-.1.126-.019.171l1.962,1.133a.323.323,0,0,0,.3,0l5.038-2.909c.089-.052.1-.126.019-.171Zm-6.617,3.819a.323.323,0,0,0-.3,0l-2.047,1.181c-.085.052-.1.126-.019.171l1.958,1.133a.331.331,0,0,0,.3,0l2.047-1.181c.085-.052.093-.126,0-.171Zm-40.388,22.5,2.047-1.181c.085-.048.093-.126.019-.171l-1.962-1.115a.334.334,0,0,0-.3,0l-2.047,1.181c-.085.052-.093.13,0,.175l1.958,1.115A.323.323,0,0,0,188.632,290.279Zm34.4-19.044a.334.334,0,0,0-.3,0l-2.047,1.181c-.085.052-.1.126-.019.171l1.962,1.133a.323.323,0,0,0,.3,0l2.047-1.181c.085-.052.093-.126,0-.171Zm15.6-9a.323.323,0,0,0-.3,0l-2.058,1.2c-.085.052-.1.126-.019.171l1.958,1.115a.334.334,0,0,0,.3,0l2.051-1.181c.085-.052.093-.126,0-.171Zm4.952-.594-4.759-2.749a.323.323,0,0,0-.3,0l-2.058,1.2c-.085.052-.093.126-.019.171l4.759,2.749a.334.334,0,0,0,.3,0l2.047-1.181c.085-.082.1-.156.019-.2Zm-31.75,16.042a.323.323,0,0,0-.3,0l-2.519,1.453c-.085.052-.1.13-.019.175l1.958,1.115a.331.331,0,0,0,.3,0l2.519-1.453c.085-.052.093-.13.019-.175Zm7.561-4.365a.323.323,0,0,0-.3,0l-3.151,1.817c-.085.052-.093.13-.019.175l1.962,1.115a.323.323,0,0,0,.3,0l3.151-1.817c.085-.052.093-.126,0-.171Zm-14.489,8.367a.323.323,0,0,0-.3,0l-16.852,9.73c-.085.048-.1.126-.019.171L189.7,292.7a.323.323,0,0,0,.3,0l16.856-9.726c.085-.052.093-.13,0-.175Zm-17.8,10.276a.334.334,0,0,0-.3,0l-2.523,1.456c-.085.052-.093.126,0,.171l1.958,1.133a.334.334,0,0,0,.3,0l2.519-1.456c.085-.048.1-.126.019-.171Zm21.262-12.26a.323.323,0,0,0-.3,0l-2.523,1.456c-.085.048-.093.126,0,.171l1.958,1.115a.323.323,0,0,0,.3,0l2.519-1.456c.089-.048.1-.126.019-.171Zm-24.729,14.274a.323.323,0,0,0-.3,0l-2.519,1.453c-.089.052-.1.13,0,.175l1.958,1.115a.323.323,0,0,0,.3,0l2.519-1.453c.089-.052.1-.126,0-.171Zm31.669-18.279a.334.334,0,0,0-.3,0l-2.519,1.456c-.089.048-.1.126,0,.171l1.958,1.133a.335.335,0,0,0,.3,0L217.276,277c.089-.048.1-.126.019-.171Zm10.711-6.186a.323.323,0,0,0-.3,0l-2.051,1.181c-.085.052-.093.126,0,.171l1.943,1.118a.323.323,0,0,0,.3,0l2.047-1.181c.089-.052.1-.126,0-.171Zm6.687-4.677,2.047-1.181c.085-.052.1-.126.019-.171l-1.962-1.115a.338.338,0,0,0-.3,0l-2.047,1.181c-.085.052-.093.126,0,.175l1.958,1.115a.323.323,0,0,0,.3-.015Zm-12.212.587,2.047-1.181c.085-.048.1-.126.019-.171l-1.958-1.115a.342.342,0,0,0-.3,0l-2.047,1.185c-.085.048-.093.126,0,.171l1.958,1.115a.323.323,0,0,0,.3-.015Zm-7.921,11.042L218.565,273c.089-.052.1-.126.019-.171l-1.958-1.133a.334.334,0,0,0-.3,0l-5.985,3.455c-.085.052-.1.126-.019.171l1.958,1.115A.331.331,0,0,0,212.584,276.458Zm16.867-9.9a.323.323,0,0,0,.3,0l2.047-1.181c.089-.052.1-.126.019-.171l-1.958-1.133a.335.335,0,0,0-.3,0l-2.047,1.181c-.089.052-.1.13,0,.175Zm-2.511-1.638,2.047-1.181c.089-.048.1-.126.019-.171l-1.958-1.115a.334.334,0,0,0-.3,0l-2.047,1.181c-.089.052-.1.13-.019.175l1.958,1.115a.323.323,0,0,0,.3,0Zm-17.361,13.256,2.047-1.181c.089-.052.1-.126.019-.171l-1.958-1.129a.323.323,0,0,0-.3,0l-2.051,1.181c-.085.052-.093.126,0,.171l1.958,1.133a.323.323,0,0,0,.282.007Zm13.249-7.8a.323.323,0,0,0,.3,0l2.047-1.181c.085-.052.093-.126.019-.171l-1.962-1.115a.338.338,0,0,0-.3,0l-2.047,1.181c-.085.052-.093.126,0,.175Zm-28.21,16.466,2.047-1.181c.085-.048.093-.126,0-.171l-1.962-1.133a.338.338,0,0,0-.3,0l-2.047,1.181c-.085.052-.093.13-.019.175l1.962,1.115A.323.323,0,0,0,194.617,286.838Zm2.991-1.728,2.047-1.181c.089-.048.1-.126.019-.171l-1.951-1.148a.334.334,0,0,0-.3,0l-2.047,1.181c-.089.052-.1.13,0,.175l1.958,1.115a.323.323,0,0,0,.271.015Zm-5.985,3.455,2.047-1.181c.089-.048.1-.126,0-.171l-1.958-1.115a.334.334,0,0,0-.3,0l-2.047,1.181c-.089.052-.1.13-.019.175l1.958,1.115a.323.323,0,0,0,.316-.019Zm11.97-6.929,2.047-1.181c.089-.052.1-.126.019-.171l-1.958-1.133a.334.334,0,0,0-.3,0l-2.047,1.181c-.089.052-.1.126,0,.171l1.939,1.133a.323.323,0,0,0,.3,0Zm-2.991,1.728,2.047-1.181c.085-.048.093-.126.019-.171l-1.973-1.118a.334.334,0,0,0-.3,0l-2.047,1.181c-.085.052-.093.13-.019.175l1.962,1.115a.323.323,0,0,0,.308,0Zm5.985-3.455,2.047-1.181c.085-.052.093-.126,0-.171l-1.958-1.133a.323.323,0,0,0-.3,0l-2.047,1.181c-.085.052-.1.126-.019.171l1.962,1.133a.323.323,0,0,0,.312,0Zm16.328-24.034a.323.323,0,0,0,.3,0l2.047-1.181c.089-.052.1-.126.019-.171l-.52-.3a.334.334,0,0,0-.3,0l-2.051,1.185c-.085.048-.093.126,0,.171Zm-14.861,9.418a.338.338,0,0,0,.3,0l2.047-1.181c.085-.052.093-.13,0-.175l-1.958-1.115a.323.323,0,0,0-.3,0L206.1,264c-.085.048-.093.126-.019.171Zm5.985-3.455a.338.338,0,0,0,.3,0l2.047-1.181c.085-.052.093-.13,0-.175l-1.943-1.137a.323.323,0,0,0-.3,0l-2.047,1.181c-.085.048-.1.126-.019.171Zm-9.641,5.573a.334.334,0,0,0,.3,0l2.047-1.185c.089-.048.1-.126.019-.171l-1.98-1.137a.323.323,0,0,0-.3,0l-2.047,1.181c-.089.048-.1.126-.019.171Zm6.647-3.834a.334.334,0,0,0,.3,0l2.047-1.181c.089-.052.1-.13.019-.175l-1.958-1.115a.323.323,0,0,0-.3,0l-2.047,1.181c-.089.048-.1.126-.019.171Zm-12.632,7.293a.349.349,0,0,0,.3,0l2.047-1.181c.089-.052.1-.13.019-.175l-1.958-1.115a.323.323,0,0,0-.3,0l-2.047,1.181c-.089.048-.1.126-.019.171Zm2.994-1.731a.334.334,0,0,0,.3,0l2.047-1.181c.085-.052.093-.13,0-.175l-1.958-1.115a.323.323,0,0,0-.3,0l-2.047,1.181c-.085.048-.093.126-.019.171Zm15.522-9.793a.323.323,0,0,0,.3,0l2.047-1.181c.089-.052.1-.126.019-.171l-.52-.3a.334.334,0,0,0-.3,0l-2.047,1.185c-.089.048-.1.126-.019.171Zm8.98-5.2a.323.323,0,0,0,.3,0l2.047-1.181c.085-.052.093-.126,0-.171l-.52-.3a.334.334,0,0,0-.3,0l-2.047,1.185c-.089.048-.1.126-.019.171Zm4.113,2.374a.334.334,0,0,0,.3,0l2.047-1.185c.089-.048.1-.126.019-.171l-1.958-1.115a.334.334,0,0,0-.3,0l-2.047,1.185c-.089.048-.1.126-.019.171Zm5.7,6.565,2.047-1.181c.089-.052.1-.126,0-.171l-1.958-1.133a.334.334,0,0,0-.3,0l-2.047,1.181c-.089.052-.1.126-.019.171l1.958,1.133a.323.323,0,0,0,.316.007Zm-15.8-5.484a.323.323,0,0,0,.3,0l2.047-1.181c.085-.052.093-.126,0-.171l-.52-.3a.334.334,0,0,0-.3,0l-2.047,1.185c-.085.048-.1.126,0,.171ZM195.4,272.583a.338.338,0,0,0,.3,0l2.047-1.181c.085-.052.093-.13.019-.175l-1.962-1.115a.323.323,0,0,0-.3,0l-2.047,1.181c-.085.048-.093.126-.019.171Z" transform="translate(-146.185 -183.708)" fill="#455a64"/>
                    <path id="Path_65179" data-name="Path 65179" d="M275.61,328.424l.42.242,11.153,6.435,19.828-11.447.412-.238-11.569-6.676Z" transform="translate(-217.529 -224.109)" fill="#37474f"/>
                    <path id="Path_65180" data-name="Path 65180" d="M276.74,329.47l11.153,6.435,19.828-11.447-11.157-6.439Z" transform="translate(-218.24 -224.913)" fill="#263238"/>
                </g>
            </g>
            <g id="freepik--mail-box--inject-76" transform="translate(31.775 118.852)">
                <g id="freepik--MailBox--inject-76">
                    <path id="Path_65181" data-name="Path 65181" d="M97.6,208.594l-4.544-2.6c-.2-.119-.349-.149-.427-.1l-.554.32c-.1.056-.093.219.026.472l1.115,2.289-.825.743a.643.643,0,0,0,.119,1.092l4.544,2.623.554-.323Z" transform="translate(-72.882 -205.87)" fill="#00a9dc"/>
                    <path id="Path_65182" data-name="Path 65182" d="M97.6,208.594l-4.544-2.6c-.2-.119-.349-.149-.427-.1l-.554.32c-.1.056-.093.219.026.472l1.115,2.289-.825.743a.643.643,0,0,0,.119,1.092l4.544,2.623.554-.323Z" transform="translate(-72.882 -205.87)" fill="#fff" opacity="0.5"/>
                    <path id="Path_65183" data-name="Path 65183" d="M92.5,206.8c-.442-.256-.624-.089-.4.372l1.115,2.289-.825.743a.643.643,0,0,0,.119,1.092l4.544,2.623v-4.492Z" transform="translate(-72.88 -206.377)" fill="#00a9dc"/>
                    <path id="Path_65184" data-name="Path 65184" d="M106.095,224.847a.531.531,0,0,1-.535-.535V209.22a.535.535,0,0,1,1.066,0v15.091a.531.531,0,0,1-.531.535Z" transform="translate(-81.4 -207.668)" fill="#455a64"/>
                    <path id="Path_65185" data-name="Path 65185" d="M54.39,354.446v-.94h.227a3.715,3.715,0,0,1,1.527-1.486,9.39,9.39,0,0,1,8.5,0,3.682,3.682,0,0,1,1.527,1.486h.23v.91a2.994,2.994,0,0,1-1.757,2.5,9.389,9.389,0,0,1-8.5,0A3.015,3.015,0,0,1,54.39,354.446Z" transform="translate(-49.241 -297.083)" fill="#263238"/>
                    <ellipse id="Ellipse_743" data-name="Ellipse 743" cx="6.011" cy="3.47" rx="6.011" ry="3.47" transform="translate(5.146 52.953)" fill="#455a64"/>
                    <path id="Path_65186" data-name="Path 65186" d="M69.495,269.77v32.27a.773.773,0,0,1-.453.632,2.415,2.415,0,0,1-2.188,0,.765.765,0,0,1-.453-.632V269.77Z" transform="translate(-56.789 -246.03)" fill="#37474f"/>
                    <path id="Path_65187" data-name="Path 65187" d="M66.4,280.28v3.035l3.095,1.783v-3.028Z" transform="translate(-56.789 -252.635)" fill="#263238"/>
                    <path id="Path_65188" data-name="Path 65188" d="M88.9,258.374l5.721,3.307a.427.427,0,0,1-.111.119L84.5,267.576c-.085.048-.152,0-.152-.093v-7.211a11.276,11.276,0,0,1,.836-4.042Z" transform="translate(-68.07 -237.52)" fill="#00a9dc"/>
                    <path id="Path_65189" data-name="Path 65189" d="M88.9,258.374l5.721,3.307a.427.427,0,0,1-.111.119L84.5,267.576c-.085.048-.152,0-.152-.093v-7.211a11.276,11.276,0,0,1,.836-4.042Z" transform="translate(-68.07 -237.52)" opacity="0.4"/>
                    <path id="Path_65190" data-name="Path 65190" d="M96.081,242.638v8.081L86.6,245.235l.033-.078a11.7,11.7,0,0,1,4.573-5.762,4.339,4.339,0,0,1,2.144-.665C95.037,238.73,96.081,240.227,96.081,242.638Z" transform="translate(-69.484 -226.522)" fill="#00a9dc"/>
                    <path id="Path_65191" data-name="Path 65191" d="M96.081,242.638v8.081L86.6,245.235l.033-.078a11.7,11.7,0,0,1,4.573-5.762,4.339,4.339,0,0,1,2.144-.665C95.037,238.73,96.081,240.227,96.081,242.638Z" transform="translate(-69.484 -226.522)" opacity="0.3"/>
                    <path id="Path_65192" data-name="Path 65192" d="M104.089,282.253v-.721h-.071v.1a3.124,3.124,0,0,0-.186-.583,5.41,5.41,0,0,0-2.393-2.433l-6.773-3.912a1.148,1.148,0,0,0-1.022,0l-10.358,5.978a1.59,1.59,0,0,1-.327-.372v.743h0a.371.371,0,0,0,.208.3l6.777,3.908a12.907,12.907,0,0,0,6.476,1.531,11.224,11.224,0,0,0,5.391-1.311,3.861,3.861,0,0,0,2.274-3.221Z" transform="translate(-67.196 -249.057)" fill="#00a9dc"/>
                    <path id="Path_65193" data-name="Path 65193" d="M104.089,282.253v-.721h-.071v.1a3.124,3.124,0,0,0-.186-.583,5.41,5.41,0,0,0-2.393-2.433l-6.773-3.912a1.148,1.148,0,0,0-1.022,0l-10.358,5.978a1.59,1.59,0,0,1-.327-.372v.743h0a.371.371,0,0,0,.208.3l6.777,3.908a12.907,12.907,0,0,0,6.476,1.531,11.224,11.224,0,0,0,5.391-1.311,3.861,3.861,0,0,0,2.274-3.221Z" transform="translate(-67.196 -249.057)" opacity="0.4"/>
                    <path id="Path_65194" data-name="Path 65194" d="M104.385,281.063a5.41,5.41,0,0,0-2.393-2.433l-6.773-3.912a1.148,1.148,0,0,0-1.022,0L83.84,280.691l6.658,3.842a12.948,12.948,0,0,0,6.476,1.531,11.265,11.265,0,0,0,5.391-1.311,4.064,4.064,0,0,0,2.251-2.861A3.021,3.021,0,0,0,104.385,281.063Z" transform="translate(-67.749 -249.064)" fill="#00a9dc"/>
                    <path id="Path_65195" data-name="Path 65195" d="M104.385,281.063a5.41,5.41,0,0,0-2.393-2.433l-6.773-3.912a1.148,1.148,0,0,0-1.022,0L83.84,280.691l6.658,3.842a12.948,12.948,0,0,0,6.476,1.531,11.265,11.265,0,0,0,5.391-1.311,4.064,4.064,0,0,0,2.251-2.861A3.021,3.021,0,0,0,104.385,281.063Z" transform="translate(-67.749 -249.064)" opacity="0.2"/>
                    <path id="Path_65196" data-name="Path 65196" d="M104.057,280.681a3.02,3.02,0,0,0-.23-.836,5.41,5.41,0,0,0-2.393-2.433L94.661,273.5a1.148,1.148,0,0,0-1.022,0l-10.358,5.978-.119-.067a.312.312,0,0,1,0-.591l10.477-6.03a1.115,1.115,0,0,1,1.022,0l6.773,3.912a5.449,5.449,0,0,1,2.393,2.433,3.006,3.006,0,0,1,.238.888,2.712,2.712,0,0,1-.007.658Z" transform="translate(-67.191 -247.85)" fill="#00a9dc"/>
                    <path id="Path_65197" data-name="Path 65197" d="M104.057,280.681a3.02,3.02,0,0,0-.23-.836,5.41,5.41,0,0,0-2.393-2.433L94.661,273.5a1.148,1.148,0,0,0-1.022,0l-10.358,5.978-.119-.067a.312.312,0,0,1,0-.591l10.477-6.03a1.115,1.115,0,0,1,1.022,0l6.773,3.912a5.449,5.449,0,0,1,2.393,2.433,3.006,3.006,0,0,1,.238.888,2.712,2.712,0,0,1-.007.658Z" transform="translate(-67.191 -247.85)" opacity="0.3"/>
                    <path id="Path_65198" data-name="Path 65198" d="M84.14,277.8l10.473-6.048-.234-.546L84.37,276.991Z" transform="translate(-67.938 -246.935)" fill="#00a9dc"/>
                    <path id="Path_65199" data-name="Path 65199" d="M84.14,277.8l10.473-6.048-.234-.546L84.37,276.991Z" transform="translate(-67.938 -246.935)" opacity="0.1"/>
                    <g id="freepik--Letter--inject-76" transform="translate(11.644 7.781)">
                        <path id="Path_65200" data-name="Path 65200" d="M85.9,234.7a.546.546,0,0,0-.249-.431L72.9,226.9a.535.535,0,0,0-.5,0l-.282.163a.546.546,0,0,0-.249.431v9.775a.554.554,0,0,0,.249.431L84.87,245.06a.569.569,0,0,0,.5,0l.279-.163a.554.554,0,0,0,.249-.431Z" transform="translate(-71.87 -226.827)" fill="#f5f5f5"/>
                        <path id="Path_65201" data-name="Path 65201" d="M85.954,234.425l-.71.409L72.07,227.225a.509.509,0,0,1,.175-.189l.282-.16a.535.535,0,0,1,.5,0L85.79,234.24A.479.479,0,0,1,85.954,234.425Z" transform="translate(-71.996 -226.815)" fill="#e0e0e0"/>
                        <path id="Path_65202" data-name="Path 65202" d="M107.38,276Z" transform="translate(-94.187 -257.727)" fill="#00a9dc"/>
                        <path id="Path_65203" data-name="Path 65203" d="M85.122,235.519l-.13.078a.215.215,0,0,1,.13.212v9.775a.171.171,0,0,1-.078.163.164.164,0,0,1-.119,0l-.052-.022-12.754-7.36a.557.557,0,0,1-.249-.431v-9.775a.52.52,0,0,1,.074-.249Z" transform="translate(-71.87 -227.503)" fill="#ebebeb"/>
                        <path id="Path_65204" data-name="Path 65204" d="M85.119,235.479l-5.9,2.2a.955.955,0,0,1-1.141-.372l-.955-1.456L71.9,227.84l5.042,8.069-5.068,1.984a.491.491,0,0,0,.078.249l5-2.211,1.115,1.765a.962.962,0,0,0,1.2.372l.784-.346,5,7.984a.178.178,0,0,0,.074-.163v-.182l-5.068-7.653Z" transform="translate(-71.87 -227.459)" opacity="0.2"/>
                    </g>
                    <g id="freepik--letter--inject-76-2" data-name="freepik--letter--inject-76" transform="translate(8.623 9.513)">
                        <path id="Path_65205" data-name="Path 65205" d="M77.772,239.327a.557.557,0,0,0-.249-.431l-12.754-7.36a.535.535,0,0,0-.5,0l-.282.16a.557.557,0,0,0-.249.431V241.9a.568.568,0,0,0,.249.435l12.754,7.36a.535.535,0,0,0,.5,0l.282-.16a.557.557,0,0,0,.249-.431Z" transform="translate(-63.74 -231.475)" fill="#f5f5f5"/>
                        <path id="Path_65206" data-name="Path 65206" d="M77.824,239.1l-.706.409L63.94,231.882a.528.528,0,0,1,.175-.186l.282-.16a.535.535,0,0,1,.5,0l12.754,7.36a.527.527,0,0,1,.175.2Z" transform="translate(-63.866 -231.475)" fill="#e0e0e0"/>
                        <path id="Path_65207" data-name="Path 65207" d="M99.25,280.67Z" transform="translate(-86.057 -262.393)" fill="#00a9dc"/>
                        <path id="Path_65208" data-name="Path 65208" d="M76.992,240.179l-.13.078a.215.215,0,0,1,.13.212v9.775a.171.171,0,0,1-.078.163.163.163,0,0,1-.119,0l-.052-.022-12.754-7.36a.557.557,0,0,1-.249-.431v-9.775a.52.52,0,0,1,.074-.249Z" transform="translate(-63.74 -232.163)" fill="#ebebeb"/>
                        <path id="Path_65209" data-name="Path 65209" d="M76.992,240.135l-5.907,2.211a.959.959,0,0,1-1.137-.372L69,240.521,63.766,232.5l5.042,8.069-5.068,1.984a.606.606,0,0,0,.078.249l5-2.229,1.115,1.765a.962.962,0,0,0,1.2.372l.788-.346,4.99,8a.171.171,0,0,0,.078-.163v-.163l-5.056-7.668Z" transform="translate(-63.74 -232.119)" opacity="0.2"/>
                    </g>
                    <g id="freepik--letter--inject-76-3" data-name="freepik--letter--inject-76" transform="translate(5.606 11.243)">
                        <path id="Path_65210" data-name="Path 65210" d="M69.649,243.985a.546.546,0,0,0-.249-.431l-12.751-7.364a.557.557,0,0,0-.5,0l-.282.163a.546.546,0,0,0-.249.431v9.775a.546.546,0,0,0,.249.431l12.751,7.364a.568.568,0,0,0,.5,0l.279-.163a.546.546,0,0,0,.249-.431Z" transform="translate(-55.62 -236.132)" fill="#f5f5f5"/>
                        <path id="Path_65211" data-name="Path 65211" d="M69.7,243.74l-.71.409L55.82,236.54a.5.5,0,0,1,.175-.186l.282-.163a.557.557,0,0,1,.5,0l12.751,7.364A.505.505,0,0,1,69.7,243.74Z" transform="translate(-55.746 -236.132)" fill="#e0e0e0"/>
                        <path id="Path_65212" data-name="Path 65212" d="M91.13,285.32a.1.1,0,0,0,.048,0h0A.048.048,0,0,1,91.13,285.32Z" transform="translate(-77.937 -267.046)" fill="#00a9dc"/>
                        <path id="Path_65213" data-name="Path 65213" d="M68.872,244.835l-.13.078a.215.215,0,0,1,.13.212V254.9a.167.167,0,0,1-.078.16.163.163,0,0,1-.119,0l-.052-.019-12.754-7.364a.546.546,0,0,1-.249-.431v-9.771a.52.52,0,0,1,.074-.249Z" transform="translate(-55.62 -236.822)" fill="#ebebeb"/>
                        <path id="Path_65214" data-name="Path 65214" d="M68.868,244.795,62.965,247a.962.962,0,0,1-1.141-.372l-.947-1.453-5.231-8.017,5.042,8.066L55.62,247.21a.491.491,0,0,0,.078.249l5-2.211,1.115,1.765a.962.962,0,0,0,1.2.372l.784-.349,5,7.984a.171.171,0,0,0,.074-.163v-.163l-5.053-7.668Z" transform="translate(-55.62 -236.778)" opacity="0.2"/>
                    </g>
                    <path id="Path_65215" data-name="Path 65215" d="M65.8,222.115a3.929,3.929,0,0,0-3.83.416,11.635,11.635,0,0,0-4.187,4.644,14.621,14.621,0,0,0-.654,1.408,11.848,11.848,0,0,0-.91,4.336v8.255a1.074,1.074,0,0,1-.509-.123l-14.671-8.478a1.141,1.141,0,0,1-.509-.884v-7.824c0-3.908,2.575-8.545,5.747-10.4a3.9,3.9,0,0,1,3.9-.372h0Z" transform="translate(-40.53 -210.178)" fill="#00a9dc"/>
                    <path id="Path_65216" data-name="Path 65216" d="M65.8,222.115a3.929,3.929,0,0,0-3.83.416,11.635,11.635,0,0,0-4.187,4.644,14.621,14.621,0,0,0-.654,1.408,11.848,11.848,0,0,0-.91,4.336v8.255a1.074,1.074,0,0,1-.509-.123l-14.671-8.478a1.141,1.141,0,0,1-.509-.884v-7.824c0-3.908,2.575-8.545,5.747-10.4a3.9,3.9,0,0,1,3.9-.372h0Z" transform="translate(-40.53 -210.178)" opacity="0.2"/>
                    <path id="Path_65217" data-name="Path 65217" d="M41.039,247.522l14.671,8.489a1.073,1.073,0,0,0,.509.123v-8.255a10.425,10.425,0,0,1,.275-2.307L40.8,236.51a10.607,10.607,0,0,0-.271,2.3v7.824A1.141,1.141,0,0,0,41.039,247.522Z" transform="translate(-40.53 -225.127)" opacity="0.1"/>
                    <path id="Path_65218" data-name="Path 65218" d="M83.356,245.177a11.848,11.848,0,0,0-.91,4.336v8.244a1.014,1.014,0,0,1-.186-.022v-8.222c0-6.06,4.663-9.912,5.944-10.4a11.634,11.634,0,0,0-4.187,4.644,14.623,14.623,0,0,0-.661,1.423Z" transform="translate(-66.756 -226.761)" fill="#00a9dc"/>
                    <path id="Path_65219" data-name="Path 65219" d="M83.356,245.177a11.848,11.848,0,0,0-.91,4.336v8.244a1.014,1.014,0,0,1-.186-.022v-8.222c0-6.06,4.663-9.912,5.944-10.4a11.634,11.634,0,0,0-4.187,4.644,14.623,14.623,0,0,0-.661,1.423Z" transform="translate(-66.756 -226.761)" opacity="0.4"/>
                    <path id="Path_65220" data-name="Path 65220" d="M83.459,255.582a.1.1,0,0,1-.152-.089v-7.211a11.243,11.243,0,0,1,.836-4.042l.033-.078a13.58,13.58,0,0,1,.7-1.486A10.93,10.93,0,0,1,88.75,238.4a4.339,4.339,0,0,1,2.144-.665,2.352,2.352,0,0,1,1.115.271c1,.535,1.59,1.828,1.59,3.637v7.895a.342.342,0,0,1-.152.264l.23.546.052-.03a1.114,1.114,0,0,0,.212-.2h0a1.115,1.115,0,0,0,.245-.646v-7.824c0-2.092-.743-3.548-1.913-4.165a3.918,3.918,0,0,0-3.83.412,11.6,11.6,0,0,0-4.187,4.648,14.617,14.617,0,0,0-.654,1.4,11.837,11.837,0,0,0-.91,4.339v8.237h.115a1.022,1.022,0,0,0,.424-.119Z" transform="translate(-67.027 -225.526)" fill="#00a9dc"/>
                    <path id="Path_65221" data-name="Path 65221" d="M83.459,255.582a.1.1,0,0,1-.152-.089v-7.211a11.243,11.243,0,0,1,.836-4.042l.033-.078a13.58,13.58,0,0,1,.7-1.486A10.93,10.93,0,0,1,88.75,238.4a4.339,4.339,0,0,1,2.144-.665,2.352,2.352,0,0,1,1.115.271c1,.535,1.59,1.828,1.59,3.637v7.895a.342.342,0,0,1-.152.264l.23.546.052-.03a1.114,1.114,0,0,0,.212-.2h0a1.115,1.115,0,0,0,.245-.646v-7.824c0-2.092-.743-3.548-1.913-4.165a3.918,3.918,0,0,0-3.83.412,11.6,11.6,0,0,0-4.187,4.648,14.617,14.617,0,0,0-.654,1.4,11.837,11.837,0,0,0-.91,4.339v8.237h.115a1.022,1.022,0,0,0,.424-.119Z" transform="translate(-67.027 -225.526)" opacity="0.1"/>
                </g>
            </g>
            <g id="freepik--Envelopes--inject-76" transform="translate(83.198 98.374)">
                <g id="freepik--Envelope--inject-76" transform="translate(0 0)">
                    <g id="freepik--letter--inject-76-4" data-name="freepik--letter--inject-76">
                        <path id="Path_65222" data-name="Path 65222" d="M178.94,180.153a2.121,2.121,0,0,1,.966-1.672l47.618-27.493a2.133,2.133,0,0,1,1.932,0l1.089.628a2.133,2.133,0,0,1,.962,1.672v37.851a2.144,2.144,0,0,1-.962,1.672l-47.622,27.511a2.147,2.147,0,0,1-1.928,0l-1.089-.628a2.144,2.144,0,0,1-.966-1.672Z" transform="translate(-178.94 -150.755)" fill="#00a9dc"/>
                        <g id="Group_14113" data-name="Group 14113" transform="translate(0 0.003)" opacity="0.7">
                            <path id="Path_65223" data-name="Path 65223" d="M178.94,180.153a2.121,2.121,0,0,1,.966-1.672l47.618-27.493a2.133,2.133,0,0,1,1.932,0l1.089.628a2.133,2.133,0,0,1,.962,1.672v37.851a2.144,2.144,0,0,1-.962,1.672l-47.622,27.511a2.147,2.147,0,0,1-1.928,0l-1.089-.628a2.144,2.144,0,0,1-.966-1.672Z" transform="translate(-178.94 -150.757)" fill="#fff"/>
                        </g>
                        <path id="Path_65224" data-name="Path 65224" d="M179.7,179.2l2.738,1.579L231.7,152.329a2.021,2.021,0,0,0-.68-.721l-1.092-.624a2.1,2.1,0,0,0-1.924,0l-47.622,27.493A1.939,1.939,0,0,0,179.7,179.2Z" transform="translate(-179.418 -150.75)" fill="#00a9dc"/>
                        <path id="Path_65225" data-name="Path 65225" d="M179.7,179.2l2.738,1.579L231.7,152.329a2.021,2.021,0,0,0-.68-.721l-1.092-.624a2.1,2.1,0,0,0-1.924,0l-47.622,27.493A1.939,1.939,0,0,0,179.7,179.2Z" transform="translate(-179.418 -150.75)" fill="#fff" opacity="0.8"/>
                        <path id="Path_65226" data-name="Path 65226" d="M178.94,228.267v37.851a2.121,2.121,0,0,0,.966,1.672l1.089.632a1.712,1.712,0,0,0,.264.119,2.147,2.147,0,0,0,.4.089,2.382,2.382,0,0,0,.762-.026l.189-.048.119-.041a.576.576,0,0,1-.468-.019.661.661,0,0,1-.3-.632V230.014a.843.843,0,0,1,.5-.821l-.5-.294-2.738-1.579A1.965,1.965,0,0,0,178.94,228.267Z" transform="translate(-178.94 -198.873)" fill="#00a9dc" opacity="0.1"/>
                        <path id="Path_65227" data-name="Path 65227" d="M178.94,228.267v37.851a2.121,2.121,0,0,0,.966,1.672l1.089.632a1.712,1.712,0,0,0,.264.119,2.147,2.147,0,0,0,.4.089,2.382,2.382,0,0,0,.762-.026l.189-.048.119-.041a.576.576,0,0,1-.468-.019.661.661,0,0,1-.3-.632V230.014a.843.843,0,0,1,.5-.821l-.5-.294-2.738-1.579A1.965,1.965,0,0,0,178.94,228.267Z" transform="translate(-178.94 -198.873)" opacity="0.05"/>
                        <path id="Path_65228" data-name="Path 65228" d="M187.05,183.448l22.867,8.545a3.715,3.715,0,0,0,4.414-1.453L218,184.911,236.314,155l-17.58,30.119,17.863,8.7a2.021,2.021,0,0,1-.3.966l-17.618-9.57-4.265,6.829a3.715,3.715,0,0,1-4.655,1.43l-3.043-1.341L187.34,223.044a.661.661,0,0,1-.3-.632v-.632l19.576-29.692Z" transform="translate(-184.029 -153.421)" fill="#00a9dc" opacity="0.2"/>
                        <path id="Path_65229" data-name="Path 65229" d="M187.05,183.448l22.867,8.545a3.715,3.715,0,0,0,4.414-1.453L218,184.911,236.314,155l-17.58,30.119,17.863,8.7a2.021,2.021,0,0,1-.3.966l-17.618-9.57-4.265,6.829a3.715,3.715,0,0,1-4.655,1.43l-3.043-1.341L187.34,223.044a.661.661,0,0,1-.3-.632v-.632l19.576-29.692Z" transform="translate(-184.029 -153.421)" opacity="0.05"/>
                    </g>
                </g>
                <g id="freepik--envelope--inject-76-2" data-name="freepik--envelope--inject-76" transform="translate(12.063 6.98)">
                    <g id="freepik--letter--inject-76-5" data-name="freepik--letter--inject-76">
                        <path id="Path_65230" data-name="Path 65230" d="M211.421,198.933a2.133,2.133,0,0,1,.962-1.672l47.622-27.493a2.125,2.125,0,0,1,1.928,0l1.089.628a2.133,2.133,0,0,1,.966,1.672v37.851a2.14,2.14,0,0,1-.966,1.672L215.4,239.084a2.155,2.155,0,0,1-1.932,0l-1.1-.643a2.151,2.151,0,0,1-.962-1.672Z" transform="translate(-211.41 -169.537)" fill="#00a9dc"/>
                        <g id="Group_14114" data-name="Group 14114" opacity="0.5">
                            <path id="Path_65231" data-name="Path 65231" d="M211.421,198.933a2.133,2.133,0,0,1,.962-1.672l47.622-27.493a2.125,2.125,0,0,1,1.928,0l1.089.628a2.133,2.133,0,0,1,.966,1.672v37.851a2.14,2.14,0,0,1-.966,1.672L215.4,239.084a2.155,2.155,0,0,1-1.932,0l-1.1-.643a2.151,2.151,0,0,1-.962-1.672Z" transform="translate(-211.41 -169.537)" fill="#fff"/>
                        </g>
                        <path id="Path_65232" data-name="Path 65232" d="M212.19,197.984l2.742,1.579L264.2,171.119a2.021,2.021,0,0,0-.68-.721l-1.092-.624a2.1,2.1,0,0,0-1.928,0l-47.633,27.489a1.947,1.947,0,0,0-.672.721Z" transform="translate(-211.9 -169.539)" fill="#00a9dc"/>
                        <path id="Path_65233" data-name="Path 65233" d="M212.19,197.984l2.742,1.579L264.2,171.119a2.021,2.021,0,0,0-.68-.721l-1.092-.624a2.1,2.1,0,0,0-1.928,0l-47.633,27.489a1.947,1.947,0,0,0-.672.721Z" transform="translate(-211.9 -169.539)" fill="#fff" opacity="0.6"/>
                        <path id="Path_65234" data-name="Path 65234" d="M211.43,247.047V284.9a2.125,2.125,0,0,0,.955,1.661l1.085.632a1.762,1.762,0,0,0,.267.119,2.081,2.081,0,0,0,.4.089,2.385,2.385,0,0,0,.762-.026l.186-.052a.613.613,0,0,0,.115-.045.576.576,0,0,1-.461,0,.673.673,0,0,1-.3-.635V248.794a.843.843,0,0,1,.5-.821l-.5-.293L211.7,246.1A2.006,2.006,0,0,0,211.43,247.047Z" transform="translate(-211.423 -217.655)" opacity="0.1"/>
                        <path id="Path_65235" data-name="Path 65235" d="M219.563,202.234l22.867,8.545a3.715,3.715,0,0,0,4.414-1.453l3.674-5.625,18.312-29.911-17.58,30.119,17.863,8.7a2.022,2.022,0,0,1-.3.966L251.191,204l-4.269,6.829a3.715,3.715,0,0,1-4.651,1.43l-3.039-1.341L219.86,241.834a.672.672,0,0,1-.3-.635v-.632l19.576-29.692Z" transform="translate(-216.531 -172.21)" fill="#00a9dc" opacity="0.4"/>
                        <path id="Path_65236" data-name="Path 65236" d="M219.563,202.234l22.867,8.545a3.715,3.715,0,0,0,4.414-1.453l3.674-5.625,18.312-29.911-17.58,30.119,17.863,8.7a2.022,2.022,0,0,1-.3.966L251.191,204l-4.269,6.829a3.715,3.715,0,0,1-4.651,1.43l-3.039-1.341L219.86,241.834a.672.672,0,0,1-.3-.635v-.632l19.576-29.692Z" transform="translate(-216.531 -172.21)" opacity="0.05"/>
                    </g>
                </g>
            </g>
            <g id="freepik--open-envelope--inject-76" transform="translate(107.443 99.995)">
                <g id="freepik--open-envelope--inject-76-2" data-name="freepik--open-envelope--inject-76" transform="translate(0 0)">
                    <path id="Path_65237" data-name="Path 65237" d="M244.2,219.867l49.554-28.607,1.984,1.144a2.069,2.069,0,0,1,.932,1.612v36.558a2.062,2.062,0,0,1-.932,1.612l-47.689,27.53a2.062,2.062,0,0,1-1.858,0l-1.051-.606a2.069,2.069,0,0,1-.933-1.612Z" transform="translate(-244.2 -177.831)" fill="#00a9dc"/>
                    <path id="Path_65238" data-name="Path 65238" d="M244.2,219.867l49.554-28.607,1.984,1.144a2.069,2.069,0,0,1,.932,1.612v36.558a2.062,2.062,0,0,1-.932,1.612l-47.689,27.53a2.062,2.062,0,0,1-1.858,0l-1.051-.606a2.069,2.069,0,0,1-.933-1.612Z" transform="translate(-244.2 -177.831)" opacity="0.2"/>
                    <path id="Path_65239" data-name="Path 65239" d="M293.482,167.693l.2-.111-.769-.446h0a1.136,1.136,0,0,0-.2-.1L270.9,158.954a1.5,1.5,0,0,0-1.676.535l-24.394,35.625a4.213,4.213,0,0,0-.632,2.036v2.363l.743.442,48.8-29.049V168.54A1.6,1.6,0,0,0,293.482,167.693Z" transform="translate(-244.2 -157.482)" fill="#00a9dc"/>
                    <path id="Path_65240" data-name="Path 65240" d="M270.557,160.284a1.233,1.233,0,0,0-.253.268l-24.4,35.625a3.789,3.789,0,0,0-.453,1.018l-.743-.438a4.87,4.87,0,0,1,.2-.539h0c.033-.074.067-.145.1-.215l.019-.033a1.942,1.942,0,0,1,.13-.215l24.394-35.625a1.186,1.186,0,0,1,.123-.149l.13-.119Z" transform="translate(-244.521 -158.097)" opacity="0.1"/>
                    <path id="Path_65241" data-name="Path 65241" d="M336.462,167.578a1.189,1.189,0,0,0-.208-.1l-21.812-8.084a1.486,1.486,0,0,0-1.419.268l-.743-.438a1.512,1.512,0,0,1,1.423-.267l21.808,8.081a1.155,1.155,0,0,1,.2.1Z" transform="translate(-286.987 -157.482)" fill="#fff" opacity="0.35"/>
                    <path id="Path_65242" data-name="Path 65242" d="M245.55,256.635a2.364,2.364,0,0,1,.13-.215A2.364,2.364,0,0,0,245.55,256.635Z" transform="translate(-245.048 -218.783)" fill="#00a9dc"/>
                    <path id="Path_65243" data-name="Path 65243" d="M311.89,159.919l.13-.119Z" transform="translate(-286.742 -158.06)" fill="#00a9dc"/>
                    <path id="Path_65244" data-name="Path 65244" d="M244.67,258.239a4.866,4.866,0,0,1,.2-.539,4.869,4.869,0,0,0-.2.539Z" transform="translate(-244.495 -219.587)" fill="#00a9dc"/>
                    <path id="Path_65245" data-name="Path 65245" d="M245.22,257.3c.033-.074.067-.145.1-.215C245.287,257.151,245.253,257.221,245.22,257.3Z" transform="translate(-244.841 -219.198)" fill="#00a9dc"/>
                    <path id="Path_65246" data-name="Path 65246" d="M245.2,257.7Z" transform="translate(-244.828 -219.587)" opacity="0.2"/>
                    <path id="Path_65247" data-name="Path 65247" d="M244.67,259.15Z" transform="translate(-244.495 -220.499)" opacity="0.2"/>
                    <path id="Path_65248" data-name="Path 65248" d="M312.24,159.8Z" transform="translate(-286.962 -158.06)" opacity="0.2"/>
                    <path id="Path_65249" data-name="Path 65249" d="M245.5,257.023a.152.152,0,0,1,.019-.033.153.153,0,0,0-.019.033Z" transform="translate(-245.017 -219.141)" opacity="0.2"/>
                    <path id="Path_65250" data-name="Path 65250" d="M311.56,160.269a1.534,1.534,0,0,1,.123-.149A.967.967,0,0,0,311.56,160.269Z" transform="translate(-286.534 -158.261)" opacity="0.2"/>
                    <path id="Path_65251" data-name="Path 65251" d="M271.266,160.671l-24.4,35.625a4.25,4.25,0,0,0-.628,2.036V200.7l49.554-28.607v-2.363a1.716,1.716,0,0,0-1.044-1.486l-21.812-8.1A1.486,1.486,0,0,0,271.266,160.671Z" transform="translate(-245.482 -158.224)" fill="#00a9dc"/>
                    <path id="Path_65252" data-name="Path 65252" d="M295.8,184.652a1.616,1.616,0,0,0-.264-.832l-49.115,28.425h0a3.64,3.64,0,0,0-.171,1.011v2.367L295.8,187.015Z" transform="translate(-245.488 -173.156)" opacity="0.05"/>
                    <path id="Path_65253" data-name="Path 65253" d="M299.88,156.559a.576.576,0,0,0-.23-.52l-1.516-.873a.568.568,0,0,0-.568.059L256.92,178.7a1.776,1.776,0,0,0-.806,1.393v48.669a.561.561,0,0,0,.234.52l1.508.873a.576.576,0,0,0,.568-.056l40.652-23.462a1.783,1.783,0,0,0,.8-1.393Z" transform="translate(-251.686 -155.115)" fill="#f0f0f0"/>
                    <path id="Path_65254" data-name="Path 65254" d="M260.992,231.59l40.648-23.48a1.783,1.783,0,0,0,.8-1.393V158.029c0-.513-.372-.721-.8-.464l-40.648,23.477a1.783,1.783,0,0,0-.8,1.393V231.1C260.19,231.627,260.55,231.835,260.992,231.59Z" transform="translate(-254.249 -156.586)" fill="#fafafa"/>
                    <path id="Path_65255" data-name="Path 65255" d="M312.88,220.037a7.156,7.156,0,0,1-.3,1.62,6.9,6.9,0,0,1-.587,1.36,5.2,5.2,0,0,1-.765,1.04,3.265,3.265,0,0,1-.851.65,1.783,1.783,0,0,1-1.17.282,1.044,1.044,0,0,1-.606-.372q-.134.29-.279.58a3.454,3.454,0,0,1-.372.583,3.5,3.5,0,0,1-.546.561,4.128,4.128,0,0,1-.8.52,1.553,1.553,0,0,1-1.011.2,1.189,1.189,0,0,1-.743-.524,3.058,3.058,0,0,1-.45-1.181,8.129,8.129,0,0,1-.1-1.776,11.475,11.475,0,0,1,.241-1.947,9.322,9.322,0,0,1,.531-1.683,5.573,5.573,0,0,1,.8-1.323,3.251,3.251,0,0,1,1.029-.855,1.2,1.2,0,0,1,.921-.2,1.007,1.007,0,0,1,.476.442v-.2a1.114,1.114,0,0,1,.137-.483.773.773,0,0,1,.3-.331l.8-.4a.223.223,0,0,1,.282.03.483.483,0,0,1,.108.372l-.178,4.722q-.022.535.2.7a.468.468,0,0,0,.531,0,1.326,1.326,0,0,0,.539-.572,2.771,2.771,0,0,0,.293-1.144c.037-.412.063-.836.082-1.274s.019-.843,0-1.215a7.36,7.36,0,0,0-.3-1.969,2.136,2.136,0,0,0-.743-1.141,1.735,1.735,0,0,0-1.245-.271,5.513,5.513,0,0,0-1.813.62,6.353,6.353,0,0,0-1.6,1.181,8.429,8.429,0,0,0-1.248,1.642,10.087,10.087,0,0,0-.869,1.988,11.956,11.956,0,0,0-.479,2.192c-.026.2-.048.464-.067.788s-.033.658-.048,1.007-.026.687-.033,1.014,0,.583,0,.78a5.914,5.914,0,0,0,.319,1.761,2.56,2.56,0,0,0,.743,1.137,1.776,1.776,0,0,0,1.167.409,3.425,3.425,0,0,0,1.572-.442,9.367,9.367,0,0,0,1.089-.646,7.344,7.344,0,0,0,.814-.654,7.806,7.806,0,0,0,.6-.646c.167-.212.32-.416.457-.617s.208-.308.279-.394a.743.743,0,0,1,.271-.215l1.115-.58a.241.241,0,0,1,.29,0c.082.067.115.2.1.4a.914.914,0,0,1-.119.372c-.227.42-.483.866-.765,1.33a10.111,10.111,0,0,1-1,1.367,11.35,11.35,0,0,1-1.371,1.311,10.448,10.448,0,0,1-1.858,1.189,4.7,4.7,0,0,1-2.315.628,2.534,2.534,0,0,1-1.642-.669,3.868,3.868,0,0,1-1-1.694,8.578,8.578,0,0,1-.371-2.441q0-.3,0-.825c0-.346.019-.71.033-1.089s.033-.743.052-1.085.037-.617.056-.814a14.861,14.861,0,0,1,.572-2.905,14.085,14.085,0,0,1,1.181-2.824,12.112,12.112,0,0,1,1.783-2.452,8.508,8.508,0,0,1,2.367-1.791,6.048,6.048,0,0,1,2.619-.8,2.467,2.467,0,0,1,1.72.606,3.455,3.455,0,0,1,.947,1.724,11.024,11.024,0,0,1,.327,2.545c0,.372,0,.821-.026,1.334S312.914,219.61,312.88,220.037Zm-6.977,2.72a2.972,2.972,0,0,0,.223,1.546.525.525,0,0,0,.8.182,1.909,1.909,0,0,0,.873-1.025,5.417,5.417,0,0,0,.349-1.858,3.136,3.136,0,0,0-.216-1.56c-.171-.312-.446-.372-.821-.178a1.913,1.913,0,0,0-.851,1.033,5.5,5.5,0,0,0-.357,1.846Z" transform="translate(-280.086 -191.102)" fill="#00a9dc"/>
                    <path id="Path_65256" data-name="Path 65256" d="M257.623,270.58a.606.606,0,0,0,.189.49l-1.46-.84a.561.561,0,0,1-.238-.52V221.041a1.613,1.613,0,0,1,.238-.791l1.508.869a1.623,1.623,0,0,0-.238.8Z" transform="translate(-251.686 -196.051)" fill="#e0e0e0"/>
                    <path id="Path_65257" data-name="Path 65257" d="M299.682,286.166a.45.45,0,0,1-.052.074l-20.653-6.531a3.559,3.559,0,0,0-4.458,1.375l-22.08,32.805-.817.472h0a.665.665,0,0,1-.632.071l22.7-33.809a3.574,3.574,0,0,1,4.458-1.378Z" transform="translate(-248.467 -232.94)" fill="#00a9dc"/>
                    <path id="Path_65258" data-name="Path 65258" d="M272.483,292.49l.052-.045-20.1,29.648-.817.472h0a.676.676,0,0,1-.632.071L271.688,292Z" transform="translate(-248.467 -241.144)" fill="#fff" opacity="0.4"/>
                    <path id="Path_65259" data-name="Path 65259" d="M338.1,286.152a.452.452,0,0,1-.052.074L317.4,279.7a3.555,3.555,0,0,0-4.458,1.375l-.817-.476a3.567,3.567,0,0,1,4.458-1.367Z" transform="translate(-286.886 -232.926)" fill="#fff" opacity="0.4"/>
                    <path id="Path_65260" data-name="Path 65260" d="M302.39,194.568h0c-.045-.267-.186-.342-.372-.215a1.073,1.073,0,0,0-.238.245l-.1.145L281.3,225.72l-3.043,4.239a1.735,1.735,0,0,1-1.676.628l-2.627-.624-20.062-7.378a1.022,1.022,0,0,0-.409,0,.742.742,0,0,0-.152.048l.743-.438,19.223,7.059,2.53.9a1.728,1.728,0,0,0,1.676-.628l3.043-4.235,20.478-31.122a.817.817,0,0,1,.23-.212l-1.772-1.022.743-.427,1.226.706A2.125,2.125,0,0,1,302.39,194.568Z" transform="translate(-249.938 -178.617)" fill="#00a9dc"/>
                    <path id="Path_65261" data-name="Path 65261" d="M316.185,281.2l-3.043,4.239a1.735,1.735,0,0,1-1.676.628l-2.627-.624.052-.045.126-.2,1.72.409a1.728,1.728,0,0,0,1.676-.628l3.013-4.191Z" transform="translate(-284.825 -234.099)" fill="#fff" opacity="0.4"/>
                    <path id="Path_65262" data-name="Path 65262" d="M347.505,193.126l-1.226-.706-.743.427,1.772,1.022h0a.78.78,0,0,0-.23.212L326.6,225.2l-.03.041h0l.743.412,20.378-30.981.1-.145a1.074,1.074,0,0,1,.238-.245c.182-.126.323-.052.372.215h0A2.125,2.125,0,0,0,347.505,193.126Z" transform="translate(-295.968 -178.561)" opacity="0.1"/>
                    <path id="Path_65263" data-name="Path 65263" d="M248.6,270.783l-4.373-2.523v37.632a2.069,2.069,0,0,0,.933,1.612l1.051.606a2.062,2.062,0,0,0,1.858,0l.524-.3Z" transform="translate(-244.219 -226.224)" fill="#00a9dc"/>
                    <path id="Path_65264" data-name="Path 65264" d="M248.6,270.783l-4.373-2.523v37.632a2.069,2.069,0,0,0,.933,1.612l1.051.606a2.062,2.062,0,0,0,1.858,0l.524-.3Z" transform="translate(-244.219 -226.224)" opacity="0.15"/>
                    <path id="Path_65265" data-name="Path 65265" d="M301.63,197.812v36.554a1.9,1.9,0,0,1-.29.944,2.036,2.036,0,0,1-.546.613l-.037.019a.573.573,0,0,1-.059.041l-47.689,27.53h0a.665.665,0,0,1-.635.074.565.565,0,0,1-.279-.446,1.184,1.184,0,0,1,0-.167V226.416a.81.81,0,0,1,1.048-.825l20.062,7.378,2.627.624a1.735,1.735,0,0,0,1.676-.628l3.043-4.239,20.378-30.978.1-.145C301.348,197.129,301.63,197.218,301.63,197.812Z" transform="translate(-249.16 -181.627)" fill="#00a9dc"/>
                    <path id="Path_65266" data-name="Path 65266" d="M348.794,289.158l.063-.041.033-.022a1.977,1.977,0,0,0,.546-.609,1.9,1.9,0,0,0,.29-.929L328.62,281.91l14.118,10.733Z" transform="translate(-297.256 -234.803)" fill="#00a9dc"/>
                    <path id="Path_65267" data-name="Path 65267" d="M348.794,289.158l.063-.041.033-.022a1.977,1.977,0,0,0,.546-.609,1.9,1.9,0,0,0,.29-.929L328.62,281.91l14.118,10.733Z" transform="translate(-297.256 -234.803)" opacity="0.2"/>
                    <path id="Path_65268" data-name="Path 65268" d="M252.043,323.314a.643.643,0,0,0,.29.613.661.661,0,0,0,.635-.071h0l16.425-9.485,3.752-21.062-21.1,29.395Z" transform="translate(-249.126 -241.968)" fill="#00a9dc"/>
                    <path id="Path_65269" data-name="Path 65269" d="M275.167,283.886l-22.834,33.838a.643.643,0,0,1-.29-.613v-.606l22.291-33.066h0Z" transform="translate(-249.126 -235.765)" opacity="0.15"/>
                    <path id="Path_65270" data-name="Path 65270" d="M301.817,287.34a1.977,1.977,0,0,1-.546.609l-.033.022-47.752,27.571h0a.661.661,0,0,1-.635.071l22.838-33.842a3.585,3.585,0,0,1,4.488-1.378Z" transform="translate(-249.636 -233.657)" fill="#00a9dc"/>
                    <path id="Path_65271" data-name="Path 65271" d="M244.375,259.15l.743.438a3.716,3.716,0,0,0-.175,1.018v2.363l-.743-.438v-2.367a3.715,3.715,0,0,1,.175-1.014Z" transform="translate(-244.2 -220.499)" opacity="0.15"/>
                    <path id="Path_65272" data-name="Path 65272" d="M249.637,269.793l-.758.438-.765-.442L246.23,268.7l.732-.435Z" transform="translate(-245.476 -226.23)" fill="#00a9dc"/>
                    <path id="Path_65273" data-name="Path 65273" d="M249.651,269.808l-2.708-1.538-.743.435,1.884,1.085.765.442h0l.145-.045a1.022,1.022,0,0,1,.409,0l1.553.583,17.5,6.446.275-.4Z" transform="translate(-245.457 -226.23)" opacity="0.1"/>
                </g>
            </g>
            <g id="freepik--Clouds--inject-76" transform="translate(36.464 69.055)">
                <g id="freepik--clouds--inject-76-2" data-name="freepik--clouds--inject-76" transform="translate(0 0)">
                    <g id="freepik--Cloud--inject-76" transform="translate(17.517 9.692)">
                        <path id="Path_65274" data-name="Path 65274" d="M116.907,99.463l-2.831,1.635a3.228,3.228,0,0,0,.022-.372v-.817c0-1.46-1.025-2.051-2.289-1.323a4.514,4.514,0,0,0-1.363,1.311c-.2-1.835-1.646-2.519-3.4-1.508a7.577,7.577,0,0,0-3.422,5.944v1.226a3.243,3.243,0,0,0,.29,1.423l-2.352,1.356a2.812,2.812,0,0,0-1.267,2.2c0,.81.568,1.137,1.267.743l15.34-8.872a2.8,2.8,0,0,0,1.267-2.2C118.185,99.388,117.617,99.065,116.907,99.463Z" transform="translate(-100.3 -97.921)" fill="#f0f0f0"/>
                    </g>
                    <g id="freepik--cloud--inject-76-2" data-name="freepik--cloud--inject-76">
                        <path id="Path_65275" data-name="Path 65275" d="M73.58,73.754,70.1,75.764a3.885,3.885,0,0,0,.03-.461V74.278c0-1.794-1.259-2.523-2.816-1.624a5.48,5.48,0,0,0-1.679,1.612c-.253-2.259-2.025-3.1-4.18-1.858A9.321,9.321,0,0,0,57.237,79.7v1.508a3.983,3.983,0,0,0,.372,1.75l-2.894,1.672a3.455,3.455,0,0,0-1.564,2.7c0,1,.7,1.4,1.564.9l18.881-10.9a3.444,3.444,0,0,0,1.564-2.7C75.144,73.642,74.446,73.241,73.58,73.754Z" transform="translate(-53.15 -71.835)" fill="#f0f0f0"/>
                    </g>
                </g>
            </g>
            <g id="freepik--paper-plane--inject-76" transform="translate(148.591 71.438)">
                <g id="freepik--paper-plane--inject-76-2" data-name="freepik--paper-plane--inject-76" transform="translate(0 0)">
                    <path id="Path_65276" data-name="Path 65276" d="M404.96,150.485,418.1,142.07l5.792,1.858Z" transform="translate(-386.382 -118.359)" fill="#00a9dc"/>
                    <path id="Path_65277" data-name="Path 65277" d="M404.96,143.767l11.357-9.474-2.523-2.913Z" transform="translate(-386.382 -111.641)" fill="#00a9dc"/>
                    <path id="Path_65278" data-name="Path 65278" d="M416.317,139.22v2.2l-11.357,7.274Z" transform="translate(-386.382 -116.568)" fill="#00a9dc"/>
                    <path id="Path_65279" data-name="Path 65279" d="M416.317,139.22v2.2l-11.357,7.274Z" transform="translate(-386.382 -116.568)" opacity="0.25"/>
                    <path id="Path_65280" data-name="Path 65280" d="M386.785,100.72a.279.279,0,0,1-.189-.483,9.686,9.686,0,0,0,1.074-1.17.279.279,0,1,1,.442.338,10.26,10.26,0,0,1-1.137,1.241A.29.29,0,0,1,386.785,100.72Zm2.092-2.775a.264.264,0,0,1-.126-.03.275.275,0,0,1-.123-.372,9.482,9.482,0,0,0,.743-2.032.279.279,0,1,1,.542.13,9.8,9.8,0,0,1-.78,2.151A.279.279,0,0,1,388.876,97.944Zm1.018-3.927h0a.279.279,0,0,1-.267-.29c0-.152,0-.3,0-.45a10.255,10.255,0,0,0-.145-1.713.279.279,0,0,1,.227-.323.282.282,0,0,1,.323.23,10.964,10.964,0,0,1,.152,1.806v.472a.279.279,0,0,1-.29.268ZM389.3,90a.279.279,0,0,1-.264-.189,11.937,11.937,0,0,0-.9-1.976.286.286,0,0,1,.1-.372.282.282,0,0,1,.372.1,12.316,12.316,0,0,1,.94,2.073.279.279,0,0,1-.171.372.371.371,0,0,1-.082-.011Zm-1.954-3.57a.279.279,0,0,1-.219-.108,14.234,14.234,0,0,0-1.464-1.62.279.279,0,1,1,.372-.4,15.016,15.016,0,0,1,1.523,1.683.279.279,0,0,1-.052.372.275.275,0,0,1-.163.078Zm-2.909-2.853a.275.275,0,0,1-.167-.056,17.946,17.946,0,0,0-1.832-1.207.282.282,0,0,1-.1-.372.275.275,0,0,1,.372-.1,18.428,18.428,0,0,1,1.887,1.245.279.279,0,0,1-.167.5Zm-29.2-1.077a.279.279,0,0,1-.141-.52c.646-.372,1.315-.721,2-1.044a.279.279,0,0,1,.372.134.275.275,0,0,1-.134.372c-.665.316-1.323.658-1.954,1.022a.275.275,0,0,1-.141.037Zm25.694-1a.264.264,0,0,1-.119-.026c-.661-.32-1.341-.613-2.025-.877a.286.286,0,1,1,.212-.531c.695.267,1.389.568,2.066.9a.279.279,0,0,1-.123.528Zm-22.02-.743a.286.286,0,0,1-.26-.178.279.279,0,0,1,.16-.372c.695-.271,1.412-.52,2.129-.743a.279.279,0,0,1,.16.535c-.7.208-1.4.453-2.084.717a.264.264,0,0,1-.1.019Zm18.2-.743a.212.212,0,0,1-.082,0c-.7-.212-1.415-.4-2.133-.554a.288.288,0,1,1,.134-.561c.743.16,1.464.349,2.177.568a.279.279,0,0,1,.186.349.282.282,0,0,1-.267.2Zm-14.3-.487a.279.279,0,0,1-.271-.215.282.282,0,0,1,.212-.334c.724-.167,1.468-.308,2.211-.416a.279.279,0,1,1,.082.55c-.743.108-1.456.245-2.17.412Zm10.336-.427h-.041c-.724-.108-1.464-.186-2.2-.234a.279.279,0,1,1,.037-.554q1.115.072,2.229.234a.279.279,0,0,1-.041.554Zm-6.286-.2a.279.279,0,1,1-.022-.557c.743-.059,1.5-.093,2.251-.093h0a.279.279,0,0,1,0,.557c-.743,0-1.486.033-2.207.093Z" transform="translate(-354.954 -78.25)" fill="#e0e0e0"/>
                </g>
            </g>
        </g>
    </g>
</svg>
