
<svg xmlns="http://www.w3.org/2000/svg" xmlns:xlink="http://www.w3.org/1999/xlink" width="19.743" height="15.519" viewBox="0 0 19.743 15.519">
    <defs>
        <clipPath id="clip-path">
            <rect id="Rectangle_7062" data-name="Rectangle 7062" width="19.743" height="15.519" fill="#00a9dc"/>
        </clipPath>
    </defs>
    <g id="Group_13534" data-name="Group 13534" clip-path="url(#clip-path)">
        <path id="Path_64568" data-name="Path 64568" d="M2.8,9.885A2.847,2.847,0,0,1,.073,7.664,2.644,2.644,0,0,1,0,7.076Q0,4.939,0,2.8A2.825,2.825,0,0,1,2.791,0Q7.053,0,11.315,0A2.819,2.819,0,0,1,14.1,2.781q.01,2.159,0,4.318a2.826,2.826,0,0,1-2.789,2.775q-2.236.007-4.471,0a.44.44,0,0,0-.346.14c-.8.8-1.6,1.6-2.395,2.4a.717.717,0,0,1-1.277-.536q0-.969,0-1.939A.26.26,0,0,0,2.8,9.885m1.431.407c.541-.541,1.043-1.034,1.534-1.538a.914.914,0,0,1,.7-.292c1.586.007,3.173,0,4.759,0A1.393,1.393,0,0,0,12.694,7q0-2.061,0-4.121a1.39,1.39,0,0,0-1.465-1.464c-.764,0-1.528,0-2.291,0q-3.04,0-6.081,0A1.376,1.376,0,0,0,1.416,2.768q-.019,2.171,0,4.342A1.329,1.329,0,0,0,2.533,8.422a6.752,6.752,0,0,0,.965.042.7.7,0,0,1,.733.734c0,.344,0,.688,0,1.093" transform="translate(0 0)" fill="#00a9dc"/>
        <path id="Path_64569" data-name="Path 64569" d="M69.268,40.493c.252-.249.495-.494.743-.733a.307.307,0,0,1,.466.044,1.387,1.387,0,0,0,1.174.582c1.6,0,3.2,0,4.8,0a.869.869,0,0,1,.666.276c.446.457.9.906,1.353,1.357.05.05.1.1.193.181,0-.377,0-.711,0-1.044a.709.709,0,0,1,.766-.769,6.029,6.029,0,0,0,.942-.043,1.331,1.331,0,0,0,1.109-1.319c.009-1.447.011-2.894,0-4.341A1.372,1.372,0,0,0,80.1,33.333c-.7-.005-1.408,0-2.128,0v-1.41c.39,0,.777-.011,1.163,0a9.377,9.377,0,0,1,1.618.1,2.767,2.767,0,0,1,2.136,2.7q0,2.1,0,4.209A2.832,2.832,0,0,1,80.17,41.8c-.022,0-.043.005-.095.011v.231c0,.6,0,1.2,0,1.807a.707.707,0,0,1-.426.707.689.689,0,0,1-.82-.188c-.8-.8-1.6-1.6-2.4-2.4a.531.531,0,0,0-.422-.17q-2.225.009-4.45,0a2.769,2.769,0,0,1-2.294-1.3" transform="translate(-63.153 -29.1)" fill="#00a9dc"/>
    </g>
</svg>
