
<svg id="Group_13529" data-name="Group 13529" xmlns="http://www.w3.org/2000/svg" xmlns:xlink="http://www.w3.org/1999/xlink" width="19.219" height="19.284" viewBox="0 0 19.219 19.284">
    <defs>
        <clipPath id="clip-path">
            <rect id="Rectangle_7060" data-name="Rectangle 7060" width="19.219" height="19.284" fill="#00a9dc"/>
        </clipPath>
    </defs>
    <g id="Group_13528" data-name="Group 13528" clip-path="url(#clip-path)">
        <path id="Path_64563" data-name="Path 64563" d="M4.528,9.139V8.9q0-3.558,0-7.116A1.7,1.7,0,0,1,6.315,0q4.227,0,8.454,0a.794.794,0,0,1,.6.248q1.793,1.8,3.595,3.594a.815.815,0,0,1,.253.62q-.007,6.514,0,13.027a1.7,1.7,0,0,1-1.791,1.794H5.149A5.083,5.083,0,0,1,4.032,9.23c.159-.032.319-.058.5-.09m1.129.007a5.18,5.18,0,0,1,2.536,1.022.424.424,0,0,0,.238.075c.785.005,1.569,0,2.354,0q2.589,0,5.178,0a.567.567,0,1,1,0,1.129H9.32a5.272,5.272,0,0,1,.828,2.261h.491q2.655,0,5.31,0a.6.6,0,0,1,.487.2.526.526,0,0,1,.092.6.565.565,0,0,1-.558.339H10.148a5.247,5.247,0,0,1-.59,1.863A5.387,5.387,0,0,1,8.29,18.156h9.132a.587.587,0,0,0,.664-.672q0-6.185,0-12.37V4.9H14.962a.575.575,0,0,1-.641-.636q0-1.459,0-2.918V1.133H6.333a.59.59,0,0,0-.677.678q0,3.558,0,7.117Zm-.56,1.1a3.955,3.955,0,1,0,3.951,3.968A3.963,3.963,0,0,0,5.1,10.246M15.46,1.991V3.758h1.774L15.46,1.991" transform="translate(0 -0.001)" fill="#00a9dc"/>
        <path id="Path_64564" data-name="Path 64564" d="M99.7,90.909q2.061,0,4.122,0a.562.562,0,0,1,.161,1.107.792.792,0,0,1-.2.02H95.624a.568.568,0,1,1,.006-1.128H99.7" transform="translate(-87.825 -84.052)" fill="#00a9dc"/>
        <path id="Path_64565" data-name="Path 64565" d="M36.233,169.69l1.34-1.34c.3-.3.589-.6.893-.89a.559.559,0,0,1,.954.25.527.527,0,0,1-.145.536q-1.313,1.322-2.636,2.635a.549.549,0,0,1-.809-.007q-.56-.544-1.1-1.1a.566.566,0,1,1,.8-.794c.118.112.233.229.347.345s.225.234.356.369" transform="translate(-31.938 -154.665)" fill="#00a9dc"/>
    </g>
</svg>
