<svg id="Group_13553" data-name="Group 13553" xmlns="http://www.w3.org/2000/svg" xmlns:xlink="http://www.w3.org/1999/xlink" width="15.963" height="15.948" viewBox="0 0 15.963 15.948">
    <defs>
        <clipPath id="clip-path">
            <rect id="Rectangle_7068" data-name="Rectangle 7068" width="15.963" height="15.948" fill="#909090"/>
        </clipPath>
    </defs>
    <g id="Group_13552" data-name="Group 13552" clip-path="url(#clip-path)">
        <path id="Path_64577" data-name="Path 64577" d="M9.846,43.1l3.44,3.439a.794.794,0,0,0-.135.091Q8.862,50.92,4.573,55.2a.808.808,0,0,1-.353.2c-1.254.321-2.51.631-3.766.942A.344.344,0,0,1,.016,55.9q.474-1.914.953-3.827a.541.541,0,0,1,.138-.236q4.327-4.334,8.658-8.663c.029-.029.061-.054.081-.072" transform="translate(-0.001 -40.414)" fill="#909090"/>
        <path id="Path_64578" data-name="Path 64578" d="M174.18,1.694c.417-.428.823-.9,1.285-1.3a1.727,1.727,0,0,1,2.266.069c.379.346.743.711,1.087,1.092a1.7,1.7,0,0,1-.041,2.34c-.4.411-.806.808-1.2,1.2l-3.4-3.4" transform="translate(-163.304 0)" fill="#909090"/>
    </g>
</svg>
