<svg id="Group_13626" data-name="Group 13626" xmlns="http://www.w3.org/2000/svg" xmlns:xlink="http://www.w3.org/1999/xlink" width="26.088" height="23.573" viewBox="0 0 26.088 23.573">
    <defs>
        <clipPath id="clip-path">
            <rect id="Rectangle_7078" data-name="Rectangle 7078" width="26.088" height="23.573" fill="#909090"/>
        </clipPath>
    </defs>
    <g id="Group_13625" data-name="Group 13625" clip-path="url(#clip-path)">
        <path id="Path_64596" data-name="Path 64596" d="M6.788,23.565A6.792,6.792,0,0,1,2.082,11.874Q6.259,7.689,10.443,3.51c.523-.524,1.042-1.052,1.571-1.569a.871.871,0,0,1,1.225-.084.884.884,0,0,1,.045,1.326c-.363.382-.743.749-1.116,1.121-3,3-6,5.983-8.986,8.995a4.786,4.786,0,0,0-1.23,5.133,4.784,4.784,0,0,0,4,3.4,4.721,4.721,0,0,0,4.269-1.367q6.546-6.508,13.056-13.052a3.123,3.123,0,0,0,.843-3.264A3.086,3.086,0,0,0,21.686,1.9a3.133,3.133,0,0,0-3.017.918Q15.383,6.094,12.11,9.38q-1.894,1.895-3.786,3.791a1.482,1.482,0,1,0,2.084,2.1c.617-.6,1.219-1.216,1.827-1.824q2.394-2.4,4.79-4.79A.887.887,0,0,1,18.563,9a.863.863,0,0,1-.236.867c-.178.188-.365.368-.548.551q-3.052,3.053-6.105,6.1A3.256,3.256,0,1,1,6.99,12q4.484-4.507,8.989-8.992a25.315,25.315,0,0,1,1.913-1.852A4.772,4.772,0,0,1,22.867.374a4.79,4.79,0,0,1,3.149,3.908A4.881,4.881,0,0,1,24.526,8.7L18.3,14.92q-3.288,3.287-6.574,6.578a6.881,6.881,0,0,1-4.246,2.063,6.344,6.344,0,0,1-.693,0" transform="translate(0 0)" fill="#909090"/>
    </g>
</svg>
