<svg id="Group_13548" data-name="Group 13548" xmlns="http://www.w3.org/2000/svg" xmlns:xlink="http://www.w3.org/1999/xlink" width="21.854" height="21.863" viewBox="0 0 21.854 21.863">
    <defs>
        <clipPath id="clip-path">
            <rect id="Rectangle_7067" data-name="Rectangle 7067" width="21.854" height="21.863" fill="#00a9dc"/>
        </clipPath>
    </defs>
    <g id="Group_13547" data-name="Group 13547" clip-path="url(#clip-path)">
        <path id="Path_64576" data-name="Path 64576" d="M21.854,10.943A10.927,10.927,0,1,1,10.945,0,10.949,10.949,0,0,1,21.854,10.943M14.962,10.3a19.126,19.126,0,0,0-.391-3.488H7.278A19.02,19.02,0,0,0,6.9,10.3Zm0,1.267H6.913a16.1,16.1,0,0,0,.38,3.484h7.28a19.1,19.1,0,0,0,.387-3.484M7.589,16.327c.077.246.141.473.219.695a8.419,8.419,0,0,0,1.464,2.7,2.323,2.323,0,0,0,1.433.892,1.932,1.932,0,0,0,1.681-.695,7.8,7.8,0,0,0,1.755-3.2c.04-.124.07-.251.108-.391a51.385,51.385,0,0,0-6.66,0m6.676-10.79c-.077-.246-.141-.473-.219-.695A8.731,8.731,0,0,0,12.6,2.165a2.617,2.617,0,0,0-1.08-.811,1.81,1.81,0,0,0-2.031.571A6.759,6.759,0,0,0,7.956,4.459c-.129.347-.243.7-.373,1.077a51.468,51.468,0,0,0,6.682,0M6,6.663c-.048-.009-.117-.025-.187-.034-1.068-.131-2.135-.264-3.2-.384a.293.293,0,0,0-.233.127,10.227,10.227,0,0,0-.451.948A9.38,9.38,0,0,0,1.257,10.3h4.35L6,6.663M20.6,11.572H16.247l-.4,3.624c1.139.144,2.284.291,3.43.427a.256.256,0,0,0,.192-.123A9.491,9.491,0,0,0,20.6,11.572M15.85,6.662l.4,3.636H20.6a9.412,9.412,0,0,0-1.139-3.949.329.329,0,0,0-.27-.1c-.427.046-.852.119-1.279.171-.688.084-1.377.159-2.06.238M6,15.2l-.4-3.635H1.255a9.739,9.739,0,0,0,1.109,3.918c.078.149.173.15.31.13.568-.081,1.136-.158,1.7-.228C4.923,15.322,5.47,15.265,6,15.2M18.647,16.8a.574.574,0,0,0-.1-.038c-.973-.111-1.946-.223-2.92-.325-.046,0-.129.071-.148.125-.109.316-.192.64-.3.954a11.378,11.378,0,0,1-1.4,2.688,9.756,9.756,0,0,0,4.867-3.4M3.206,5.068a1.178,1.178,0,0,0,.178.052c.9.1,1.808.194,2.71.307.206.026.274-.036.322-.224a10.472,10.472,0,0,1,1.2-2.828c.136-.225.279-.446.444-.71a9.744,9.744,0,0,0-4.853,3.4M13.787,1.662c.167.253.313.462.446.679a11.353,11.353,0,0,1,1.2,2.828c.056.2.111.289.346.258.663-.087,1.331-.14,2-.214.286-.032.571-.082.891-.13a9.8,9.8,0,0,0-4.873-3.421M7.972,20.171c-.343-.668-.721-1.341-1.038-2.041a15.884,15.884,0,0,1-.546-1.55c-.035-.1-.058-.163-.19-.148-.72.081-1.442.149-2.162.228-.27.03-.538.077-.842.122a9.711,9.711,0,0,0,4.778,3.389" transform="translate(0 -0.001)" fill="#00a9dc"/>
    </g>
</svg>
