<svg id="Group_13532" data-name="Group 13532" xmlns="http://www.w3.org/2000/svg" xmlns:xlink="http://www.w3.org/1999/xlink" width="15.588" height="18.481" viewBox="0 0 15.588 18.481">
    <defs>
        <clipPath id="clip-path">
            <rect id="Rectangle_7061" data-name="Rectangle 7061" width="15.588" height="18.481" fill="#00a9dc"/>
        </clipPath>
    </defs>
    <g id="Group_13531" data-name="Group 13531" clip-path="url(#clip-path)">
        <path id="Path_64566" data-name="Path 64566" d="M0,9.235Q0,5.1,0,.97A.868.868,0,0,1,.966,0h13.66a.87.87,0,0,1,.96.961q0,6.74,0,13.48a1.034,1.034,0,0,1-.318.775q-1.479,1.468-2.948,2.947a1.027,1.027,0,0,1-.773.318q-5.3-.006-10.592,0A.865.865,0,0,1,0,17.518q0-4.141,0-8.283M1.094,1.087v16.3h10.14v-.208c0-.728.014-1.456,0-2.183-.014-.547.2-.883.849-.861.733.025,1.467.006,2.2.006h.209V1.087ZM13.7,15.239H12.336v1.382l1.3-1.3c.02-.02.036-.043.067-.08" transform="translate(0 0)" fill="#00a9dc"/>
        <path id="Path_64567" data-name="Path 64567" d="M71.845,70.219c.772.045.937.221.937.964,0,.872,0,1.744,0,2.615a1.939,1.939,0,0,1-1.544,1.935,1.455,1.455,0,0,1-.321.039c-.787,0-1.576.021-2.361-.026a1.887,1.887,0,0,1-1.683-1.8c-.013-1.016-.006-2.032,0-3.048a.661.661,0,0,1,.674-.672c.078,0,.156,0,.263,0,0-.077,0-.146,0-.215a12.957,12.957,0,0,1,.039-1.367,2,2,0,0,1,3.922-.173,6.522,6.522,0,0,1,.076,1.092c.01.214,0,.429,0,.654m-.146,1.1h-3.75c0,.806,0,1.6,0,2.391a.873.873,0,0,0,.975.98q.893,0,1.785,0A.885.885,0,0,0,71.7,73.7q0-1.091,0-2.182v-.2m-.943-1.1c0-.447.024-.874-.006-1.3a.927.927,0,0,0-.951-.89.947.947,0,0,0-.911.99c0,.295,0,.589,0,.884v.314Z" transform="translate(-62.031 -62.109)" fill="#00a9dc"/>
    </g>
</svg>
