
<svg id="Group_13537" data-name="Group 13537" xmlns="http://www.w3.org/2000/svg" xmlns:xlink="http://www.w3.org/1999/xlink" width="17.064" height="17.096" viewBox="0 0 17.064 17.096">
    <defs>
        <clipPath id="clip-path">
            <rect id="Rectangle_7063" data-name="Rectangle 7063" width="17.064" height="17.096" fill="#ff6470"/>
        </clipPath>
    </defs>
    <g id="Group_13536" data-name="Group 13536" clip-path="url(#clip-path)">
        <path id="Path_64570" data-name="Path 64570" d="M0,8.537Q0,5.616,0,2.695A2.646,2.646,0,0,1,1.807.154,2.727,2.727,0,0,1,2.655.009Q6.026-.008,9.4,0a2.669,2.669,0,0,1,2.651,2.643c0,.445,0,.89,0,1.335a.667.667,0,1,1-1.333-.006c0-.412,0-.823,0-1.235a1.345,1.345,0,0,0-1.407-1.4q-3.279,0-6.558,0A1.344,1.344,0,0,0,1.335,2.753q0,5.8,0,11.6a1.342,1.342,0,0,0,1.4,1.407q3.287,0,6.575,0a1.343,1.343,0,0,0,1.4-1.4c0-.412,0-.824,0-1.235a.668.668,0,1,1,1.333-.006c0,.445,0,.89,0,1.335a2.664,2.664,0,0,1-2.31,2.606,3.032,3.032,0,0,1-.4.029q-3.312,0-6.625,0A2.661,2.661,0,0,1,.056,14.942,2.852,2.852,0,0,1,0,14.363Q0,11.45,0,8.537" transform="translate(0 0)" fill="#ff6470"/>
        <path id="Path_64571" data-name="Path 64571" d="M106.567,87.568c-.349-.343-.706-.678-1.044-1.031a.659.659,0,0,1,.334-1.111.6.6,0,0,1,.585.159c.539.531,1.08,1.06,1.6,1.608a1.479,1.479,0,0,1,.383.984,1.732,1.732,0,0,1-.585,1.407c-.466.446-.912.912-1.372,1.365a.644.644,0,0,1-.8.113.631.631,0,0,1-.319-.721.93.93,0,0,1,.225-.377c.317-.335.65-.654,1.016-1.018H98.645a.669.669,0,1,1-.119-1.332c.061,0,.122,0,.183,0h7.836l.022-.045" transform="translate(-91.364 -79.697)" fill="#ff6470"/>
    </g>
</svg>
