
<svg id="Group_13546" data-name="Group 13546" xmlns="http://www.w3.org/2000/svg" xmlns:xlink="http://www.w3.org/1999/xlink" width="20.657" height="20.634" viewBox="0 0 20.657 20.634">
    <defs>
        <clipPath id="clip-path">
            <rect id="Rectangle_7066" data-name="Rectangle 7066" width="20.657" height="20.634" fill="#00a9dc"/>
        </clipPath>
    </defs>
    <g id="Group_13545" data-name="Group 13545" clip-path="url(#clip-path)">
        <path id="Path_64574" data-name="Path 64574" d="M14.986,18.3c-.383,0-.766.005-1.149,0a.417.417,0,0,0-.336.136c-.47.48-.947.954-1.424,1.428a2.364,2.364,0,0,1-3.494,0c-.481-.479-.956-.964-1.444-1.436a.476.476,0,0,0-.3-.121c-.8-.016-1.6.009-2.4-.033a2.344,2.344,0,0,1-2.1-2.207c-.013-.753-.007-1.506,0-2.258a.4.4,0,0,0-.128-.317c-.489-.48-.973-.966-1.456-1.452A2.355,2.355,0,0,1,.743,8.589c.484-.495.982-.976,1.463-1.474A.5.5,0,0,0,2.335,6.8c.011-.7,0-1.4.006-2.1a2.377,2.377,0,0,1,2.4-2.4c.685,0,1.371,0,2.056,0a.482.482,0,0,0,.385-.163c.459-.472.928-.935,1.394-1.4a2.418,2.418,0,0,1,3.493,0c.482.478.957.963,1.444,1.436a.472.472,0,0,0,.294.122c.692.01,1.384.005,2.076.006a2.376,2.376,0,0,1,2.428,2.416c0,.692,0,1.385.006,2.077a.5.5,0,0,0,.127.312c.518.537,1.06,1.05,1.571,1.594A2.334,2.334,0,0,1,20,11.934c-.512.534-1.045,1.046-1.561,1.576a.442.442,0,0,0-.115.276c-.01.692,0,1.385-.006,2.077A2.373,2.373,0,0,1,15.893,18.3c-.3,0-.6,0-.907,0m-4.011-8q0-2.238,0-4.475a.648.648,0,0,0-.681-.687A5.135,5.135,0,0,0,6.7,6.526a5.406,5.406,0,0,0-1.022,6.126,4.859,4.859,0,0,0,4.533,2.808.656.656,0,0,0,.761-.741q0-2.207,0-4.415" transform="translate(0 -0.001)" fill="#00a9dc"/>
        <path id="Path_64575" data-name="Path 64575" d="M69.607,68.8q0,2.207,0,4.415a.656.656,0,0,1-.761.741,4.859,4.859,0,0,1-4.533-2.808,5.406,5.406,0,0,1,1.022-6.126,5.135,5.135,0,0,1,3.59-1.384.648.648,0,0,1,.681.687q0,2.238,0,4.475" transform="translate(-58.632 -58.492)" fill="#fff"/>
    </g>
</svg>
