<svg id="Group_13541" data-name="Group 13541" xmlns="http://www.w3.org/2000/svg" xmlns:xlink="http://www.w3.org/1999/xlink" width="19.045" height="21.196" viewBox="0 0 19.045 21.196">
    <defs>
        <clipPath id="clip-path">
            <rect id="Rectangle_7065" data-name="Rectangle 7065" width="19.045" height="21.196" fill="#00a9dc"/>
        </clipPath>
    </defs>
    <g id="Group_13540" data-name="Group 13540" clip-path="url(#clip-path)">
        <path id="Path_64573" data-name="Path 64573" d="M13.234,18.166a3.8,3.8,0,0,1-7.439,0H1.573a1.457,1.457,0,0,1-1.412-.851,1.5,1.5,0,0,1,.193-1.639c.469-.642.935-1.287,1.355-1.961a1.752,1.752,0,0,0,.238-.867c.022-1.733-.018-3.467.017-5.2a7.371,7.371,0,0,1,4.542-7A7.557,7.557,0,0,1,17.083,7.662c0,1.718,0,3.435,0,5.153a1.72,1.72,0,0,0,.326,1.037q.677.952,1.341,1.914a1.456,1.456,0,0,1,.116,1.584,1.43,1.43,0,0,1-1.339.814c-1.339.007-2.679,0-4.018,0h-.272m4.273-1.519c-.463-.667-.9-1.3-1.342-1.932a3.2,3.2,0,0,1-.6-1.9q.011-2.576,0-5.152a6.957,6.957,0,0,0-.088-1.08,6.046,6.046,0,0,0-12.01.984q-.009,2.647,0,5.294a3.065,3.065,0,0,1-.542,1.776c-.311.454-.628.905-.941,1.358-.146.21-.29.421-.45.653ZM11.62,18.183H7.408A2.251,2.251,0,0,0,9.65,19.677a2.213,2.213,0,0,0,1.97-1.494" transform="translate(0 0)" fill="#00a9dc"/>
    </g>
</svg>
