<svg xmlns="http://www.w3.org/2000/svg" width="24" height="24" viewBox="0 0 24 24">
    <g id="Group_327" data-name="Group 327" transform="translate(-320 -768)">
        <rect id="Rectangle_378" data-name="Rectangle 378" width="24" height="24" transform="translate(320 768)" fill="#999" opacity="0"/>
        <path id="Vector_90_Stroke_" data-name="Vector 90 (Stroke)" d="M.05,1.6A1.25,1.25,0,0,1,1.865.165L16.032,8.133a1.25,1.25,0,0,1,0,2.179L1.865,18.281,1.5,17.628l.368.654A1.25,1.25,0,0,1,.05,16.85L2.22,9.223ZM3.566,9.973l-1.907,6.7L14.91,9.223,1.659,1.769l1.907,6.7H8.119a.75.75,0,0,1,0,1.5ZM15.3,9.441h0" transform="translate(324.561 770.777)" fill="#fff"/>
        <path id="Vector_90_Stroke_2" data-name="Vector 90 (Stroke)" d="M15.3,9.441h0" transform="translate(324.561 770.777)" fill="#fff"/>
    </g>
</svg>
