<svg id="Group_13169" data-name="Group 13169" xmlns="http://www.w3.org/2000/svg" xmlns:xlink="http://www.w3.org/1999/xlink" width="21.322" height="21.333" viewBox="0 0 21.322 21.333">
    <defs>
        <clipPath id="clip-path">
            <rect id="Rectangle_6941" data-name="Rectangle 6941" width="21.322" height="21.333" fill="#00a9dc"/>
        </clipPath>
    </defs>
    <g id="Group_13168" data-name="Group 13168" clip-path="url(#clip-path)">
        <path id="Path_63202" data-name="Path 63202" d="M18.349,14.67c.108.1.236.192.344.308a1.941,1.941,0,0,1,.026,2.692c-.332.363-.681.713-1.044,1.046a1.946,1.946,0,0,1-2.724-.036c-.327-.311-.325-.307-.731-.129-.253.111-.509.219-.771.3a.2.2,0,0,0-.164.236,2.089,2.089,0,0,1-.366,1.418,1.809,1.809,0,0,1-1.376.8,10.591,10.591,0,0,1-1.909-.032,1.886,1.886,0,0,1-1.6-1.872c-.009-.479-.011-.476-.454-.655-.25-.1-.5-.2-.74-.326a.187.187,0,0,0-.265.05,2.137,2.137,0,0,1-1.219.74,1.867,1.867,0,0,1-1.645-.442c-.391-.352-.765-.727-1.121-1.115A1.932,1.932,0,0,1,2.6,15.011a4.241,4.241,0,0,1,.364-.323c-.185-.469-.345-.888-.521-1.3-.022-.051-.125-.082-.2-.093a6.131,6.131,0,0,1-.958-.134A1.889,1.889,0,0,1,0,11.372,13.982,13.982,0,0,1,.051,9.628a1.9,1.9,0,0,1,1.84-1.59c.172,0,.382.043.5-.039s.127-.293.192-.446c.12-.286.245-.571.386-.9-.108-.095-.237-.191-.345-.307A1.937,1.937,0,0,1,2.6,3.657c.338-.367.692-.722,1.06-1.059a1.942,1.942,0,0,1,2.692.034c.115.108.22.277.352.3s.271-.111.411-.168c.249-.1.5-.211.753-.293a.2.2,0,0,0,.164-.236A2.056,2.056,0,0,1,8.45.755,1.882,1.882,0,0,1,9.94.007,13.6,13.6,0,0,1,11.7.052a1.9,1.9,0,0,1,1.58,1.807c0,.18-.054.4.032.528s.317.14.481.21c.229.1.459.194.681.306a.188.188,0,0,0,.266-.046,2.119,2.119,0,0,1,1.238-.746,1.839,1.839,0,0,1,1.593.417,15.061,15.061,0,0,1,1.207,1.2,1.935,1.935,0,0,1-.061,2.581,4.189,4.189,0,0,1-.365.326c.184.466.345.885.519,1.3a.244.244,0,0,0,.175.094,6.259,6.259,0,0,1,.883.1,1.913,1.913,0,0,1,1.382,1.824A13.778,13.778,0,0,1,21.27,11.7a1.9,1.9,0,0,1-1.839,1.592c-.172,0-.382-.044-.5.038s-.128.293-.192.446c-.12.286-.245.571-.386.9m-17.1-4.011c0,.215,0,.43,0,.645a.706.706,0,0,0,.73.736c.284,0,.569,0,.854,0a.63.63,0,0,1,.665.512,7.9,7.9,0,0,0,.753,1.817.619.619,0,0,1-.1.848c-.2.205-.4.4-.6.606a.7.7,0,0,0,.006,1.038q.444.453.9.9a.7.7,0,0,0,1.053.011c.2-.192.392-.393.591-.587a.618.618,0,0,1,.845-.117,8.124,8.124,0,0,0,1.836.76.631.631,0,0,1,.506.67c0,.291,0,.583,0,.875a.7.7,0,0,0,.7.7q.676.011,1.353,0a.7.7,0,0,0,.7-.7c0-.291,0-.583,0-.875a.63.63,0,0,1,.508-.669,8.022,8.022,0,0,0,1.836-.76.616.616,0,0,1,.845.119c.194.189.381.385.575.573a.705.705,0,0,0,1.068,0q.445-.438.883-.883a.705.705,0,0,0,0-1.068c-.192-.2-.394-.391-.587-.591a.61.61,0,0,1-.109-.829,8.065,8.065,0,0,0,.761-1.836.631.631,0,0,1,.666-.511c.284,0,.569,0,.854,0a.7.7,0,0,0,.728-.717q.008-.656,0-1.312a.7.7,0,0,0-.72-.725c-.284,0-.569,0-.854,0a.632.632,0,0,1-.673-.5,8.025,8.025,0,0,0-.759-1.837A.615.615,0,0,1,17.18,6.1c.193-.2.4-.39.587-.591a.7.7,0,0,0-.008-1.053q-.445-.452-.9-.9a.7.7,0,0,0-1.037-.009c-.2.191-.392.393-.591.587a.623.623,0,0,1-.862.119A7.9,7.9,0,0,0,12.554,3.5a.634.634,0,0,1-.515-.684c0-.284,0-.569,0-.854a.7.7,0,0,0-.712-.711q-.666-.009-1.332,0a.7.7,0,0,0-.709.714c0,.285,0,.569,0,.854a.635.635,0,0,1-.518.682,8.015,8.015,0,0,0-1.816.754.622.622,0,0,1-.861-.123c-.2-.194-.39-.4-.591-.587a.7.7,0,0,0-1.037.013q-.453.445-.9.9a.7.7,0,0,0,0,1.053c.192.2.394.391.587.591a.617.617,0,0,1,.111.846A8.01,8.01,0,0,0,3.5,8.764a.634.634,0,0,1-.679.521c-.278,0-.555,0-.833,0a.707.707,0,0,0-.739.748c0,.208,0,.416,0,.625" transform="translate(0 0)" fill="#00a9dc"/>
        <path id="Path_63203" data-name="Path 63203" d="M76.927,81.583a4.634,4.634,0,1,1,4.634-4.64,4.626,4.626,0,0,1-4.634,4.64m-3.383-4.636a3.384,3.384,0,1,0,3.38-3.383,3.375,3.375,0,0,0-3.38,3.383" transform="translate(-66.267 -66.285)" fill="#00a9dc"/>
    </g>
</svg>
