<svg id="Group_13513" data-name="Group 13513" xmlns="http://www.w3.org/2000/svg" xmlns:xlink="http://www.w3.org/1999/xlink" width="20.812" height="20.78" viewBox="0 0 20.812 20.78">
    <defs>
        <clipPath id="clip-path">
            <rect id="Rectangle_7059" data-name="Rectangle 7059" width="20.812" height="20.78" fill="#00a9dc"/>
        </clipPath>
    </defs>
    <g id="Group_13512" data-name="Group 13512" clip-path="url(#clip-path)">
        <path id="Path_64560" data-name="Path 64560" d="M125.584,10.312a10.366,10.366,0,0,1-4.771,8.755,1.214,1.214,0,1,1-1.328-2.022,7.991,7.991,0,0,0-2.66-14.54c-.177-.036-.356-.063-.534-.1a1.226,1.226,0,0,1-1.024-1.4,1.219,1.219,0,0,1,1.466-.985,10.3,10.3,0,0,1,8.43,7.4,9.754,9.754,0,0,1,.421,2.889" transform="translate(-104.772 0)" fill="#00a9dc"/>
        <path id="Path_64561" data-name="Path 64561" d="M10.418,111.824a10.476,10.476,0,0,1-10.18-8.24,14.136,14.136,0,0,1-.236-2.2,1.177,1.177,0,0,1,1.2-1.233,1.223,1.223,0,0,1,1.2,1.224,7.973,7.973,0,0,0,5.182,7.47,7.766,7.766,0,0,0,4.387.355,1.214,1.214,0,1,1,.462,2.376c-.67.1-1.346.167-2.019.248" transform="translate(0 -91.044)" fill="#00a9dc"/>
        <path id="Path_64562" data-name="Path 64562" d="M8.383,12.389A1.206,1.206,0,0,1,7.263,10.7a10.425,10.425,0,0,1,6.164-5.9,1.209,1.209,0,1,1,.836,2.268A8.311,8.311,0,0,0,12.1,8.239,7.987,7.987,0,0,0,9.551,11.51a1.231,1.231,0,0,1-1.169.879" transform="translate(-6.515 -4.294)" fill="#00a9dc"/>
    </g>
</svg>
