<svg id="Group_13539" data-name="Group 13539" xmlns="http://www.w3.org/2000/svg" xmlns:xlink="http://www.w3.org/1999/xlink" width="15.127" height="14.489" viewBox="0 0 15.127 14.489">
    <defs>
        <clipPath id="clip-path">
            <rect id="Rectangle_7064" data-name="Rectangle 7064" width="15.127" height="14.489" fill="#00a774"/>
        </clipPath>
    </defs>
    <g id="Group_13538" data-name="Group 13538" clip-path="url(#clip-path)">
        <path id="Path_64572" data-name="Path 64572" d="M13.425,5.319a1.446,1.446,0,0,0,.512.45,3.765,3.765,0,0,1,.912.746,1.109,1.109,0,0,1-.143,1.6,5.514,5.514,0,0,1-.762.576c-.083.054-.158.12-.241.172a.539.539,0,0,0-.211.711,9.986,9.986,0,0,1,.32.968,1.481,1.481,0,0,1-.112,1.142l-.03.027c-.137.111-.244.264-.431.3a.062.062,0,0,0-.065.068l-.035-.008c-.049-.043-.056-.005-.063.033l-.233.029-.027,0c-.09.062-.187.022-.282.024a8.635,8.635,0,0,0-1.15.023.36.36,0,0,0-.3.213,8.847,8.847,0,0,0-.316.95,1.938,1.938,0,0,1-.493.861.979.979,0,0,1-.971.235,3.159,3.159,0,0,1-1.047-.63,3.842,3.842,0,0,0-.591-.376.213.213,0,0,0-.2,0,2.294,2.294,0,0,0-.641.428,2.363,2.363,0,0,1-1.286.618.85.85,0,0,1-.658-.249,1.331,1.331,0,0,1-.3-.387,5.657,5.657,0,0,1-.413-1.168c0-.043,0-.089-.056-.1-.048-.1-.1-.2-.143-.3s-.129-.054-.2-.068c-.005-.048-.036-.06-.078-.054-.41.006-.819-.016-1.229.021a1.182,1.182,0,0,1-.348-.076l-.015,0-.011.011a1.394,1.394,0,0,1-.614-.386A1.216,1.216,0,0,1,1.28,10.7a4.733,4.733,0,0,1,.29-.907c.068-.161.054-.339.114-.5A.244.244,0,0,0,1.6,9.03a3.456,3.456,0,0,0-.573-.441A3.138,3.138,0,0,1,.212,7.9a1.04,1.04,0,0,1-.174-.917A1.884,1.884,0,0,1,.924,5.952a5.129,5.129,0,0,0,.655-.5.338.338,0,0,0,.1-.338,6.021,6.021,0,0,0-.235-.729A3.283,3.283,0,0,1,1.227,3.4a3.721,3.721,0,0,1,.139-.586c.047,0,.09,0,.092-.066a1.154,1.154,0,0,1,.763-.394c.056-.008.11-.006.136-.067h.027a8.971,8.971,0,0,0,1.1.031.8.8,0,0,0,.372-.033A.276.276,0,0,0,4,2.158a3.335,3.335,0,0,0,.267-.723A3.78,3.78,0,0,1,4.593.578,1.077,1.077,0,0,1,6.062.122a4.125,4.125,0,0,1,.822.545c.1.077.206.146.3.227a.579.579,0,0,0,.8-.032C8.26.654,8.527.435,8.82.248A1.339,1.339,0,0,1,9.806.021a1.161,1.161,0,0,1,.825.76,6.809,6.809,0,0,1,.332,1.045.059.059,0,0,0,.057.065c.076.329.2.427.529.427.374,0,.748-.012,1.12,0a1.214,1.214,0,0,1,1.066.545.56.56,0,0,1,.1.275l.015.03a2.568,2.568,0,0,1-.209,1.28,3,3,0,0,0-.217.84l-.008.013ZM5.057,6.929a.457.457,0,0,0,.022.676q.7.719,1.422,1.421a.475.475,0,0,0,.657.049c.15-.1.292-.214.437-.322.764-.572,1.532-1.141,2.292-1.719.287-.218.4-.457.256-.728a.528.528,0,0,0-.5-.3L9.612,6a.5.5,0,0,0-.241.1c-.453.326-.891.672-1.349.992-.335.234-.651.494-.972.747-.1.08-.168.092-.271-.015-.3-.318-.621-.62-.933-.929l-.03-.026a.5.5,0,0,0-.735.033l-.024.024" transform="translate(0 0)" fill="#00a774"/>
    </g>
</svg>
